<svg xmlns="http://www.w3.org/2000/svg" viewBox="0 0 221.42 177.35"><defs><style>.cls-1{fill:#fff;}</style></defs><title>ags</title><g id="Layer_2" data-name="Layer 2"><g id="Layer_1-2" data-name="Layer 1"><path d="M31.8,177.35c.13-.25.24-.52.39-.76q48.61-75.53,97.25-151c.13-.2.27-.39.44-.64l22,34.75H151c-3.19,0-6.38,0-9.57,0a1,1,0,0,0-1,.58L105.17,115.9,88.32,142.49c-.17.26-.32.52-.53.86.26,0,.46,0,.66,0h46.91a.89.89,0,0,0,.92-.48q7.62-13.24,15.26-26.46c.09-.16.18-.32.32-.59H135.5c.14-.3.21-.48.31-.65Q143.1,102.59,150.38,90a.92.92,0,0,1,.9-.52q9.42,0,18.85,0a1,1,0,0,1,1,.58l30,47.42c6.36,10,12.69,20.09,19.1,30.09a6.16,6.16,0,0,1-1.53,8.69,15.52,15.52,0,0,1-2.89,1.14Z"/><path d="M0,170.59c.43-2.4,2-4.22,3.24-6.18Q47.94,93.79,92.69,23.2q6.38-10,12.74-20.09a6.11,6.11,0,0,1,10.63,0c3.29,5.17,6.55,10.36,9.86,15.53a1,1,0,0,1,0,1.33Q82.34,87.57,38.8,155.21,31.9,165.91,25,176.6c-.17.26-.37.5-.56.75H5.76a3.57,3.57,0,0,0-.4-.12,5.52,5.52,0,0,1-4.15-2.54A17.39,17.39,0,0,1,0,171.74Z"/><path class="cls-1" d="M0,171.74a17.39,17.39,0,0,0,1.21,2.95,5.52,5.52,0,0,0,4.15,2.54,3.57,3.57,0,0,1,.4.12H0Z"/></g></g></svg>