<svg width="23" height="28" viewBox="0 0 23 28" fill="none" xmlns="http://www.w3.org/2000/svg">
<g clip-path="url(#clip0_3_35)">
<path d="M20.8376 17.0602C20.8277 17.2829 20.8425 17.5155 20.798 17.7283C20.6594 18.3864 20.5506 19.0198 21.0355 19.6136C21.1592 19.767 21.1741 20.0441 21.1691 20.2569C21.1444 20.9892 21.5105 21.4098 22.134 21.7315C22.4458 21.8948 22.7625 22.1768 22.9109 22.4886C23.1435 22.9636 22.9109 23.498 22.3567 23.8395C21.6244 24.2997 20.8376 24.6807 20.1052 25.1458C19.4322 25.5714 18.7741 26.0316 18.1654 26.5363C17.1213 27.3974 15.6566 27.244 14.8748 26.1702C14.756 26.0069 14.5086 25.8881 14.3008 25.8485C12.742 25.5467 11.1833 25.5961 9.61962 25.8584C9.2188 25.9227 8.9219 26.0563 8.6349 26.3829C8.08068 27.0213 7.32358 27.0064 6.57143 26.8134C6.07164 26.6897 5.57681 26.5264 5.09681 26.3384C3.97848 25.9079 2.82057 25.6753 1.6478 25.4724C1.2173 25.3982 0.791737 25.2102 0.405764 25.0023C0.0544306 24.8143 -0.0742269 24.4679 0.0296887 24.0622C0.0989658 23.8048 0.217727 23.5574 0.242468 23.2952C0.282055 22.8152 0.361229 22.3154 0.262262 21.8552C0.0494822 20.8705 0.306797 20.3657 1.28657 20.1134C1.58348 20.0391 1.91007 19.9995 2.16243 19.8462C2.47418 19.6631 2.74634 19.3958 2.99871 19.1286C3.43911 18.6585 3.64694 18.0994 3.56777 17.4363C3.54303 17.2433 3.64199 17.0256 3.71622 16.8326C4.0923 15.8528 4.5228 14.8928 4.85929 13.9032C5.31949 12.5473 6.15576 11.424 7.03163 10.3354C7.58089 9.65252 7.85305 8.93501 7.79367 8.05915C7.70955 6.81711 7.65017 5.57012 7.63533 4.32313C7.63038 3.78376 7.7145 3.22954 7.84316 2.70501C8.20439 1.25514 9.29798 0.606908 10.639 0.300109C12.2175 -0.0561728 13.6624 0.220936 14.7808 1.47287C15.5626 2.34873 15.8991 3.43737 16.0278 4.58044C16.1465 5.6097 16.196 6.64391 16.2702 7.67812C16.3197 8.37089 16.6067 8.9647 16.9877 9.53376C17.9279 10.9242 18.878 12.3147 19.7687 13.7349C20.3972 14.7394 20.8722 15.8182 20.8227 17.0503L20.8376 17.0602ZM8.78335 9.21212C8.64479 10.2067 8.1648 11.0034 7.63533 11.7803C7.50667 11.9733 7.44729 12.2158 7.35822 12.4335C7.01678 13.2747 6.72483 14.1407 6.32896 14.9522C5.97762 15.6747 5.76484 16.4169 5.70052 17.1988C5.63619 18.04 5.88855 18.7674 6.58627 19.3117C7.20482 19.7967 7.81841 20.2866 8.40727 20.8012C9.18911 21.4841 9.19901 22.0828 8.48644 22.8102C8.88726 23.5574 9.46127 23.9731 10.352 23.8098C10.5153 23.7801 10.6885 23.7999 10.8567 23.7949C12.4056 23.7603 13.7762 23.2803 14.8253 22.0878C14.9935 21.8997 15.1074 21.6078 15.1321 21.3554C15.2014 20.6577 15.1915 19.955 15.2558 19.2573C15.3003 18.7724 15.5131 18.6091 15.9981 18.5596C16.1168 18.5497 16.2405 18.5447 16.3543 18.5398C16.6117 17.852 16.6364 16.1943 16.4038 15.3629C15.8397 13.3489 14.9688 11.4537 14.1028 9.5585C13.9494 9.21706 13.7663 8.89047 13.5882 8.54409C13.3606 8.648 13.1824 8.71728 13.0093 8.8113C12.3957 9.14284 11.7821 9.47933 11.1685 9.82571C10.5598 10.1671 9.99075 10.088 9.44148 9.68716C9.2386 9.53871 9.03571 9.39026 8.78829 9.20717L8.78335 9.21212ZM7.98666 24.458C7.88769 24.2749 7.73924 23.9286 7.53636 23.6218C7.06132 22.8943 6.55658 22.1917 6.07164 21.4742C5.69557 20.9199 5.36403 20.3261 4.93352 19.8115C4.3991 19.1682 4.25064 19.193 3.89931 19.9402C3.60736 20.5538 3.162 20.9051 2.49892 20.9991C2.26635 21.0338 2.03872 21.108 1.80615 21.1674C1.54389 21.2317 1.43008 21.39 1.5142 21.6622C1.70224 22.2758 1.62306 22.8745 1.42513 23.4733C1.1975 24.1611 1.24204 24.2057 1.9744 24.3294C2.11295 24.3541 2.2515 24.3739 2.39006 24.3986C3.3154 24.5471 4.2259 24.745 5.09187 25.131C5.62134 25.3685 6.2003 25.5269 6.76936 25.6605C7.37801 25.804 8.0015 25.2547 7.98666 24.4531V24.458ZM16.5226 20.3162C16.6859 21.7018 16.3296 23.0181 16.1168 24.3541C16.0723 24.6312 16.1168 24.9479 16.2108 25.2151C16.3939 25.7594 16.7948 25.9079 17.3044 25.6456C17.542 25.5269 17.7894 25.3982 17.9725 25.2151C18.8434 24.3244 19.9518 23.8098 21.0256 23.2407C21.2532 23.122 21.466 22.9785 21.7876 22.7855C20.6842 22.2906 19.9122 21.6573 20.0359 20.3806C19.9172 20.4696 19.8726 20.5241 19.8281 20.5785C19.2689 21.2713 18.5217 21.5138 17.6657 21.4544C17.1362 21.4197 16.7849 21.1278 16.6166 20.623C16.582 20.5241 16.5523 20.4202 16.5226 20.3212V20.3162ZM9.02087 7.98987C9.5157 8.33625 9.94621 8.6579 10.3916 8.9449C10.4757 8.99934 10.6489 8.97459 10.7478 8.92016C11.4852 8.53419 12.2126 8.12842 12.9845 7.70781C12.8756 7.61379 12.8311 7.55441 12.7717 7.52967C12.0938 7.26741 11.4159 7.01504 10.738 6.75773C10.2679 7.07937 9.79776 7.39606 9.32767 7.71771C9.25839 7.76224 9.19901 7.82657 9.01097 7.98987H9.02087ZM11.6188 5.97588C11.7672 5.12476 12.1086 4.67446 12.5738 4.74869C12.8163 4.78828 13.0934 4.97137 13.2418 5.1693C13.4002 5.38208 13.42 5.69878 13.4942 5.94125C13.7268 5.39692 13.6179 4.74869 13.2121 4.35282C12.8361 3.98169 12.3165 3.9619 11.9454 4.33798C11.5148 4.77343 11.4357 5.30291 11.6237 5.97588H11.6188ZM10.1095 5.69878C10.0402 5.40682 10.0353 5.08023 9.88683 4.83281C9.75323 4.61014 9.48107 4.36767 9.24849 4.34292C8.90706 4.30828 8.73386 4.62993 8.625 4.97631C9.33261 4.62993 9.54539 4.74869 10.1095 5.69878Z" fill="black"/>
</g>
<defs>
<clipPath id="clip0_3_35">
<rect width="23" height="26.934" fill="white" transform="translate(0 0.166504)"/>
</clipPath>
</defs>
</svg>
