<svg width="118" height="45" viewBox="0 0 118 45" fill="none" xmlns="http://www.w3.org/2000/svg">
<g clip-path="url(#clip0_6_124)">
<path d="M24.7531 19.7446C22.3618 19.5694 20.2986 20.0323 18.5731 21.6239C18.2622 21.3973 18.0115 21.1856 17.7345 21.0174C17.3966 20.7977 17.0103 20.6635 16.609 20.6263C16.2077 20.5892 15.8033 20.6502 15.4308 20.8041C15.0583 20.9579 14.7288 21.2001 14.4708 21.5097C14.2127 21.8193 14.0338 22.187 13.9495 22.5811C13.7705 23.6102 13.7729 24.6627 13.9564 25.691C14.0245 26.0144 14.1573 26.3207 14.3468 26.5914C14.5363 26.8621 14.7786 27.0917 15.0592 27.2664C15.8886 27.6908 16.1077 28.3089 16.255 29.0919C16.5377 30.5936 16.8866 32.0841 17.1178 33.5932C17.1201 33.7819 17.0758 33.9682 16.9887 34.1356C16.9017 34.303 16.7746 34.4463 16.6188 34.5528C12.2106 36.3556 5.21424 36.2671 0.75 34.3572C0.851007 34.0306 0.939042 33.684 1.06368 33.3518C2.62913 29.1642 4.1986 24.9778 5.77209 20.7926C7.35021 16.6161 10.6515 14.4222 15.1389 14.3208C18.8215 14.2374 21.8836 15.3207 24.072 18.4088C24.2422 18.6539 24.3993 18.9079 24.5427 19.1696C24.6251 19.3566 24.6953 19.5486 24.7531 19.7446Z" fill="#262F40"/>
<path d="M20.1318 38.9725C19.6874 37.9634 18.6834 36.7949 18.9146 35.9789C19.3988 34.2678 18.5981 32.8593 18.5031 31.3155C18.4407 30.7971 18.3361 30.2846 18.1904 29.7832C17.9184 28.6022 17.4954 27.429 18.7751 26.4801C19.0703 26.2619 19.1041 25.6924 19.2945 25.186C18.3961 25.1258 17.6687 24.8524 17.0566 25.7517C16.6679 26.323 15.7639 25.9496 15.6666 25.1957C15.5844 24.5286 15.5844 23.8539 15.6666 23.1867C15.6987 23.0327 15.7674 22.8887 15.867 22.7668C15.9665 22.6449 16.0939 22.5488 16.2384 22.4866C16.4761 22.431 16.8342 22.672 17.064 22.8675C17.2494 23.0255 17.3059 23.3225 17.4421 23.5444C17.9411 24.3585 18.5504 24.4637 19.1129 23.7033C20.5854 21.711 22.637 21.3565 24.8907 21.5358C25.0382 21.5588 25.1787 21.6144 25.302 21.6984C25.4254 21.7825 25.5285 21.893 25.6038 22.0219C26.1426 23.2493 26.6027 24.5109 27.1152 25.7508C27.3932 26.4245 27.2574 26.7317 26.4975 26.9448C26.2656 27.0405 26.0566 27.1844 25.8846 27.367C25.7125 27.5497 25.5812 27.7668 25.4995 28.004C25.2635 28.9054 25.0998 29.8242 25.0098 30.7516C24.8629 31.802 24.3551 32.3867 23.2264 32.2829C22.9303 32.2556 22.6282 32.2977 22.3312 32.2755C22.1663 32.2387 21.9952 32.2395 21.8306 32.2779C21.6661 32.3162 21.5123 32.3911 21.3806 32.4971C21.2489 32.603 21.1428 32.7372 21.0701 32.8898C20.9974 33.0423 20.96 33.2093 20.9607 33.3782C20.6961 35.2538 20.3926 37.1234 20.1049 38.9952L20.1318 38.9725Z" fill="#262F40"/>
<path d="M21.0098 4.48787C21.0081 5.3738 20.7438 6.23935 20.2503 6.97506C19.7567 7.71078 19.0561 8.28362 18.237 8.62117C17.4179 8.95872 16.5171 9.0458 15.6485 8.87142C14.7799 8.69703 13.9826 8.26901 13.3572 7.64146C12.7319 7.01392 12.3066 6.21503 12.1353 5.34583C11.964 4.47662 12.0542 3.57614 12.3947 2.75823C12.7351 1.94032 13.3104 1.24172 14.0478 0.750763C14.7853 0.259806 15.6518 -0.0014585 16.5377 6.12427e-06C17.7247 0.00587877 18.8611 0.481097 19.699 1.32191C20.5369 2.16273 21.0081 3.30087 21.0098 4.48787Z" fill="#F95F43"/>
<path d="M1.61644 36.5882C6.64529 38.0533 11.9983 37.9741 16.9816 36.3607L17.9717 38.7237C12.3193 39.6802 6.54764 39.6951 0.890397 38.7677C0.873727 38.6434 0.875278 38.5173 0.895021 38.3934C1.10769 37.8365 1.33427 37.2874 1.61644 36.5882Z" fill="#E6A429"/>
<path d="M17.8915 42.3202C14.865 42.8364 11.7977 43.0752 8.7277 43.0337C7.1992 42.5048 5.72955 41.8191 4.34223 40.9876C8.1964 41.3876 12.0842 41.3329 15.9256 40.8245C17.3749 40.6406 17.3772 40.6637 17.8915 42.3202Z" fill="#E6A429"/>
<path d="M20.1322 38.9725C20.1271 38.9846 20.1225 38.9971 20.1165 39.0091L20.1054 38.9943L20.1322 38.9725Z" fill="#262F40"/>
<path d="M23.4266 43.2811C22.0598 43.7038 20.6571 44.0001 19.2361 44.1665C19.2287 44.1517 19.2213 44.1387 19.2153 44.1239C21.1845 42.9767 19.2542 41.7822 19.4233 40.6531C19.6547 40.1051 19.8864 39.5571 20.1183 39.0091C20.8917 39.977 21.683 40.9297 22.4285 41.917C22.7663 42.3678 23.0976 42.8233 23.4266 43.2811Z" fill="#262F40"/>
<path d="M11.7218 12.5536L10.8526 10.8439H22.183L20.9899 13.2755C19.3566 13.0206 17.867 12.6981 16.3612 12.5805C14.8905 12.4623 13.4028 12.5536 11.7218 12.5536Z" fill="#262F40"/>
<path d="M11.751 8.86086C9.64973 9.11662 9.3657 9.31122 8.70035 6.82219C8.37602 5.60454 8.64383 4.22751 8.64383 2.92322L9.15721 2.84723L11.751 8.86086Z" fill="#262F40"/>
<path d="M23.9886 2.61554C24.6447 4.36 24.8073 5.80607 24.2935 7.27763C23.7152 8.93359 23.4821 9.05313 21.2855 8.92756L23.9886 2.61554Z" fill="#262F40"/>
</g>
<path d="M44.786 33.0833V14.9873H49.49L58.106 26.0513H58.154V14.9873H62.858V33.0833H58.154L49.538 21.9953H49.49V33.0833H44.786ZM78.4786 27.2033V27.6593H69.2866C69.2866 28.5553 69.5186 29.2433 69.9826 29.7233C70.4466 30.1873 71.1266 30.4193 72.0226 30.4193C72.4866 30.4193 72.8866 30.3313 73.2226 30.1553C73.5746 29.9793 73.8706 29.6913 74.1106 29.2913L78.3106 29.2673C77.9586 30.7393 77.1746 31.8113 75.9586 32.4833C74.7586 33.1553 73.4546 33.4913 72.0466 33.4913C70.0146 33.4913 68.3186 32.9393 66.9586 31.8353C65.5986 30.7153 64.9186 29.0913 64.9186 26.9633C64.9186 24.9153 65.5506 23.3073 66.8146 22.1393C68.0946 20.9713 69.7346 20.3873 71.7346 20.3873C73.8786 20.3873 75.5346 21.0033 76.7026 22.2353C77.8866 23.4673 78.4786 25.1313 78.4786 27.2273V27.2033ZM69.3586 25.1393H74.4226C74.3106 24.5633 74.0146 24.0993 73.5346 23.7473C73.0706 23.3953 72.5426 23.2193 71.9506 23.2193C71.3106 23.2193 70.7506 23.3873 70.2706 23.7233C69.7906 24.0433 69.4866 24.5233 69.3586 25.1633V25.1393ZM85.2791 24.3713V33.0833H80.9111V24.3713H79.3751V20.7713H80.9111V19.2113C80.9111 18.5553 80.9431 17.9473 81.0071 17.3873C81.0711 16.8273 81.2551 16.2833 81.5591 15.7553C81.6391 15.6113 81.7271 15.4753 81.8231 15.3473C81.9191 15.2033 82.0311 15.0593 82.1591 14.9153C82.7031 14.2753 83.3431 13.7873 84.0791 13.4513C84.8311 13.1153 85.6231 12.9473 86.4551 12.9473C86.7911 12.9473 87.1111 12.9793 87.4151 13.0433C87.7191 13.1073 88.0231 13.2193 88.3271 13.3793V17.1233C88.2631 17.1073 88.1911 17.0833 88.1111 17.0513C88.0471 17.0193 87.9751 16.9953 87.8951 16.9793C87.7191 16.8993 87.5431 16.8433 87.3671 16.8113C87.1911 16.7633 86.9991 16.7393 86.7911 16.7393C86.2311 16.7393 85.8391 16.9073 85.6151 17.2433C85.3911 17.5793 85.2791 18.0993 85.2791 18.8033V20.7713H88.3271V24.3713H85.2791ZM94.5598 24.3713V33.0833H90.1918V24.3713H88.7758V20.7713H90.1918V17.0753H94.5598V20.7713H97.0318V24.3713H94.5598ZM102.8 20.7713V33.0833H98.4322V20.7713H102.8ZM100.616 13.5953C101.288 13.6113 101.864 13.8593 102.344 14.3393C102.824 14.8193 103.064 15.3953 103.064 16.0673C103.064 16.7393 102.824 17.3153 102.344 17.7953C101.864 18.2753 101.288 18.5153 100.616 18.5153C99.9442 18.5153 99.3682 18.2753 98.8882 17.7953C98.4082 17.3153 98.1682 16.7393 98.1682 16.0673C98.1682 15.3953 98.4082 14.8193 98.8882 14.3393C99.3682 13.8593 99.9442 13.6193 100.616 13.6193V13.5953ZM115.274 21.1553L113.81 23.9393C113.618 23.8433 113.402 23.7553 113.162 23.6753C112.938 23.5953 112.706 23.5313 112.466 23.4833C112.29 23.4513 112.114 23.4273 111.938 23.4113C111.778 23.3793 111.618 23.3633 111.458 23.3633C111.378 23.3633 111.29 23.3713 111.194 23.3873C111.114 23.3873 111.034 23.4033 110.954 23.4353C110.73 23.4833 110.53 23.5713 110.354 23.6993C110.178 23.8113 110.09 23.9793 110.09 24.2033C110.09 24.4753 110.202 24.6833 110.426 24.8273C110.666 24.9553 110.93 25.0513 111.218 25.1153C111.378 25.1633 111.53 25.2033 111.674 25.2353C111.818 25.2513 111.946 25.2673 112.058 25.2833C113.082 25.4913 113.93 25.8673 114.602 26.4113C115.29 26.9553 115.634 27.7953 115.634 28.9313C115.634 30.4993 115.058 31.6433 113.906 32.3633C112.754 33.0673 111.482 33.4433 110.09 33.4913C110.042 33.4913 109.994 33.4913 109.946 33.4913C109.914 33.4913 109.874 33.4913 109.826 33.4913C108.946 33.4913 108.082 33.3713 107.234 33.1313C106.402 32.8913 105.61 32.5473 104.858 32.0993L106.442 29.0273C106.714 29.2353 107.026 29.4273 107.378 29.6033C107.73 29.7633 108.09 29.9073 108.458 30.0353C108.714 30.1153 108.962 30.1793 109.202 30.2273C109.442 30.2753 109.674 30.2993 109.898 30.2993C109.962 30.2993 110.026 30.2993 110.09 30.2993C110.17 30.2833 110.25 30.2673 110.33 30.2513C110.57 30.2033 110.786 30.1073 110.978 29.9633C111.17 29.8193 111.266 29.6193 111.266 29.3633C111.266 29.0113 111.098 28.7633 110.762 28.6193C110.426 28.4593 110.026 28.3313 109.562 28.2353C109.386 28.2033 109.21 28.1713 109.034 28.1393C108.874 28.0913 108.706 28.0433 108.53 27.9953C107.842 27.8193 107.21 27.5153 106.634 27.0833C106.074 26.6353 105.794 25.8593 105.794 24.7553C105.794 23.2673 106.346 22.1713 107.45 21.4673C108.554 20.7633 109.762 20.4033 111.074 20.3873C111.106 20.3873 111.13 20.3873 111.146 20.3873C111.178 20.3873 111.202 20.3873 111.218 20.3873C111.922 20.3873 112.61 20.4513 113.282 20.5793C113.97 20.6913 114.634 20.8913 115.274 21.1793V21.1553Z" fill="black"/>
<defs>
<clipPath id="clip0_6_124">
<rect width="26.5" height="44.1665" fill="white" transform="translate(0.75)"/>
</clipPath>
</defs>
</svg>
