<svg width="24" height="24" viewBox="0 0 24 24" fill="none" xmlns="http://www.w3.org/2000/svg">
<g clip-path="url(#clip0_3_74)">
<path d="M12.018 0.600458C18.3526 0.613394 23.5029 5.7737 23.5007 12.1041C23.4978 18.4588 18.3304 23.6156 11.9806 23.6005C5.62222 23.5861 0.473411 18.4107 0.500003 12.0638C0.527314 5.71692 5.68043 0.587521 12.018 0.600458ZM8.70833 12.0839C8.70833 13.1375 8.7033 14.1912 8.70977 15.2448C8.7148 16.0562 9.2948 16.4235 10.0171 16.0641C12.1243 15.0162 14.2266 13.9576 16.3331 12.9083C16.6809 12.7351 16.9282 12.4886 16.921 12.0846C16.9138 11.6987 16.6752 11.4666 16.3352 11.2977C14.2381 10.2563 12.1466 9.20192 10.0502 8.15836C9.28761 7.77889 8.71121 8.14255 8.70833 8.99565C8.70546 10.0256 8.70761 11.0547 8.70833 12.0846V12.0839Z" fill="white"/>
</g>
<defs>
<clipPath id="clip0_3_74">
<rect width="23" height="23" fill="white" transform="translate(0.5 0.600456)"/>
</clipPath>
</defs>
</svg>
