<?xml version="1.0" encoding="UTF-8"?>
<svg id="Layer_2" data-name="Layer 2" xmlns="http://www.w3.org/2000/svg" viewBox="0 0 39.67 39.67">
  <defs>
    <style>
      .cls-1 {
        fill: #fff;
        stroke-width: 0px;
      }
    </style>
  </defs>
  <g id="Layer_1-2" data-name="Layer 1">
    <g>
      <path class="cls-1" d="m39.67,19.82c0,10.96-8.88,19.85-19.84,19.85C8.88,39.67,0,30.78,0,19.82,0,8.86,8.91-.01,19.87,0c10.93.01,19.8,8.89,19.8,19.82Zm-31.25,11.67c.49,0,.83-.03,1.15,0,.61.08,1.02-.16,1.42-.63,2.2-2.6,4.43-5.18,6.65-7.76.18-.21.37-.42.58-.66.17.25.29.41.41.58,1.84,2.67,3.68,5.34,5.5,8.02.22.33.45.46.85.45,1.88-.02,3.76,0,5.64-.01.17,0,.34-.03.58-.05-3.1-4.52-6.15-8.95-9.2-13.4,2.82-3.28,5.6-6.52,8.48-9.87-.53,0-.88.04-1.23,0-.58-.07-.94.16-1.31.6-1.24,1.5-2.52,2.95-3.79,4.42-1.01,1.17-2.01,2.34-3.05,3.54-.15-.21-.28-.37-.39-.54-1.73-2.52-3.47-5.03-5.18-7.56-.22-.32-.44-.47-.85-.46-1.9.02-3.8,0-5.7.01-.15,0-.3.03-.52.06,2.98,4.34,5.91,8.6,8.86,12.9-2.95,3.43-5.88,6.83-8.91,10.36Z"/>
      <path class="cls-1" d="m11.23,9.67c.98,0,1.9-.02,2.82.02.18,0,.39.26.52.45,3.43,4.9,6.86,9.8,10.29,14.7,1.06,1.52,2.13,3.04,3.19,4.57.11.16.22.34.4.61-1.03,0-1.97.01-2.9-.01-.12,0-.28-.16-.36-.28-4.64-6.62-9.26-13.25-13.89-19.88-.01-.02-.01-.04-.06-.17Z"/>
    </g>
  </g>
</svg>