<svg width="23" height="23" viewBox="0 0 23 23" fill="none" xmlns="http://www.w3.org/2000/svg">
<g clip-path="url(#clip0_10_47)">
<path d="M11.4897 18.5646C7.62473 18.5637 4.47224 15.3932 4.48122 11.5166C4.4902 7.66966 7.65168 4.51537 11.495 4.51627C15.3591 4.51627 18.5035 7.68403 18.4963 11.5669C18.4891 15.4211 15.3402 18.5655 11.4897 18.5646ZM11.4789 17.2035C14.5694 17.217 17.1226 14.697 17.1442 11.6118C17.1658 8.46115 14.6664 5.90609 11.5292 5.87285C8.44317 5.83961 5.85757 8.39287 5.83601 11.4942C5.81445 14.6314 8.34345 17.1891 11.4789 17.2035Z" fill="white"/>
<path d="M19.3938 5.29337C19.4136 5.43981 19.4441 5.58625 19.4513 5.73359C19.4693 6.10373 19.2123 6.43075 18.8602 6.4595C18.4828 6.49094 18.1953 6.31396 18.1325 5.94112C17.9815 5.04182 17.8504 4.13803 17.7524 3.23244C17.703 2.77785 18.0714 2.45262 18.5242 2.53079C19.4666 2.6925 20.4054 2.87667 21.3416 3.07342C21.7189 3.15248 21.9273 3.50016 21.8599 3.84784C21.7881 4.22068 21.4655 4.44438 21.0595 4.39497C20.8888 4.37431 20.7199 4.33657 20.4674 4.29255C20.6201 4.51086 20.7199 4.65551 20.8223 4.79835C25.8605 11.8293 21.6335 21.6964 13.0691 22.894C11.8436 23.0656 10.6218 23.0233 9.40538 22.8032C9.31733 22.7871 9.22929 22.7664 9.14394 22.7412C8.75044 22.6263 8.53483 22.2894 8.62017 21.9273C8.70462 21.5697 9.04781 21.3523 9.45209 21.4296C10.5023 21.6299 11.5517 21.6829 12.6208 21.5805C16.9538 21.1672 20.7342 17.6392 21.4601 13.3233C21.93 10.5302 21.3595 7.9778 19.7613 5.64824C19.6705 5.51528 19.5663 5.3913 19.4684 5.26283C19.4432 5.27271 19.4181 5.28259 19.3938 5.29337Z" fill="#FED32C"/>
<path d="M3.58012 17.7336C3.56485 17.5566 3.5379 17.3985 3.54059 17.2421C3.54688 16.8594 3.75172 16.6106 4.12186 16.5567C4.47403 16.5054 4.775 16.6779 4.83699 17.0265C5.00139 17.9528 5.13975 18.8862 5.24037 19.8214C5.28529 20.241 4.90347 20.5536 4.46684 20.48C3.52352 20.3201 2.58469 20.1359 1.64856 19.9382C1.25056 19.8547 1.05112 19.4989 1.13916 19.1225C1.21912 18.7784 1.54434 18.5664 1.92526 18.6167C2.09596 18.6391 2.26486 18.6742 2.37267 18.6931C1.8516 17.7075 1.23529 16.7606 0.824721 15.731C-1.93068 8.82859 2.50743 1.19128 9.87074 0.114091C11.1546 -0.0736754 12.4375 -0.0287553 13.7087 0.246156C14.2154 0.355761 14.4526 0.6711 14.3601 1.08616C14.2747 1.47337 13.927 1.65485 13.4428 1.56501C7.70379 0.497709 2.33943 4.2692 1.4563 10.0423C1.03674 12.7888 1.7357 15.2926 3.35193 17.544C3.38696 17.5925 3.4238 17.6401 3.46513 17.6824C3.48309 17.7012 3.51633 17.7057 3.58012 17.7336Z" fill="white"/>
<path d="M12.1958 14.8281C12.1832 15.0348 12.1904 15.2306 12.1572 15.4202C12.0907 15.7903 11.867 16.0122 11.478 16.0023C11.0917 15.9924 10.8177 15.7643 10.8419 15.3923C10.876 14.8775 10.6748 14.7347 10.1978 14.6943C9.92105 14.67 9.63356 14.4921 9.39997 14.3178C9.09721 14.0932 9.0496 13.759 9.26162 13.4401C9.45747 13.1454 9.75934 13.0241 10.0819 13.1984C10.7934 13.5829 11.5481 13.3763 12.2838 13.3925C12.6163 13.3997 12.795 13.1319 12.7905 12.8166C12.7861 12.4779 12.5839 12.2479 12.2317 12.2308C11.7834 12.2093 11.3342 12.2263 10.885 12.2219C9.76023 12.2111 8.94179 11.4915 8.84117 10.4268C8.74414 9.40177 9.41165 8.55278 10.5185 8.34794C10.8159 8.29314 10.8311 8.13592 10.8194 7.91132C10.8015 7.55376 10.8994 7.2501 11.266 7.11623C11.7232 6.94823 12.1635 7.26627 12.1644 7.8089C12.1644 8.16916 12.2488 8.30392 12.6315 8.39197C13.0187 8.48091 13.3907 8.72977 13.7141 8.98042C14.0456 9.23736 14.0474 9.65242 13.803 9.93812C13.5623 10.2184 13.1634 10.2517 12.8382 9.99112C12.1293 9.42513 11.3244 9.68387 10.5562 9.74765C10.4233 9.75844 10.2382 10.1241 10.2211 10.337C10.1951 10.664 10.4565 10.8455 10.7745 10.8626C11.1779 10.8841 11.5822 10.8689 11.9865 10.8707C13.2173 10.8751 14.0609 11.5669 14.1498 12.6818C14.2307 13.6916 13.4958 14.6952 12.3153 14.7742C12.2883 14.776 12.2623 14.7985 12.1949 14.8308L12.1958 14.8281Z" fill="#FED32C"/>
</g>
<defs>
<clipPath id="clip0_10_47">
<rect width="22.9883" height="23" fill="white"/>
</clipPath>
</defs>
</svg>
