<svg width="23" height="23" viewBox="0 0 23 23" fill="none" xmlns="http://www.w3.org/2000/svg">
<g clip-path="url(#clip0_10_60)">
<path d="M22.9972 13.358C22.9972 16.0223 22.9972 18.6865 22.9972 21.3494C22.9972 22.4989 22.5059 22.9986 21.372 22.9986C16.5815 22.9986 11.7923 22.9986 7.00178 22.9986C5.89333 22.9986 5.38936 22.4932 5.38936 21.3819C5.38936 18.5832 5.3837 15.7845 5.39644 12.9857C5.39644 12.6729 5.35538 12.5639 4.99439 12.5667C2.23105 12.5908 0.00565809 10.3852 -4.49684e-06 7.65157C-0.00566708 4.89814 2.22398 2.68974 5.01563 2.71097C5.34972 2.7138 5.42192 2.61754 5.39361 2.31601C5.36812 2.04845 5.38653 1.77806 5.38936 1.50767C5.39785 0.549279 5.93155 0.00708685 6.89136 0.0056712C9.75097 0.00142426 12.6092 0.0056712 15.4688 0.0056712C16.2615 0.0056712 17.0557 0.0141651 17.8485 0.00142426C18.1259 -0.00282267 18.3312 0.0877787 18.5237 0.281722C19.9167 1.68321 21.3125 3.08187 22.7169 4.47062C22.9405 4.69146 23.0042 4.93212 23.0028 5.23224C22.9957 7.94178 22.9986 10.6499 22.9986 13.3595L22.9972 13.358ZM14.1933 22.1011C16.6041 22.1011 19.0135 22.1011 21.4244 22.1011C21.9552 22.1011 22.0968 21.9652 22.0968 21.4485C22.0982 16.2092 22.0954 10.9713 22.1039 5.73196C22.1039 5.45308 22.0345 5.38371 21.7585 5.38796C20.6217 5.40494 19.4835 5.39504 18.3454 5.39504C17.7211 5.39504 17.6064 5.2832 17.6064 4.67306C17.6064 3.53488 17.5951 2.39811 17.6135 1.25993C17.6191 0.959817 17.5299 0.891866 17.2426 0.896113C16.2247 0.9131 15.2069 0.903191 14.189 0.903191C11.7782 0.903191 9.36874 0.903191 6.9579 0.903191C6.42844 0.903191 6.29254 1.04051 6.28829 1.55863C6.28546 1.87291 6.30528 2.1886 6.28263 2.50146C6.2614 2.78175 6.34917 2.9035 6.63088 3.00684C8.58589 3.72033 9.87413 5.57058 9.87979 7.62043C9.88545 9.69435 8.60004 11.5531 6.6238 12.2737C6.33501 12.3784 6.2798 12.5101 6.28122 12.7833C6.28971 15.6415 6.28688 18.5011 6.28688 21.3593C6.28688 21.9949 6.39588 22.0997 7.05274 22.0997C9.43244 22.0997 11.8136 22.0997 14.1933 22.0997V22.1011ZM4.49042 5.74328C4.49042 5.18977 4.45079 4.632 4.50175 4.08273C4.54847 3.59575 4.32338 3.62689 3.99353 3.70617C1.88139 4.21297 0.560591 6.30246 0.988116 8.47265C1.34911 10.3116 3.0408 11.6819 4.94768 11.6805C6.83049 11.6805 8.51935 10.3116 8.89308 8.50238C8.96103 8.17678 8.91573 8.07061 8.54767 8.0791C7.39533 8.106 6.24158 8.08476 5.08924 8.09184C4.67729 8.09467 4.48335 7.90922 4.48901 7.49585C4.49609 6.91261 4.49042 6.32795 4.49042 5.7447V5.74328ZM5.38936 3.65945C5.38936 4.76366 5.39502 5.86645 5.38511 6.96923C5.38228 7.19857 5.5012 7.19291 5.66258 7.19291C6.66344 7.19007 7.6643 7.18158 8.66516 7.19715C8.93272 7.2014 8.9398 7.10655 8.90724 6.88571C8.66375 5.23507 7.0853 3.76704 5.38936 3.66087V3.65945ZM18.5053 1.64357C18.5053 2.52552 18.5067 3.40181 18.5039 4.27809C18.5039 4.41541 18.5209 4.50035 18.6922 4.49893C19.5812 4.49327 20.4702 4.4961 21.3536 4.4961C20.3995 3.54195 19.4665 2.60621 18.5053 1.64499V1.64357Z" fill="white"/>
<path d="M19.5925 14.642C19.383 14.5571 19.2344 14.6774 19.0815 14.8445C18.2109 15.7915 17.3346 16.7344 16.4512 17.6687C16.2898 17.8386 16.2389 17.9688 16.3366 18.2095C16.5673 18.7785 16.3861 19.3774 15.9274 19.7398C15.473 20.0979 14.8643 20.1333 14.3759 19.829C13.8861 19.5232 13.6398 18.9314 13.8025 18.351C13.862 18.1358 13.8365 17.99 13.6964 17.8244C13.3495 17.4124 13.0126 16.9934 12.6814 16.5687C12.561 16.4144 12.4563 16.304 12.2383 16.4031C12.1363 16.4498 11.9849 16.4739 11.8886 16.4328C11.4059 16.2276 11.1553 16.5333 10.892 16.8434C10.7079 17.06 10.5154 17.2695 10.3172 17.4719C9.99446 17.8003 9.74389 18.0863 9.85007 18.6511C9.99022 19.3958 9.25833 20.0583 8.49105 20.0342C7.72377 20.0102 7.11787 19.3236 7.19148 18.5634C7.26651 17.7975 7.99415 17.2015 8.73737 17.3742C9.06721 17.4507 9.23001 17.3487 9.41405 17.1307C9.6448 16.8561 9.88687 16.59 10.1417 16.3366C10.4829 15.9996 10.7532 15.6995 10.6273 15.1191C10.5126 14.5925 10.8509 14.148 11.3535 13.8974C11.8589 13.6454 12.3458 13.7077 12.7805 14.0517C13.2023 14.3858 13.3906 14.8487 13.2504 15.3654C13.1712 15.657 13.2264 15.8425 13.4062 16.0463C13.6143 16.2813 13.8054 16.5305 14.0022 16.7754C14.55 17.4592 14.55 17.4535 15.3909 17.3714C15.5353 17.3572 15.5962 17.2652 15.6755 17.1803C16.5857 16.2091 17.4903 15.2324 18.4048 14.2655C18.5478 14.114 18.562 14.0007 18.4813 13.8025C18.2406 13.2151 18.4204 12.6035 18.8975 12.2354C19.3675 11.873 20.0002 11.8589 20.4844 12.1986C20.9756 12.5426 21.1823 13.1867 20.9813 13.7516C20.7831 14.3094 20.2423 14.6633 19.5897 14.642H19.5925ZM12.3968 15.1078C12.3628 14.836 12.2227 14.6548 11.9381 14.6576C11.6805 14.6604 11.5135 14.8261 11.5092 15.0823C11.5035 15.3626 11.6748 15.5353 11.9565 15.5339C12.217 15.5339 12.3529 15.3598 12.3982 15.1064L12.3968 15.1078ZM8.98369 18.6724C8.93556 18.4204 8.79966 18.2477 8.53776 18.2505C8.25747 18.2533 8.08759 18.4275 8.09608 18.7078C8.10457 18.964 8.27162 19.1282 8.53068 19.1282C8.81381 19.1282 8.95255 18.9456 8.98369 18.6738V18.6724ZM15.5424 18.6681C15.4843 18.4006 15.3343 18.2236 15.0497 18.2519C14.7963 18.2774 14.6392 18.4487 14.6534 18.7092C14.6675 18.9654 14.8317 19.1296 15.0908 19.1268C15.3739 19.1254 15.5127 18.9413 15.5424 18.6667V18.6681ZM20.156 13.2957C20.1333 13.0254 19.9861 12.864 19.7299 12.8597C19.4481 12.8555 19.2839 13.0268 19.2882 13.3113C19.2924 13.5746 19.451 13.736 19.7086 13.7403C19.9918 13.7445 20.139 13.5704 20.1546 13.2957H20.156Z" fill="#FED32C"/>
<path d="M16.4172 8.08899C15.3541 8.08899 14.2924 8.08474 13.2292 8.09182C12.898 8.09324 12.5922 8.03378 12.5922 7.64165C12.5922 7.24951 12.898 7.18864 13.2278 7.19006C15.3683 7.1943 17.5073 7.1943 19.6477 7.19006C19.979 7.19006 20.2848 7.2481 20.2848 7.64023C20.2848 8.03237 19.9804 8.09324 19.6492 8.09182C18.5719 8.08616 17.4946 8.08899 16.4172 8.08899Z" fill="#FED32C"/>
<path d="M16.4272 9.88546C15.364 9.88546 14.3023 9.88121 13.2391 9.88829C12.9107 9.8897 12.6007 9.84016 12.5922 9.44661C12.5837 9.05447 12.8852 8.98511 13.2193 8.98511C15.3598 8.98935 17.4988 8.98935 19.6393 8.98511C19.9677 8.98511 20.282 9.03324 20.2862 9.42679C20.2905 9.85148 19.9564 9.8897 19.6152 9.88829C18.5535 9.88263 17.4903 9.88687 16.4272 9.88687V9.88546Z" fill="#FED32C"/>
<path d="M13.896 2.69963C14.6293 2.69963 15.3626 2.70388 16.0959 2.69822C16.4172 2.69539 16.6905 2.78174 16.6933 3.14415C16.6975 3.50514 16.43 3.6014 16.1058 3.59998C14.625 3.59574 13.1429 3.59574 11.6621 3.59998C11.3407 3.59998 11.0675 3.51646 11.0647 3.15406C11.0604 2.79307 11.328 2.69539 11.6522 2.69822C12.3996 2.70388 13.1485 2.69963 13.896 2.69963Z" fill="#FED32C"/>
<path d="M13.879 4.4961C14.6123 4.4961 15.3456 4.50034 16.0789 4.49468C16.4172 4.49185 16.7075 4.57679 16.6933 4.96751C16.6806 5.32849 16.396 5.39786 16.0789 5.39645C14.6123 5.39078 13.1457 5.3922 11.6805 5.39645C11.3422 5.39645 11.0519 5.31434 11.0661 4.92362C11.0788 4.56263 11.3634 4.49043 11.6805 4.49468C12.4138 4.50176 13.1471 4.49751 13.8804 4.49751L13.879 4.4961Z" fill="#FED32C"/>
<path d="M11.6847 7.63599C11.6253 7.92478 11.4766 8.10174 11.1978 8.07909C10.9274 8.05643 10.7646 7.87523 10.7901 7.59777C10.8141 7.34861 10.9812 7.19289 11.2374 7.19997C11.5191 7.20705 11.6423 7.39957 11.6833 7.63599H11.6847Z" fill="white"/>
<path d="M11.6791 9.45652C11.6253 9.71983 11.4781 9.8982 11.1992 9.87413C10.9288 9.85148 10.7646 9.67169 10.7901 9.39423C10.8127 9.14507 10.9798 8.98652 11.236 8.99502C11.5134 9.00351 11.6508 9.1833 11.6791 9.4551V9.45652Z" fill="white"/>
<path d="M4.77356 10.7801C3.2305 10.7433 1.83326 9.34326 1.79787 7.80162C1.79079 7.47743 1.87997 7.21412 2.23955 7.20563C2.57223 7.19714 2.67274 7.43921 2.70105 7.74641C2.81147 8.96245 3.61839 9.76653 4.83868 9.87979C5.14587 9.9081 5.38653 10.0129 5.37521 10.3455C5.36246 10.7065 5.09632 10.8028 4.77356 10.7816V10.7801Z" fill="#FED32C"/>
</g>
<defs>
<clipPath id="clip0_10_60">
<rect width="23.0014" height="23" fill="white"/>
</clipPath>
</defs>
</svg>
