<svg width="21" height="23" viewBox="0 0 21 23" fill="none" xmlns="http://www.w3.org/2000/svg">
<g clip-path="url(#clip0_10_169)">
<path d="M10.3829 9.18795C12.9719 9.18795 15.5588 9.18587 18.1477 9.18795C19.8073 9.19002 20.7118 10.0987 20.7118 11.7562C20.7118 14.6501 20.7118 17.544 20.7118 20.438C20.7118 22.0478 19.7804 22.9938 18.1747 22.9958C12.9636 23.0021 7.75035 23.0021 2.5392 22.9958C0.935607 22.9958 0.00208167 22.0457 0.00208167 20.438C0.00208167 17.5254 7.16723e-06 14.6148 0.00208167 11.7022C0.00208167 10.1194 0.925235 9.1921 2.51223 9.18795C5.13647 9.18172 7.76072 9.18795 10.385 9.18795H10.3829ZM2.32345 20.6371H18.3822V11.5259H2.32345V20.6371Z" fill="white"/>
<path d="M18.3946 4.60956V6.82513H2.32759V4.60956H18.3946Z" fill="white"/>
<path d="M4.64066 2.25498V0H16.0546V2.25498H4.64066Z" fill="#FED32C"/>
</g>
<defs>
<clipPath id="clip0_10_169">
<rect width="20.7139" height="23" fill="white"/>
</clipPath>
</defs>
</svg>
