<?xml version="1.0" encoding="UTF-8"?>
<svg id="Layer_2" xmlns="http://www.w3.org/2000/svg" viewBox="0 0 30.55 62.6">
  <defs>
    <style>
      .cls-1 {
        fill: #1a1a1a;
      }
    </style>
  </defs>
  <g id="BACKGROUND">
    <g>
      <path class="cls-1" d="M1.31,29.27C.58,29.27,0,28.69,0,27.97H0c0-.73.58-1.32,1.31-1.32h0c.72,0,1.31.59,1.31,1.31h0c0,.72-.59,1.3-1.31,1.3ZM1.31,35.94C.58,35.94,0,35.35,0,34.63H0C0,33.91.58,33.32,1.31,33.32h0c.72,0,1.31.58,1.31,1.31h0c0,.72-.59,1.31-1.31,1.31Z"/>
      <path class="cls-1" d="M8.51,22.61c-.73,0-1.31-.58-1.31-1.31h0c0-.72.58-1.31,1.31-1.31h0c.72,0,1.31.59,1.31,1.31h0c0,.73-.59,1.31-1.31,1.31ZM8.51,29.27c-.73,0-1.31-.58-1.31-1.3h0c0-.73.58-1.31,1.31-1.31h0c.72,0,1.31.58,1.31,1.31h0c0,.72-.59,1.3-1.31,1.3ZM8.51,35.94c-.73,0-1.31-.59-1.31-1.31h0c0-.73.58-1.31,1.31-1.31h0c.72,0,1.31.58,1.31,1.31h0c0,.72-.59,1.31-1.31,1.31ZM8.51,42.61c-.73,0-1.31-.59-1.31-1.31h0c0-.73.58-1.31,1.31-1.31h0c.72,0,1.31.58,1.31,1.31h0c0,.72-.59,1.31-1.31,1.31Z"/>
      <path class="cls-1" d="M15.49,15.95c-.72,0-1.31-.58-1.31-1.31h0c0-.72.59-1.31,1.31-1.31h0c.73,0,1.31.59,1.31,1.31h0c0,.73-.58,1.31-1.31,1.31ZM15.49,22.61c-.72,0-1.31-.58-1.31-1.31h0c0-.72.59-1.31,1.31-1.31h0c.73,0,1.31.59,1.31,1.31h0c0,.73-.58,1.31-1.31,1.31ZM15.49,29.28c-.72,0-1.31-.59-1.31-1.31h0c0-.73.59-1.31,1.31-1.31h0c.73,0,1.31.58,1.31,1.31h0c0,.72-.58,1.31-1.31,1.31ZM15.49,35.94c-.72,0-1.31-.59-1.31-1.31h0c0-.73.59-1.31,1.31-1.31h0c.73,0,1.31.58,1.31,1.31h0c0,.72-.58,1.31-1.31,1.31ZM15.49,42.61c-.72,0-1.31-.59-1.31-1.31h0c0-.73.59-1.31,1.31-1.31h0c.73,0,1.31.58,1.31,1.31h0c0,.72-.58,1.31-1.31,1.31ZM15.49,49.27c-.72,0-1.31-.59-1.31-1.31h0c0-.72.59-1.31,1.31-1.31h0c.73,0,1.31.59,1.31,1.31h0c0,.72-.58,1.31-1.31,1.31Z"/>
      <path class="cls-1" d="M22.7,9.28c-.73,0-1.31-.58-1.31-1.31h0c0-.72.58-1.31,1.31-1.31h0c.72,0,1.31.59,1.31,1.31h0c0,.73-.59,1.31-1.31,1.31ZM22.7,15.95c-.73,0-1.31-.58-1.31-1.31h0c0-.72.58-1.31,1.31-1.31h0c.72,0,1.31.59,1.31,1.31h0c0,.73-.59,1.31-1.31,1.31ZM22.7,22.61c-.73,0-1.31-.58-1.31-1.31h0c0-.72.58-1.31,1.31-1.31h0c.72,0,1.31.59,1.31,1.31h0c0,.73-.59,1.31-1.31,1.31ZM22.7,29.28c-.73,0-1.31-.59-1.31-1.31h0c0-.73.58-1.31,1.31-1.31h0c.72,0,1.31.59,1.31,1.32h0c0,.72-.59,1.31-1.31,1.31ZM22.7,35.94c-.73,0-1.31-.59-1.31-1.31h0c0-.73.58-1.31,1.31-1.31h0c.72,0,1.31.58,1.31,1.31h0c0,.72-.59,1.31-1.31,1.31ZM22.7,42.61c-.73,0-1.31-.59-1.31-1.31h0c0-.73.58-1.31,1.31-1.31h0c.72,0,1.31.58,1.31,1.31h0c0,.72-.59,1.31-1.31,1.31ZM22.7,49.27c-.73,0-1.31-.58-1.31-1.31h0c0-.72.58-1.31,1.31-1.31h0c.72,0,1.31.59,1.31,1.31h0c0,.73-.59,1.31-1.31,1.31ZM22.7,55.93c-.73,0-1.31-.58-1.31-1.31h0c0-.72.58-1.31,1.31-1.31h0c.72,0,1.31.59,1.31,1.31h0c0,.73-.59,1.31-1.31,1.31Z"/>
      <path class="cls-1" d="M29.24,2.62c-.72,0-1.31-.59-1.31-1.31h0c0-.73.59-1.31,1.31-1.31h0c.73,0,1.31.58,1.31,1.31h0c0,.72-.58,1.31-1.31,1.31ZM29.24,9.28c-.72,0-1.31-.58-1.31-1.31h0c0-.73.59-1.31,1.31-1.31h0c.73,0,1.31.58,1.31,1.31h0c0,.73-.58,1.31-1.31,1.31ZM29.24,15.95c-.72,0-1.31-.58-1.31-1.31h0c0-.72.59-1.31,1.31-1.31h0c.73,0,1.31.59,1.31,1.31h0c0,.73-.58,1.31-1.31,1.31ZM29.24,22.61c-.72,0-1.31-.58-1.31-1.31h0c0-.72.59-1.31,1.31-1.31h0c.73,0,1.31.59,1.31,1.31h0c0,.72-.58,1.31-1.31,1.31ZM29.24,29.28c-.72,0-1.31-.59-1.31-1.32h0c0-.72.59-1.3,1.31-1.3h0c.73,0,1.31.58,1.31,1.3h0c0,.73-.58,1.32-1.31,1.32ZM29.24,35.94c-.72,0-1.31-.59-1.31-1.31h0c0-.73.59-1.31,1.31-1.31h0c.73,0,1.31.58,1.31,1.31h0c0,.72-.58,1.31-1.31,1.31ZM29.24,42.61c-.72,0-1.31-.59-1.31-1.31h0c0-.72.59-1.31,1.31-1.31h0c.73,0,1.31.58,1.31,1.31h0c0,.72-.58,1.31-1.31,1.31ZM29.24,49.27c-.72,0-1.31-.58-1.31-1.31h0c0-.72.59-1.31,1.31-1.31h0c.73,0,1.31.59,1.31,1.31h0c0,.73-.58,1.31-1.31,1.31ZM29.24,55.93c-.72,0-1.31-.58-1.31-1.31h0c0-.72.59-1.31,1.31-1.31h0c.73,0,1.31.59,1.31,1.31h0c0,.73-.58,1.31-1.31,1.31ZM29.24,62.6c-.72,0-1.31-.58-1.31-1.3h0c0-.73.59-1.32,1.31-1.32h0c.73,0,1.31.59,1.31,1.32h0c0,.72-.58,1.3-1.31,1.3Z"/>
    </g>
  </g>
</svg>