<?xml version="1.0" encoding="UTF-8"?>
<svg id="Layer_2" xmlns="http://www.w3.org/2000/svg" viewBox="0 0 29.66 43.14">
  <defs>
    <style>
      .cls-1 {
        fill: #ffae0a;
      }

      .cls-2 {
        fill: #1a1a1a;
      }
    </style>
  </defs>
  <g id="BACKGROUND">
    <g>
      <path class="cls-1" d="M14.83,43.14c-8.18,0-14.83-6.65-14.83-14.83s6.65-14.83,14.83-14.83,14.83,6.65,14.83,14.83-6.65,14.83-14.83,14.83ZM14.83,14.48C7.2,14.48,1,20.68,1,28.31s6.2,13.83,13.83,13.83,13.83-6.2,13.83-13.83-6.2-13.83-13.83-13.83Z"/>
      <path class="cls-2" d="M.56,14.27l14.27,14.27,14.27-14.27L14.83,0,.56,14.27ZM24.66,14.27l-9.83,9.83L5,14.27,14.83,4.43l9.83,9.84Z"/>
    </g>
  </g>
</svg>