<?xml version="1.0" encoding="UTF-8"?>
<svg id="Layer_2" xmlns="http://www.w3.org/2000/svg" viewBox="0 0 52.05 21.51">
  <defs>
    <style>
      .cls-1 {
        fill: #ffae0a;
      }
    </style>
  </defs>
  <g id="BACKGROUND">
    <g>
      <path class="cls-1" d="M47.94,2.78C46.81,1.41,45.65,0,43.31,0c-2.34,0-3.5,1.41-4.62,2.78-1.07,1.3-2.08,2.54-4.11,2.54-2.02,0-3.04-1.23-4.11-2.54C29.35,1.41,28.19,0,25.85,0c-2.34,0-3.5,1.41-4.62,2.78-1.07,1.3-2.08,2.54-4.11,2.54-2.03,0-3.04-1.23-4.11-2.54C11.89,1.41,10.72,0,8.39,0c-2.34,0-3.5,1.41-4.62,2.78C2.76,4.01,1.79,5.15,0,5.29v.66c2.1-.13,3.22-1.46,4.28-2.75,1.07-1.3,2.08-2.54,4.11-2.54,2.03,0,3.04,1.23,4.11,2.54,1.12,1.37,2.28,2.78,4.62,2.78,2.34,0,3.5-1.41,4.62-2.78,1.07-1.3,2.08-2.54,4.11-2.54,2.03,0,3.04,1.23,4.11,2.54,1.12,1.37,2.28,2.78,4.62,2.78,2.34,0,3.5-1.41,4.62-2.78,1.07-1.3,2.08-2.54,4.11-2.54,2.03,0,3.04,1.23,4.11,2.54,1.12,1.37,2.28,2.78,4.62,2.78v-.67c-2.03,0-3.04-1.23-4.11-2.54Z"/>
      <path class="cls-1" d="M47.94,10.31c-1.12-1.37-2.28-2.78-4.62-2.78-2.34,0-3.5,1.41-4.62,2.78-1.07,1.3-2.08,2.54-4.11,2.54-2.03,0-3.04-1.23-4.11-2.54-1.12-1.37-2.28-2.78-4.62-2.78s-3.5,1.41-4.62,2.78c-1.07,1.3-2.08,2.54-4.11,2.54-2.03,0-3.04-1.23-4.11-2.54-1.12-1.37-2.28-2.78-4.62-2.78-2.34,0-3.5,1.41-4.62,2.78C2.76,11.53,1.79,12.68,0,12.82v.67c2.1-.13,3.22-1.46,4.28-2.75,1.07-1.3,2.08-2.54,4.11-2.54,2.02,0,3.04,1.23,4.11,2.54,1.12,1.37,2.28,2.78,4.62,2.78,2.34,0,3.5-1.41,4.62-2.78,1.07-1.3,2.08-2.54,4.11-2.54,2.03,0,3.04,1.23,4.11,2.54,1.12,1.37,2.28,2.78,4.62,2.78,2.34,0,3.5-1.41,4.62-2.78,1.07-1.3,2.08-2.54,4.11-2.54,2.03,0,3.04,1.23,4.11,2.54,1.12,1.37,2.28,2.78,4.62,2.78v-.66c-2.03,0-3.04-1.23-4.11-2.54Z"/>
      <path class="cls-1" d="M47.94,18.31c-1.12-1.37-2.28-2.78-4.62-2.78-2.34,0-3.5,1.41-4.62,2.78-1.07,1.3-2.09,2.54-4.11,2.54-2.02,0-3.04-1.23-4.11-2.54-1.12-1.37-2.28-2.78-4.62-2.78s-3.5,1.41-4.62,2.78c-1.07,1.3-2.08,2.54-4.11,2.54-2.03,0-3.04-1.23-4.11-2.54-1.12-1.37-2.28-2.78-4.62-2.78-2.34,0-3.5,1.41-4.62,2.78C2.76,19.53,1.79,20.68,0,20.81v.66c2.1-.13,3.22-1.46,4.28-2.75,1.07-1.3,2.08-2.54,4.11-2.54,2.02,0,3.04,1.23,4.11,2.54,1.12,1.37,2.28,2.78,4.62,2.78,2.34,0,3.5-1.41,4.62-2.78,1.07-1.3,2.08-2.54,4.11-2.54,2.02,0,3.04,1.23,4.11,2.54,1.12,1.37,2.28,2.78,4.62,2.78,2.34,0,3.5-1.41,4.63-2.78,1.07-1.3,2.08-2.54,4.11-2.54,2.03,0,3.04,1.23,4.11,2.54,1.12,1.37,2.28,2.78,4.63,2.78v-.66c-2.03,0-3.04-1.23-4.11-2.54Z"/>
    </g>
  </g>
</svg>