<?xml version="1.0" encoding="UTF-8"?>
<svg id="Layer_2" xmlns="http://www.w3.org/2000/svg" viewBox="0 0 41.51 46.81">
  <defs>
    <style>
      .cls-1 {
        fill: #ffae0a;
      }

      .cls-2 {
        fill: #1a1a1a;
      }
    </style>
  </defs>
  <g id="BACKGROUND">
    <g>
      <path class="cls-1" d="M35.15,32.13c0,8.11-6.57,14.68-14.68,14.68s-14.68-6.57-14.68-14.68,6.57-14.68,14.68-14.68,14.68,6.57,14.68,14.68Z"/>
      <path class="cls-2" d="M25.64,25.21c0,7.08-5.74,12.82-12.82,12.82S0,32.29,0,25.21s5.74-12.82,12.82-12.82,12.82,5.74,12.82,12.82Z"/>
      <path class="cls-1" d="M41.51,3.74c0,2.07-1.67,3.74-3.74,3.74s-3.74-1.67-3.74-3.74,1.67-3.74,3.74-3.74,3.74,1.67,3.74,3.74Z"/>
    </g>
  </g>
</svg>