<?xml version="1.0" encoding="UTF-8"?>
<svg id="Layer_2" xmlns="http://www.w3.org/2000/svg" viewBox="0 0 80.11 14.08">
  <defs>
    <style>
      .cls-1 {
        fill: #ffae0a;
      }
    </style>
  </defs>
  <g id="BACKGROUND">
    <g>
      <path class="cls-1" d="M76.36,1.88c0-1.04.84-1.87,1.88-1.88h0c1.04,0,1.87.84,1.87,1.87h0c0,1.03-.84,1.88-1.88,1.88h0c-1.03,0-1.88-.84-1.88-1.88ZM66.82,1.88c0-1.04.83-1.87,1.87-1.87h0c1.03,0,1.88.83,1.88,1.88h0c0,1.03-.84,1.87-1.88,1.87h0c-1.04,0-1.87-.84-1.87-1.88ZM57.27,1.88c0-1.04.83-1.87,1.87-1.87h0c1.03,0,1.87.83,1.88,1.87h0c0,1.03-.85,1.88-1.88,1.88h0c-1.04,0-1.88-.84-1.87-1.88ZM47.73,1.88C47.73.84,48.56,0,49.59,0h0c1.04,0,1.88.83,1.88,1.87h0c0,1.03-.84,1.88-1.88,1.88h0c-1.03,0-1.87-.84-1.87-1.88ZM38.17,1.88C38.17.84,39.02,0,40.05,0h0c1.04,0,1.87.83,1.88,1.88h0c0,1.03-.84,1.87-1.88,1.87h0c-1.03,0-1.87-.84-1.87-1.87ZM28.63,1.88c0-1.04.85-1.87,1.88-1.87h0c1.04,0,1.88.83,1.88,1.87h0c0,1.03-.83,1.88-1.88,1.88h0c-1.03,0-1.87-.84-1.88-1.88ZM19.09,1.88c0-1.04.84-1.87,1.87-1.87h0c1.03,0,1.87.83,1.88,1.88h0c0,1.03-.84,1.87-1.88,1.87h0c-1.03,0-1.88-.84-1.87-1.88ZM9.54,1.88c0-1.04.83-1.88,1.88-1.88h0c1.03,0,1.88.84,1.88,1.88h0c0,1.03-.84,1.88-1.88,1.88h0c-1.04,0-1.87-.84-1.88-1.88ZM0,1.88C0,.84.83,0,1.88,0h0C2.9,0,3.75.84,3.75,1.88h0c0,1.03-.84,1.88-1.88,1.88h0C.83,3.75,0,2.91,0,1.88Z"/>
      <path class="cls-1" d="M76.36,12.2c0-1.04.85-1.88,1.88-1.88h0c1.03,0,1.88.83,1.87,1.88h0c0,1.03-.84,1.87-1.87,1.87h0c-1.03,0-1.88-.84-1.88-1.87ZM66.82,12.2c0-1.04.83-1.88,1.87-1.87h0c1.03,0,1.88.83,1.87,1.87h0c0,1.03-.84,1.87-1.88,1.87h0c-1.04,0-1.87-.85-1.87-1.87ZM57.27,12.2c0-1.04.84-1.88,1.88-1.87h0c1.03,0,1.88.83,1.87,1.87h0c0,1.03-.84,1.88-1.87,1.88h0c-1.04,0-1.88-.85-1.88-1.88ZM47.73,12.2c0-1.04.83-1.88,1.86-1.87h0c1.04,0,1.88.83,1.87,1.87h0c0,1.03-.83,1.87-1.87,1.87h0c-1.03,0-1.86-.84-1.86-1.87ZM38.17,12.2c0-1.04.84-1.88,1.87-1.87h0c1.04,0,1.88.83,1.87,1.87h0c0,1.03-.83,1.87-1.87,1.87h0c-1.03,0-1.88-.84-1.88-1.87ZM28.63,12.2c0-1.04.84-1.88,1.87-1.88h0c1.04,0,1.88.83,1.88,1.88h0c0,1.03-.84,1.87-1.88,1.88h0c-1.03,0-1.87-.84-1.87-1.88ZM19.09,12.2c0-1.04.84-1.88,1.87-1.88h0c1.03,0,1.88.83,1.88,1.88h0c0,1.03-.84,1.87-1.87,1.87h0c-1.04,0-1.88-.84-1.88-1.87ZM9.54,12.2c0-1.04.83-1.88,1.88-1.88h0c1.03,0,1.88.83,1.88,1.88h0c0,1.03-.84,1.87-1.88,1.87h0c-1.04,0-1.88-.84-1.88-1.87ZM0,12.2c0-1.04.83-1.87,1.87-1.87h0c1.03,0,1.88.83,1.88,1.88h0c0,1.03-.84,1.88-1.87,1.87h0C.83,14.07,0,13.23,0,12.2Z"/>
    </g>
  </g>
</svg>