<?xml version="1.0" encoding="UTF-8"?>
<svg id="Layer_2" xmlns="http://www.w3.org/2000/svg" viewBox="0 0 21 21">
  <defs>
    <style>
      .cls-1 {
        fill: #ffae0a;
      }

      .cls-2 {
        fill: #1a1a1a;
      }
    </style>
  </defs>
  <g id="BACKGROUND">
    <g>
      <path class="cls-1" d="M10.3,16.83c-2.95,0-5.54-2.09-6.18-4.97-.36-1.65-.06-3.35.85-4.77.91-1.42,2.32-2.41,3.97-2.77.45-.1.91-.15,1.37-.15,2.95,0,5.54,2.09,6.18,4.97.36,1.65.06,3.35-.85,4.77-.91,1.42-2.32,2.41-3.97,2.77-.45.1-.91.15-1.37.15ZM10.31,5.17c-.38,0-.77.04-1.15.13-1.39.31-2.58,1.14-3.35,2.33-.77,1.2-1.02,2.63-.71,4.02.53,2.43,2.72,4.19,5.2,4.19.38,0,.77-.04,1.15-.13,1.39-.31,2.58-1.14,3.35-2.34.77-1.2,1.02-2.63.71-4.02-.53-2.43-2.72-4.19-5.2-4.19Z"/>
      <path class="cls-2" d="M10.49,21C5.61,21,1.3,17.53.25,12.76c-.6-2.74-.1-5.55,1.41-7.91C3.17,2.48,5.51.85,8.25.25c.75-.16,1.51-.25,2.27-.25,4.88,0,9.19,3.47,10.24,8.25.6,2.74.1,5.55-1.41,7.91-1.51,2.36-3.85,4-6.59,4.6-.75.16-1.51.25-2.27.25ZM10.51,1c-.68,0-1.37.08-2.05.22-2.48.55-4.6,2.02-5.96,4.16-1.37,2.14-1.82,4.68-1.27,7.16.95,4.32,4.85,7.46,9.27,7.46.69,0,1.38-.08,2.05-.22,2.48-.54,4.6-2.02,5.96-4.16s1.82-4.68,1.27-7.16c-.95-4.32-4.85-7.46-9.27-7.46Z"/>
    </g>
  </g>
</svg>