<?xml version="1.0" encoding="UTF-8"?>
<svg id="Layer_2" xmlns="http://www.w3.org/2000/svg" viewBox="0 0 63.47 35.77">
  <defs>
    <style>
      .cls-1 {
        fill: #1a1a1a;
      }
    </style>
  </defs>
  <g id="BACKGROUND">
    <g>
      <g>
        <path class="cls-1" d="M13.84,33.82c0,1.08-.88,1.95-1.95,1.95h0c-1.08,0-1.95-.87-1.95-1.95h0c0-1.07.87-1.95,1.95-1.95h0c1.07,0,1.95.88,1.95,1.95ZM23.76,33.82c0,1.08-.88,1.95-1.95,1.95h0c-1.08,0-1.95-.87-1.95-1.95h0c0-1.07.87-1.95,1.95-1.95h0c1.07,0,1.95.88,1.95,1.95ZM33.69,33.82c0,1.08-.87,1.95-1.95,1.95h0c-1.07,0-1.95-.87-1.95-1.95h0c0-1.07.88-1.95,1.95-1.95h0c1.08,0,1.95.88,1.95,1.95ZM43.61,33.82c0,1.08-.87,1.95-1.95,1.95h0c-1.07,0-1.95-.87-1.95-1.95h0c0-1.07.88-1.95,1.95-1.95h0c1.08,0,1.95.88,1.95,1.95ZM53.54,33.81c0,1.08-.87,1.95-1.94,1.95h0c-1.08,0-1.96-.87-1.96-1.95h0c0-1.07.87-1.95,1.96-1.95h0c1.07,0,1.94.88,1.94,1.95ZM63.47,33.81c0,1.08-.88,1.95-1.95,1.95h0c-1.08,0-1.95-.87-1.95-1.95h0c0-1.07.87-1.95,1.95-1.95h0c1.07,0,1.95.88,1.95,1.95Z"/>
        <path class="cls-1" d="M1.96,31.86c.51,0,1.01.2,1.37.58.36.36.58.87.58,1.37s-.22,1.01-.58,1.37c-.72.73-2.04.73-2.76,0-.36-.37-.58-.88-.58-1.38s.22-1.02.58-1.37c.36-.38.87-.58,1.39-.58Z"/>
      </g>
      <g>
        <path class="cls-1" d="M13.84,23.08c0,1.08-.88,1.95-1.95,1.95h0c-1.08,0-1.95-.87-1.95-1.95h0c0-1.07.87-1.95,1.95-1.95h0c1.07,0,1.95.88,1.95,1.95ZM23.76,23.08c0,1.08-.88,1.95-1.95,1.95h0c-1.07,0-1.95-.87-1.95-1.95h0c0-1.07.88-1.95,1.95-1.95h0c1.07,0,1.95.88,1.95,1.95ZM33.69,23.08c0,1.08-.87,1.95-1.95,1.95h0c-1.07,0-1.95-.87-1.95-1.95h0c0-1.07.88-1.95,1.95-1.95h0c1.08,0,1.95.88,1.95,1.95ZM43.61,23.08c0,1.08-.87,1.95-1.95,1.95h0c-1.07,0-1.95-.87-1.95-1.95h0c0-1.07.88-1.95,1.95-1.95h0c1.08,0,1.95.88,1.95,1.95ZM53.54,23.08c0,1.08-.87,1.95-1.94,1.95h0c-1.09,0-1.95-.87-1.95-1.95h0c0-1.07.86-1.95,1.95-1.95h0c1.07,0,1.94.88,1.94,1.95ZM63.47,23.08c0,1.08-.88,1.95-1.95,1.95h0c-1.08,0-1.95-.87-1.95-1.95h0c0-1.07.87-1.95,1.95-1.95h0c1.07,0,1.95.88,1.95,1.95Z"/>
        <path class="cls-1" d="M1.96,21.13c.51,0,1.01.21,1.37.57.36.36.58.87.58,1.38s-.22,1.01-.58,1.38c-.73.72-2.03.72-2.76,0-.36-.37-.57-.87-.57-1.38s.22-1.02.57-1.38c.36-.36.87-.57,1.39-.57Z"/>
      </g>
      <g>
        <path class="cls-1" d="M13.84,12.69c0,1.07-.88,1.95-1.95,1.95h0c-1.08,0-1.95-.88-1.95-1.95h0c0-1.08.87-1.95,1.95-1.95h0c1.07,0,1.95.87,1.95,1.95ZM23.76,12.69c0,1.07-.88,1.95-1.95,1.95h0c-1.07,0-1.95-.88-1.95-1.95h0c0-1.08.88-1.95,1.95-1.95h0c1.07,0,1.95.87,1.95,1.95ZM33.69,12.69c0,1.07-.87,1.95-1.95,1.95h0c-1.07,0-1.95-.88-1.95-1.95h0c0-1.08.88-1.95,1.95-1.95h0c1.08,0,1.95.87,1.95,1.95ZM43.61,12.69c0,1.07-.87,1.95-1.95,1.95h0c-1.07,0-1.95-.88-1.95-1.95h0c0-1.08.88-1.95,1.95-1.95h0c1.08,0,1.95.87,1.95,1.95ZM53.55,12.69c0,1.07-.88,1.95-1.95,1.95h0c-1.09,0-1.95-.88-1.95-1.95h0c0-1.08.86-1.95,1.95-1.95h0c1.07,0,1.95.87,1.95,1.95ZM63.47,12.69c0,1.07-.88,1.95-1.95,1.95h0c-1.08,0-1.95-.88-1.95-1.95h0c0-1.08.87-1.95,1.95-1.95h0c1.07,0,1.95.87,1.95,1.95Z"/>
        <path class="cls-1" d="M1.96,10.74c.51,0,1.01.21,1.37.57.36.37.58.87.58,1.38s-.22,1.01-.58,1.37c-.73.72-2.03.72-2.76,0C.22,13.7,0,13.19,0,12.69s.21-1.02.56-1.38c.37-.36.87-.57,1.39-.57Z"/>
      </g>
      <g>
        <path class="cls-1" d="M13.84,1.95c0,1.08-.88,1.95-1.95,1.95h0c-1.08,0-1.95-.87-1.95-1.95h0C9.94.88,10.8,0,11.89,0h0C12.96,0,13.84.88,13.84,1.95ZM23.76,1.95c0,1.08-.87,1.95-1.95,1.95h0c-1.07,0-1.95-.87-1.95-1.95h0C19.86.88,20.74,0,21.81,0h0c1.08,0,1.95.88,1.95,1.95ZM33.69,1.95c0,1.08-.87,1.95-1.95,1.95h0c-1.07,0-1.95-.87-1.95-1.95h0C29.79.88,30.67,0,31.74,0h0c1.08,0,1.95.88,1.95,1.95ZM43.61,1.95c0,1.08-.87,1.95-1.95,1.95h0c-1.07,0-1.95-.87-1.95-1.95h0C39.71.88,40.59,0,41.66,0h0c1.08,0,1.95.88,1.95,1.95ZM53.55,1.95c0,1.08-.88,1.95-1.95,1.95h0c-1.09,0-1.96-.87-1.96-1.95h0c0-1.07.87-1.95,1.96-1.95h0c1.07,0,1.95.88,1.95,1.95ZM63.47,1.95c0,1.08-.88,1.95-1.95,1.95h0c-1.08,0-1.95-.87-1.95-1.95h0c0-1.07.87-1.95,1.95-1.95h0c1.07,0,1.95.88,1.95,1.95Z"/>
        <path class="cls-1" d="M1.96,0C2.47,0,2.97.2,3.34.57c.36.37.58.88.58,1.38s-.22,1.02-.58,1.38c-.73.73-2.03.73-2.76,0-.36-.37-.57-.88-.57-1.38S.22.94.57.58C.95.2,1.44,0,1.96,0Z"/>
      </g>
    </g>
  </g>
</svg>