<?xml version="1.0" encoding="UTF-8"?>
<svg id="Layer_2" xmlns="http://www.w3.org/2000/svg" viewBox="0 0 48.27 48.23">
  <defs>
    <style>
      .cls-1 {
        fill: #1a1a1a;
      }
    </style>
  </defs>
  <g id="BACKGROUND">
    <g>
      <path class="cls-1" d="M32.12,1.11c-1.76-.17-3.58-.35-5.23,1.3-1.66,1.66-1.48,3.47-1.3,5.23.16,1.68.32,3.27-1.11,4.7-1.43,1.43-3.02,1.28-4.7,1.11-1.76-.17-3.58-.35-5.23,1.3-1.65,1.65-1.48,3.47-1.3,5.23.16,1.68.32,3.27-1.11,4.7-1.43,1.43-3.02,1.28-4.7,1.11-1.76-.17-3.58-.35-5.23,1.3-1.65,1.65-1.48,3.47-1.3,5.23.16,1.58.29,3.07-.89,4.44l.47.47c1.39-1.58,1.24-3.3,1.08-4.97-.17-1.68-.32-3.27,1.11-4.7,1.43-1.43,3.02-1.28,4.7-1.11,1.76.17,3.58.35,5.23-1.3,1.65-1.65,1.48-3.47,1.3-5.23-.16-1.68-.32-3.27,1.11-4.7,1.43-1.43,3.02-1.28,4.7-1.11,1.76.17,3.58.35,5.23-1.3,1.66-1.66,1.48-3.47,1.3-5.23-.16-1.68-.32-3.27,1.11-4.7,1.43-1.43,3.02-1.28,4.7-1.11,1.76.17,3.58.35,5.24-1.31l-.47-.47c-1.43,1.43-3.02,1.28-4.7,1.11Z"/>
      <path class="cls-1" d="M37.44,6.44c-1.76-.17-3.58-.35-5.23,1.3-1.65,1.66-1.48,3.47-1.3,5.23.16,1.68.32,3.27-1.11,4.7-1.43,1.43-3.02,1.28-4.7,1.11-1.76-.17-3.58-.35-5.23,1.3-1.65,1.65-1.48,3.47-1.3,5.23.16,1.68.32,3.27-1.11,4.7-1.43,1.43-3.02,1.28-4.7,1.11-1.76-.17-3.58-.35-5.23,1.3-1.65,1.65-1.48,3.47-1.3,5.23.16,1.58.29,3.07-.89,4.44l.47.47c1.39-1.58,1.24-3.3,1.08-4.97-.17-1.68-.32-3.27,1.11-4.7,1.43-1.43,3.02-1.28,4.7-1.11,1.76.17,3.58.35,5.23-1.3,1.65-1.65,1.48-3.47,1.3-5.23-.16-1.68-.32-3.27,1.11-4.7,1.43-1.43,3.02-1.28,4.7-1.11,1.76.17,3.58.35,5.23-1.3,1.66-1.66,1.48-3.47,1.31-5.23-.16-1.68-.32-3.27,1.11-4.7,1.43-1.43,3.02-1.28,4.7-1.11,1.76.17,3.58.35,5.24-1.31l-.47-.47c-1.43,1.43-3.02,1.28-4.7,1.11Z"/>
      <path class="cls-1" d="M43.1,12.09c-1.76-.17-3.58-.35-5.23,1.3-1.66,1.66-1.48,3.47-1.3,5.23.16,1.68.32,3.27-1.12,4.7-1.43,1.43-3.02,1.28-4.7,1.11-1.76-.17-3.58-.35-5.23,1.3-1.66,1.66-1.48,3.47-1.3,5.23.16,1.68.32,3.27-1.11,4.7-1.43,1.43-3.02,1.28-4.7,1.11-1.76-.17-3.58-.35-5.23,1.3-1.65,1.65-1.47,3.47-1.3,5.23.16,1.58.29,3.07-.89,4.44l.47.47c1.39-1.58,1.24-3.3,1.08-4.97-.17-1.68-.32-3.27,1.11-4.7,1.43-1.43,3.02-1.28,4.7-1.11,1.76.17,3.58.35,5.23-1.3,1.65-1.66,1.48-3.47,1.3-5.23-.16-1.68-.32-3.27,1.11-4.7,1.43-1.43,3.02-1.28,4.7-1.11,1.76.17,3.58.35,5.23-1.3,1.66-1.66,1.48-3.48,1.31-5.24-.16-1.68-.32-3.27,1.11-4.7,1.43-1.43,3.02-1.28,4.7-1.11,1.76.17,3.58.35,5.24-1.31l-.47-.47c-1.43,1.43-3.02,1.28-4.7,1.11Z"/>
    </g>
  </g>
</svg>