<?xml version="1.0" encoding="UTF-8"?>
<svg id="Layer_2" xmlns="http://www.w3.org/2000/svg" viewBox="0 0 62.93 42.98">
  <defs>
    <style>
      .cls-1 {
        fill: #ffae0a;
      }

      .cls-2 {
        fill: #1a1a1a;
      }
    </style>
  </defs>
  <g id="BACKGROUND">
    <g>
      <circle class="cls-1" cx="41.93" cy="21" r="21"/>
      <g>
        <path class="cls-2" d="M23.04,41.95c0,.57-.46,1.03-1.02,1.03h0c-.57,0-1.04-.46-1.04-1.03h0c0-.56.46-1.03,1.03-1.03h0c.57,0,1.03.46,1.03,1.03ZM28.28,41.95c0,.57-.46,1.03-1.03,1.03h0c-.57,0-1.03-.46-1.03-1.03h0c0-.56.46-1.03,1.03-1.03h0c.57,0,1.03.46,1.03,1.03Z"/>
        <path class="cls-2" d="M17.79,36.28c0,.57-.46,1.03-1.03,1.03h0c-.57,0-1.03-.46-1.03-1.03h0c0-.57.46-1.03,1.03-1.03h0c.57,0,1.03.46,1.03,1.03ZM23.04,36.28c0,.57-.46,1.03-1.03,1.03h0c-.57,0-1.03-.46-1.03-1.03h0c0-.57.46-1.03,1.03-1.03h0c.57,0,1.02.46,1.03,1.03ZM28.28,36.28c0,.57-.46,1.03-1.03,1.03h0c-.57,0-1.03-.46-1.03-1.03h0c0-.57.46-1.03,1.03-1.03h0c.57,0,1.03.46,1.03,1.03ZM33.53,36.28c0,.57-.46,1.03-1.03,1.03h0c-.57,0-1.03-.46-1.03-1.03h0c0-.57.46-1.03,1.03-1.03h0c.57,0,1.03.46,1.03,1.03Z"/>
        <path class="cls-2" d="M12.55,30.79c0,.57-.46,1.03-1.03,1.03h0c-.57,0-1.03-.46-1.03-1.03h0c0-.57.46-1.03,1.03-1.03h0c.57,0,1.03.46,1.03,1.03ZM17.79,30.79c0,.57-.46,1.03-1.03,1.03h0c-.57,0-1.03-.46-1.03-1.03h0c0-.57.46-1.03,1.03-1.03h0c.57,0,1.03.46,1.03,1.03ZM23.04,30.79c0,.57-.46,1.03-1.03,1.03h0c-.57,0-1.03-.46-1.03-1.03h0c0-.57.46-1.03,1.03-1.03h0c.57,0,1.03.46,1.03,1.03ZM28.28,30.79c0,.57-.46,1.03-1.03,1.03h0c-.57,0-1.03-.46-1.03-1.03h0c0-.57.46-1.03,1.03-1.03h0c.57,0,1.03.46,1.03,1.03ZM33.53,30.79c0,.56-.46,1.03-1.03,1.03h0c-.57,0-1.03-.46-1.03-1.03h0c0-.57.46-1.03,1.03-1.03h0c.57,0,1.03.46,1.03,1.03ZM38.77,30.79c0,.57-.46,1.03-1.03,1.03h0c-.57,0-1.03-.46-1.03-1.03h0c0-.57.46-1.03,1.03-1.03h0c.57,0,1.03.46,1.03,1.03Z"/>
        <path class="cls-2" d="M7.31,25.12c0,.57-.46,1.03-1.03,1.03h0c-.57,0-1.03-.46-1.03-1.03h0c0-.57.46-1.03,1.03-1.03h0c.57,0,1.03.46,1.03,1.03ZM12.55,25.12c0,.57-.46,1.03-1.03,1.03h0c-.57,0-1.03-.46-1.03-1.03h0c0-.57.46-1.03,1.03-1.03h0c.57,0,1.03.46,1.03,1.03ZM17.79,25.12c0,.57-.46,1.03-1.03,1.03h0c-.57,0-1.03-.46-1.03-1.03h0c0-.57.46-1.03,1.03-1.03h0c.57,0,1.03.46,1.03,1.03ZM23.04,25.12c0,.57-.46,1.03-1.03,1.03h0c-.57,0-1.03-.46-1.03-1.03h0c0-.57.46-1.03,1.04-1.03h0c.57,0,1.03.46,1.03,1.03ZM28.29,25.12c0,.57-.46,1.03-1.03,1.03h0c-.57,0-1.03-.46-1.03-1.03h0c0-.57.46-1.03,1.03-1.03h0c.57,0,1.03.46,1.03,1.03ZM33.53,25.12c0,.57-.46,1.03-1.03,1.03h0c-.57,0-1.03-.46-1.03-1.03h0c0-.57.46-1.03,1.03-1.03h0c.57,0,1.03.46,1.03,1.03ZM38.77,25.12c0,.57-.46,1.03-1.03,1.03h0c-.57,0-1.03-.46-1.03-1.03h0c0-.57.46-1.03,1.03-1.03h0c.57,0,1.03.46,1.03,1.03ZM44.02,25.12c0,.57-.46,1.03-1.03,1.03h0c-.57,0-1.03-.46-1.03-1.03h0c0-.57.46-1.03,1.03-1.03h0c.57,0,1.03.46,1.03,1.03Z"/>
        <path class="cls-2" d="M2.06,19.97c0,.57-.46,1.03-1.03,1.03h0c-.57,0-1.03-.46-1.03-1.03h0c0-.57.46-1.03,1.03-1.03h0c.57,0,1.03.46,1.03,1.03ZM7.31,19.97c0,.57-.46,1.03-1.03,1.03h0c-.57,0-1.03-.46-1.03-1.03h0c0-.57.46-1.03,1.03-1.03h0c.57,0,1.03.46,1.03,1.03ZM12.55,19.97c0,.57-.46,1.03-1.03,1.03h0c-.57,0-1.03-.46-1.03-1.03h0c0-.57.46-1.03,1.03-1.03h0c.57,0,1.03.46,1.03,1.03ZM17.79,19.97c0,.57-.46,1.03-1.03,1.03h0c-.57,0-1.03-.46-1.03-1.03h0c0-.57.46-1.03,1.03-1.03h0c.57,0,1.03.46,1.03,1.03ZM23.04,19.97c0,.57-.46,1.03-1.04,1.03h0c-.57,0-1.03-.46-1.02-1.03h0c0-.57.46-1.03,1.02-1.03h0c.57,0,1.04.46,1.04,1.03ZM28.28,19.97c0,.57-.46,1.03-1.03,1.03h0c-.57,0-1.03-.46-1.03-1.03h0c0-.57.46-1.03,1.03-1.03h0c.57,0,1.03.46,1.03,1.03ZM33.53,19.97c0,.57-.46,1.03-1.03,1.03h0c-.57,0-1.03-.46-1.03-1.03h0c0-.57.46-1.03,1.03-1.03h0c.57,0,1.03.46,1.03,1.03ZM38.77,19.97c0,.57-.46,1.03-1.03,1.03h0c-.57,0-1.03-.46-1.03-1.03h0c0-.57.46-1.03,1.03-1.03h0c.57,0,1.03.46,1.03,1.03ZM44.02,19.97c0,.57-.46,1.03-1.03,1.03h0c-.57,0-1.03-.46-1.03-1.03h0c0-.57.46-1.03,1.03-1.03h0c.57,0,1.03.46,1.03,1.03ZM49.26,19.97c0,.57-.46,1.03-1.02,1.03h0c-.57,0-1.04-.46-1.04-1.03h0c0-.57.46-1.03,1.04-1.03h0c.57,0,1.02.46,1.02,1.03Z"/>
      </g>
    </g>
  </g>
</svg>