<svg width="23" height="18" viewBox="0 0 23 18" fill="none" xmlns="http://www.w3.org/2000/svg">
<g clip-path="url(#clip0_32_291)">
<path d="M11.4824 2.61384C8.09915 2.61384 4.71585 2.61384 1.33256 2.61384C1.16752 2.61384 1.00095 2.61995 0.840496 2.5955C0.334683 2.51604 -0.0030357 2.12331 2.05735e-05 1.63889C0.00307685 1.156 0.346908 0.769377 0.852721 0.694499C0.999423 0.673105 1.15071 0.677689 1.30047 0.677689C8.0961 0.677689 14.8933 0.677689 21.6889 0.677689C21.7638 0.677689 21.8386 0.677689 21.9135 0.677689C22.566 0.696027 22.9893 1.06584 22.9985 1.62972C23.0077 2.21041 22.5767 2.61078 21.8998 2.61078C18.4263 2.61537 14.9544 2.61384 11.4809 2.61384H11.4824Z" fill="black"/>
<path d="M11.4992 9.9489C8.11595 9.9489 4.73418 9.9489 1.35089 9.9489C1.20113 9.9489 1.05137 9.95349 0.901615 9.94126C0.375935 9.89389 0.00612588 9.50727 1.33309e-05 9.00299C-0.00609922 8.50634 0.365238 8.09527 0.880221 8.03567C1.01317 8.02039 1.14917 8.02803 1.28365 8.02803C8.09456 8.02803 14.9039 8.02803 21.7148 8.02803C21.8493 8.02803 21.9853 8.02039 22.1183 8.03567C22.6333 8.09374 23.0031 8.50481 22.9985 9.00146C22.9939 9.50574 22.6241 9.89847 22.0969 9.93668C21.7989 9.95807 21.4979 9.94585 21.1999 9.94585C17.9663 9.94585 14.7343 9.94585 11.5008 9.94585L11.4992 9.9489Z" fill="black"/>
<path d="M11.4518 17.2947C8.06855 17.2947 4.68678 17.2947 1.30349 17.2947C1.13845 17.2947 0.97188 17.3023 0.809897 17.2809C0.349928 17.2183 0.00456849 16.8118 -1.59237e-05 16.3472C-0.00460034 15.8873 0.340759 15.467 0.794616 15.3998C0.956598 15.3753 1.12317 15.386 1.2882 15.386C8.09911 15.386 14.9085 15.386 21.7194 15.386C21.8692 15.386 22.0205 15.3769 22.1687 15.3952C22.647 15.4517 23.0092 15.875 23.0015 16.3549C22.9939 16.8194 22.6455 17.2213 22.184 17.2809C22.022 17.3023 21.8554 17.2947 21.6904 17.2947C18.278 17.2947 14.8657 17.2947 11.4518 17.2947Z" fill="black"/>
</g>
<defs>
<clipPath id="clip0_32_291">
<rect width="23" height="16.617" fill="white" transform="translate(0 0.677704)"/>
</clipPath>
</defs>
</svg>
