<svg width="23" height="24" viewBox="0 0 23 24" fill="none" xmlns="http://www.w3.org/2000/svg">
<g clip-path="url(#clip0_13_3)">
<path d="M11.4903 13.0739C12.6323 11.9301 13.71 10.8516 14.7876 9.77313C14.8673 9.69343 14.9445 9.60949 15.0343 9.54336C15.2989 9.3492 15.6439 9.37803 15.8746 9.6061C16.106 9.83503 16.1391 10.1776 15.9483 10.4463C15.8958 10.5209 15.8288 10.5862 15.7635 10.6507C14.5477 11.8674 13.3318 13.0832 12.1151 14.299C11.6759 14.7374 11.3554 14.7357 10.9137 14.2948C9.6682 13.0501 8.42353 11.8046 7.17802 10.5599C6.97623 10.3582 6.86601 10.1318 6.95758 9.84096C7.03982 9.58067 7.22126 9.4306 7.4824 9.38227C7.76559 9.33055 7.96823 9.47808 8.15646 9.668C9.18831 10.7058 10.2244 11.7402 11.2571 12.7788C11.3351 12.8577 11.3961 12.9543 11.4886 13.073L11.4903 13.0739Z" fill="black"/>
<path d="M11.4996 23.5C5.1584 23.5 0 18.3407 0 11.9996C0 5.6584 5.1584 0.5 11.4996 0.5C17.8407 0.5 22.9992 5.65925 22.9992 11.9996C22.9992 18.3399 17.8407 23.4992 11.4996 23.4992V23.5ZM11.4996 2.02615C6.00033 2.02615 1.52615 6.50033 1.52615 11.9996C1.52615 17.4988 6.00033 21.973 11.4996 21.973C16.9988 21.973 21.473 17.4988 21.473 11.9996C21.473 6.50033 16.9997 2.02615 11.4996 2.02615Z" fill="black"/>
</g>
<defs>
<clipPath id="clip0_13_3">
<rect width="23" height="23" fill="white" transform="translate(0 0.5)"/>
</clipPath>
</defs>
</svg>
