<?xml version="1.0" encoding="UTF-8"?>
<svg id="Layer_2" data-name="Layer 2" xmlns="http://www.w3.org/2000/svg" viewBox="0 0 39.68 39.67">
  <defs>
    <style>
      .cls-1 {
        fill: #fff;
        stroke-width: 0px;
      }
    </style>
  </defs>
  <g id="Layer_1-2" data-name="Layer 1">
    <path class="cls-1" d="m23.69,39.58v-14.15h3.88c.29-1.88.58-3.7.87-5.6h-5.8c0-1.57-.13-3.09.04-4.58.14-1.2,1.03-1.96,2.28-2.07.98-.09,1.96-.06,2.94-.08.43,0,.85,0,1.31,0,.02-.17.05-.31.05-.45,0-1.32.01-2.65-.01-3.97,0-.18-.16-.5-.28-.52-2.33-.29-4.67-.66-6.99.01-3.11.91-4.87,3.3-5,6.73-.05,1.39-.02,2.78-.02,4.16,0,.23,0,.46,0,.75h-4.45v5.58h4.4v14.28c-3.54-.57-6.75-1.88-9.52-4.15C3.26,32.13.84,27.78.17,22.48-1.36,10.46,7.86.36,19.2,0c11.59-.36,21.1,9.27,20.45,20.99-.31,5.59-2.57,10.28-6.75,14.03-2.61,2.33-7.39,4.71-9.21,4.56Z"/>
  </g>
</svg>