<svg width="18" height="19" viewBox="0 0 18 19" fill="none" xmlns="http://www.w3.org/2000/svg">
<g clip-path="url(#clip0_14_118)">
<path d="M13.8208 18.5001C12.6631 18.4436 11.525 18.0331 10.4386 17.4702C7.54303 15.9659 5.18089 13.8274 3.15303 11.3006C2.01743 9.8897 1.0588 8.36819 0.456592 6.64758C0.151799 5.78236 -0.0620478 4.89748 0.0780587 3.9659C0.156715 3.43988 0.358272 2.98023 0.736805 2.6017C1.25053 2.09044 1.75934 1.5718 2.27798 1.06299C3.02521 0.332959 4.06987 0.303462 4.82693 1.02612C5.67249 1.8348 6.50329 2.66069 7.30706 3.51116C8.17228 4.42554 7.86749 5.76762 6.71714 6.25184C5.66511 6.69429 5.26937 7.47839 5.69461 8.53533C6.50821 10.5681 7.9781 11.9938 10.001 12.8074C10.9498 13.1883 11.8323 12.7459 12.2305 11.802C12.7368 10.605 14.0715 10.31 15.008 11.2096C15.8437 12.011 16.6598 12.8344 17.466 13.6677C18.169 14.3928 18.1543 15.4522 17.4439 16.1945C16.9105 16.7525 16.3575 17.2932 15.8069 17.834C15.2784 18.3526 14.6147 18.4976 13.8208 18.5001Z" fill="white"/>
</g>
<defs>
<clipPath id="clip0_14_118">
<rect width="17.9508" height="18" fill="white" transform="translate(0.0338135 0.5)"/>
</clipPath>
</defs>
</svg>
