<svg width="20" height="23" viewBox="0 0 20 23" fill="none" xmlns="http://www.w3.org/2000/svg">
<g clip-path="url(#clip0_10_37)">
<path d="M3.88759 7.65051H15.3737V8.13884C15.3737 11.0723 15.3737 14.004 15.3737 16.9374C15.3737 17.9401 15.1071 18.2016 14.0871 18.205C13.8966 18.205 13.7061 18.205 13.4654 18.205C13.4654 19.2371 13.4689 20.2207 13.462 21.2043C13.4602 21.4415 13.4499 21.6857 13.3927 21.9142C13.2265 22.5931 12.5494 23.0623 11.881 22.9913C11.197 22.9203 10.6169 22.3454 10.5961 21.651C10.5666 20.6796 10.5839 19.7064 10.5805 18.7332C10.5805 18.5739 10.5805 18.4128 10.5805 18.231H8.64621C8.64621 18.9548 8.64621 19.6544 8.64621 20.354C8.64621 20.7436 8.65487 21.1315 8.64275 21.5212C8.61851 22.3437 8.01935 22.974 7.25395 22.9983C6.47817 23.0225 5.80801 22.3974 5.77338 21.5593C5.74221 20.7973 5.76472 20.0337 5.76299 19.27C5.76299 18.9306 5.76299 18.5894 5.76299 18.1912C5.38375 18.1912 5.05647 18.2137 4.73438 18.186C4.16639 18.1375 3.86162 17.8171 3.85989 17.2474C3.85296 14.1044 3.85642 10.9632 3.85816 7.82021C3.85816 7.77692 3.87374 7.73536 3.88933 7.65051H3.88759Z" fill="white"/>
<path d="M15.3789 6.64441H3.90492C3.70578 5.17595 4.59932 3.39753 6.21323 2.06242C6.11799 1.95678 6.02794 1.84769 5.92751 1.74725C5.6539 1.47019 5.37857 1.19658 5.10323 0.921248C4.86426 0.684009 4.73612 0.422528 5.02184 0.147193C5.28852 -0.110826 5.53961 0.010391 5.76473 0.235508C6.10241 0.574914 6.4522 0.903931 6.77775 1.25373C6.94399 1.43209 7.08599 1.46326 7.3215 1.36802C8.8471 0.753276 10.3831 0.753276 11.907 1.36802C12.1459 1.46499 12.2862 1.42516 12.4507 1.24853C12.7451 0.931638 13.062 0.633791 13.3685 0.325554C13.6109 0.0813893 13.8707 -0.174897 14.2049 0.150656C14.5374 0.472746 14.3088 0.744618 14.056 0.987051C13.7027 1.32646 13.3477 1.66413 12.965 2.02951C14.527 3.20358 15.3114 4.7084 15.3789 6.64267V6.64441ZM7.18989 3.5707C6.79334 3.58109 6.47818 3.90664 6.49203 4.29453C6.50415 4.67896 6.84183 4.99759 7.22972 4.9872C7.62454 4.97681 7.92585 4.65645 7.91719 4.25644C7.90853 3.85642 7.5951 3.56031 7.19162 3.5707H7.18989ZM12.7364 4.27202C12.7347 3.88413 12.4091 3.56897 12.0126 3.5707C11.6108 3.5707 11.3078 3.8772 11.3095 4.28068C11.3113 4.67896 11.623 4.99066 12.0195 4.9872C12.4057 4.98374 12.7382 4.65299 12.7347 4.27202H12.7364Z" fill="white"/>
<path d="M2.88324 12.4438C2.88324 13.5053 2.8867 14.5668 2.88324 15.6283C2.87804 16.5651 2.26677 17.2439 1.44249 17.2387C0.621682 17.2335 0.00694017 16.5478 0.00520851 15.6144C1.35056e-05 13.4914 1.35056e-05 11.3667 0.00520851 9.24364C0.00694017 8.30854 0.625145 7.63318 1.45635 7.63665C2.28581 7.64011 2.88151 8.31027 2.88497 9.25576C2.88843 10.3173 2.88497 11.3788 2.88497 12.4403L2.88324 12.4438Z" fill="white"/>
<path d="M19.2249 12.4472C19.2249 13.4949 19.2284 14.5408 19.2249 15.5885C19.2215 16.5495 18.6033 17.2491 17.7704 17.2422C16.9443 17.2353 16.3469 16.5599 16.3452 15.6144C16.3417 13.4914 16.3417 11.3667 16.3452 9.24364C16.3469 8.30334 16.9582 7.63319 17.7894 7.64011C18.6189 7.64704 19.2198 8.32066 19.2249 9.26269C19.2301 10.3242 19.2249 11.3857 19.2249 12.4472Z" fill="white"/>
</g>
<defs>
<clipPath id="clip0_10_37">
<rect width="19.225" height="23" fill="white"/>
</clipPath>
</defs>
</svg>
