<?xml version="1.0" encoding="UTF-8"?>
<svg id="Layer_2" xmlns="http://www.w3.org/2000/svg" viewBox="0 0 54.02 37.8">
  <g id="Layer_1-2" data-name="Layer_1">
    <g>
      <path d="M9.24.02c.84.03,1.68.53,2.15,1.53.49,1.05.28,2.02-.4,2.96-1.06,1.44-2.22,2.83-3.05,4.4-4.19,7.89-3.07,17.32,2.77,24.07.59.68,1.03,1.4.94,2.33-.12,1.16-.72,1.98-1.83,2.34-1.1.36-2.09.1-2.88-.76-1.97-2.17-3.62-4.58-4.69-7.3C-1.85,19.18-.35,9.65,6.82,1.05,7.38.38,8.08,0,9.24.02Z"/>
      <path d="M54.02,18.89c-.08,6.8-2.33,12.77-6.82,17.89-.81.92-1.8,1.23-2.96.86-1.11-.36-1.72-1.18-1.83-2.34-.09-.85.26-1.55.82-2.18,2.54-2.89,4.25-6.21,4.96-10.01,1.26-6.75-.31-12.77-4.65-18.09-.42-.51-.85-1.08-1.04-1.69-.37-1.18.24-2.42,1.31-3,1.09-.59,2.42-.38,3.29.58,1.99,2.18,3.57,4.64,4.73,7.35,1.46,3.39,2.2,6.93,2.19,10.63Z"/>
      <path d="M17.75,6.62c.81.02,1.64.49,2.14,1.45.5.96.41,1.91-.2,2.81-.11.16-.24.3-.37.44-4.13,4.48-4.15,10.65-.03,15.13.78.85,1.11,1.79.72,2.9-.35,1-1.08,1.6-2.12,1.78-.92.16-1.71-.14-2.37-.78-6.25-6.07-6.24-16.79.02-22.89.57-.55,1.19-.82,2.2-.82Z"/>
      <path d="M43.23,18.88c-.08,4.27-1.5,7.98-4.38,11.1-1.29,1.4-2.91,1.56-4.11.43-1.19-1.12-1.13-2.71.14-4.09,3.4-3.7,3.91-9.09,1.23-13.25-.4-.62-.88-1.18-1.37-1.73-1.11-1.25-1.1-2.89.06-3.95,1.13-1.03,2.77-.93,3.9.26,2.99,3.16,4.47,6.93,4.55,11.23Z"/>
      <path d="M27.01,14.85c2.24,0,4.06,1.81,4.06,4.05,0,2.23-1.83,4.06-4.07,4.05-2.21,0-4.02-1.81-4.03-4.02-.01-2.24,1.8-4.08,4.04-4.08Z"/>
    </g>
  </g>
</svg>