<?xml version="1.0" encoding="UTF-8"?>
<svg id="Layer_2" xmlns="http://www.w3.org/2000/svg" viewBox="0 0 69.59 45.72">
  <g id="Layer_1-2" data-name="Layer_1">
    <g>
      <path d="M69.59,33.16c-.06,2.8-.13,5.47-1.12,8.01-.69,1.79-1.76,3.28-3.58,4.06-1.69.73-3.42.54-5.12.04-2.51-.74-4.71-2.11-6.75-3.7-2.04-1.58-3.98-3.29-5.96-4.95-2.01-1.67-4.39-2.5-6.9-2.99-4.12-.81-8.24-.72-12.32.37-2.24.6-4.27,1.58-6,3.16-2.5,2.28-5.07,4.46-7.97,6.21-1.65.99-3.36,1.87-5.29,2.2-3.42.59-6.1-.92-7.42-4.16C.27,39.25.01,36.95,0,34.64c-.05-8.15,1.46-16.02,4.61-23.55,1.25-2.99,2.95-5.71,5.34-7.94C12.41.85,15.35-.26,18.65.13c2.86.34,5.68,1.06,8.52,1.61,2.26.44,4.51,1.05,6.8,1.26,1.59.14,3.25-.15,4.83-.46,3.19-.64,6.34-1.48,9.53-2.15,2.63-.55,5.26-.57,7.81.48,2.27.93,3.99,2.54,5.47,4.44,2.71,3.47,4.21,7.51,5.43,11.68,1.56,5.33,2.43,10.76,2.55,16.19ZM3.2,32.64c0,3.09.09,5.19.8,7.21.73,2.1,2.19,3.01,4.31,2.4,1.37-.39,2.72-1.01,3.96-1.72,2.71-1.55,5.01-3.64,7.32-5.72,2.03-1.82,4.4-3.03,6.99-3.77,5.42-1.54,10.86-1.57,16.28,0,2.53.73,4.79,1.96,6.78,3.72,2.02,1.78,4.1,3.49,6.25,5.11,1.69,1.26,3.54,2.27,5.67,2.64,1.62.28,2.79-.28,3.55-1.73.86-1.67,1.11-3.48,1.19-5.32.25-5.87-.71-11.59-2.24-17.23-1.04-3.82-2.43-7.49-4.83-10.69-2.29-3.06-5.32-4.67-9.17-4.11-2.84.41-5.65,1.02-8.43,1.75-4.48,1.18-8.9,1.3-13.4.07-2.76-.76-5.58-1.38-8.41-1.84-2.99-.49-5.7.29-7.96,2.41-2.01,1.89-3.35,4.22-4.39,6.71-2.8,6.74-4.15,13.8-4.28,20.11Z"/>
      <path d="M28.26,18.34c-.02,2.34-1.69,4.4-3.97,4.85-.48.1-.64.29-.74.76-.5,2.31-2.71,4.03-5.04,3.95-2.39-.08-4.42-1.8-4.81-4.11-.07-.41-.25-.49-.61-.56-1.95-.37-3.25-1.52-3.88-3.39-.63-1.88-.21-3.58,1.13-5.03.72-.78,1.63-1.29,2.7-1.46.37-.06.59-.16.67-.6.43-2.35,2.5-4.05,4.91-4.09,2.32-.04,4.46,1.65,4.93,3.97.1.49.28.65.76.74,2.25.42,3.96,2.61,3.94,4.97ZM25.14,18.29c0-1.02-.69-1.76-1.72-1.81-.32-.02-.63,0-.95,0-1.35,0-1.97-.64-1.99-2.01,0-.43-.02-.86-.1-1.28-.18-.91-.9-1.44-1.81-1.4-.92.05-1.63.71-1.71,1.62-.03.38-.01.77-.02,1.15-.01,1.21-.66,1.87-1.89,1.91-.38.01-.77-.01-1.15.03-1.02.12-1.66.85-1.62,1.83.04.92.74,1.62,1.72,1.68.38.02.77,0,1.16.01,1.06.02,1.72.66,1.78,1.73.02.43-.01.86.02,1.29.07.91.73,1.56,1.62,1.63,1,.07,1.77-.45,1.94-1.4.09-.46.06-.95.07-1.42.03-1.02.61-1.64,1.63-1.72.5-.04,1,0,1.49-.06.94-.12,1.53-.83,1.54-1.77Z"/>
      <path d="M52.89,12.11c0,1.69-1.31,3.03-3,3.04-1.69,0-3.03-1.31-3.04-3,0-1.69,1.31-3.03,2.99-3.04,1.69-.01,3.03,1.31,3.04,2.99Z"/>
      <path d="M43.69,15.26c1.67,0,3.04,1.35,3.05,3.01.01,1.66-1.34,3.03-3.01,3.04-1.66.01-3.04-1.34-3.05-3.01-.01-1.66,1.36-3.04,3.02-3.04Z"/>
      <path d="M56.03,15.26c1.66,0,3.01,1.35,3.02,3.02,0,1.66-1.34,3.02-3,3.04-1.69.02-3.07-1.36-3.05-3.05.01-1.66,1.37-3,3.04-3Z"/>
      <path d="M46.85,24.45c0-1.68,1.34-3.04,3.01-3.05,1.66,0,3.02,1.36,3.03,3.03,0,1.67-1.34,3.04-3.01,3.05-1.66,0-3.02-1.36-3.03-3.03Z"/>
    </g>
  </g>
</svg>