<?xml version="1.0" encoding="UTF-8"?>
<svg id="Layer_2" xmlns="http://www.w3.org/2000/svg" viewBox="0 0 60.62 56.78">
  <g id="Layer_1-2" data-name="Layer_1">
    <g>
      <path d="M9.91,36.71c-.58-1.36-1.19-2.64-1.67-3.96-.7-1.92-.99-3.93-1.01-5.97-.01-1.18-.01-2.37,0-3.55,0-1.2.72-1.94,1.91-1.93,2.34.01,4.69-.12,7.02.33,2.03.39,3.95,1.07,5.82,2.09.21-.67.39-1.3.61-1.92,1.36-3.96,3.54-7.41,6.35-10.49.82-.9,1.95-.89,2.79.03,3.15,3.49,5.53,7.4,6.77,11.97.03.11.08.22.12.35.88-.38,1.72-.78,2.59-1.12,2.14-.82,4.36-1.22,6.64-1.24,1.2-.01,2.41-.01,3.61,0,1.19,0,1.92.73,1.92,1.92,0,2.54.12,5.09-.45,7.6-.47,2.05-1.23,3.98-2.33,5.86.29.13.55.26.81.37,3.24,1.41,6.05,3.44,8.54,5.93.83.83.92,1.84.14,2.63-3.49,3.51-7.48,6.22-12.4,7.29-3.33.73-6.53.25-9.66-1.03-1.06-.43-.72-.55-1.53.38-1.49,1.71-3.27,3.07-5.2,4.24-.69.42-1.38.37-2.06-.05-2.02-1.26-3.89-2.69-5.4-4.55-.23-.28-.42-.38-.79-.22-5.92,2.66-11.52,1.73-16.89-1.56-1.94-1.19-3.72-2.59-5.33-4.2-1.09-1.09-1.09-2.02,0-3.1,2.54-2.5,5.4-4.53,8.7-5.91.14-.06.28-.14.39-.19ZM30.38,15.1c-.19.21-.28.31-.36.41-1.6,2.07-2.91,4.31-3.83,6.75-1.04,2.75-1.5,5.58-1.01,8.52.54,3.25,1.88,6.15,3.68,8.87.44.66.93,1.3,1.42,1.98.14-.17.22-.25.29-.34,2.01-2.62,3.57-5.47,4.46-8.66.51-1.83.71-3.7.53-5.61-.28-2.94-1.29-5.63-2.74-8.16-.73-1.27-1.59-2.47-2.43-3.76ZM10.84,24.88c-.93,10.86,7.97,17.86,15.6,17.62-.48-.75-.98-1.48-1.42-2.24-2.24-3.8-3.64-7.84-3.61-12.31,0-.21-.19-.5-.38-.63-3.1-2-6.52-2.66-10.19-2.44ZM34.13,42.55c9.01-.13,16.53-7.88,15.64-17.7-.74,0-1.48-.02-2.23,0-2.88.1-5.54.89-7.97,2.46-.19.12-.38.41-.38.63.03,4.45-1.35,8.47-3.58,12.26-.46.78-.96,1.53-1.49,2.35ZM25.47,46.2c-.09-.06-.14-.11-.18-.12-.15-.03-.31-.04-.47-.06-2.5-.24-4.86-.95-7.08-2.11-1.92-1-3.62-2.3-5.13-3.85-.16-.16-.5-.32-.68-.26-2.84.95-5.27,2.59-7.56,4.56.13.12.22.23.33.3,1.42.99,2.77,2.09,4.27,2.95,3.77,2.16,7.74,2.78,11.9,1.13,1.63-.65,3.16-1.48,4.6-2.54ZM35.05,46.16c.63.41,1.15.77,1.68,1.09,2.64,1.58,5.44,2.61,8.56,2.4,2.91-.2,5.48-1.36,7.88-2.94,1.06-.7,2.05-1.5,3.12-2.3-2.15-1.86-4.37-3.35-6.89-4.39-.76-.32-1.22-.22-1.81.39-2.59,2.66-5.74,4.38-9.36,5.21-.99.23-2.01.35-3.18.54ZM26.58,49.88c1.16.95,2.31,1.91,3.49,2.86.09.07.32.1.41.05,1.29-.86,2.48-1.84,3.44-3-1.13-.91-2.21-1.79-3.31-2.65-.13-.1-.45-.11-.57-.02-1.12.86-2.22,1.76-3.45,2.76Z"/>
      <path d="M17.14,13.69c-.23-.12-.7-.26-1.03-.56-.86-.78-1.67-1.62-2.48-2.46-.74-.77-.73-1.85-.02-2.55.69-.68,1.75-.69,2.5.02.86.81,1.69,1.66,2.51,2.51.54.56.66,1.24.34,1.97-.3.68-.86,1-1.83,1.06Z"/>
      <path d="M43.43,13.68c-.85-.03-1.39-.31-1.72-.92-.34-.62-.38-1.31.09-1.84.93-1.04,1.92-2.04,2.96-2.97.64-.57,1.66-.42,2.26.19.6.61.73,1.63.16,2.27-.92,1.02-1.92,1.98-2.93,2.92-.24.22-.64.27-.82.34Z"/>
      <path d="M28.53,3.49c0-.55-.01-1.1,0-1.65C28.56.78,29.3,0,30.29,0c.99,0,1.77.76,1.79,1.81.02,1.16.02,2.32,0,3.48-.02,1.05-.8,1.81-1.79,1.81-.99,0-1.73-.78-1.76-1.84-.01-.59,0-1.18,0-1.77Z"/>
    </g>
  </g>
</svg>