<?xml version="1.0" encoding="UTF-8"?>
<svg id="Layer_2" xmlns="http://www.w3.org/2000/svg" viewBox="0 0 39.8 57.5">
  <g id="Layer_1-2" data-name="Layer_1">
    <path d="M17.68,41.53v-.82c0-12.73,0-25.45,0-38.18,0-1.07.35-1.91,1.37-2.35,1.23-.53,2.61.22,3.01,1.5.28.89.66,1.78,1.15,2.58,1.43,2.35,3.41,4.18,5.69,5.71,1.78,1.2,3.56,2.41,5.24,3.74,3.27,2.6,5.14,6.03,5.58,10.18.28,2.7-.24,5.32-1.04,7.89-.8,2.58-2.02,4.94-3.72,7.03-.76.94-1.84,1.18-2.8.69-1.19-.61-1.57-2.1-.82-3.21.01-.02.02-.03.03-.05,1.08-.93.93-2.01.53-3.23-1.59-4.82-4.79-8.09-9.42-10.03-.08-.04-.17-.06-.35-.12,0,.28,0,.51,0,.74,0,8.02-.06,16.04.02,24.05.04,3.99-1.8,6.74-5.25,8.39-4.47,2.14-8.95,1.95-13.1-.86-5.07-3.43-5.07-9.8,0-13.22,4.21-2.84,8.69-2.93,13.25-.77.18.09.36.19.63.33Z"/>
  </g>
</svg>