<?xml version="1.0" encoding="UTF-8"?>
<svg id="Layer_2" xmlns="http://www.w3.org/2000/svg" viewBox="0 0 52.38 48.77">
  <g id="Layer_1-2" data-name="Layer_1">
    <g>
      <path d="M11.5,21.66c0-.29,0-.5,0-.72,0-6.13,0-12.26,0-18.4C11.5.79,12.29,0,14.02,0c11.98,0,23.95,0,35.93,0,1.3,0,2.14.58,2.38,1.65.05.23.05.47.05.71,0,12.32,0,24.63,0,36.95,0,5.38-4.06,9.44-9.44,9.45-11.23.01-22.45,0-33.68.01-1.14,0-2.27.1-3.4-.19-3.23-.85-5.73-3.78-5.79-7.1-.08-4.15-.1-8.31,0-12.47.1-3.95,3.51-7.22,7.47-7.33,1.29-.04,2.59,0,3.97,0ZM14.97,44.58c.1,0,.25.02.4.02,9.16,0,18.33,0,27.49,0,.47,0,.96-.03,1.41-.16,2.47-.68,3.94-2.62,3.94-5.18,0-11.51,0-23.03,0-34.54,0-.17-.01-.33-.02-.52H15.67v.69c0,11.87,0,23.74,0,35.61,0,.36.02.72-.05,1.07-.19.99-.43,1.98-.65,3ZM11.48,25.84c-.11-.01-.19-.03-.27-.03-1.21,0-2.42-.03-3.62.04-1.83.1-3.27,1.53-3.35,3.36-.06,1.43-.03,2.86-.03,4.29,0,2.59-.02,5.17.03,7.76.04,2.07,2.08,3.93,4.65,3.26,1.62-.43,2.62-1.86,2.63-3.7,0-4.82,0-9.63,0-14.45,0-.17-.02-.33-.02-.52Z"/>
      <path d="M31.9,27.18c-2.96,0-5.93,0-8.89,0-1.54,0-2.55-1.42-2.01-2.81.29-.74.84-1.19,1.63-1.3.25-.04.51-.04.76-.04,5.67,0,11.35,0,17.02,0,.37,0,.76.02,1.11.12.95.27,1.56,1.23,1.43,2.21-.13,1.01-.95,1.79-1.96,1.82-1.4.03-2.79.01-4.19.01-1.64,0-3.27,0-4.91,0Z"/>
      <path d="M29.41,36.58c-2.16,0-4.32,0-6.48,0-.88,0-1.54-.43-1.89-1.24-.33-.78-.26-1.57.35-2.18.33-.32.83-.66,1.26-.66,4.51-.05,9.02-.05,13.53-.02.94,0,1.69.83,1.79,1.73.11.98-.39,1.88-1.28,2.2-.31.11-.66.15-1,.15-2.09.01-4.19,0-6.28,0h0Z"/>
      <path d="M29.37,17.16c-2.14,0-4.29.01-6.43,0-.9,0-1.58-.44-1.92-1.28-.32-.78-.2-1.54.38-2.19.43-.49,1.01-.69,1.64-.69,4.25,0,8.51-.02,12.76,0,1.32,0,2.2.91,2.18,2.13-.02,1.19-.93,2.02-2.23,2.02-2.13,0-4.25,0-6.38,0h0Z"/>
    </g>
  </g>
</svg>