<?xml version="1.0" encoding="UTF-8"?>
<svg id="Layer_2" xmlns="http://www.w3.org/2000/svg" viewBox="0 0 54.06 60.32">
  <g id="Layer_1-2" data-name="Layer_1">
    <g>
      <path d="M27.09,55.26c-.63.79-1.15,1.61-1.82,2.27-4.29,4.22-10.95,3.55-14.35-1.41-.16-.24-.43-.46-.7-.57-3.8-1.47-6.22-5.12-6.03-9.2.02-.5-.13-.76-.54-1.03-3.57-2.31-4.72-7.24-2.54-10.91.26-.44.28-.75.01-1.21-1.79-3-1.41-6.89.93-9.53.29-.33.37-.6.27-1.04-1.02-4.36,1.57-8.67,5.9-9.85.17-.05.33-.09.39-.11-.08-.99-.26-1.94-.21-2.88.1-1.87.99-3.39,2.53-4.44,1.66-1.14,3.36-2.24,5.09-3.27,1.61-.95,3.36-1.59,5.21-1.93,2.27-.42,4.25.02,5.74,1.89.07-.02.12-.02.14-.04,1.89-2.28,4.31-2.28,6.88-1.59,2.46.66,4.64,1.87,6.72,3.31.69.48,1.4.94,2.11,1.39,2.37,1.52,3.41,4.29,2.62,7.02-.04.15-.08.3-.12.48.54.19,1.08.34,1.59.56,3.72,1.57,5.75,5.51,4.84,9.43-.1.45-.04.75.27,1.1,2.35,2.65,2.71,6.51.89,9.58-.23.39-.24.66,0,1.05,2.26,3.81,1.12,8.64-2.6,11.08-.34.22-.45.45-.43.85.2,4.21-2.15,7.78-6.09,9.34-.23.09-.46.29-.61.5-2.66,3.84-7.07,5.22-11.4,3.49-1.8-.72-3.2-1.96-4.25-3.59-.15-.23-.28-.47-.43-.72ZM51.24,35.36c-.16.12-.31.23-.47.35-1.32.99-2.8,1.56-4.46,1.65-.99.05-1.46-.25-1.49-.91-.02-.63.39-.94,1.36-1.03,2.58-.24,4.43-1.56,5.43-3.92.95-2.26.66-4.5-.97-6.33-.9-1.01-1.15-1.8-.81-3.15.83-3.33-1.43-6.68-4.73-7.4-3.4-.74-6.76,1.36-7.54,4.75-.11.45-.11.93-.17,1.4-.07.59-.47.99-.98.99-.54,0-.95-.44-.98-1.05,0-.12,0-.24.02-.35.32-4.16,3.16-7.18,7.29-7.78.22-.03.52-.23.61-.43.68-1.5.55-2.96-.43-4.28-1-1.34-2.38-1.9-4.03-1.67-1.42.2-2.43,1-3.13,2.24-.35.61-.87.78-1.38.5-.53-.28-.68-.86-.3-1.47.38-.59.77-1.22,1.3-1.65.76-.62,1.66-1.07,2.48-1.59-1.74-1.03-3.63-1.95-5.78-2.21-2.6-.31-4.1,1.04-4.1,3.65,0,2.41,0,4.83,0,7.24v.45c.99-.29,1.9-.62,2.85-.82.73-.16,1.24.22,1.31.83.07.6-.34,1-1.1,1.11-.42.06-.86.13-1.24.32-1.36.66-1.82,1.84-1.82,3.29,0,10.41,0,20.81,0,31.22,0,.78-.01,1.57.06,2.35.3,3.21,2.58,5.8,5.67,6.51,3.07.7,6.22-.63,7.9-3.37.32-.52.71-.83,1.28-1.04,3.56-1.28,5.46-4.5,4.89-8.26-.09-.58.08-1,.6-1.27.19-.1.38-.2.57-.31,2.95-1.66,4.02-5.67,2.26-8.57ZM16.02,4.31c.2.08.33.13.45.17,1.54.55,2.73,1.52,3.51,2.97.33.61.23,1.15-.26,1.44-.51.32-1.04.14-1.43-.47-.05-.08-.1-.17-.15-.25-1.13-1.86-3.47-2.57-5.39-1.65-2.01.96-2.94,3.23-2.2,5.3.18.5.44.73,1,.79,3.86.42,7.16,4.19,7.08,8.03-.01.63-.38,1.06-.92,1.1-.56.04-.98-.38-1.04-1.04,0-.06,0-.12,0-.18-.12-2.22-1.16-3.92-3.01-5.11-2.1-1.35-5.04-1.23-6.93.21-2.3,1.76-3.22,4.33-2.39,6.91.29.91.15,1.5-.55,2.18-2.62,2.55-2.39,6.83.4,9.19,1.18,1,2.53,1.46,4.04,1.54.63.03,1.03.46,1.01,1-.02.55-.44.95-1.08.92-.59-.02-1.18-.08-1.75-.2-1.35-.28-2.52-.93-3.6-1.82-.94,1.69-1.11,3.42-.5,5.21.55,1.61,1.62,2.8,3.13,3.59.76.4.91.68.81,1.38-.57,3.78,1.34,6.98,4.95,8.28.53.19.9.49,1.2.96,1.4,2.27,3.44,3.51,6.12,3.57,2.9.06,5.14-1.22,6.56-3.72,1.42-2.49,1.3-5.03-.17-7.49-.89-1.48-2.2-2.48-3.83-3.05-.15-.05-.3-.1-.44-.16-.61-.26-.86-.71-.68-1.25.17-.53.65-.78,1.29-.6,1.73.48,3.18,1.4,4.38,2.73.11.12.19.28.35.52.07-.26.09-.31.09-.36,0-7.68,0-15.35,0-23.03,0-1.07-.37-2.05-1.31-2.63-.58-.35-1.3-.5-1.97-.68-.53-.14-.91-.51-.89-1.01.02-.53.44-.93,1.02-.92.37,0,.76.03,1.1.14.68.22,1.33.52,2.01.78,0-.02.03-.07.03-.12,0-4.1.04-8.21-.01-12.31-.03-2.03-1.48-3.3-3.49-3.21-2.39.11-4.44,1.14-6.53,2.33Z"/>
      <path d="M39.64,27.97c.3,1.67,1.85,3.08,3.54,3.24.21.02.43.03.64.08.56.12.9.53.86,1.02-.05.52-.48.92-1.05.9-1.59-.06-2.99-.59-4.15-1.69-.91-.86-1.53-1.89-1.77-3.12-.07-.35-.23-.46-.58-.51-1.65-.27-3.09-.99-4.31-2.14-.56-.53-.65-1.09-.26-1.54.41-.46.99-.42,1.6.11,2.07,1.83,4.42,2.27,6.93,1.14,2.25-1.01,3.47-2.85,3.71-5.32,0-.1,0-.2.01-.29.05-.67.45-1.1,1.01-1.08.57.02.95.47.94,1.14-.02,1.28-.31,2.49-.91,3.62-1.24,2.31-3.14,3.77-5.72,4.32-.12.02-.23.05-.34.08-.04,0-.07.03-.15.06Z"/>
      <path d="M39.5,42.74c.39,0,.7,0,1.02,0,.6.01,1,.37,1.03.91.03.55-.32.93-.92,1.01-.6.09-1.22.12-1.8.28-2.47.69-4.28,2.9-4.51,5.46-.02.23-.04.47-.07.7-.09.56-.49.88-1.02.85-.52-.04-.89-.42-.89-.98,0-1.36.32-2.64.96-3.84.86-1.6,2.11-2.82,3.77-3.58.32-.15.46-.33.47-.7.1-3.35-2.53-6.25-5.87-6.47-.98-.06-1.45-.4-1.42-1.05.03-.67.55-.98,1.55-.92,3.95.22,7.36,3.55,7.65,7.49.02.27.04.54.07.85Z"/>
      <path d="M16.55,28.99c-1.43-.25-2.73-.73-3.85-1.6-2.09-1.6-3.18-3.73-3.32-6.35-.03-.48.08-.96.58-1.11.31-.09.78-.04,1.01.15.24.2.36.64.38.99.16,2.58,1.77,4.81,4.22,5.64,2.33.79,4.44.34,6.31-1.25.06-.05.11-.11.17-.16.54-.47,1.13-.51,1.52-.09.43.45.36,1-.21,1.54-1.21,1.16-2.65,1.89-4.3,2.16-.4.07-.54.24-.63.6-.65,2.71-2.99,4.61-5.81,4.73-.61.03-1.08-.33-1.13-.87-.06-.58.34-1.04,1.05-1.09,1.02-.06,1.92-.39,2.68-1.05.67-.58,1.11-1.31,1.34-2.26Z"/>
      <path d="M11.46,44.83c.02-2.18.72-4.07,2.18-5.65,1.56-1.69,3.51-2.6,5.82-2.68.76-.02,1.18.28,1.23.87.05.63-.35,1-1.12,1.06-3.1.25-5.39,2.17-6.01,5.06-.03.15-.04.31-.07.46-.19.93.05,1.49,1,2.02,2.68,1.5,4.02,3.93,4.15,7,.03.6-.4,1.06-.94,1.08-.55.02-.99-.41-1.01-1.07-.06-1.48-.52-2.79-1.49-3.93-1.18-1.39-2.67-2.14-4.49-2.27-.16-.01-.32,0-.47-.03-.5-.09-.86-.53-.84-.99.02-.48.39-.88.91-.92.37-.03.74,0,1.17,0Z"/>
    </g>
  </g>
</svg>