<?xml version="1.0" encoding="UTF-8"?>
<svg id="Layer_2" xmlns="http://www.w3.org/2000/svg" viewBox="0 0 56.35 52.84">
  <defs>
    <style>
      .cls-1 {
        fill: #fff;
      }
    </style>
  </defs>
  <g id="Layer_1-2" data-name="Layer_1">
    <g>
      <path d="M35.21,26.59c-.51.49-1.01.98-1.53,1.49.14.15.27.3.41.44,1.93,1.93,3.87,3.86,5.8,5.8,1.5,1.51,2.04,3.3,1.28,5.33-.27.71-.73,1.41-1.27,1.96-3.19,3.25-6.41,6.46-9.64,9.66-2.31,2.28-5.6,2.06-7.6-.46-1.51-1.91-1.25-4.68.65-6.59,1.91-1.93,3.84-3.84,5.76-5.76.14-.14.31-.26.42-.34-1.01-1.01-1.97-1.95-2.94-2.93-.08.07-.22.21-.36.35-5.22,5.21-10.43,10.43-15.64,15.64-1.54,1.54-3.34,2.05-5.43,1.35-3.04-1.03-4.24-5.08-2.24-7.58.26-.33.54-.65.84-.94,9.31-9.32,18.62-18.63,27.94-27.94.14-.14.32-.24.56-.41-.91-.65-1.69-1.22-2.6-1.88-.13.19-.22.4-.38.55-1.46,1.45-2.86,2.96-4.4,4.31-1.92,1.68-4.57,1.56-6.51-.15-1.72-1.51-2.08-4.26-.79-6.28.25-.4.58-.75.92-1.09,2.3-2.32,4.61-4.62,6.92-6.93,2.03-2.02,4.52-2.24,6.87-.61,1.82,1.26,3.65,2.53,5.47,3.79.16.11.33.22.58.37-.32-2.47.39-4.51,2.21-6.11C41.76.5,43.26-.03,44.94,0c3.37.05,6.18,2.74,6.46,6.09.25,2.93-1.88,7.05-6.72,7.16.04,1.08.1,2.15.12,3.23.02,1.08,0,2.16,0,3.32.22,0,.41,0,.6,0,1.94,0,3.89-.01,5.83,0,2.32.02,4.21,1.35,4.86,3.43,1.01,3.21-1.24,6.4-4.67,6.46-3.89.07-7.78.05-11.67,0-2-.03-3.47-1.03-4.39-2.82-.06-.11-.12-.22-.17-.3ZM45.61,26.41c1.89,0,3.78,0,5.67,0,.8,0,1.4-.39,1.65-1.05.44-1.11-.36-2.24-1.63-2.25-2.59-.01-5.17,0-7.76,0-1.45,0-2.05-.59-2.05-2.02,0-2.02,0-4.03,0-6.05,0-.97-.51-1.62-1.38-1.79-.71-.14-1.22.23-1.7.7-4.23,4.23-8.45,8.46-12.68,12.68-1.02,1.02-1.01,1.86,0,2.88,2.35,2.35,4.7,4.69,7.04,7.04.99,1,.99,1.84,0,2.84-2.33,2.34-4.67,4.67-7,7.01-.17.17-.34.34-.48.53-.65.91-.25,2.15.82,2.51.76.25,1.35-.05,1.87-.58,3.13-3.14,6.28-6.28,9.41-9.42,1.05-1.05,1.05-1.88.01-2.92-2.38-2.39-4.77-4.77-7.15-7.16-.79-.79-.84-1.73-.09-2.48,1.71-1.74,3.44-3.46,5.17-5.17.52-.51,1.15-.65,1.82-.38.7.28,1.01.87,1.02,1.61,0,.44,0,.88,0,1.32,0,1.6.55,2.16,2.13,2.16,1.76,0,3.52,0,5.28,0ZM22.09,30.3c-.08.08-.2.18-.32.3-5.29,5.29-10.58,10.58-15.87,15.87-.13.13-.26.26-.37.4-.76,1-.2,2.43,1.04,2.63.68.11,1.19-.22,1.65-.69,5.23-5.24,10.48-10.48,15.71-15.72.11-.11.22-.24.31-.34-.72-.82-1.42-1.61-2.16-2.46ZM36.8,10.75c-2.2-1.52-4.47-3.11-6.76-4.66-.74-.5-1.51-.36-2.2.29-.49.47-.96.96-1.44,1.44-1.91,1.91-3.81,3.82-5.72,5.72-.47.47-.76,1-.6,1.67.14.62.52,1.04,1.14,1.23.67.21,1.23,0,1.7-.48,1.7-1.69,3.4-3.39,5.1-5.09,1.04-1.03,1.69-1.09,2.88-.23,1.19.85,2.38,1.71,3.64,2.62.75-.83,1.49-1.64,2.26-2.5ZM44.82,9.9c1.8-.01,3.29-1.52,3.28-3.31-.01-1.8-1.51-3.29-3.31-3.28-1.8,0-3.29,1.51-3.28,3.31,0,1.8,1.52,3.29,3.31,3.28Z"/>
      <path d="M5.88,13.2c1.36,0,2.71,0,4.07,0,1.08,0,1.81.67,1.82,1.63.01.98-.74,1.67-1.84,1.67-2.69,0-5.39,0-8.08,0C.74,16.51,0,15.83,0,14.85c0-.98.75-1.64,1.87-1.64,1.34,0,2.67,0,4.01,0Z"/>
      <path d="M9.36,6.6c1.3,0,2.6,0,3.9,0,1.08,0,1.81.68,1.82,1.64,0,.96-.73,1.66-1.8,1.66-2.66,0-5.31,0-7.97,0-1.06,0-1.8-.71-1.79-1.67.01-.94.74-1.62,1.77-1.63,1.36,0,2.71,0,4.07,0Z"/>
      <path d="M9.36,19.81c1.3,0,2.6,0,3.9,0,1.08,0,1.81.67,1.82,1.64,0,.96-.73,1.66-1.79,1.66-2.66,0-5.31,0-7.97,0-1.06,0-1.8-.7-1.79-1.67,0-.96.74-1.63,1.82-1.64,1.34,0,2.67,0,4.01,0Z"/>
      <path class="cls-1" d="M22.09,30.3c.74.85,1.44,1.64,2.16,2.46-.09.1-.2.23-.31.34-5.24,5.24-10.48,10.48-15.71,15.72-.46.46-.97.8-1.65.69-1.24-.2-1.8-1.63-1.04-2.63.11-.15.24-.28.37-.4,5.29-5.29,10.58-10.58,15.87-15.87.11-.11.24-.22.32-.3Z"/>
    </g>
  </g>
</svg>