<?xml version="1.0" encoding="UTF-8"?>
<svg id="Layer_2" xmlns="http://www.w3.org/2000/svg" viewBox="0 0 48.44 61.2">
  <g id="Layer_1-2" data-name="Layer_1">
    <path d="M34.97,24.69c1.35-1.43,2.38-2.92,3.22-4.52.37-.69.92-1.16,1.71-1.05.46.06.98.28,1.3.6,3.98,3.94,6.37,8.69,7.05,14.27,1.35,11.1-4.98,21.59-15.44,25.62-13.54,5.21-28.82-2.86-32.15-17-2.3-9.77,1.39-19.63,9.59-25.45,4.61-3.27,7.59-7.58,8.74-13.13.15-.72.23-1.45.31-2.18.16-1.57,1.46-2.31,2.83-1.55,7.25,4.01,11.52,10.11,12.7,18.3.26,1.83.1,3.73.13,5.59,0,.11,0,.23,0,.49ZM22.58,4.75c-.06.16-.11.25-.13.34-1.41,6.34-4.93,11.19-10.12,15.04-7.06,5.24-9.95,12.32-8.29,21,2.1,11.05,13.24,18.35,24.25,16.06,12.33-2.57,19.5-15.17,15.41-27.07-.78-2.28-1.96-4.34-3.48-6.19-.78.97-1.5,1.94-2.3,2.85-1.46,1.68-3.16,3.08-5.04,4.28-.66.43-1.35.46-2.02.02-.62-.41-.88-1.01-.78-1.75.04-.27.14-.54.23-.8,1.69-4.82,1.57-9.62-.28-14.36-1.51-3.87-4-6.98-7.46-9.42Z"/>
  </g>
</svg>