<svg width="25" height="19" viewBox="0 0 25 19" fill="none" xmlns="http://www.w3.org/2000/svg">
<g clip-path="url(#clip0_14_114)">
<path d="M0.0172577 5.54907C0.251966 5.69982 0.406529 5.79714 0.561093 5.90018C3.61611 7.93622 6.66922 9.97227 9.72424 12.0083C11.3577 13.096 12.6972 13.096 14.3325 12.0083C17.3876 9.97227 20.4407 7.93622 23.4957 5.90018C23.6483 5.79905 23.8048 5.70173 24.0109 5.57006C24.0204 5.77233 24.0319 5.91926 24.0319 6.06619C24.0319 9.39599 24.0319 12.7239 24.0319 16.0537C24.0319 17.5993 23.1331 18.5 21.5856 18.5C15.2084 18.5 8.83121 18.5 2.45593 18.5C0.917925 18.5 0.0210741 17.5917 0.0191659 16.0441C0.0191659 12.7143 0.0191659 9.38645 0.0191659 6.05665C0.0191659 5.91735 0.0191659 5.77806 0.0191659 5.55098L0.0172577 5.54907Z" fill="white"/>
<path d="M12.0504 0.501817C15.2695 0.501817 18.4886 0.496092 21.7078 0.503725C23.2954 0.507541 24.4136 1.91006 23.9136 3.33167C23.7591 3.77055 23.4175 4.22852 23.034 4.48994C19.8053 6.68628 16.5499 8.84063 13.2965 10.9988C12.4206 11.5808 11.539 11.5293 10.6689 10.9492C7.47455 8.81582 4.27642 6.68818 1.0821 4.55482C0.173797 3.94802 -0.171586 3.0588 0.112735 2.09134C0.391331 1.14106 1.24239 0.507541 2.29953 0.503725C5.54918 0.498 8.80074 0.501817 12.0504 0.501817Z" fill="white"/>
</g>
<defs>
<clipPath id="clip0_14_114">
<rect width="24.0184" height="18" fill="white" transform="translate(0.0153503 0.5)"/>
</clipPath>
</defs>
</svg>
