<?xml version="1.0" encoding="UTF-8"?>
<svg id="Layer_2" data-name="Layer 2" xmlns="http://www.w3.org/2000/svg" viewBox="0 0 41.36 41.34">
  <defs>
    <style>
      .cls-1 {
        fill: #fff;
        stroke-width: 0px;
      }
    </style>
  </defs>
  <g id="Layer_1-2" data-name="Layer 1">
    <g>
      <path class="cls-1" d="m20.66,0c11.36-.13,20.76,9.34,20.7,20.65-.06,11.47-9.21,20.63-20.69,20.68C9.35,41.39-.07,31.99,0,20.64.07,9.21,9.22,0,20.66,0Zm.04,33.28s0-.02,0-.03c2.01,0,4.02.11,6.02-.02,3.92-.26,6.53-2.88,6.65-6.79.12-3.94.09-7.89,0-11.84-.07-2.91-1.98-5.36-4.75-6.09-1.38-.36-2.87-.45-4.31-.47-3.22-.05-6.45-.09-9.66.08-3.92.21-6.52,2.87-6.66,6.78-.13,3.63-.16,7.28-.06,10.91.13,4.61,2.53,7.09,7.14,7.45,1.86.15,3.75.02,5.62.02Z"/>
      <path class="cls-1" d="m20.64,30.9c-1.77,0-3.53.05-5.29-.01-3.22-.12-5.05-1.96-5.11-5.19-.06-3.35-.06-6.71,0-10.06.04-1.99.67-3.77,2.65-4.67.68-.31,1.48-.51,2.23-.52,3.64-.06,7.28-.09,10.92-.01,3.18.07,5.01,1.95,5.07,5.14.06,3.37.07,6.75,0,10.13-.04,1.99-.69,3.76-2.68,4.65-.65.29-1.39.47-2.1.5-1.89.07-3.79.02-5.69.02,0,0,0,.01,0,.02Zm.06-16.97c-3.7,0-6.76,3.02-6.76,6.71,0,3.71,3.01,6.74,6.71,6.76,3.7.01,6.76-3.02,6.76-6.71,0-3.71-3.01-6.75-6.71-6.76Zm8.06.05c0-.75-.59-1.36-1.31-1.36-.71,0-1.34.62-1.34,1.35,0,.74.59,1.33,1.33,1.34.75,0,1.33-.57,1.33-1.33Z"/>
      <path class="cls-1" d="m25.03,20.65c0,2.39-1.93,4.34-4.32,4.36-2.41.01-4.39-1.96-4.37-4.37.01-2.38,1.97-4.33,4.35-4.32,2.39,0,4.33,1.95,4.34,4.34Z"/>
    </g>
  </g>
</svg>