<svg width="28" height="45" viewBox="0 0 28 45" fill="none" xmlns="http://www.w3.org/2000/svg">
<g clip-path="url(#clip0_2_3)">
<path d="M24.7531 19.7446C22.3618 19.5694 20.2986 20.0323 18.5731 21.6239C18.2622 21.3973 18.0115 21.1856 17.7345 21.0174C17.3966 20.7977 17.0103 20.6635 16.609 20.6263C16.2077 20.5892 15.8033 20.6502 15.4308 20.8041C15.0583 20.9579 14.7288 21.2001 14.4708 21.5097C14.2127 21.8193 14.0338 22.187 13.9495 22.5811C13.7705 23.6102 13.7729 24.6627 13.9564 25.691C14.0245 26.0144 14.1573 26.3207 14.3468 26.5914C14.5363 26.8621 14.7786 27.0917 15.0592 27.2664C15.8886 27.6908 16.1077 28.3089 16.255 29.0919C16.5377 30.5936 16.8866 32.0841 17.1178 33.5932C17.1201 33.7819 17.0758 33.9682 16.9887 34.1356C16.9017 34.303 16.7746 34.4463 16.6188 34.5528C12.2106 36.3556 5.21424 36.2671 0.75 34.3572C0.851007 34.0306 0.939042 33.684 1.06368 33.3518C2.62913 29.1642 4.1986 24.9778 5.77209 20.7926C7.35021 16.6161 10.6515 14.4222 15.1389 14.3208C18.8215 14.2374 21.8836 15.3207 24.072 18.4088C24.2422 18.6539 24.3993 18.9079 24.5427 19.1696C24.6251 19.3566 24.6953 19.5486 24.7531 19.7446Z" fill="#262F40"/>
<path d="M20.1318 38.9725C19.6874 37.9634 18.6834 36.7949 18.9146 35.9789C19.3988 34.2678 18.5981 32.8593 18.5031 31.3155C18.4407 30.7971 18.3361 30.2846 18.1904 29.7832C17.9184 28.6022 17.4954 27.429 18.7751 26.4801C19.0703 26.2619 19.1041 25.6924 19.2945 25.186C18.3961 25.1258 17.6687 24.8524 17.0566 25.7517C16.6679 26.323 15.7639 25.9496 15.6666 25.1957C15.5844 24.5286 15.5844 23.8539 15.6666 23.1867C15.6987 23.0327 15.7674 22.8887 15.867 22.7668C15.9665 22.6449 16.0939 22.5488 16.2384 22.4866C16.4761 22.431 16.8342 22.672 17.064 22.8675C17.2494 23.0255 17.3059 23.3225 17.4421 23.5444C17.9411 24.3585 18.5504 24.4637 19.1129 23.7033C20.5854 21.711 22.637 21.3565 24.8907 21.5358C25.0382 21.5588 25.1787 21.6144 25.302 21.6984C25.4254 21.7825 25.5285 21.893 25.6038 22.0219C26.1426 23.2493 26.6027 24.5109 27.1152 25.7508C27.3932 26.4245 27.2574 26.7317 26.4975 26.9448C26.2656 27.0405 26.0566 27.1844 25.8846 27.367C25.7125 27.5497 25.5812 27.7668 25.4995 28.004C25.2635 28.9054 25.0998 29.8242 25.0098 30.7516C24.8629 31.802 24.3551 32.3867 23.2264 32.2829C22.9303 32.2556 22.6282 32.2977 22.3312 32.2755C22.1663 32.2387 21.9952 32.2395 21.8306 32.2779C21.6661 32.3162 21.5123 32.3911 21.3806 32.4971C21.2489 32.603 21.1428 32.7372 21.0701 32.8898C20.9974 33.0423 20.96 33.2093 20.9607 33.3782C20.6961 35.2538 20.3926 37.1234 20.1049 38.9952L20.1318 38.9725Z" fill="#262F40"/>
<path d="M21.0098 4.48787C21.0081 5.3738 20.7438 6.23935 20.2503 6.97506C19.7567 7.71078 19.0561 8.28362 18.237 8.62117C17.4179 8.95872 16.5171 9.0458 15.6485 8.87142C14.7799 8.69703 13.9826 8.26901 13.3572 7.64146C12.7319 7.01392 12.3066 6.21503 12.1353 5.34583C11.964 4.47662 12.0542 3.57614 12.3947 2.75823C12.7351 1.94032 13.3104 1.24172 14.0478 0.750763C14.7853 0.259806 15.6518 -0.0014585 16.5377 6.12427e-06C17.7247 0.00587877 18.8611 0.481097 19.699 1.32191C20.5369 2.16273 21.0081 3.30087 21.0098 4.48787Z" fill="#F95F43"/>
<path d="M1.61644 36.5882C6.64529 38.0533 11.9983 37.9741 16.9816 36.3607L17.9717 38.7237C12.3193 39.6802 6.54764 39.6951 0.890397 38.7677C0.873727 38.6434 0.875278 38.5173 0.895021 38.3934C1.10769 37.8365 1.33427 37.2874 1.61644 36.5882Z" fill="#E6A429"/>
<path d="M17.8915 42.3202C14.865 42.8364 11.7977 43.0752 8.7277 43.0337C7.1992 42.5048 5.72955 41.8191 4.34223 40.9876C8.1964 41.3876 12.0842 41.3329 15.9256 40.8245C17.3749 40.6406 17.3772 40.6637 17.8915 42.3202Z" fill="#E6A429"/>
<path d="M20.1322 38.9725C20.1271 38.9846 20.1225 38.9971 20.1165 39.0091L20.1054 38.9943L20.1322 38.9725Z" fill="#262F40"/>
<path d="M23.4266 43.2811C22.0598 43.7038 20.6571 44.0001 19.2361 44.1665C19.2287 44.1517 19.2213 44.1387 19.2153 44.1239C21.1845 42.9767 19.2542 41.7822 19.4233 40.6531C19.6547 40.1051 19.8864 39.5571 20.1183 39.0091C20.8917 39.977 21.683 40.9297 22.4285 41.917C22.7663 42.3678 23.0976 42.8233 23.4266 43.2811Z" fill="#262F40"/>
<path d="M11.7218 12.5536L10.8526 10.8439H22.183L20.9899 13.2755C19.3566 13.0206 17.867 12.6981 16.3612 12.5805C14.8905 12.4623 13.4028 12.5536 11.7218 12.5536Z" fill="#262F40"/>
<path d="M11.751 8.86086C9.64973 9.11662 9.3657 9.31122 8.70035 6.82219C8.37602 5.60454 8.64383 4.22751 8.64383 2.92322L9.15721 2.84723L11.751 8.86086Z" fill="#262F40"/>
<path d="M23.9886 2.61554C24.6447 4.36 24.8073 5.80607 24.2935 7.27763C23.7152 8.93359 23.4821 9.05313 21.2855 8.92756L23.9886 2.61554Z" fill="#262F40"/>
</g>
<defs>
<clipPath id="clip0_2_3">
<rect width="26.5" height="44.1665" fill="white" transform="translate(0.75)"/>
</clipPath>
</defs>
</svg>
