<svg width="23" height="21" viewBox="0 0 23 21" fill="none" xmlns="http://www.w3.org/2000/svg">
<g clip-path="url(#clip0_3_30)">
<path d="M5.31646 21.0054C3.79533 21.0054 2.2742 21.0054 0.753065 21.0054C0.174015 21.0054 0 20.8314 0 20.2613C0 17.6031 0 14.9449 0 12.2866C0 11.7106 0.177015 11.5246 0.744065 11.5246C3.78633 11.5246 6.82859 11.5246 9.87086 11.5246C10.4169 11.5246 10.6089 11.7136 10.6089 12.2596C10.6089 14.9299 10.6089 17.6001 10.6089 20.2703C10.6089 20.8314 10.4379 21.0024 9.87986 21.0054C8.35873 21.0084 6.83759 21.0054 5.31646 21.0054Z" fill="black"/>
<path d="M17.6985 9.74241C16.2014 9.74241 14.7043 9.74241 13.2071 9.74241C12.5591 9.74241 12.3911 9.5774 12.3881 8.94434C12.3881 6.31011 12.3881 3.67588 12.3881 1.04165C12.3881 0.423601 12.5501 0.264587 13.1801 0.264587C16.1864 0.264587 19.1927 0.264587 22.1989 0.264587C22.844 0.264587 22.997 0.420601 22.997 1.07166C22.997 3.69389 22.997 6.31611 22.997 8.93834C22.997 9.5774 22.832 9.74241 22.1869 9.74241C20.6898 9.74241 19.1927 9.74241 17.6955 9.74241H17.6985Z" fill="black"/>
<path d="M17.6955 21.0054C16.1984 21.0054 14.7013 21.0054 13.2042 21.0054C12.5441 21.0054 12.3911 20.8554 12.3911 20.2103C12.3911 17.5881 12.3911 14.9659 12.3911 12.3436C12.3911 11.6806 12.5501 11.5246 13.2252 11.5246C16.2074 11.5246 19.1897 11.5246 22.1719 11.5246C22.841 11.5246 23 11.6836 23 12.3466C23 14.9689 23 17.5911 23 20.2133C23 20.8404 22.841 21.0024 22.2229 21.0054C20.7138 21.0054 19.2047 21.0054 17.6955 21.0054Z" fill="black"/>
<path d="M5.30446 9.74241C3.79533 9.74241 2.2862 9.74241 0.777068 9.74241C0.177015 9.74241 0 9.56539 0 8.97734C0 6.31911 0 3.66088 0 1.00265C0 0.447598 0.177015 0.261581 0.723063 0.261581C3.77733 0.261581 6.83159 0.261581 9.88586 0.261581C10.4379 0.261581 10.6119 0.435597 10.6119 0.999646C10.6119 3.66988 10.6119 6.34011 10.6119 9.01034C10.6119 9.55639 10.4229 9.73941 9.87086 9.74241C8.34973 9.74541 6.82859 9.74241 5.30746 9.74241H5.30446Z" fill="black"/>
</g>
<defs>
<clipPath id="clip0_3_30">
<rect width="23" height="20.7438" fill="white" transform="translate(0 0.261581)"/>
</clipPath>
</defs>
</svg>
