<?xml version="1.0" encoding="UTF-8"?>
<svg id="Layer_2" xmlns="http://www.w3.org/2000/svg" xmlns:xlink="http://www.w3.org/1999/xlink" viewBox="0 0 37.81 37.81">
  <defs>
    <style>
      .cls-1 {
        fill: url(#linear-gradient);
      }
    </style>
    <linearGradient id="linear-gradient" x1="0" y1="18.91" x2="37.81" y2="18.91" gradientUnits="userSpaceOnUse">
      <stop offset="0" stop-color="#97cb58"/>
      <stop offset="1" stop-color="#00ab62"/>
    </linearGradient>
  </defs>
  <g id="Layer_1-2" data-name="Layer_1">
    <path class="cls-1" d="M37.81,18.91c0,10.47-8.43,18.91-18.91,18.91S0,29.38,0,18.91,8.43,0,18.91,0s18.91,8.43,18.91,18.91ZM34.08,18.91c0-8.34-6.83-15.18-15.18-15.18S3.73,10.56,3.73,18.91c0,3.73,1.33,7.1,3.55,9.67,3.2-2.49,7.28-3.99,11.63-3.99s8.43,1.51,11.63,3.99c2.22-2.57,3.55-5.95,3.55-9.67ZM18.91,34.08c3.28,0,6.3-1.07,8.79-2.84-2.49-1.78-5.5-2.84-8.79-2.84s-6.3,1.06-8.79,2.84c2.49,1.77,5.5,2.84,8.79,2.84ZM25.56,14.2c0,3.64-3.02,6.57-6.66,6.57s-6.66-2.93-6.66-6.57,3.02-6.66,6.66-6.66,6.66,2.93,6.66,6.66ZM21.75,14.2c0-1.6-1.24-2.84-2.84-2.84s-2.84,1.24-2.84,2.84c0,1.51,1.24,2.84,2.84,2.84s2.84-1.33,2.84-2.84Z"/>
  </g>
</svg>