<?xml version="1.0" encoding="UTF-8"?>
<svg id="Layer_2" xmlns="http://www.w3.org/2000/svg" xmlns:xlink="http://www.w3.org/1999/xlink" viewBox="0 0 27.37 27.37">
  <defs>
    <style>
      .cls-1 {
        fill: url(#linear-gradient);
      }
    </style>
    <linearGradient id="linear-gradient" x1="-4.92" y1="13.69" x2="32.29" y2="13.69" gradientTransform="translate(13.69 -5.67) rotate(45)" gradientUnits="userSpaceOnUse">
      <stop offset="0" stop-color="#97cb58"/>
      <stop offset="1" stop-color="#00ab62"/>
    </linearGradient>
  </defs>
  <g id="Layer_1-2" data-name="Layer_1">
    <path class="cls-1" d="M26.84,24.27l-10.59-10.59L26.84,3.1c.71-.71.71-1.86,0-2.57s-1.86-.71-2.57,0l-10.59,10.59L3.1.53c-.71-.71-1.86-.71-2.57,0S-.18,2.39.53,3.1l10.59,10.59L.53,24.27c-.71.71-.71,1.86,0,2.57s1.86.71,2.57,0l10.59-10.59,10.59,10.59c.71.71,1.86.71,2.57,0s.71-1.86,0-2.57Z"/>
  </g>
</svg>