<?xml version="1.0" encoding="UTF-8"?>
<svg id="Layer_2" xmlns="http://www.w3.org/2000/svg" viewBox="0 0 41.05 29.64">
  <g id="Layer_1-2" data-name="Layer_1">
    <g>
      <path d="M31.46,21.75c0,.83.1,1.68-.02,2.49-.47,3.3-3.61,5.7-6.91,5.37-.18-.02-.36-.02-.54-.02-5.48,0-10.96-.01-16.45,0-.97,0-1.93.06-2.88-.21C1.71,28.55-.28,25.64.03,22.59c.02-.18.02-.36.02-.54,0-4.83,0-9.65,0-14.48,0-.84-.04-1.71.12-2.53C.81,1.89,3.85-.29,7.07.03c.16.02.33.02.49.02,5.48,0,10.96.01,16.45,0,.95,0,1.9-.07,2.83.2,2.78.79,4.71,3.3,4.71,6.18,0,.49,0,.98,0,1.55.15-.11.26-.18.37-.27,1.5-1.2,2.99-2.42,4.51-3.59,1.68-1.3,4.07-.45,4.55,1.6.06.27.07.56.07.84,0,5.51,0,11.02,0,16.53,0,1.25-.48,2.21-1.61,2.76-1.15.56-2.22.34-3.2-.45-1.42-1.15-2.86-2.29-4.29-3.43-.11-.09-.23-.17-.34-.26-.05.02-.09.03-.14.05ZM15.79,26.73c1.27,0,2.53,0,3.8,0,1.82,0,3.63.03,5.45-.03,2.06-.06,3.21-1.08,3.52-3.04.08-.48.09-.98.09-1.47,0-4.91,0-9.83,0-14.74,0-.43-.03-.86-.07-1.29-.18-1.82-1.16-2.86-2.97-3.14-.48-.08-.98-.09-1.47-.1-5.57,0-11.14,0-16.71,0-.34,0-.69,0-1.03.03-1.87.13-3,1.02-3.35,2.71-.12.58-.14,1.18-.14,1.77-.01,4.93,0,9.86,0,14.78,0,.34,0,.69.03,1.03.12,1.86,1.03,3,2.72,3.34.58.12,1.18.14,1.78.14,2.78.01,5.57,0,8.35,0ZM38.14,23.24V6.4c-2.18,1.75-4.31,3.44-6.42,5.16-.11.09-.18.3-.18.46-.01,1.88-.01,3.75,0,5.63,0,.17.12.39.26.51.6.51,1.22,1,1.84,1.49,1.49,1.19,2.97,2.37,4.51,3.6Z"/>
      <path d="M14.36,16.25c-1.14,0-2.23.01-3.31,0-1-.01-1.67-.89-1.4-1.82.17-.62.71-1.03,1.4-1.03.94,0,1.88,0,2.82,0,.15,0,.29,0,.5,0,0-.79,0-1.54,0-2.3,0-.36,0-.72,0-1.07.03-.77.58-1.34,1.31-1.38.79-.05,1.45.46,1.52,1.25.06.69.03,1.4.03,2.1,0,.45,0,.89,0,1.4.26,0,.49,0,.72,0,.86,0,1.73,0,2.59,0,.83.01,1.45.65,1.44,1.45-.01.78-.63,1.4-1.44,1.41-1.08.01-2.17,0-3.32,0,0,.38,0,.73,0,1.08,0,.7,0,1.4,0,2.1,0,.95-.6,1.58-1.45,1.57-.84,0-1.4-.63-1.41-1.56,0-1.04,0-2.08,0-3.19Z"/>
    </g>
  </g>
</svg>