<?xml version="1.0" encoding="UTF-8"?>
<svg id="Layer_2" xmlns="http://www.w3.org/2000/svg" viewBox="0 0 28.24 28.23">
  <g id="Layer_1-2" data-name="Layer_1">
    <path d="M16.67,14.07c.13.13.19.21.27.28,3.55,3.55,7.11,7.11,10.67,10.66.51.51.75,1.1.59,1.82-.3,1.32-1.92,1.85-2.95.97-.12-.1-.23-.21-.34-.32-3.52-3.52-7.03-7.03-10.55-10.55-.07-.07-.12-.16-.19-.26-.13.12-.21.19-.28.27-3.55,3.55-7.1,7.09-10.64,10.65-.51.51-1.1.76-1.82.6-1.32-.29-1.86-1.9-.99-2.94.09-.11.19-.2.29-.3,3.53-3.53,7.06-7.06,10.59-10.58.07-.07.15-.13.26-.22-.1-.1-.17-.18-.24-.25C7.75,10.33,4.19,6.77.62,3.21.12,2.71-.1,2.13.05,1.43.34.08,1.97-.46,3.02.45c.09.08.17.16.26.25,3.54,3.54,7.08,7.08,10.63,10.62.06.06.12.14.26.31.08-.14.12-.26.2-.33,3.55-3.56,7.11-7.11,10.66-10.67.51-.51,1.09-.74,1.8-.58,1.32.29,1.87,1.9,1,2.94-.1.12-.21.23-.32.34-3.52,3.52-7.03,7.03-10.55,10.54-.08.08-.18.13-.28.2Z"/>
  </g>
</svg>