<?xml version="1.0" encoding="UTF-8"?>
<svg id="Layer_2" xmlns="http://www.w3.org/2000/svg" viewBox="0 0 47.18 33.38">
  <defs>
    <style>
      .cls-1 {
        fill: #f61b0d;
      }
    </style>
  </defs>
  <g id="Layer_1-2" data-name="Layer_1">
    <path class="cls-1" d="M23.56,33.37c-4.53,0-9.06.02-13.59,0-3.79-.02-6.69-1.67-8.65-4.91C.39,26.91,0,25.22,0,23.44c0-4.5-.01-9,0-13.49C.03,5.55,2.54,2.01,6.67.53,7.72.15,8.81,0,9.92,0c9.12,0,18.24-.01,27.36,0,4.77,0,8.64,3.13,9.68,7.76.16.72.22,1.46.22,2.2,0,4.48.01,8.97,0,13.45-.01,4.41-2.54,7.97-6.68,9.45-1.08.38-2.2.52-3.35.52-4.53,0-9.06,0-13.59,0ZM17.12,16.71c0,2,0,3.99,0,5.99,0,.84.29,1.03,1.04.67,4.09-1.95,8.19-3.91,12.28-5.86.28-.13.59-.25.59-.63,0-.35-.29-.47-.56-.61-4.12-2.08-8.23-4.17-12.35-6.25-.69-.35-1.01-.16-1.01.61,0,2.03,0,4.05,0,6.08Z"/>
  </g>
</svg>