<?xml version="1.0" encoding="UTF-8"?>
<svg id="Layer_2" xmlns="http://www.w3.org/2000/svg" viewBox="0 0 29.38 24.5">
  <g id="Layer_1-2" data-name="Layer_1">
    <g>
      <path d="M14.69,2.23c-4.52,0-9.04,0-13.56,0-.13,0-.27,0-.4-.03C.27,2.09-.04,1.56,0,1,.05.45.42.03.89,0c.07,0,.13,0,.2,0,9.06,0,18.12,0,27.18,0,.11,0,.23,0,.34.02.46.1.79.62.76,1.18-.03.55-.4.99-.86,1.03-.1,0-.21,0-.32,0-4.5,0-9,0-13.51,0Z"/>
      <path d="M14.69,13.36c-4.52,0-9.04,0-13.56,0-.13,0-.27,0-.4-.03-.46-.12-.77-.64-.73-1.2.05-.55.42-.97.89-1,.07,0,.13,0,.2,0,9.06,0,18.12,0,27.18,0,.11,0,.23,0,.34.02.46.1.79.62.76,1.18-.03.55-.4.99-.86,1.03-.1,0-.21,0-.32,0-4.5,0-9,0-13.51,0Z"/>
      <path d="M14.68,24.49c-4.52,0-9.04,0-13.56,0-.12,0-.25,0-.37-.02-.46-.11-.78-.63-.75-1.19.04-.55.41-.98.87-1.02.09,0,.17,0,.26,0,9.04,0,18.08,0,27.13,0,.16,0,.33,0,.48.06.42.15.69.66.64,1.18-.05.52-.41.94-.84.98-.1.01-.21,0-.32,0-4.51,0-9.02,0-13.53,0Z"/>
    </g>
  </g>
</svg>