<?xml version="1.0" encoding="UTF-8"?>
<svg id="Layer_2" xmlns="http://www.w3.org/2000/svg" viewBox="0 0 9.17 39.73">
  <g id="Layer_1-2" data-name="Layer_1">
    <g>
      <path d="M4.58,9.17C2.06,9.17,0,7.1,0,4.58,0,2.05,2.07,0,4.59,0c2.53,0,4.58,2.06,4.58,4.59,0,2.53-2.07,4.58-4.59,4.58Z"/>
      <path d="M9.17,19.87c0,2.53-2.07,4.58-4.59,4.58C2.06,24.45,0,22.38,0,19.86c0-2.52,2.07-4.58,4.59-4.58,2.53,0,4.58,2.06,4.58,4.59Z"/>
      <path d="M4.57,30.56c2.53,0,4.6,2.04,4.6,4.57,0,2.53-2.04,4.6-4.57,4.6C2.08,39.74,0,37.69,0,35.17c0-2.53,2.04-4.6,4.57-4.6Z"/>
    </g>
  </g>
</svg>