<?xml version="1.0" encoding="UTF-8"?>
<svg id="Layer_2" xmlns="http://www.w3.org/2000/svg" viewBox="0 0 17.5 27.34">
  <g id="Layer_1-2" data-name="Layer_1">
    <g>
      <path d="M14.14,9.77c0,1.41,0,2.81,0,4.22-.01,2.44-1.4,4.41-3.68,5.22-2.83,1.01-6.14-.74-6.87-3.66-.13-.51-.2-1.05-.21-1.58-.02-2.82-.03-5.64,0-8.46.02-2.3,1.07-4,3.16-5,2.93-1.41,6.61.32,7.4,3.47.13.51.19,1.05.2,1.58.03,1.41,0,2.81,0,4.22Z"/>
      <path d="M9.73,22.84v2.57c.1,0,.2,0,.29,0,1.08,0,2.15,0,3.23,0,.39,0,.68.2.85.55.17.35.13.69-.11,1-.21.28-.5.38-.84.38-1.19,0-2.38,0-3.58,0-1.74,0-3.49,0-5.23,0-.71,0-1.18-.62-.97-1.26.13-.41.49-.66.96-.67,1.05,0,2.1,0,3.15,0,.1,0,.19,0,.3,0v-2.55c-.41-.09-.82-.16-1.22-.26-1.99-.51-3.59-1.6-4.82-3.24C.6,17.84.03,16.12,0,14.22c-.01-.59.39-1.03.94-1.04.55-.01.95.39.99.97.02.35.04.71.1,1.06.33,2,1.35,3.55,3.04,4.66,1.32.87,2.79,1.22,4.34,1.05,2.44-.27,4.25-1.51,5.41-3.67.52-.97.73-2.03.77-3.13.01-.44.27-.77.67-.9.38-.12.83,0,1.04.34.12.19.2.44.2.67-.02,1.9-.59,3.62-1.73,5.14-1.34,1.78-3.12,2.9-5.31,3.36-.23.05-.47.08-.73.12Z"/>
    </g>
  </g>
</svg>