<?xml version="1.0" encoding="UTF-8"?>
<svg id="Layer_2" xmlns="http://www.w3.org/2000/svg" viewBox="0 0 28.67 31.91">
  <g id="Layer_1-2" data-name="Layer_1">
    <path d="M19.92,27.35c-.65,2.81-2.95,4.43-5.3,4.55-2.34.13-5.09-1.31-5.89-4.55-.12,0-.25,0-.38,0-1.98,0-3.96,0-5.94,0-.98,0-1.73-.4-2.16-1.28-.43-.88-.27-1.71.31-2.5.7-.94,1.35-1.92,2.02-2.89.28-.4.38-.86.38-1.35,0-2.63-.06-5.27,0-7.9.12-4.85,2.38-8.4,6.79-10.43,6.44-2.97,14.14.92,15.67,7.85.19.87.28,1.78.29,2.68.04,2.57.02,5.15,0,7.72,0,.61.16,1.14.51,1.63.67.95,1.34,1.9,2,2.85.52.75.59,1.55.18,2.35-.41.81-1.1,1.24-2,1.25-2.03.02-4.06,0-6.08,0-.13,0-.26,0-.4,0ZM26.36,25.06c-.68-.97-1.3-1.9-1.96-2.82-.66-.92-.97-1.93-.96-3.06.02-2.53,0-5.05,0-7.58,0-.38-.02-.76-.06-1.14-.58-5.62-6.07-9.35-11.51-7.83-3.9,1.1-6.62,4.62-6.65,8.68-.02,2.64-.01,5.29,0,7.93,0,1.08-.29,2.05-.92,2.93-.61.86-1.21,1.73-1.81,2.6-.06.08-.1.17-.17.28h24.02ZM17.49,27.36h-6.32c.28,1.23,1.73,2.26,3.16,2.26,1.43,0,2.88-1.03,3.16-2.26Z"/>
  </g>
</svg>