<?xml version="1.0" encoding="UTF-8"?>
<svg id="Layer_2" xmlns="http://www.w3.org/2000/svg" viewBox="0 0 35.66 35.67">
  <g id="Layer_1-2" data-name="Layer_1">
    <path d="M25.9,27.19c-6.86,5.93-16.75,4.87-22.25-1.59C-1.52,19.55-1.17,10.27,4.53,4.56c5.74-5.74,15.02-6.09,21.11-.88,6.4,5.48,7.49,15.34,1.56,22.21.14.09.32.16.45.28,2.5,2.49,5.01,4.99,7.49,7.5.23.24.43.57.5.9.1.41-.13.76-.51.96-.37.2-.75.18-1.1-.07-.16-.11-.29-.26-.43-.39-2.48-2.47-4.95-4.95-7.42-7.43-.12-.12-.19-.31-.28-.45ZM29.03,15.58c.02-7.46-5.99-13.49-13.44-13.51-7.45-.02-13.51,6-13.53,13.43-.02,7.48,5.99,13.52,13.47,13.53,7.46.01,13.48-5.99,13.5-13.45Z"/>
  </g>
</svg>