<?xml version="1.0" encoding="UTF-8"?>
<svg id="Layer_2" xmlns="http://www.w3.org/2000/svg" viewBox="0 0 37.04 37.03">
  <g id="Layer_1-2" data-name="Layer_1">
    <g>
      <path d="M3.54,28.76c0-.55.18-1.04.52-1.47.53-.68,1.06-1.37,1.6-2.05.12-.16.13-.27.05-.45-.24-.54-.45-1.09-.69-1.62-.06-.12-.21-.26-.34-.28-.82-.12-1.65-.23-2.47-.32C.88,22.42,0,21.47,0,20.14c0-1.08,0-2.17,0-3.25,0-1.32.84-2.25,2.16-2.41.82-.1,1.65-.21,2.47-.3.22-.02.33-.12.4-.33.2-.54.43-1.07.66-1.6.08-.18.07-.3-.05-.45-.53-.67-1.06-1.35-1.58-2.03-.81-1.06-.73-2.25.21-3.2.76-.77,1.53-1.54,2.3-2.3.93-.92,2.13-1,3.17-.21.68.52,1.36,1.04,2.02,1.58.16.13.29.15.48.06.51-.24,1.04-.45,1.57-.65.24-.09.33-.22.35-.47.09-.83.19-1.65.3-2.47C14.66.81,15.59,0,16.91,0c1.07,0,2.15,0,3.22,0,1.34,0,2.28.84,2.44,2.17.1.82.21,1.65.3,2.47.02.21.11.31.31.38.54.2,1.08.42,1.6.66.19.09.32.08.48-.05.66-.53,1.33-1.04,2-1.56,1.05-.81,2.26-.75,3.2.18.78.77,1.56,1.55,2.33,2.33.9.92.98,2.12.21,3.14-.52.69-1.06,1.38-1.6,2.05-.12.15-.14.27-.05.45.24.54.47,1.08.68,1.63.08.21.19.27.39.3.84.1,1.67.2,2.51.31,1.3.17,2.12,1.1,2.12,2.41,0,1.07,0,2.15,0,3.22,0,1.33-.78,2.25-2.08,2.44-.82.12-1.65.22-2.47.31-.26.03-.4.11-.49.37-.18.52-.4,1.03-.63,1.53-.1.21-.08.34.06.51.53.66,1.04,1.32,1.56,2,.81,1.06.73,2.25-.21,3.2-.76.77-1.53,1.54-2.3,2.3-.94.93-2.14,1-3.2.19-.67-.51-1.34-1.03-2-1.55-.16-.13-.29-.14-.48-.05-.53.25-1.09.45-1.63.69-.12.05-.25.2-.26.32-.12.81-.22,1.62-.31,2.44-.15,1.4-1.07,2.24-2.48,2.25-1.06,0-2.12,0-3.18,0-1.32,0-2.24-.8-2.42-2.1-.11-.82-.22-1.65-.3-2.47-.03-.27-.14-.39-.39-.48-.51-.18-1.01-.39-1.5-.62-.22-.11-.36-.08-.54.06-.65.52-1.3,1.03-1.97,1.53-1.08.82-2.27.74-3.23-.21-.78-.77-1.55-1.55-2.33-2.33-.46-.46-.7-1-.7-1.65ZM28.77,32.03c.21-.13.44-.23.6-.38.76-.74,1.51-1.49,2.25-2.25.43-.43.45-.75.08-1.24-.64-.83-1.28-1.66-1.93-2.48-.26-.33-.28-.65-.11-1.04.37-.82.73-1.65,1.04-2.49.17-.48.45-.7.94-.75,1.02-.11,2.03-.24,3.05-.38.56-.08.8-.36.8-.92,0-1.05,0-2.1,0-3.15,0-.59-.23-.87-.82-.94-1.03-.14-2.05-.27-3.08-.39-.44-.05-.71-.26-.87-.69-.31-.84-.66-1.68-1.03-2.5-.2-.43-.18-.76.11-1.13.65-.81,1.28-1.63,1.91-2.45.36-.47.34-.79-.07-1.21-.73-.74-1.46-1.47-2.2-2.2-.48-.48-.78-.5-1.32-.08-.81.63-1.62,1.25-2.42,1.89-.34.27-.67.29-1.07.11-.82-.37-1.65-.73-2.49-1.04-.46-.17-.68-.44-.73-.91-.11-1.02-.24-2.03-.38-3.05-.08-.58-.36-.82-.94-.82-1.04,0-2.07,0-3.11,0-.62,0-.89.23-.97.84-.13,1.01-.27,2.03-.38,3.05-.05.46-.26.73-.71.89-.84.31-1.68.66-2.5,1.03-.41.19-.74.18-1.1-.11-.8-.64-1.61-1.26-2.42-1.89-.53-.41-.83-.39-1.29.07-.73.72-1.45,1.45-2.17,2.17-.46.47-.49.78-.09,1.29.62.8,1.23,1.61,1.87,2.39.3.37.33.72.12,1.16-.37.79-.71,1.6-1.01,2.43-.17.48-.44.7-.93.75-1.01.11-2.01.24-3.01.37-.61.08-.84.35-.84.96,0,1.02,0,2.05,0,3.07,0,.65.24.91.89.99,1.02.13,2.03.26,3.05.38.43.05.68.27.83.68.31.84.65,1.68,1.03,2.5.2.43.18.76-.11,1.13-.65.81-1.28,1.63-1.91,2.45-.36.47-.34.79.07,1.21.73.73,1.46,1.47,2.2,2.2.48.48.78.5,1.32.09.82-.63,1.64-1.27,2.45-1.91.32-.25.63-.27,1.01-.1.84.38,1.7.74,2.56,1.07.43.16.64.42.69.86.12,1.02.25,2.03.38,3.05.08.62.35.86.99.86,1.01,0,2.02,0,3.04,0,.66,0,.93-.23,1.01-.87.13-1.02.26-2.03.38-3.05.05-.45.27-.69.7-.85.83-.31,1.66-.64,2.46-1.02.44-.21.78-.19,1.16.12.8.64,1.61,1.26,2.43,1.88.17.13.37.21.6.33Z"/>
      <path d="M18.53,26.24c-4.23,0-7.71-3.45-7.73-7.69-.02-4.24,3.46-7.74,7.71-7.75,4.24,0,7.74,3.48,7.73,7.73,0,4.24-3.47,7.7-7.71,7.71ZM18.5,24.68c3.41.01,6.17-2.73,6.18-6.14.01-3.41-2.72-6.17-6.13-6.19-3.42-.02-6.19,2.73-6.2,6.15,0,3.41,2.74,6.16,6.14,6.17Z"/>
    </g>
  </g>
</svg>