<?xml version="1.0" encoding="UTF-8"?>
<svg id="Layer_2" xmlns="http://www.w3.org/2000/svg" viewBox="0 0 81.11 81.11">
  <defs>
    <style>
      .cls-1 {
        fill: #4c4c4c;
      }
    </style>
  </defs>
  <g id="Layer_1-2" data-name="Layer_1">
    <path class="cls-1" d="M71.59,31.54c-7.34-.02-14.67-.02-22-.02,0-7.27.01-14.53,0-21.8C49.57,4.08,45.85.05,40.67,0c-5.2-.05-9.12,3.94-9.13,9.52-.02,7.34-.02,14.67-.02,22.01-7.33.01-14.67.02-22,.05-1.74,0-3.66.55-5.2,1.39-3.48,1.89-5.02,6.03-4.02,9.79,1.09,4.12,4.46,6.8,8.81,6.81,7.47.03,14.95.03,22.42.02.01,7.33.02,14.66.05,22,0,1.74.55,3.66,1.39,5.2,1.89,3.48,6.03,5.02,9.79,4.02,4.12-1.09,6.8-4.46,6.81-8.81.03-7.47.03-14.94.02-22.42,7.27,0,14.53.01,21.8,0,5.64,0,9.67-3.73,9.72-8.91.05-5.21-3.94-9.12-9.52-9.13Z"/>
  </g>
</svg>