<?xml version="1.0" encoding="UTF-8"?>
<svg id="Layer_2" xmlns="http://www.w3.org/2000/svg" viewBox="0 0 53.52 53.52">
  <defs>
    <style>
      .cls-1 {
        fill: #fff;
      }
    </style>
  </defs>
  <g id="Layer_1-2" data-name="Layer_1">
    <g id="Layer_2-2" data-name="Layer_2">
      <g id="Layer_1-2">
        <path class="cls-1" d="M26.76,53.52C12.01,53.52,0,41.53,0,26.78,0,12.02,11.99,0,26.74,0h.02c14.76,0,26.76,12,26.76,26.76s-12,26.75-26.74,26.76h-.02ZM26.74,1.5v1.5c-13.1,0-23.75,10.67-23.74,23.77,0,13.1,10.67,23.74,23.76,23.74h.02c13.09,0,23.75-10.67,23.75-23.76S39.86,3,26.76,3l-.02-1.5ZM26.74,38.16c-1.81,0-3.13-1.4-3.15-3.33v-4.91h-4.74c-1.41,0-2.24-.54-2.69-.99-.57-.57-.86-1.33-.85-2.19.02-1.55,1.13-3.12,3.57-3.12h4.71v-4.25c-.02-.31-.02-.72,0-1.13.2-1.8,1.78-3.04,3.49-2.85,1.59.18,2.79,1.52,2.79,3.12.02,1.19.01,2.4,0,3.6,0,.5,0,1,0,1.49h4.81c1.53-.12,2.91.82,3.34,2.29.3.87.16,1.86-.41,2.65-.6.85-1.63,1.36-2.75,1.37-1.41.02-2.8.01-4.24,0h-.74s0,4.88,0,4.88c0,1.91-1.35,3.35-3.13,3.36h-.02Z"/>
      </g>
    </g>
  </g>
</svg>