<?xml version="1.0" encoding="UTF-8"?>
<svg id="Layer_2" xmlns="http://www.w3.org/2000/svg" xmlns:xlink="http://www.w3.org/1999/xlink" viewBox="0 0 62.79 63.01">
  <defs>
    <style>
      .cls-1 {
        fill: url(#linear-gradient);
      }

      .cls-2 {
        fill: #1e1e1e;
      }
    </style>
    <linearGradient id="linear-gradient" x1="0" y1="31.51" x2="62.79" y2="31.51" gradientUnits="userSpaceOnUse">
      <stop offset="0" stop-color="#052376"/>
      <stop offset="1" stop-color="#78e10d"/>
    </linearGradient>
  </defs>
  <g id="Layer_1-2" data-name="Layer_1">
    <g>
      <g id="Layer_1-2">
        <path class="cls-1" d="M31.39,0c5.05.22,10.04.17,14.97.7,9.38,1.01,14.85,6.65,16.02,16.03.2,1.63.41,3.27.41,4.9,0,7.48,0,14.96-.18,22.44-.06,2.25-.54,4.54-1.18,6.7-2.21,7.35-7.66,10.77-14.91,11.81-1.67.24-3.36.42-5.04.42-7.48,0-14.97.01-22.45-.17-2.25-.05-4.54-.53-6.71-1.17-7.3-2.16-10.77-7.54-11.84-14.73C.17,44.92,0,42.85,0,40.81c0-7.21,0-14.42.19-21.62.06-2.25.54-4.54,1.18-6.7C3.59,5.13,9.03,1.54,16.3.73c5.02-.56,10.1-.51,15.09-.73ZM58.48,32.35c-.17-6.02.45-11.73-.83-17.35-1.07-4.68-3.79-7.93-8.48-9.3-1.44-.42-2.94-.83-4.41-.85-8.12-.14-16.24-.17-24.36-.19-1.36,0-2.73.21-4.08.42-5.71.89-9.68,3.82-11.08,9.65-.33,1.37-.63,2.78-.66,4.18-.12,7.71-.19,15.42-.17,23.13,0,2.11.4,4.22.65,6.61.72-.46,1.14-.7,1.54-.97,3.52-2.36,7.03-4.74,10.57-7.08,3.57-2.36,7.62-2.08,10.86.7,2.39,2.05,4.31,2.05,6.67.03,3.81-3.27,7.6-6.56,11.43-9.8,3.26-2.75,7.74-2.79,11.09-.16.32.25.63.51,1.26,1ZM7.12,52.6c-.14.19-.27.38-.41.57,1.01.83,1.98,1.72,3.03,2.49,2.56,1.86,5.53,2.69,8.61,2.77,7.84.19,15.69.19,23.54.2,1.54,0,3.1-.22,4.63-.45,6.33-.94,9.91-4.25,11.21-10.48.39-1.86.41-3.8.71-5.69.42-2.62-.21-4.73-2.63-6.11-.35-.2-.62-.53-.94-.79-2.13-1.78-4.16-1.77-6.27.04-3.78,3.23-7.53,6.51-11.34,9.69-.93.77-2.01,1.47-3.15,1.85-3.31,1.12-6.26.33-8.87-1.97-1.75-1.55-3.62-1.8-5.39-.64-4.27,2.8-8.49,5.68-12.73,8.52h0Z"/>
      </g>
      <rect class="cls-2" x="14.14" y="19.81" width="34.51" height="3.81" rx="1.91" ry="1.91"/>
    </g>
  </g>
</svg>