<?xml version="1.0" encoding="UTF-8"?>
<svg id="Layer_2" xmlns="http://www.w3.org/2000/svg" viewBox="0 0 162.17 198.34">
  <defs>
    <style>
      .cls-1 {
        fill: #4c4c4c;
      }
    </style>
  </defs>
  <g id="Layer_1-2" data-name="Layer_1">
    <g id="Layer_1-2">
      <g>
        <path class="cls-1" d="M27.03,113.54v48.99c0,10.22,7.5,17.73,17.72,17.73,24.21,0,48.42,0,72.62,0,10.22,0,17.74-7.51,17.75-17.71V63.92c0-4.87,2.58-8.5,6.74-9.53,5.21-1.29,10.22,1.96,11.12,7.26.16.96.2,1.96.2,2.94,0,32.59.02,65.18,0,97.78,0,17.87-11.95,32.22-29.49,35.42-2.07.37-4.2.52-6.3.52-24.21.03-48.42.04-72.62.02-20.12-.02-35.79-15.65-35.81-35.72-.03-32.8,0-65.61,0-98.41,0-5.07,2.53-8.72,6.71-9.79,5.86-1.5,11.31,2.69,11.33,8.86.05,12.32.02,24.64.02,36.96v13.3h0Z"/>
        <path class="cls-1" d="M45.08,27.04c0-5.77-.02-11.24.02-16.72,0-1.25.03-2.56.35-3.76C46.56,2.43,50.09.02,54.89,0,72.34,0,89.78,0,107.23,0h.85c5.31.25,8.92,3.89,9,9.21.07,5.07.02,10.13.02,15.2v2.62h2.62c10.91,0,21.81-.03,32.72,0,5.66.02,9.68,3.75,9.74,8.93.05,4.8-3.66,8.81-8.45,9.12-.42.03-.85.02-1.27.02H9.75C4.11,45.11.07,41.4,0,36.23c-.07-5.29,3.97-9.16,9.7-9.18,10.83-.03,21.67,0,32.51,0h2.87ZM63.14,26.88h35.83v-8.66h-35.83v8.66Z"/>
        <path class="cls-1" d="M54.06,112.69c0-10.55-.03-21.11.02-31.67.03-4.32,2.99-7.79,7.21-8.72,3.96-.87,8.28,1.24,9.91,5.06.58,1.38.89,3,.9,4.5.06,20.55.05,41.1.03,61.65,0,5.31-3.3,9.19-8.1,9.7-4.6.48-8.78-2.56-9.77-7.18-.19-.88-.19-1.82-.19-2.73,0-10.21,0-20.41,0-30.61h0Z"/>
        <path class="cls-1" d="M108.11,112.68c0,10.49.03,20.97-.02,31.46-.02,4.35-2.69,7.72-6.81,8.81-3.77,1-7.9-.54-9.79-4.02-.84-1.54-1.38-3.45-1.39-5.2-.09-20.69-.08-41.38-.04-62.07,0-5.59,3.93-9.57,9.13-9.52,5.18.05,8.9,4.08,8.91,9.72.02,10.27,0,20.55,0,30.82h0Z"/>
      </g>
    </g>
  </g>
</svg>