<svg xmlns="http://www.w3.org/2000/svg" xmlns:xlink="http://www.w3.org/1999/xlink" viewBox="0 0 21.56 14.74"><defs><style>.cls-1{fill:url(#Dégradé_sans_nom_18);}</style><linearGradient id="Dégradé_sans_nom_18" y1="7.37" x2="21.56" y2="7.37" gradientUnits="userSpaceOnUse"><stop offset="0" stop-color="#e9ca00"/><stop offset="1" stop-color="#ff6f00"/></linearGradient></defs><title>email</title><g id="Calque_2" data-name="Calque 2"><g id="Calque_1-2" data-name="Calque 1"><path class="cls-1" d="M.68,0h20.2a1.41,1.41,0,0,1,.68,1.18v12.4c0,.66-.38,1.05-1.16,1.16H1.16C.49,14.74.1,14.35,0,13.58V1A1.23,1.23,0,0,1,.68,0ZM6.84,6.61,1,13.47v.23q3.32-3,6.5-6.39l3.25,3q3-2.8,3-3.13h.12l6.49,6.38v-.24L14.72,6.61c2-2.05,3.66-3.71,5.11-5l-.13-.22q-4,3.39-8.91,7.4C10,8.22,9.15,7.57,8.34,6.86Q2.49,1.91,1.39,1.18H1.27C4.38,4.09,6.23,5.9,6.84,6.61Z"/></g></g></svg>