<?xml version="1.0" encoding="UTF-8"?>
<svg id="Layer_2" xmlns="http://www.w3.org/2000/svg" viewBox="0 0 216.41 216.41">
  <defs>
    <style>
      .cls-1 {
        fill: #787879;
      }

      .cls-2 {
        fill: #6b6b6c;
      }
    </style>
  </defs>
  <g id="Layer_1-2" data-name="Layer_1">
    <g>
      <path class="cls-2" d="M66.12,132.76l51.68-51.68,17.5,17.5-51.68,51.68h-17.5v-17.5ZM148.91,84.97l-8.53,8.3-17.5-17.28,8.53-8.53c1.85-1.75,4.74-1.75,6.58,0l10.99,10.84c1.75,1.85,1.75,4.74,0,6.58l-.07.07Z"/>
      <path class="cls-1" d="M108.21,216.41C48.54,216.41,0,167.87,0,108.21S48.54,0,108.21,0s108.21,48.54,108.21,108.21-48.54,108.21-108.21,108.21ZM108.21,7C52.4,7,7,52.4,7,108.21s45.4,101.21,101.21,101.21,101.21-45.4,101.21-101.21S164.01,7,108.21,7Z"/>
    </g>
  </g>
</svg>