<?xml version="1.0" encoding="UTF-8"?>
<svg id="Layer_2" xmlns="http://www.w3.org/2000/svg" xmlns:xlink="http://www.w3.org/1999/xlink" viewBox="0 0 129.83 127.84">
  <defs>
    <style>
      .cls-1 {
        fill: url(#linear-gradient);
      }

      .cls-2 {
        fill: #1e1e1e;
      }
    </style>
    <linearGradient id="linear-gradient" x1="59.18" y1="59.98" x2="89.13" y2="59.98" gradientUnits="userSpaceOnUse">
      <stop offset="0" stop-color="#052376"/>
      <stop offset="1" stop-color="#78e10d"/>
    </linearGradient>
  </defs>
  <g id="Layer_1-2" data-name="Layer_1">
    <g id="history">
      <path class="cls-2" d="M111.1,18.71c-25-24.89-65.41-24.89-90.41,0l-9.24,9.24V5.73c0-3.16-2.56-5.73-5.73-5.73S0,2.56,0,5.73v36.19c0,3.18,2.55,5.76,5.73,5.8h36.27c3.16,0,5.73-2.56,5.73-5.73s-2.56-5.73-5.73-5.73h-22.91l9.7-9.47c20.51-20.47,53.71-20.47,74.22,0,47.27,51.08-22.91,121.49-74.22,74.22-2.24-2.23-5.86-2.23-8.09,0-2.24,2.18-2.28,5.76-.1,7.99.03.03.07.07.1.1,24.97,24.97,65.44,24.97,90.41,0,24.97-24.97,24.97-65.44,0-90.41Z"/>
      <path class="cls-1" d="M64.91,31.46c-3.15.04-5.69,2.58-5.73,5.73v26.73c0,1.52.61,2.97,1.68,4.05l19.32,18.86c1.07,1.08,2.53,1.69,4.05,1.68,3.13-.46,5.3-3.36,4.84-6.49-.15-1.04-.58-2.01-1.25-2.82l-17.41-17.41v-24.59c-.04-3.06-2.44-5.57-5.5-5.73Z"/>
    </g>
  </g>
</svg>