<?xml version="1.0" encoding="UTF-8"?>
<svg id="Layer_2" xmlns="http://www.w3.org/2000/svg" viewBox="0 0 228.42 229.24">
  <defs>
    <style>
      .cls-1 {
        fill: #fff;
      }
    </style>
  </defs>
  <g id="Layer_1-2" data-name="Layer_1">
    <g id="Layer_1-2">
      <g>
        <path class="cls-1" d="M114.19,0c18.38.79,36.54.63,54.47,2.56,34.11,3.68,54.02,24.18,58.27,58.31.74,5.92,1.48,11.89,1.48,17.84,0,27.22.03,54.44-.65,81.65-.21,8.17-1.95,16.52-4.31,24.39-8.04,26.74-27.88,39.17-54.25,42.95-6.06.87-12.22,1.54-18.34,1.54-27.22,0-54.45.05-81.66-.63-8.18-.2-16.52-1.92-24.4-4.26-26.54-7.86-39.17-27.42-43.07-53.59C.62,163.4.01,155.89,0,148.45c-.02-26.22,0-52.46.7-78.67.22-8.18,1.95-16.52,4.31-24.39C13.06,18.65,32.85,5.62,59.3,2.65,77.55.6,96.05.8,114.19,0ZM212.75,117.7c-.61-21.9,1.62-42.66-3.03-63.1-3.88-17.03-13.79-28.85-30.86-33.84-5.23-1.52-10.69-3.02-16.06-3.11-29.53-.5-59.07-.63-88.61-.69-4.95,0-9.93.75-14.84,1.51-20.77,3.23-35.22,13.9-40.31,35.1-1.19,4.98-2.31,10.11-2.39,15.2-.43,28.04-.7,56.09-.62,84.14.02,7.67,1.46,15.34,2.36,24.06,2.63-1.66,4.15-2.56,5.62-3.54,12.82-8.59,25.58-17.26,38.45-25.77,12.97-8.58,27.71-7.55,39.52,2.54,8.71,7.44,15.68,7.46,24.26.1,13.85-11.89,27.64-23.86,41.59-35.64,11.87-10.02,28.14-10.15,40.34-.6,1.16.91,2.31,1.84,4.58,3.64ZM25.9,191.37c-.5.69-1,1.38-1.49,2.07,3.67,3.03,7.19,6.27,11.04,9.06,9.31,6.75,20.13,9.79,31.31,10.06,28.53.68,57.09.69,85.63.74,5.61,0,11.26-.81,16.83-1.64,23.02-3.43,36.04-15.46,40.79-38.12,1.42-6.78,1.5-13.84,2.59-20.7,1.52-9.53-.75-17.19-9.56-22.21-1.27-.73-2.27-1.93-3.42-2.89-7.74-6.46-15.12-6.45-22.81.13-13.75,11.76-27.38,23.67-41.27,35.25-3.37,2.81-7.33,5.34-11.45,6.74-12.03,4.08-22.79,1.21-32.28-7.17-6.37-5.63-13.17-6.55-19.61-2.32-15.52,10.2-30.88,20.65-46.3,31h0Z"/>
        <path class="cls-1" d="M111.45,72.71c-.07,16.12-13.11,29.13-29.15,29.1-16.24-.03-29.24-13.29-29.08-29.68.15-16.05,13.33-28.96,29.4-28.82,16.05.14,28.9,13.25,28.82,29.4h.01ZM83.06,59.3c-7.37-.38-13.55,5.2-13.88,12.52-.34,7.44,5.06,13.53,12.44,14.04,7.16.49,13.56-5.3,13.88-12.59.34-7.45-5.13-13.6-12.44-13.97Z"/>
      </g>
    </g>
  </g>
</svg>