<?xml version="1.0" encoding="UTF-8"?>
<svg id="Layer_2" xmlns="http://www.w3.org/2000/svg" viewBox="0 0 94.72 119.5">
  <defs>
    <style>
      .cls-1 {
        fill: #fff;
      }
    </style>
  </defs>
  <g id="Layer_1-2" data-name="Layer_1">
    <g id="Layer_1-2">
      <g>
        <path class="cls-1" d="M76.27,119.5H18.45c-10.18,0-18.45-8.28-18.45-18.45V18.45C0,8.28,8.28,0,18.45,0h23.75c1.64,0,2.97,1.33,2.97,2.97v36.13c0,5.76,4.69,10.45,10.45,10.45h36.13c1.64,0,2.97,1.33,2.97,2.97v48.52c0,10.18-8.28,18.45-18.45,18.45ZM18.45,3.87c-8.04,0-14.58,6.54-14.58,14.58v82.59c0,8.04,6.54,14.58,14.58,14.58h57.81c8.04,0,14.58-6.54,14.58-14.58v-47.62h-35.23c-7.9,0-14.32-6.43-14.32-14.32V3.87h-22.84ZM68.01,94.72H26.71c-3.34,0-6.07-2.72-6.07-6.07s2.72-6.07,6.07-6.07h41.3c3.34,0,6.07,2.72,6.07,6.07s-2.72,6.07-6.07,6.07ZM26.71,86.46c-1.21,0-2.19.98-2.19,2.19s.98,2.19,2.19,2.19h41.3c1.21,0,2.19-.98,2.19-2.19s-.98-2.19-2.19-2.19H26.71Z"/>
        <path class="cls-1" d="M91.55,47.33l-2.07-2.06c-.12.02-.24.03-.36.03h-33.5c-3.42,0-6.19-2.78-6.19-6.19V5.6c0-.68.28-1.34.76-1.82,1.02-1,2.65-1,3.65,0l33.59,33.59h0s3.52,3.52,3.52,3.52c.49.49.75,1.13.75,1.82,0,.3-.05.6-.15.88v3.74ZM53.56,9.34v29.76c0,1.14.93,2.06,2.06,2.06h29.76l-31.83-31.83Z"/>
        <path class="cls-1" d="M68.01,74.07H26.71c-3.34,0-6.07-2.72-6.07-6.07s2.72-6.07,6.07-6.07h41.3c3.34,0,6.07,2.72,6.07,6.07s-2.72,6.07-6.07,6.07ZM26.71,65.82c-1.21,0-2.19.98-2.19,2.19s.98,2.19,2.19,2.19h41.3c1.21,0,2.19-.98,2.19-2.19s-.98-2.19-2.19-2.19H26.71Z"/>
      </g>
    </g>
  </g>
</svg>