<?xml version="1.0" encoding="UTF-8"?>
<svg id="Layer_2" xmlns="http://www.w3.org/2000/svg" viewBox="0 0 367 463">
  <defs>
    <style>
      .cls-1 {
        stroke-width: 16px;
      }

      .cls-1, .cls-2 {
        stroke: #262626;
      }

      .cls-1, .cls-2, .cls-3 {
        fill: none;
        stroke-miterlimit: 10;
      }

      .cls-2, .cls-3 {
        stroke-width: 15px;
      }

      .cls-3 {
        stroke: #0e3b89;
      }
    </style>
  </defs>
  <g id="Layer_1-2" data-name="Layer_1">
    <g>
      <path class="cls-3" d="M355.5,199.5h-140c-26.51,0-48-21.49-48-48V11.5c0-2.21-1.79-4-4-4h-92C36.15,7.5,7.5,36.15,7.5,71.5v320c0,35.35,28.65,64,64,64h224c35.35,0,64-28.65,64-64v-188c0-2.21-1.79-4-4-4ZM263.5,359.5H103.5c-8.84,0-16-7.16-16-16s7.16-16,16-16h160c8.84,0,16,7.16,16,16s-7.16,16-16,16Z"/>
      <path class="cls-1" d="M346.72,164.09L202.91,20.28c-.78-.78-2.05-.77-2.83,0-.37.37-.58.88-.58,1.4v129.81c0,8.84,7.16,16,16,16h129.81c1.1,0,2-.9,1.99-2.01,0-.53-.21-1.03-.58-1.4Z"/>
      <path class="cls-2" d="M263.5,279.5H103.5c-8.84,0-16-7.16-16-16s7.16-16,16-16h160c8.84,0,16,7.16,16,16s-7.16,16-16,16Z"/>
    </g>
  </g>
</svg>