<?xml version="1.0" encoding="UTF-8"?>
<svg id="Layer_2" xmlns="http://www.w3.org/2000/svg" xmlns:xlink="http://www.w3.org/1999/xlink" viewBox="0 0 93.62 93.62">
  <defs>
    <style>
      .cls-1 {
        fill: url(#linear-gradient-2);
      }

      .cls-2 {
        fill: url(#linear-gradient);
      }

      .cls-3 {
        fill: #052376;
      }

      .cls-4 {
        stroke: #c6c6c6;
        stroke-miterlimit: 10;
      }

      .cls-4, .cls-5 {
        fill: #fff;
      }
    </style>
    <linearGradient id="linear-gradient" x1="47.34" y1="59.44" x2="76.53" y2="59.44" gradientUnits="userSpaceOnUse">
      <stop offset="0" stop-color="#052376"/>
      <stop offset="1" stop-color="#78e10d"/>
    </linearGradient>
    <linearGradient id="linear-gradient-2" x1="37.12" y1="42.11" x2="75.44" y2="42.11" xlink:href="#linear-gradient"/>
  </defs>
  <g id="Layer_1-2" data-name="Layer_1">
    <g>
      <rect class="cls-4" x=".5" y=".5" width="92.62" height="92.62" rx="9.96" ry="9.96"/>
      <g>
        <polygon class="cls-2" points="56.67 46.55 47.34 56.4 59.91 72.33 76.53 72.33 56.67 46.55"/>
        <polygon class="cls-1" points="45.31 53.83 54.66 43.95 65.53 32.48 75.44 21.74 59.69 21.74 40.1 42.76 40.1 21.74 37.12 21.74 37.12 62.48 38.72 60.79 40.1 59.32 45.31 53.83"/>
        <polygon class="cls-3" points="25.94 72.33 27.79 72.33 28.79 71.26 28.79 21.74 25.94 21.74 25.94 72.33"/>
        <polygon class="cls-3" points="32.04 67.84 33.88 65.9 33.88 21.74 32.04 21.74 32.04 67.84"/>
        <polygon class="cls-5" points="28.79 72.33 28.79 71.26 27.79 72.33 28.79 72.33"/>
        <polygon class="cls-5" points="32.04 72.55 32.26 72.33 32.04 72.33 32.04 72.55"/>
        <polygon class="cls-5" points="54.79 44.11 65.53 32.48 54.66 43.95 45.31 53.83 40.1 59.32 38.72 60.79 38.73 61.13 40.1 59.66 45.42 53.96 45.81 53.54 53.76 45.23 54.79 44.11"/>
      </g>
    </g>
  </g>
</svg>