<svg xmlns="http://www.w3.org/2000/svg" xmlns:xlink="http://www.w3.org/1999/xlink" viewBox="0 0 14.29 18.08"><defs><style>.cls-1{fill:url(#Dégradé_sans_nom_18);}</style><linearGradient id="Dégradé_sans_nom_18" y1="9.04" x2="14.29" y2="9.04" gradientUnits="userSpaceOnUse"><stop offset="0" stop-color="#e9ca00"/><stop offset="1" stop-color="#ff6f00"/></linearGradient></defs><title>location</title><g id="Calque_2" data-name="Calque 2"><g id="Calque_1-2" data-name="Calque 1"><path class="cls-1" d="M2.54,1.64A9.05,9.05,0,0,1,6.63,0h.82a6.78,6.78,0,0,1,3.88,1.42,7.66,7.66,0,0,1,3,5.83,11,11,0,0,1-1.12,4.18q-3.51,6-6,6.65A5.68,5.68,0,0,1,5.1,16.85Q0,11.2,0,7.77V7Q0,4.4,2.54,1.64ZM6.23,3.06a2.71,2.71,0,0,1,.7,1.33V4.7c0,.76-.51,1.27-1.52,1.53H5c-.56,0-1-.41-1.43-1.23C3.3,5,3,5.75,2.74,7.25l.32,1.54q1.61,2.64,3.57,2.64H7.75a3.92,3.92,0,0,0,.92-.2q2.76-1.44,2.76-3.88a7.85,7.85,0,0,0-.1-1.12C10.51,4,9.14,2.86,7.25,2.86A3.3,3.3,0,0,0,6.23,3.06Z"/></g></g></svg>