<?xml version="1.0" encoding="UTF-8"?>
<svg id="Layer_2" xmlns="http://www.w3.org/2000/svg" xmlns:xlink="http://www.w3.org/1999/xlink" viewBox="0 0 192 128">
  <defs>
    <style>
      .cls-1 {
        fill: url(#linear-gradient);
      }
    </style>
    <linearGradient id="linear-gradient" x1="0" y1="64" x2="192" y2="64" gradientUnits="userSpaceOnUse">
      <stop offset="0" stop-color="#052376"/>
      <stop offset="1" stop-color="#78e10d"/>
    </linearGradient>
  </defs>
  <g id="Layer_1-2" data-name="Layer_1">
    <path class="cls-1" d="M180,128H12c-6.63,0-12-5.37-12-12s5.37-12,12-12h168c6.63,0,12,5.37,12,12s-5.37,12-12,12ZM180,76H12c-6.63,0-12-5.37-12-12s5.37-12,12-12h168c6.63,0,12,5.37,12,12s-5.37,12-12,12ZM180,24H12C5.37,24,0,18.63,0,12S5.37,0,12,0h168c6.63,0,12,5.37,12,12s-5.37,12-12,12Z"/>
  </g>
</svg>