<svg xmlns="http://www.w3.org/2000/svg" xmlns:xlink="http://www.w3.org/1999/xlink" viewBox="0 0 15.94 17.31"><defs><style>.cls-1{fill:url(#Dégradé_sans_nom_18);}</style><linearGradient id="Dégradé_sans_nom_18" y1="8.65" x2="15.94" y2="8.65" gradientUnits="userSpaceOnUse"><stop offset="0" stop-color="#e9ca00"/><stop offset="1" stop-color="#ff6f00"/></linearGradient></defs><title>phone</title><g id="Calque_2" data-name="Calque 2"><g id="Calque_1-2" data-name="Calque 1"><path class="cls-1" d="M.25,2.89Q2.89,0,3.7,0h.46q.42.29,2.07,4.5c0,.4-.49,1-1.48,1.84L5.09,7.5c2.08,3.16,3.66,4.73,4.73,4.73A9.55,9.55,0,0,1,11.66,11a3.71,3.71,0,0,1,1.73,1c1.7,1,2.55,1.72,2.55,2.18q-.48,1.13-3.34,3.12h-.71q-3.48,0-8.53-5.65A16.49,16.49,0,0,1,0,4.27a.77.77,0,0,1,.13-.34L0,3.7Z"/></g></g></svg>