<svg width="63" height="52" viewBox="0 0 63 52" fill="none" xmlns="http://www.w3.org/2000/svg">
<path d="M50.595 50.1957C31.0089 56.7724 8.38999 44.923 4.18285 22.5404C4.89956 23.2227 5.39761 23.6829 5.87947 24.1593C9.8882 28.1522 13.9334 32.1047 17.8895 36.15C22.8538 41.2249 28.7535 44.4022 35.7992 45.3106C25.2469 34.7935 14.6825 24.2562 4.11806 13.723C4.22739 13.5494 4.33672 13.3718 4.44604 13.1981C4.74164 13.1618 5.04128 13.0891 5.33687 13.0891C16.5978 13.0851 27.8627 13.073 39.1236 13.0932C41.5976 13.0972 42.9906 14.6475 42.6545 16.8882C42.3994 18.5798 41.0834 19.5649 38.9738 19.573C33.3089 19.5932 27.644 19.5891 21.9792 19.5932C21.3961 19.5932 20.813 19.5932 19.8574 19.5932C30.2193 29.9124 40.3019 39.9491 50.595 50.1957Z" fill="#042870"/>
<path d="M36.111 26.1739C37.7954 26.0568 39.6986 26.1537 41.4924 25.7621C46.6997 24.6196 49.7285 20.2714 49.1494 15.0755C48.5947 10.1218 44.5252 6.61337 39.2693 6.60125C28.8871 6.58107 18.5009 6.60125 8.11869 6.52858C7.2967 6.52455 6.31274 6.10063 5.68916 5.54753C3.87915 3.95281 2.21492 2.19256 0 0.00436025C1.26741 0.00436025 1.94363 0.00436025 2.6239 0.00436025C14.5569 0.00436025 26.49 -0.00775155 38.4231 0.00839752C46.481 0.0205093 52.405 3.98107 54.8831 10.905C57.1831 17.3363 55.0977 25.2777 49.0037 29.5208C48.8984 29.5935 48.8417 29.7308 48.7283 29.8801C53.312 34.3938 57.9039 38.9155 62.7508 43.6876C60.6938 45.1208 58.9567 46.332 57.337 47.4584C50.1779 40.2761 43.1566 33.2311 36.119 26.1699L36.111 26.1739Z" fill="#043ABF"/>
</svg>
