<svg width="158" height="32" viewBox="0 0 158 32" fill="none" xmlns="http://www.w3.org/2000/svg">
<path d="M31.5141 30.8874C19.5757 34.9344 5.78868 27.6429 3.22428 13.87C3.66114 14.2899 3.96472 14.5731 4.25843 14.8662C6.70189 17.3232 9.16757 19.7553 11.5789 22.2446C14.6049 25.3673 18.201 27.3225 22.4955 27.8814C16.0636 21.4099 9.62417 14.9258 3.18479 8.44432C3.25143 8.33749 3.31806 8.22818 3.3847 8.12136C3.56488 8.099 3.74752 8.05428 3.9277 8.05428C10.7916 8.0518 17.658 8.04435 24.5219 8.05677C26.0299 8.05925 26.879 9.01322 26.6741 10.392C26.5186 11.4329 25.7165 12.0391 24.4306 12.0441C20.9776 12.0565 17.5247 12.054 14.0718 12.0565C13.7164 12.0565 13.3609 12.0565 12.7785 12.0565C19.0944 18.4063 25.2401 24.5823 31.5141 30.8874Z" fill="#042870"/>
<path d="M22.6856 16.1059C23.7123 16.0338 24.8724 16.0935 25.9658 15.8525C29.1398 15.1494 30.986 12.4738 30.633 9.27656C30.2949 6.22833 27.8144 4.06947 24.6107 4.06202C18.2824 4.0496 11.9516 4.06202 5.62331 4.0173C5.12228 4.01482 4.52252 3.75397 4.14243 3.41362C3.03916 2.43232 2.02476 1.34917 0.674683 0.00268304C1.44721 0.00268304 1.85939 0.00268304 2.27404 0.00268304C9.54766 0.00268304 16.8213 -0.00476985 24.0949 0.00516733C29.0065 0.0126202 32.6174 2.44971 34.1279 6.71028C35.5298 10.6678 34.2587 15.5544 30.5442 18.1654C30.48 18.2101 30.4454 18.2945 30.3763 18.3865C33.1703 21.1639 35.9691 23.9463 38.9235 26.8828C37.6697 27.7647 36.6109 28.51 35.6236 29.2031C31.2599 24.7835 26.9802 20.4484 22.6905 16.1034L22.6856 16.1059Z" fill="#043ABF"/>
<path d="M52.945 17.5865H50.0277V23.5786H46.829V7.94994H53.6756C55.4477 7.94994 56.8324 8.37227 57.827 9.21693C58.8217 10.0616 59.3203 11.2491 59.3203 12.7819C59.3203 13.9023 59.0463 14.8414 58.4959 15.5991C57.9455 16.3568 57.1631 16.9009 56.1438 17.2338L60.2359 23.5786H56.5905L52.945 17.5865ZM50.0277 15.0997H53.2511C54.1915 15.0997 54.885 14.9134 55.3342 14.5433C55.7809 14.1731 56.0055 13.5992 56.0055 12.8266C56.0055 12.054 55.7809 11.4801 55.3342 11.11C54.8875 10.7398 54.1939 10.5535 53.2511 10.5535H50.0277V15.0997Z" fill="#042870"/>
<path d="M73.1295 18.8908H64.802C65.1303 20.5652 66.1126 21.3999 67.744 21.3999C68.4178 21.3999 68.9756 21.2732 69.415 21.0198C69.8543 20.7664 70.1603 20.4037 70.3331 19.9317L72.9691 20.9031C72.5915 21.8496 71.9621 22.5725 71.076 23.0694C70.19 23.5662 69.0793 23.8146 67.7465 23.8146C65.8016 23.8146 64.296 23.2731 63.2298 22.1924C62.1636 21.1117 61.6304 19.5988 61.6304 17.6586C61.6304 15.7183 62.1487 14.2054 63.1829 13.1247C64.2171 12.0441 65.6757 11.5025 67.5589 11.5025C69.4421 11.5025 70.7774 12.0316 71.7572 13.0899C72.7371 14.1483 73.2282 15.6562 73.2282 17.6138C73.2282 18.0561 73.1962 18.4834 73.1345 18.8933L73.1295 18.8908ZM65.6609 14.5805C65.1969 15.0376 64.9032 15.7183 64.7798 16.6176H70.2615C70.1357 15.7332 69.8395 15.06 69.3681 14.5929C68.8967 14.1284 68.287 13.8949 67.5342 13.8949C66.7815 13.8949 66.1274 14.1234 65.6634 14.5805H65.6609Z" fill="#042870"/>
<path d="M75.0349 21.5415L76.9157 19.5988C77.2291 20.277 77.6808 20.7565 78.2682 21.0322C78.8556 21.308 79.5813 21.4471 80.4451 21.4471C81.1362 21.4471 81.6693 21.3527 82.0445 21.1639C82.4196 20.9751 82.6097 20.7142 82.6097 20.3814C82.6097 20.113 82.4344 19.8845 82.0815 19.6957C81.7285 19.5069 81.1214 19.3255 80.2575 19.1516C78.4533 18.7889 77.1871 18.3119 76.459 17.7182C75.7285 17.1269 75.3657 16.3245 75.3657 15.3159C75.3657 14.6526 75.5705 14.029 75.9778 13.4452C76.385 12.8614 76.9897 12.3919 77.7894 12.0366C78.5891 11.6814 79.5467 11.505 80.6598 11.505C81.9778 11.505 83.0441 11.7062 83.8585 12.1087C84.673 12.5111 85.3567 13.1471 85.9046 14.0141L83.9054 15.7183C83.5599 15.0873 83.1329 14.6203 82.6245 14.3222C82.1136 14.0216 81.4743 13.8725 80.7067 13.8725C80.0625 13.8725 79.5492 13.9843 79.1666 14.2029C78.7816 14.424 78.5915 14.6923 78.5915 15.0078C78.5915 15.3382 78.7791 15.6165 79.1567 15.8376C79.5344 16.0587 80.2008 16.2649 81.1559 16.4537C82.8639 16.8015 84.0757 17.2561 84.7915 17.8151C85.5048 18.3765 85.8627 19.1516 85.8627 20.1478C85.8627 21.2533 85.3962 22.1402 84.4632 22.811C83.5303 23.4818 82.2074 23.8171 80.4994 23.8171C77.8807 23.8171 76.0617 23.0594 75.0423 21.544L75.0349 21.5415Z" fill="#042870"/>
<path d="M96.4905 22.8433C96.1129 23.1439 95.639 23.3799 95.0664 23.5538C94.4938 23.7277 93.894 23.8146 93.2671 23.8146C90.6484 23.8146 89.3378 22.6222 89.3378 20.2397V14.1532H87.1979V11.7385H89.3378V9.0157L92.5612 8.11639V11.7385H96.372V14.1532H92.5612V19.718C92.5612 20.8062 93.1017 21.3527 94.1853 21.3527C94.8763 21.3527 95.4786 21.1316 95.9969 20.6894L96.4905 22.8433Z" fill="#042870"/>
<path d="M102.088 10.5783V14.5333H108.698V17.1841H102.088V23.5786H98.8426V7.94994H110.465V10.5783H102.088Z" fill="#043ABF"/>
<path d="M116.085 19.8124C116.085 20.3814 116.167 20.7764 116.332 20.9975C116.497 21.2186 116.798 21.3279 117.238 21.3279C117.504 21.3279 117.736 21.308 117.931 21.2682C118.126 21.2285 118.358 21.1614 118.625 21.067L118.343 23.3178C118.092 23.4768 117.763 23.5985 117.356 23.6855C116.949 23.7724 116.549 23.8146 116.157 23.8146C115.011 23.8146 114.177 23.5339 113.652 22.975C113.126 22.416 112.864 21.5192 112.864 20.2869V6.55377H116.088V19.8149L116.085 19.8124Z" fill="#043ABF"/>
<path d="M130.26 13.1347C131.318 14.2228 131.847 15.7308 131.847 17.6586C131.847 19.5864 131.318 21.0919 130.26 22.1825C129.201 23.2706 127.722 23.8171 125.824 23.8171C123.926 23.8171 122.448 23.2731 121.389 22.1825C120.33 21.0943 119.802 19.5864 119.802 17.6586C119.802 15.7308 120.33 14.2253 121.389 13.1347C122.448 12.0441 123.926 11.5 125.824 11.5C127.722 11.5 129.201 12.0441 130.26 13.1347ZM123.744 14.8513C123.265 15.4749 123.026 16.4114 123.026 17.6561C123.026 18.9007 123.265 19.8398 123.744 20.4608C124.223 21.0844 124.916 21.3974 125.827 21.3974C126.738 21.3974 127.431 21.0869 127.91 20.4608C128.389 19.8373 128.628 18.9032 128.628 17.6561C128.628 16.409 128.389 15.4749 127.91 14.8513C127.431 14.2278 126.738 13.9172 125.827 13.9172C124.916 13.9172 124.223 14.2278 123.744 14.8513Z" fill="#043ABF"/>
<path d="M153.068 11.7385L149.326 23.5786H145.584L143.02 15.219L140.549 23.5786H136.832L133.091 11.7385H136.502L138.854 20.9726L141.49 11.7385H144.666L147.302 20.9726L149.654 11.7385H153.068Z" fill="#043ABF"/>
<path d="M156.772 20.4758C157.14 20.8236 157.325 21.2881 157.325 21.8719C157.325 22.4557 157.14 22.9228 156.772 23.2681C156.405 23.6159 155.906 23.7898 155.279 23.7898C154.652 23.7898 154.154 23.6209 153.786 23.2805C153.418 22.9402 153.233 22.4706 153.233 21.8719C153.233 21.2732 153.418 20.8037 153.786 20.4633C154.154 20.123 154.652 19.9541 155.279 19.9541C155.906 19.9541 156.405 20.128 156.772 20.4758Z" fill="#043ABF"/>
</svg>
