<svg width="24" height="24" viewBox="0 0 24 24" fill="none" xmlns="http://www.w3.org/2000/svg">
<g clip-path="url(#clip0_9_7)">
<path d="M16.5996 20.047C16.4067 20.047 16.255 20.047 16.1007 20.047C15.0797 20.047 14.6759 19.6381 14.6759 18.6042C14.6759 17.5138 14.6759 16.4259 14.6759 15.3354C14.6759 14.3658 14.6759 13.3962 14.6759 12.4267C14.6759 12.2981 14.6759 12.172 14.6759 12.0254H13.5237C13.5443 12.6581 13.0582 12.8176 12.5901 12.9796C12.3458 13.0645 12.1555 13.1699 12.1298 13.4528C12.1298 13.4631 12.122 13.476 12.1143 13.4863C11.7877 14.0006 11.7543 14.5201 12.1015 15.0396C12.122 15.0679 12.1349 15.1039 12.14 15.1374C12.2764 15.752 11.7903 16.0324 11.4559 16.3847C11.1833 16.6728 10.849 16.9351 10.4478 16.7011C9.89483 16.377 9.40103 16.4259 8.85323 16.7062C8.61148 16.8297 8.45202 16.9557 8.35944 17.2051C8.23856 17.5369 8.17426 17.9844 7.77048 18.0384C7.26126 18.1079 6.72117 18.1053 6.21966 18.0076C6.01906 17.969 5.83131 17.6089 5.73873 17.3595C5.60242 16.9968 5.37867 16.8194 5.03404 16.647C4.54282 16.4027 4.1339 16.4053 3.67354 16.6702C3.31862 16.8759 2.98171 16.7782 2.69624 16.4979C2.6448 16.4464 2.59079 16.4002 2.53935 16.3513C1.73951 15.59 1.73437 15.5334 2.13557 14.5253C2.1973 14.3735 2.17158 14.1678 2.13557 13.9981C1.99155 13.3654 1.64435 12.9102 0.967957 12.7764C0.944811 12.7713 0.921664 12.761 0.901089 12.7481C0.368718 12.4087 0.5256 11.866 0.507597 11.3799C0.494738 10.9967 0.543603 10.5775 0.978245 10.4669C1.63664 10.2972 1.97098 9.87281 2.12014 9.25814C2.16386 9.07811 2.19215 8.85951 2.12786 8.69748C1.73437 7.70732 1.75494 7.65846 2.51364 6.89205C2.93285 6.47026 3.36492 6.31338 3.88186 6.65286C4.51453 7.06693 4.97489 6.52427 5.4944 6.35967C5.62814 6.31853 5.68729 5.99447 5.75159 5.7913C5.90333 5.31551 6.22738 5.09433 6.7186 5.0969C6.88577 5.0969 7.05294 5.0969 7.22011 5.09433C7.76277 5.0789 8.17684 5.2795 8.28485 5.84273C8.43145 6.60657 9.15156 6.56028 9.63764 6.83032C9.75595 6.89719 10.0337 6.71716 10.2215 6.61686C10.6947 6.35967 11.0907 6.44969 11.4431 6.83289C11.5074 6.90233 11.582 6.96406 11.6488 7.0335C12.2609 7.65331 12.2944 7.77933 11.9369 8.57146C11.8109 8.85436 11.7543 9.1064 11.9497 9.36873C11.9703 9.39702 11.9883 9.43303 11.996 9.46646C12.0938 9.99369 12.4204 10.2714 12.9296 10.4C13.318 10.5003 13.5108 10.7961 13.5237 11.2153H14.6733V10.773C14.6733 8.71291 14.6733 6.65544 14.6733 4.59539C14.6733 3.61295 15.09 3.19373 16.0621 3.19116C16.2267 3.19116 16.3913 3.19116 16.5945 3.19116C16.5945 2.5662 16.5945 1.9824 16.5945 1.40116C16.5945 0.588457 17.0523 0.125525 17.8547 0.125525C19.3155 0.122953 20.7763 0.122953 22.2371 0.125525C23.0215 0.125525 23.487 0.591029 23.4896 1.37544C23.4947 2.84911 23.4947 4.3202 23.4896 5.79387C23.487 6.55256 23.0138 7.02064 22.2525 7.02064C20.7789 7.02321 19.3078 7.02321 17.8341 7.02064C17.0497 7.02064 16.5971 6.55514 16.5945 5.76044C16.5945 5.17405 16.5945 4.59025 16.5945 3.955C16.3244 3.955 16.075 3.937 15.8332 3.96014C15.522 3.99101 15.4372 4.20447 15.4397 4.49766C15.4449 6.10249 15.4423 7.70732 15.4423 9.31215C15.4423 9.93454 15.4423 10.5569 15.4423 11.2102H16.5971C16.5971 10.6392 16.5971 10.0683 16.5971 9.4999C16.5971 8.61261 17.0317 8.18054 17.919 8.18054C19.3438 8.18054 20.7686 8.18054 22.1934 8.18054C23.0472 8.18054 23.4922 8.62804 23.4947 9.48961C23.4947 10.9144 23.4947 12.3392 23.4947 13.764C23.4947 14.623 23.0498 15.0705 22.1934 15.0731C20.7557 15.0731 19.3206 15.0731 17.883 15.0731C17.0446 15.0731 16.5996 14.6256 16.5971 13.7872C16.5971 13.2136 16.5971 12.6401 16.5971 12.0383H15.4423V12.4318C15.4423 14.479 15.4423 16.5262 15.4423 18.5734C15.4423 19.2163 15.5246 19.2986 16.1573 19.2986C16.2859 19.2986 16.417 19.2986 16.5945 19.2986C16.5945 18.7097 16.5945 18.1516 16.5945 17.5935C16.5945 16.6496 17.0111 16.2278 17.9421 16.2278C19.3669 16.2278 20.7917 16.2278 22.2165 16.2278C23.0267 16.2278 23.487 16.6856 23.4896 17.4906C23.4922 18.9514 23.4947 20.4122 23.4896 21.873C23.4896 22.6574 23.0215 23.1204 22.2371 23.123C20.7763 23.1281 19.3155 23.1255 17.8547 23.123C17.0497 23.123 16.5971 22.6575 16.5945 21.8447C16.5945 21.2609 16.5945 20.6771 16.5945 20.0547L16.5996 20.047ZM1.31516 12.1077C1.56205 12.2029 1.81409 12.3109 2.07385 12.3984C2.32075 12.4807 2.46477 12.6221 2.5445 12.8819C2.64737 13.2214 2.79139 13.5557 2.95599 13.872C3.07687 14.1061 3.11288 14.3092 2.97914 14.5459C2.90198 14.6796 2.87884 14.8442 2.79397 14.9728C2.61137 15.2454 2.69366 15.4229 2.90456 15.6492C3.17974 15.9424 3.43178 16.0632 3.78413 15.8035C3.869 15.7418 3.98216 15.7186 4.07474 15.6672C4.31907 15.536 4.5351 15.5566 4.782 15.6955C5.07262 15.8575 5.38639 15.9861 5.70529 16.0761C5.9882 16.1584 6.16565 16.305 6.24795 16.5828C6.28396 16.7088 6.36883 16.8219 6.3894 16.948C6.45627 17.3646 6.74175 17.3569 7.07351 17.3723C7.43614 17.3903 7.60074 17.2411 7.67018 16.9171C7.7782 16.4053 8.05339 16.0632 8.60633 15.9861C8.7555 15.9655 8.91238 15.8961 9.03326 15.8061C9.4319 15.5077 9.80996 15.5617 10.2317 15.7701C10.7564 16.0324 10.7667 16.0092 11.1782 15.5797C11.2193 15.536 11.2785 15.4974 11.2965 15.446C11.3273 15.356 11.3762 15.2274 11.3376 15.1682C10.8978 14.5304 10.9519 13.9055 11.3608 13.2831C11.3814 13.2548 11.3994 13.2188 11.4045 13.1853C11.4662 12.6453 11.8083 12.3855 12.3021 12.2595C12.4564 12.2209 12.6467 12.1515 12.7264 12.0306C12.9553 11.6911 12.7341 11.0893 12.3355 10.9787C11.834 10.8398 11.4637 10.6084 11.4019 10.0451C11.3994 10.0117 11.3788 9.97569 11.3582 9.9474C10.9416 9.32501 10.939 8.71806 11.3171 8.05452C11.5048 7.7279 11.0676 7.5993 10.8978 7.40127C10.8284 7.32154 10.5969 7.27782 10.5121 7.33183C9.92826 7.69703 9.41646 7.61216 8.78122 7.34983C8.1434 7.08751 7.72933 6.77117 7.56731 6.11278C7.54673 6.02533 7.45929 5.9096 7.37956 5.88388C6.87805 5.72443 6.48713 5.89674 6.34311 6.39311C6.20937 6.85347 5.97019 7.14152 5.48926 7.22896C5.32723 7.25982 5.14978 7.31383 5.02633 7.41156C4.58911 7.75876 4.16733 7.66617 3.73269 7.42442C3.6401 7.37298 3.53723 7.3344 3.43693 7.29583C3.38292 7.27525 3.29805 7.24439 3.27233 7.26754C3.06915 7.45271 2.8454 7.63017 2.70138 7.85392C2.64223 7.94393 2.72967 8.17025 2.80683 8.30142C3.08201 8.76178 3.13602 9.19385 2.80683 9.65935C2.68081 9.83681 2.61908 10.0734 2.56507 10.292C2.49049 10.5904 2.31818 10.7498 2.0327 10.8553C1.19942 11.169 1.20457 11.1819 1.31258 12.1052L1.31516 12.1077ZM22.718 19.6818C22.718 18.9643 22.718 18.2467 22.718 17.5292C22.718 17.074 22.6306 16.9891 22.1651 16.9891C20.7532 16.9891 19.3412 16.9891 17.9293 16.9891C17.4689 16.9891 17.3712 17.0843 17.3712 17.5318C17.3686 18.9566 17.3686 20.3788 17.3712 21.8036C17.3712 22.2434 17.4638 22.336 17.8958 22.336C19.3309 22.336 20.7686 22.336 22.2037 22.336C22.6486 22.336 22.718 22.2614 22.718 21.8036C22.718 21.0989 22.718 20.3917 22.718 19.6844V19.6818ZM22.718 3.58723C22.718 2.86968 22.718 2.15214 22.718 1.43459C22.718 0.974234 22.6486 0.902222 22.2037 0.902222C20.7686 0.902222 19.3309 0.902222 17.8958 0.902222C17.4638 0.902222 17.3737 0.994808 17.3712 1.43459C17.3686 2.8594 17.3686 4.28162 17.3712 5.70643C17.3712 6.14364 17.4689 6.24651 17.8933 6.24909C19.3283 6.25166 20.766 6.25166 22.2011 6.24909C22.628 6.24909 22.7155 6.15136 22.718 5.709C22.718 5.00174 22.718 4.29706 22.718 3.5898V3.58723ZM22.718 11.6397C22.718 10.899 22.7129 10.1557 22.718 9.41503C22.7206 9.1064 22.5946 8.94181 22.2757 8.94181C20.7917 8.94181 19.3078 8.94181 17.8238 8.94181C17.5075 8.94181 17.366 9.09869 17.366 9.40731C17.366 10.8784 17.366 12.3521 17.366 13.8232C17.366 14.1524 17.5203 14.299 17.8495 14.299C19.3103 14.2938 20.7686 14.299 22.2294 14.2964C22.6177 14.2964 22.7103 14.1961 22.7129 13.7974C22.7155 13.0799 22.7129 12.3624 22.7129 11.6422L22.718 11.6397Z" fill="white"/>
<path d="M7.03258 7.79474C9.13121 7.79474 10.8518 9.50502 10.8543 11.5959C10.8569 13.7357 9.1415 15.4485 7.00686 15.4408C4.88252 15.4305 3.17482 13.7177 3.1851 11.6062C3.19539 9.48701 4.9031 7.79731 7.03516 7.79731L7.03258 7.79474ZM10.0725 11.6062C10.0648 9.90879 8.70428 8.55086 7.01715 8.55086C5.32488 8.55086 3.94123 9.94737 3.95409 11.6448C3.96437 13.3165 5.35831 14.6873 7.0403 14.6796C8.72486 14.6718 10.0828 13.2959 10.0751 11.6036L10.0725 11.6062Z" fill="white"/>
<path d="M19.5676 4.16847C20.0176 3.49208 20.4086 2.92113 20.7841 2.33989C20.9409 2.09814 21.1364 1.93868 21.4013 2.11357C21.6765 2.2936 21.5788 2.53792 21.4244 2.76939C20.9718 3.44321 20.5269 4.12475 20.0717 4.79857C19.8093 5.18949 19.6113 5.20235 19.2692 4.86544C19.0635 4.66484 18.8603 4.46423 18.6597 4.25591C18.4848 4.07589 18.4565 3.87271 18.6417 3.68754C18.8166 3.51008 19.0146 3.53837 19.1818 3.70297C19.3078 3.82899 19.4107 3.97816 19.565 4.16847H19.5676Z" fill="white"/>
<path d="M19.5522 12.2364C20.0075 11.5548 20.3932 10.9813 20.7764 10.4078C20.9796 10.1069 21.2214 10.004 21.4168 10.166C21.6714 10.3769 21.5711 10.6058 21.4168 10.8296C20.9642 11.5034 20.5193 12.1823 20.064 12.8562C19.8197 13.2188 19.5985 13.2368 19.2822 12.9256C19.0944 12.743 18.9118 12.5501 18.7241 12.3675C18.5312 12.1823 18.4181 11.9715 18.6315 11.7477C18.863 11.506 19.0893 11.6268 19.2771 11.8351C19.3696 11.9406 19.4391 12.0692 19.5522 12.2338V12.2364Z" fill="white"/>
<path d="M4.73328 11.6165C4.73328 10.3332 5.75688 9.30702 7.02737 9.31474C8.29272 9.31988 9.32917 10.3718 9.31888 11.6371C9.3086 12.887 8.27471 13.9183 7.0248 13.9209C5.74916 13.9209 4.73071 12.8999 4.73071 11.6165H4.73328ZM7.01194 13.1339C7.86836 13.1339 8.54733 12.4678 8.55247 11.6243C8.55762 10.7807 7.87608 10.1043 7.02223 10.1043C6.16837 10.1043 5.48169 10.7755 5.47655 11.614C5.4714 12.4524 6.16066 13.1339 7.01194 13.1339Z" fill="white"/>
</g>
<defs>
<clipPath id="clip0_9_7">
<rect width="23" height="22.9974" fill="white" transform="translate(0.5 0.117798)"/>
</clipPath>
</defs>
</svg>
