<svg width="18" height="19" viewBox="0 0 18 19" fill="none" xmlns="http://www.w3.org/2000/svg">
<g clip-path="url(#clip0_6_252)">
<path d="M13.8206 18.1178C12.6628 18.0612 11.5248 17.6508 10.4383 17.0879C7.54281 15.5836 5.18066 13.4451 3.1528 10.9183C2.0172 9.50737 1.05858 7.98587 0.456367 6.26526C0.151574 5.40004 -0.0622729 4.51516 0.0778336 3.58357C0.15649 3.05756 0.358047 2.59791 0.73658 2.21938C1.2503 1.70811 1.75911 1.18947 2.27775 0.680663C3.02499 -0.0493657 4.06964 -0.0788618 4.82671 0.643793C5.67226 1.45248 6.50307 2.27837 7.30684 3.12884C8.17206 4.04322 7.86726 5.38529 6.71692 5.86952C5.66489 6.31196 5.26915 7.09607 5.69438 8.15301C6.50799 10.1858 7.97787 11.6114 10.0008 12.425C10.9496 12.806 11.832 12.3636 12.2302 11.4197C12.7366 10.2227 14.0713 9.92769 15.0078 10.8273C15.8435 11.6286 16.6596 12.4521 17.4658 13.2853C18.1688 14.0104 18.154 15.0698 17.4437 15.8122C16.9103 16.3701 16.3572 16.9109 15.8066 17.4517C15.2782 17.9703 14.6145 18.1153 13.8206 18.1178Z" fill="black"/>
</g>
<defs>
<clipPath id="clip0_6_252">
<rect width="17.9508" height="18" fill="white" transform="translate(0.0336914 0.117798)"/>
</clipPath>
</defs>
</svg>
