<svg width="23" height="24" viewBox="0 0 23 24" fill="none" xmlns="http://www.w3.org/2000/svg">
<g clip-path="url(#clip0_9_84)">
<path d="M11.5048 0.201019C5.1799 0.201019 8.285e-07 5.35223 8.285e-07 11.6484C-0.00238953 17.947 5.16795 23.1006 11.4928 23.1006C17.8249 23.103 22.9952 17.9614 23 11.6604C23.0048 5.3618 17.8297 0.20341 11.5048 0.201019ZM15.6688 13.4699C13.7876 14.6507 11.8729 15.7766 9.95822 16.9048C9.70484 17.0554 9.37737 17.1319 9.07857 17.1486C7.90013 17.218 6.98462 16.3718 6.96072 15.1909C6.9392 14.0268 6.95594 12.8627 6.95594 11.6986C6.95594 10.5345 6.9392 9.42062 6.96072 8.28281C6.98462 6.76972 8.45947 5.7586 9.77895 6.47809C11.8872 7.62546 13.9477 8.87323 15.9532 10.1903C17.0934 10.9385 16.9118 12.6882 15.6688 13.4699Z" fill="white"/>
</g>
<defs>
<clipPath id="clip0_9_84">
<rect width="23" height="22.8996" fill="white" transform="translate(0 0.201019)"/>
</clipPath>
</defs>
</svg>
