<svg width="25" height="23" viewBox="0 0 25 23" fill="none" xmlns="http://www.w3.org/2000/svg">
<g clip-path="url(#clip0_10_102)">
<path d="M11.5573 6.43376C11.5573 8.04654 11.5653 9.66064 11.5493 11.2734C11.5467 11.5826 11.6466 11.7906 11.8612 12.0038C14.1497 14.279 16.4303 16.5622 18.7108 18.8441C19.1947 19.3279 19.2 19.4786 18.6828 19.9437C15.424 22.8694 11.656 23.7451 7.52672 22.3522C3.45347 20.9767 0.953007 18.0391 0.181276 13.7925C-0.951664 7.54538 3.34284 1.75006 9.66064 0.881028C10.0632 0.825048 10.4724 0.807721 10.8789 0.793059C11.3947 0.775732 11.5547 0.935676 11.556 1.45283C11.5587 3.11359 11.556 4.77301 11.556 6.43376H11.5573ZM10.615 6.93759V2.56844C10.615 1.98464 10.3209 1.73495 9.73262 1.81937C3.95596 2.64708 0.0853089 7.98256 1.10895 13.7032C2.46981 21.3059 11.6679 24.6381 17.5872 19.6798C17.8858 19.4292 17.8551 19.304 17.6005 19.0507C15.3973 16.8675 13.2141 14.6642 11.0082 12.485C10.7136 12.1931 10.603 11.8999 10.6083 11.496C10.627 9.97653 10.6163 8.45706 10.6163 6.93892L10.615 6.93759Z" fill="white"/>
<path d="M18.3083 10.5776C16.6489 10.5776 14.9881 10.5776 13.3287 10.5776C12.6476 10.5776 12.553 10.4883 12.553 9.83124C12.5516 6.79363 12.5516 3.75602 12.553 0.71841C12.553 0.0866296 12.6569 -0.00800417 13.302 0.00132591C18.6215 0.0693023 23.2666 4.18254 23.9877 9.4647C24.1369 10.5577 24.1183 10.5776 23.008 10.5776C21.4419 10.5776 19.8758 10.5776 18.3096 10.5776H18.3083ZM18.2843 9.63264C19.7411 9.63264 21.1993 9.62598 22.6561 9.63797C22.9494 9.64064 23.0733 9.59799 23.0173 9.25677C22.2803 4.82498 18.311 1.2209 13.8712 0.956993C13.6033 0.940999 13.4886 0.970322 13.49 1.28888C13.5033 3.95195 13.5033 6.61503 13.49 9.2781C13.4886 9.58066 13.5886 9.63931 13.8658 9.63664C15.3387 9.62465 16.8115 9.63131 18.2843 9.63131V9.63264Z" fill="white"/>
<path d="M18.7775 11.5746C20.3116 11.5746 21.8471 11.5733 23.3812 11.5746C23.949 11.5746 24.1156 11.7612 24.045 12.3184C23.7357 14.7855 22.7441 16.9328 21.0314 18.7401C20.6342 19.1587 20.4382 19.16 20.0224 18.7455C17.9511 16.6769 15.8811 14.6042 13.8085 12.537C13.6233 12.353 13.4487 12.1664 13.554 11.8852C13.6699 11.5773 13.9418 11.572 14.2191 11.5733C15.7385 11.5773 17.2567 11.576 18.7761 11.576L18.7775 11.5746ZM15.2214 12.5156C15.236 12.5823 15.232 12.6196 15.248 12.6356C16.9394 14.3297 18.6362 16.0197 20.3196 17.7218C20.5355 17.9404 20.6182 17.8098 20.7448 17.6605C21.9217 16.2703 22.6615 14.6749 23.0173 12.8928C23.08 12.5796 22.9893 12.5063 22.6761 12.5076C20.7821 12.5223 18.8881 12.5143 16.9941 12.5143C16.405 12.5143 15.8172 12.5143 15.22 12.5143L15.2214 12.5156Z" fill="#FED32C"/>
<path d="M5.67669 11.7359C5.66603 12.2291 6.10987 12.6623 6.70033 12.6969C7.06421 12.7183 7.42008 12.7569 7.74797 12.9195C8.44773 13.2674 8.87957 13.8205 8.87558 14.6189C8.87291 15.4173 8.44639 15.9771 7.73464 16.305C7.46807 16.4276 7.24681 16.4996 7.2868 16.8821C7.31612 17.1594 7.10686 17.346 6.80296 17.33C6.52573 17.3153 6.35912 17.146 6.37378 16.8728C6.38978 16.5702 6.27248 16.4356 5.98458 16.353C5.66603 16.261 5.41678 16.0291 5.17953 15.7998C4.97027 15.5973 4.91429 15.3653 5.11422 15.1347C5.32748 14.8882 5.58872 14.8948 5.81531 15.1121C6.17652 15.4586 6.57371 15.6532 7.08687 15.5373C7.5747 15.4266 7.90925 15.0881 7.93457 14.6616C7.9599 14.2297 7.672 13.8592 7.17883 13.7166C7.01622 13.6699 6.84162 13.6566 6.67101 13.6446C5.68602 13.5806 4.91029 12.9195 4.76367 12.0092C4.62506 11.1508 5.10889 10.3564 6.02324 9.99254C6.2245 9.91256 6.34579 9.84859 6.32047 9.606C6.28448 9.27012 6.4031 8.98355 6.77497 8.97022C7.14951 8.9569 7.28146 9.23013 7.25747 9.57401C7.24015 9.8166 7.32945 9.93256 7.57203 10.0019C7.91858 10.1005 8.23447 10.2831 8.48904 10.5483C8.70764 10.7749 8.8116 11.0375 8.56635 11.2934C8.32244 11.5467 8.07719 11.4627 7.83194 11.2374C7.34278 10.7883 6.71766 10.6763 6.23516 10.9229C5.90461 11.0922 5.70868 11.3561 5.67936 11.7346L5.67669 11.7359Z" fill="#FED32C"/>
</g>
<defs>
<clipPath id="clip0_10_102">
<rect width="24.061" height="23" fill="white"/>
</clipPath>
</defs>
</svg>
