<svg width="24" height="23" viewBox="0 0 24 23" fill="none" xmlns="http://www.w3.org/2000/svg">
<g clip-path="url(#clip0_10_161)">
<path d="M3.7809 19.9829C0.393162 17.0613 -0.881861 12.0586 0.628509 7.72498C2.1479 3.3679 6.34537 0.171326 10.8269 0C10.8377 0.139766 10.8584 0.282236 10.8584 0.424707C10.8602 3.90893 10.863 7.39405 10.8512 10.8783C10.8512 11.0848 10.7854 11.3345 10.6592 11.4914C8.43103 14.2669 6.18937 17.0316 3.95042 19.798C3.90443 19.8548 3.85213 19.9053 3.7818 19.982L3.7809 19.9829Z" fill="#FED32C"/>
<path d="M12.2326 22.9567V12.2047H23.027C22.8377 18.0388 17.5915 22.872 12.2326 22.9567Z" fill="white"/>
<path d="M10.8296 13.4401V23C8.61318 22.8648 6.64203 22.1452 4.82959 20.8567C6.81877 18.3986 8.78 15.9739 10.8296 13.4401Z" fill="white"/>
<path d="M16.9206 10.7917H15.2741V1.84131H16.9206V10.7917Z" fill="#FED32C"/>
<path d="M12.2263 10.7854V5.09467H13.8647V10.7854H12.2263Z" fill="white"/>
<path d="M19.9459 10.798H18.3201V6.4328H19.9459V10.798Z" fill="white"/>
<path d="M23.0532 10.7917H21.3562V8.23627H23.0532V10.7917Z" fill="#FED32C"/>
</g>
<defs>
<clipPath id="clip0_10_161">
<rect width="23.0532" height="23" fill="white"/>
</clipPath>
</defs>
</svg>
