<svg width="23" height="23" viewBox="0 0 23 23" fill="none" xmlns="http://www.w3.org/2000/svg">
<g clip-path="url(#clip0_17_2)">
<path d="M2.3337 11.5155C2.3337 13.3619 2.32813 15.2082 2.3337 17.0518C2.33927 19.224 3.76232 20.6554 5.93171 20.6582C9.64112 20.6637 13.3505 20.6637 17.0599 20.6582C19.2321 20.6554 20.6552 19.2295 20.6635 17.0546C20.6691 16.052 20.6635 15.0467 20.6635 14.0442C20.6663 13.1697 21.0924 12.6573 21.8081 12.6518C22.5321 12.6434 22.9805 13.1502 22.9777 14.0163C22.9749 15.2695 23.0418 16.531 22.9192 17.7759C22.6241 20.7779 20.2736 22.9334 17.2604 22.9668C13.409 23.0086 9.55479 23.0169 5.70335 22.9668C2.498 22.9222 0.0501271 20.427 0.0250636 17.2161C-0.00835452 13.4009 -0.00835452 9.58286 0.0250636 5.76484C0.052912 2.53721 2.53421 0.0670555 5.76741 0.0169284C7.61376 -0.0137049 9.45732 0.00578903 11.3037 0.0141436C12.1168 0.0169284 12.646 0.479212 12.6515 1.1615C12.6571 1.84378 12.1252 2.32278 11.3204 2.32556C9.52973 2.33392 7.73629 2.32556 5.94564 2.32835C3.76511 2.33392 2.34205 3.7514 2.33648 5.92358C2.33091 7.78663 2.33648 9.64969 2.33648 11.5155H2.3337Z" fill="white"/>
<path d="M14.9407 4.414C14.9407 3.79576 14.9518 3.13854 14.9379 2.48132C14.9267 1.94941 15.1078 1.5289 15.5951 1.28662C16.0908 1.03877 16.528 1.18915 16.9374 1.51498C18.767 2.98259 20.605 4.44463 22.4319 5.91781C23.1309 6.48035 23.1727 7.17935 22.5489 7.80872C20.7053 9.66342 18.8506 11.507 17.0042 13.3617C16.6088 13.7571 16.1549 13.9047 15.6369 13.6819C15.1384 13.4703 14.9379 13.0498 14.9435 12.5151C14.9518 11.7827 14.9435 11.0475 14.9435 10.1536C13.9353 10.2455 12.9551 10.2677 12.0027 10.4376C10.2594 10.7495 8.79453 11.5237 7.92009 13.1751C7.65274 13.6819 7.16818 13.8769 6.64741 13.746C6.12108 13.6123 5.85095 13.2559 5.77297 12.7156C5.22714 8.89481 7.81983 5.39426 11.7492 4.72312C12.7824 4.54767 13.8379 4.51425 14.9435 4.41121L14.9407 4.414Z" fill="#FED32C"/>
</g>
<defs>
<clipPath id="clip0_17_2">
<rect width="22.9972" height="23" fill="white"/>
</clipPath>
</defs>
</svg>
