<svg width="20" height="24" viewBox="0 0 20 24" fill="none" xmlns="http://www.w3.org/2000/svg">
<g clip-path="url(#clip0_32_507)">
<path d="M3.88756 8.15051H15.3737V8.63884C15.3737 11.5723 15.3737 14.504 15.3737 17.4374C15.3737 18.4401 15.107 18.7016 14.0871 18.705C13.8966 18.705 13.7061 18.705 13.4654 18.705C13.4654 19.7371 13.4689 20.7207 13.4619 21.7043C13.4602 21.9415 13.4498 22.1857 13.3927 22.4143C13.2264 23.0931 12.5494 23.5623 11.8809 23.4913C11.1969 23.4204 10.6168 22.8454 10.596 22.151C10.5666 21.1796 10.5839 20.2064 10.5805 19.2332C10.5805 19.0739 10.5805 18.9128 10.5805 18.731H8.64618C8.64618 19.4548 8.64618 20.1544 8.64618 20.854C8.64618 21.2436 8.65484 21.6315 8.64272 22.0212C8.61848 22.8437 8.01932 23.474 7.25392 23.4983C6.47814 23.5225 5.80798 22.8974 5.77335 22.0593C5.74218 21.2973 5.76469 20.5337 5.76296 19.77C5.76296 19.4306 5.76296 19.0895 5.76296 18.6912C5.38372 18.6912 5.05644 18.7137 4.73435 18.686C4.16636 18.6375 3.86159 18.3171 3.85986 17.7474C3.85293 14.6044 3.85639 11.4632 3.85813 8.32022C3.85813 8.27692 3.87371 8.23536 3.88929 8.15051H3.88756Z" fill="black"/>
<path d="M15.379 7.14439H3.90495C3.70581 5.67594 4.59935 3.89752 6.21326 2.5624C6.11802 2.45677 6.02797 2.34767 5.92754 2.24724C5.65393 1.97017 5.3786 1.69657 5.10326 1.42123C4.86429 1.18399 4.73615 0.922512 5.02188 0.647177C5.28855 0.389159 5.53964 0.510376 5.76476 0.735492C6.10244 1.0749 6.45223 1.40392 6.77779 1.75371C6.94403 1.93207 7.08602 1.96324 7.32153 1.868C8.84713 1.25326 10.3831 1.25326 11.907 1.868C12.146 1.96498 12.2862 1.92515 12.4507 1.74852C12.7451 1.43162 13.062 1.13378 13.3685 0.825539C13.6109 0.581374 13.8707 0.325087 14.2049 0.650641C14.5374 0.972731 14.3088 1.2446 14.056 1.48704C13.7027 1.82644 13.3477 2.16412 12.965 2.5295C14.527 3.70357 15.3114 5.20839 15.379 7.14266V7.14439ZM7.18992 4.07068C6.79337 4.08107 6.47821 4.40663 6.49206 4.79452C6.50418 5.17895 6.84186 5.49758 7.22975 5.48719C7.62457 5.4768 7.92588 5.15644 7.91722 4.75642C7.90856 4.35641 7.59513 4.06029 7.19165 4.07068H7.18992ZM12.7365 4.77201C12.7347 4.38411 12.4092 4.06895 12.0126 4.07068C11.6109 4.07068 11.3078 4.37719 11.3096 4.78067C11.3113 5.17895 11.623 5.49065 12.0195 5.48719C12.4057 5.48372 12.7382 5.15297 12.7347 4.77201H12.7365Z" fill="black"/>
<path d="M2.88327 12.9437C2.88327 14.0053 2.88673 15.0668 2.88327 16.1283C2.87807 17.0651 2.2668 17.7439 1.44252 17.7387C0.621713 17.7335 0.00697069 17.0478 0.00523902 16.1144C4.40232e-05 13.9914 4.40232e-05 11.8667 0.00523902 9.74363C0.00697069 8.80853 0.625176 8.13318 1.45638 8.13664C2.28584 8.1401 2.88154 8.81026 2.885 9.75575C2.88846 10.8173 2.885 11.8788 2.885 12.9403L2.88327 12.9437Z" fill="black"/>
<path d="M19.225 12.9472C19.225 13.9949 19.2285 15.0408 19.225 16.0885C19.2215 17.0496 18.6033 17.7491 17.7704 17.7422C16.9444 17.7353 16.347 17.0599 16.3452 16.1145C16.3418 13.9914 16.3418 11.8667 16.3452 9.74365C16.347 8.80336 16.9583 8.1332 17.7895 8.14013C18.6189 8.14706 19.2198 8.82067 19.225 9.7627C19.2302 10.8242 19.225 11.8857 19.225 12.9472Z" fill="black"/>
</g>
<defs>
<clipPath id="clip0_32_507">
<rect width="19.225" height="23" fill="white" transform="translate(0 0.5)"/>
</clipPath>
</defs>
</svg>
