<svg width="23" height="22" viewBox="0 0 23 22" fill="none" xmlns="http://www.w3.org/2000/svg">
<g clip-path="url(#clip0_32_512)">
<path d="M3.99625 0.355225C4.63033 0.364504 5.02315 0.556274 5.27059 0.983116C5.87993 2.02548 6.49235 3.06475 7.08003 4.11948C7.44811 4.78139 7.26252 5.46496 6.61607 5.88252C6.09025 6.22276 5.55515 6.55681 5.00768 6.85993C4.71075 7.02386 4.65198 7.20017 4.74477 7.51875C5.3139 9.5045 6.23872 11.3232 7.40481 13.012C7.99558 13.8688 8.70698 14.6452 9.35962 15.4617C9.52974 15.6752 9.69367 15.6937 9.93493 15.5514C10.4886 15.2236 11.0546 14.9174 11.6268 14.6204C12.3599 14.2369 13.0218 14.4225 13.4456 15.137C14.0363 16.1329 14.6178 17.1382 15.1839 18.1465C15.6169 18.9167 15.3818 19.6466 14.5838 20.0395C13.5136 20.5622 12.4403 21.0787 11.3546 21.5674C11.1598 21.654 10.8814 21.6664 10.6742 21.6015C9.51427 21.2365 8.52759 20.5622 7.65534 19.7394C3.79211 16.0927 1.20322 11.6975 0.120647 6.48258C-0.0927746 5.4495 0.040227 4.34218 0.0649715 3.26889C0.0711576 3.05856 0.262927 2.79256 0.445418 2.65955C1.39499 1.9698 2.36621 1.30789 3.34362 0.655252C3.5756 0.500598 3.85706 0.417086 3.99625 0.355225Z" fill="black"/>
<path d="M7.646 6.60631C9.48637 7.86518 11.3298 9.13025 13.1764 10.3953C13.795 10.8191 13.8507 10.8191 14.4569 10.4046C17.1262 8.57349 19.7955 6.7455 22.4649 4.9144C22.6071 4.81543 22.7556 4.72263 22.9752 4.58035C22.9845 4.81233 23 4.97936 23 5.14329C23 8.49307 23 11.846 23 15.1957C23 16.1422 22.6999 16.4453 21.7627 16.4453C19.8296 16.4453 17.8964 16.4391 15.9632 16.4546C15.6477 16.4546 15.4683 16.3649 15.3199 16.0834C15.0384 15.5422 14.726 15.0132 14.4043 14.4936C13.6837 13.3213 12.3567 12.9502 11.1288 13.5719C10.9556 13.6585 10.7885 13.7575 10.6184 13.8472C9.79568 14.2957 9.7864 14.3018 9.22037 13.5812C7.90272 11.8954 6.85727 10.0551 6.11184 8.04767C5.9943 7.72909 6.0407 7.55897 6.34382 7.39504C6.78303 7.16306 7.19441 6.8785 7.63981 6.60631H7.646Z" fill="black"/>
<path d="M8.36361 3.87204H21.8834C21.6885 4.0236 21.5864 4.1102 21.4751 4.18753C19.047 5.85469 16.6128 7.51566 14.1909 9.19519C13.9033 9.39624 13.7115 9.38078 13.4362 9.18591C11.8371 8.07241 10.2287 6.97128 8.61724 5.87943C8.37598 5.7155 8.29556 5.57631 8.34815 5.26082C8.42238 4.82779 8.3667 4.37311 8.3667 3.86894L8.36361 3.87204Z" fill="black"/>
</g>
<defs>
<clipPath id="clip0_32_512">
<rect width="23" height="21.2895" fill="white" transform="translate(0 0.355225)"/>
</clipPath>
</defs>
</svg>
