<svg width="23" height="24" viewBox="0 0 23 24" fill="none" xmlns="http://www.w3.org/2000/svg">
<g clip-path="url(#clip0_32_516)">
<path d="M8.64306 5.53343C10.7232 5.53343 12.8033 5.53343 14.8797 5.53343C16.3703 5.53343 17.2491 6.41591 17.2491 7.90648C17.2491 11.3622 17.2491 14.818 17.2491 18.2737C17.2491 19.7346 16.3592 20.6208 14.902 20.6245C12.0729 20.6245 9.24744 20.6208 6.41833 20.6356C6.17732 20.6356 5.89181 20.7395 5.699 20.8878C4.70158 21.6516 3.72641 22.4414 2.74752 23.2312C2.47685 23.4499 2.19876 23.5982 1.84651 23.4203C1.50538 23.246 1.42381 22.9457 1.43493 22.5934C1.44606 22.3079 1.4201 22.0224 1.43864 21.7406C1.49055 21.0472 1.48314 20.4465 0.719312 20.035C0.196501 19.7532 0.00369079 19.1265 -1.70902e-05 18.5147C-1.70902e-05 14.8921 -0.00372497 11.2732 0.00739868 7.65063C0.0111066 6.4604 0.96774 5.54456 2.17651 5.53714C4.33079 5.52602 6.48507 5.53714 8.63935 5.53714L8.64306 5.53343ZM11.3387 11.4586C11.3461 9.90873 10.5118 8.8112 9.30306 8.50345C8.04238 8.18086 6.74833 8.74446 6.13653 9.87907C5.7954 10.5131 5.85473 10.9803 6.3108 11.2028C6.73721 11.4141 7.04496 11.2399 7.38609 10.5836C7.68643 10.0051 8.32789 9.71592 8.93598 9.89019C9.58115 10.0756 9.96677 10.6429 9.90374 11.3214C9.85924 11.8109 9.58115 12.1335 9.17699 12.3856C8.32789 12.9195 7.89036 13.7019 7.8644 14.6993C7.85328 15.1443 8.15733 15.4743 8.55407 15.4891C8.93598 15.5039 9.25115 15.2333 9.28082 14.792C9.3216 14.2025 9.59969 13.8057 10.0928 13.4831C10.916 12.9529 11.3276 12.1668 11.3424 11.4549L11.3387 11.4586ZM8.60598 17.7435C8.9916 17.7546 9.32902 17.4357 9.34385 17.0501C9.35497 16.6645 9.0398 16.3271 8.65047 16.316C8.26486 16.3048 7.92744 16.62 7.91631 17.0093C7.90519 17.3987 8.22036 17.7324 8.60969 17.7435H8.60598Z" fill="black"/>
<path d="M5.76949 4.09847C5.76949 3.48667 5.71758 2.91566 5.78061 2.35948C5.90297 1.30644 6.80769 0.512951 7.87556 0.509243C12.199 0.498119 16.5261 0.498119 20.8494 0.509243C22.0508 0.509243 22.9889 1.44734 22.9926 2.6524C23.0037 6.26017 23.0037 9.86423 22.9926 13.472C22.9926 14.2989 22.5884 14.9366 21.858 15.3259C21.617 15.452 21.5502 15.5966 21.5577 15.845C21.5725 16.4272 21.5577 17.013 21.5651 17.5952C21.5688 17.9548 21.4687 18.244 21.1238 18.4035C20.7864 18.5592 20.5194 18.4146 20.2636 18.2033C19.8335 17.8547 19.3811 17.5321 18.977 17.1576C18.8287 17.0204 18.7026 16.7683 18.6989 16.5681C18.6803 13.6796 18.6878 10.7912 18.6878 7.90276C18.6878 5.62241 17.1675 4.09847 14.8946 4.09847C11.8727 4.09847 8.85074 4.09847 5.77319 4.09847H5.76949Z" fill="black"/>
</g>
<defs>
<clipPath id="clip0_32_516">
<rect width="23" height="22.9963" fill="white" transform="translate(0 0.501831)"/>
</clipPath>
</defs>
</svg>
