<svg width="23" height="26" viewBox="0 0 23 26" fill="none" xmlns="http://www.w3.org/2000/svg">
<g clip-path="url(#clip0_32_519)">
<path d="M12.7136 25.9956C9.83153 25.9956 6.95379 26.0044 4.07169 25.9956C2.02491 25.9869 0.46796 24.7317 0.0743487 22.7899C0.0131204 22.4837 0.00437345 22.1601 0.00437345 21.8496C0 16.151 0 10.4611 0 4.77123C0 2.27836 1.66191 0.612076 4.16353 0.603329C9.94086 0.594582 15.7182 0.603329 21.4955 0.603329C22.6151 0.603329 23 0.99694 23 2.13404C23 7.71894 23 13.3038 23 18.8887C23 20.0652 22.6108 20.4501 21.4124 20.4501C15.6526 20.4501 9.89275 20.4501 4.13291 20.4501C2.94771 20.4501 2.19547 21.3073 2.42727 22.3744C2.58909 23.1179 3.21012 23.6077 4.04545 23.6121C5.5193 23.6208 6.99753 23.6121 8.47138 23.6121C12.8623 23.6121 17.2533 23.6121 21.6442 23.6121C22.4227 23.6121 22.9257 24.0057 22.9956 24.653C23.07 25.3571 22.6064 25.93 21.8848 25.9737C21.3075 26.0087 20.7258 25.9869 20.1485 25.9912C17.6731 25.9912 15.1978 25.9912 12.718 25.9912L12.7136 25.9956ZM10.3301 11.4889C10.3039 12.7091 10.715 13.2514 11.4235 13.2951C12.1538 13.3432 12.6218 12.8446 12.6786 11.9437C12.7136 11.4145 12.9411 11.0428 13.4046 10.7497C14.7036 9.92754 15.294 8.47117 14.9791 6.97108C14.6205 5.26106 12.9454 4.02774 11.2179 4.19831C9.36794 4.38199 7.95531 5.86022 7.92907 7.63147C7.92033 8.34434 8.37954 8.87791 9.03993 8.92601C9.72656 8.97849 10.212 8.50616 10.3214 7.68833C10.4394 6.79614 11.231 6.31069 11.992 6.66931C12.4031 6.86174 12.6437 7.18975 12.6743 7.65334C12.7136 8.18253 12.4687 8.55427 12.027 8.82542C10.8986 9.51206 10.3738 10.5442 10.3301 11.4889ZM12.6743 15.6568C12.6612 14.9964 12.1495 14.5022 11.4847 14.5109C10.8156 14.5197 10.3214 15.0226 10.3257 15.6874C10.3257 16.3565 10.8855 16.8988 11.5415 16.8726C12.1888 16.8463 12.6874 16.3128 12.6743 15.6568Z" fill="black"/>
</g>
<defs>
<clipPath id="clip0_32_519">
<rect width="23" height="25.3967" fill="white" transform="translate(0 0.603333)"/>
</clipPath>
</defs>
</svg>
