<svg width="58" height="46" viewBox="0 0 58 46" fill="none" xmlns="http://www.w3.org/2000/svg">
<g clip-path="url(#clip0_13_82)">
<path d="M57.3825 43.6622L53.5039 37.5405L47.8296 28.5848L44.9571 24.0518H39.9496L36.1439 30.6427H40.2555L36.2729 37.5405H24.2001L29.8745 28.5848L32.747 24.0518L36.0211 18.88L37.4652 16.6026H40.2399L38.8541 14.4146L36.0221 9.94615L33.9965 6.74902L27.7552 16.6016L23.0349 24.0518L20.1624 28.5848L14.4881 37.5405L9.12795 46H56.0955C57.2941 46 58.0234 44.6766 57.3814 43.6622H57.3825Z" fill="white"/>
<path d="M18.916 27.9003L21.8967 23.1956L26.7959 15.4634L33.2734 5.23738L30.4217 0.73455C29.8027 -0.245501 28.3711 -0.245501 27.752 0.73455L18.4208 15.4634L13.5247 23.1956L10.5408 27.9003L4.65425 37.1952L0.627927 43.5489C-0.0410466 44.6017 0.716361 45.9751 1.96275 45.9751H7.46332L13.0263 37.1952L18.916 27.9003Z" fill="white"/>
</g>
<defs>
<clipPath id="clip0_13_82">
<rect width="57.2415" height="46" fill="white" transform="translate(0.379272)"/>
</clipPath>
</defs>
</svg>
