<svg width="20" height="24" viewBox="0 0 20 24" fill="none" xmlns="http://www.w3.org/2000/svg">
<g clip-path="url(#clip0_9_20)">
<path d="M4.66262 8.15051H16.1488V8.63884C16.1488 11.5723 16.1488 14.504 16.1488 17.4374C16.1488 18.4401 15.8821 18.7016 14.8621 18.705C14.6717 18.705 14.4812 18.705 14.2405 18.705C14.2405 19.7371 14.2439 20.7207 14.237 21.7043C14.2353 21.9415 14.2249 22.1857 14.1677 22.4143C14.0015 23.0931 13.3244 23.5623 12.656 23.4913C11.972 23.4204 11.3919 22.8454 11.3711 22.151C11.3417 21.1796 11.359 20.2064 11.3555 19.2332C11.3555 19.0739 11.3555 18.9128 11.3555 18.731H9.42124C9.42124 19.4548 9.42124 20.1544 9.42124 20.854C9.42124 21.2436 9.4299 21.6315 9.41778 22.0212C9.39353 22.8437 8.79437 23.474 8.02898 23.4983C7.25319 23.5225 6.58304 22.8974 6.5484 22.0593C6.51723 21.2973 6.53974 20.5337 6.53801 19.77C6.53801 19.4306 6.53801 19.0895 6.53801 18.6912C6.15878 18.6912 5.83149 18.7137 5.5094 18.686C4.94142 18.6375 4.63664 18.3171 4.63491 17.7474C4.62798 14.6044 4.63145 11.4632 4.63318 8.32022C4.63318 8.27692 4.64876 8.23536 4.66435 8.15051H4.66262Z" fill="black"/>
<path d="M16.154 7.14439H4.67994C4.4808 5.67594 5.37434 3.89752 6.98826 2.5624C6.89301 2.45677 6.80297 2.34767 6.70253 2.24724C6.42893 1.97017 6.15359 1.69657 5.87826 1.42123C5.63929 1.18399 5.51114 0.922512 5.79687 0.647177C6.06355 0.389159 6.31464 0.510376 6.53975 0.735492C6.87743 1.0749 7.22723 1.40392 7.55278 1.75371C7.71902 1.93207 7.86102 1.96324 8.09652 1.868C9.62212 1.25326 11.1581 1.25326 12.682 1.868C12.9209 1.96498 13.0612 1.92515 13.2257 1.74852C13.5201 1.43162 13.837 1.13378 14.1435 0.825539C14.3859 0.581374 14.6457 0.325087 14.9799 0.650641C15.3124 0.972731 15.0838 1.2446 14.831 1.48704C14.4777 1.82644 14.1227 2.16412 13.74 2.5295C15.302 3.70357 16.0864 5.20839 16.154 7.14266V7.14439ZM7.96492 4.07068C7.56836 4.08107 7.2532 4.40663 7.26705 4.79452C7.27918 5.17895 7.61685 5.49758 8.00474 5.48719C8.39956 5.4768 8.70087 5.15644 8.69222 4.75642C8.68356 4.35641 8.37013 4.06029 7.96665 4.07068H7.96492ZM13.5114 4.77201C13.5097 4.38411 13.1842 4.06895 12.7876 4.07068C12.3859 4.07068 12.0828 4.37719 12.0846 4.78067C12.0863 5.17895 12.398 5.49065 12.7945 5.48719C13.1807 5.48372 13.5132 5.15297 13.5097 4.77201H13.5114Z" fill="black"/>
<path d="M3.65826 12.9437C3.65826 14.0053 3.66173 15.0668 3.65826 16.1283C3.65307 17.0651 3.04179 17.7439 2.21752 17.7387C1.39671 17.7335 0.781965 17.0478 0.780233 16.1144C0.775038 13.9914 0.775038 11.8667 0.780233 9.74363C0.781965 8.80853 1.40017 8.13318 2.23137 8.13664C3.06084 8.1401 3.65653 8.81026 3.66 9.75575C3.66346 10.8173 3.66 11.8788 3.66 12.9403L3.65826 12.9437Z" fill="black"/>
<path d="M20 12.9472C20 13.9949 20.0034 15.0408 20 16.0885C19.9965 17.0496 19.3783 17.7491 18.5454 17.7422C17.7194 17.7353 17.1219 17.0599 17.1202 16.1145C17.1167 13.9914 17.1167 11.8667 17.1202 9.74365C17.1219 8.80336 17.7332 8.1332 18.5644 8.14013C19.3939 8.14706 19.9948 8.82067 20 9.7627C20.0052 10.8242 20 11.8857 20 12.9472Z" fill="black"/>
</g>
<defs>
<clipPath id="clip0_9_20">
<rect width="19.225" height="23" fill="white" transform="translate(0.775024 0.5)"/>
</clipPath>
</defs>
</svg>
