<svg width="49" height="48" viewBox="0 0 49 48" fill="none" xmlns="http://www.w3.org/2000/svg">
<g clip-path="url(#clip0_17_5)">
<path d="M19.396 46.7594C18.6195 47.1533 17.8429 47.5435 16.9725 47.9862C15.9745 45.4913 13.8774 43.4392 14.6202 40.3028C12.7369 41.5033 11.0711 42.5688 9.35662 43.6643C8.85015 42.8614 8.38494 42.1261 7.85596 41.2895C8.81638 40.6705 9.71303 40.0027 10.6847 39.4812C13.5022 37.973 14.7252 35.6583 14.5189 32.4881C14.4251 31.0587 14.5001 29.6181 14.5114 28.185C14.5114 27.8173 14.5639 27.4534 14.6014 26.9657C14.8753 27.127 15.0554 27.2133 15.213 27.3296C16.3685 28.1925 17.6553 28.6727 19.1034 28.7477C19.6887 28.7777 20.2927 28.8452 20.8479 29.0178C22.1798 29.4268 22.645 30.0983 22.645 31.4939C22.6487 34.7691 22.645 38.0481 22.645 41.3233C22.645 41.6271 22.6187 41.931 22.6037 42.2912C20.6604 42.385 18.9871 41.8297 17.3702 40.768C16.9912 43.1616 18.837 44.6697 19.3923 46.7631L19.396 46.7594Z" fill="#2296F3"/>
<path d="M40.244 41.2857C39.715 42.1224 39.2498 42.8577 38.7433 43.6605C37.0438 42.5763 35.3931 41.5221 33.5511 40.3441C34.1776 43.3567 32.1892 45.4426 31.1462 47.9749C30.2871 47.5435 29.4955 47.1496 28.7077 46.7557C29.2141 44.7035 31.0937 43.1953 30.7336 40.7568C29.1354 41.8147 27.4434 42.3812 25.4512 42.2837V41.2182C25.4512 38.0668 25.4512 34.9154 25.4512 31.764C25.4512 29.8807 26.1716 29.0779 28.0661 28.8115C29.0491 28.6727 30.062 28.6089 30.9962 28.3125C31.8366 28.0462 32.5906 27.5097 33.476 27.0407C33.5135 27.4121 33.5848 27.7985 33.5886 28.1812C33.6036 29.9895 33.5848 31.8016 33.6036 33.6099C33.6298 35.8233 34.5152 37.5866 36.4023 38.8021C37.6554 39.6088 38.9084 40.4229 40.244 41.2857Z" fill="#2296F3"/>
<path d="M15.8732 23.8593C16.7624 22.5762 17.9179 21.6571 19.3735 21.1656C19.9925 20.9593 20.1914 20.6591 20.1426 20.0326C20.0863 19.2898 20.1051 18.5357 20.1389 17.7854C20.2139 15.9883 21.2569 14.9941 23.0539 14.9904C23.7104 14.9904 24.3632 14.9904 25.0198 14.9904C26.8656 14.9941 27.9048 15.9958 27.9648 17.8491C27.9911 18.6595 27.9235 19.4774 27.9986 20.2802C28.0248 20.5541 28.2987 20.8692 28.5463 21.0456C29.6193 21.8222 30.7373 22.5387 31.8103 23.3153C32.298 23.668 32.1892 24.0731 31.814 24.4971C31.0037 25.4125 29.9982 25.8664 28.7864 25.9602C26.4004 26.1441 25.9614 26.3166 24.0293 27.6522C22.5437 26.2791 20.6491 26.039 18.702 25.8627C17.4564 25.7501 16.5335 24.9998 15.8732 23.863V23.8593Z" fill="#2296F3"/>
<path d="M29.5255 5.50622C29.518 8.53756 27.0869 10.9761 24.0631 10.9874C21.0168 10.9986 18.5519 8.50755 18.5744 5.43869C18.6007 2.41861 21.058 -0.00120428 24.0856 0.0138023C27.1094 0.0288089 29.533 2.47864 29.5255 5.50622Z" fill="#FED32B"/>
<path d="M4.38568 30.7436H8.06981V27.9336C6.12645 27.9336 4.17184 27.9336 2.21723 27.9336C0.896645 27.9336 0.577755 27.7648 0.285126 26.4592C0.0712814 25.5063 0.0900397 24.5008 0 23.4466H12.8194C10.9473 27.2433 12.0466 31.2801 11.6414 35.1705C8.14859 35.7746 4.9897 33.8875 4.38568 30.7436Z" fill="#FED32B"/>
<path d="M40.0189 30.7248H43.6805C43.3767 33.6699 40.3078 35.5682 36.4736 35.2156C36.0384 31.3364 37.1639 27.2921 35.2881 23.4579H48.19C47.9874 24.6922 47.8411 25.904 47.5785 27.0895C47.4359 27.7273 46.952 27.9674 46.2392 27.9486C44.187 27.8961 42.1349 27.9299 40.0227 27.9299V30.7248H40.0189Z" fill="#FED32B"/>
<path d="M12.6468 5.84763H15.4456C15.4005 8.69888 15.8245 11.5126 14.2413 14.1538C13.2021 15.8871 13.5772 17.7066 14.804 19.3123C15.0104 19.5824 15.2392 19.8338 15.4681 20.1114C14.8303 20.7905 14.2225 21.4395 13.611 22.0885C10.9961 19.8863 10.0507 16.1872 11.5739 13.2009C12.4217 11.5389 12.7519 9.88816 12.6506 8.07986C12.6093 7.3708 12.6431 6.65423 12.6431 5.84763H12.6468Z" fill="#2296F3"/>
<path d="M32.6356 5.84763H35.4531C35.4531 7.13069 35.3669 8.37624 35.4832 9.60303C35.5694 10.5409 35.7495 11.5351 36.1735 12.3605C37.9667 15.8683 37.4528 19.2673 34.5265 22.1073C33.9187 21.4658 33.3072 20.8242 32.6319 20.1114C32.857 19.8413 33.1009 19.5712 33.3184 19.2861C34.4927 17.7404 34.8604 15.9883 33.9225 14.2926C32.8495 12.3455 32.5231 10.3309 32.6281 8.17365C32.6657 7.43082 32.6356 6.68424 32.6356 5.85138V5.84763Z" fill="#2296F3"/>
</g>
<defs>
<clipPath id="clip0_17_5">
<rect width="48.19" height="47.9724" fill="white" transform="translate(0 0.0137939)"/>
</clipPath>
</defs>
</svg>
