<svg width="162" height="48" viewBox="0 0 162 48" fill="none" xmlns="http://www.w3.org/2000/svg">
<g clip-path="url(#clip0_8_8)">
<path d="M19.396 46.7594C18.6195 47.1533 17.8429 47.5435 16.9725 47.9862C15.9745 45.4913 13.8774 43.4392 14.6202 40.3028C12.7369 41.5033 11.0711 42.5688 9.35662 43.6643C8.85015 42.8614 8.38494 42.1261 7.85596 41.2895C8.81638 40.6705 9.71303 40.0027 10.6847 39.4812C13.5022 37.973 14.7252 35.6583 14.5189 32.4881C14.4251 31.0587 14.5001 29.6181 14.5114 28.185C14.5114 27.8173 14.5639 27.4534 14.6014 26.9657C14.8753 27.127 15.0554 27.2133 15.213 27.3296C16.3685 28.1925 17.6553 28.6727 19.1034 28.7477C19.6887 28.7777 20.2927 28.8452 20.8479 29.0178C22.1798 29.4268 22.645 30.0983 22.645 31.4939C22.6487 34.7691 22.645 38.0481 22.645 41.3233C22.645 41.6271 22.6187 41.931 22.6037 42.2912C20.6604 42.385 18.9871 41.8297 17.3702 40.768C16.9912 43.1616 18.837 44.6697 19.3923 46.7631L19.396 46.7594Z" fill="#2296F3"/>
<path d="M40.244 41.2857C39.715 42.1224 39.2498 42.8577 38.7433 43.6605C37.0438 42.5763 35.3931 41.5221 33.5511 40.3441C34.1776 43.3567 32.1892 45.4426 31.1462 47.9749C30.2871 47.5435 29.4955 47.1496 28.7077 46.7557C29.2141 44.7035 31.0937 43.1953 30.7336 40.7568C29.1354 41.8147 27.4434 42.3812 25.4512 42.2837V41.2182C25.4512 38.0668 25.4512 34.9154 25.4512 31.764C25.4512 29.8807 26.1716 29.0779 28.0661 28.8115C29.0491 28.6727 30.062 28.6089 30.9962 28.3125C31.8366 28.0462 32.5906 27.5097 33.476 27.0407C33.5135 27.4121 33.5848 27.7985 33.5886 28.1812C33.6036 29.9895 33.5848 31.8016 33.6036 33.6099C33.6298 35.8233 34.5152 37.5866 36.4023 38.8021C37.6554 39.6088 38.9084 40.4229 40.244 41.2857Z" fill="#2296F3"/>
<path d="M15.8732 23.8593C16.7624 22.5762 17.9179 21.6571 19.3735 21.1656C19.9925 20.9593 20.1914 20.6591 20.1426 20.0326C20.0863 19.2898 20.1051 18.5357 20.1389 17.7854C20.2139 15.9883 21.2569 14.9941 23.0539 14.9904C23.7104 14.9904 24.3632 14.9904 25.0198 14.9904C26.8656 14.9941 27.9048 15.9958 27.9648 17.8491C27.9911 18.6595 27.9235 19.4774 27.9986 20.2802C28.0248 20.5541 28.2987 20.8692 28.5463 21.0456C29.6193 21.8222 30.7373 22.5387 31.8103 23.3153C32.298 23.668 32.1892 24.0731 31.814 24.4971C31.0037 25.4125 29.9982 25.8664 28.7864 25.9602C26.4004 26.1441 25.9614 26.3166 24.0293 27.6522C22.5437 26.2791 20.6491 26.039 18.702 25.8627C17.4564 25.7501 16.5335 24.9998 15.8732 23.863V23.8593Z" fill="#2296F3"/>
<path d="M29.5255 5.50622C29.518 8.53756 27.0869 10.9761 24.0631 10.9874C21.0168 10.9986 18.5519 8.50755 18.5744 5.43869C18.6007 2.41861 21.058 -0.00120428 24.0856 0.0138023C27.1094 0.0288089 29.533 2.47864 29.5255 5.50622Z" fill="#FED32B"/>
<path d="M4.38568 30.7436H8.06981V27.9336C6.12645 27.9336 4.17184 27.9336 2.21723 27.9336C0.896645 27.9336 0.577755 27.7648 0.285126 26.4592C0.0712814 25.5063 0.0900397 24.5008 0 23.4466H12.8194C10.9473 27.2433 12.0466 31.2801 11.6414 35.1705C8.14859 35.7746 4.9897 33.8875 4.38568 30.7436Z" fill="#FED32B"/>
<path d="M40.0189 30.7248H43.6805C43.3767 33.6699 40.3078 35.5682 36.4736 35.2156C36.0384 31.3364 37.1639 27.2921 35.2881 23.4579H48.19C47.9874 24.6922 47.8411 25.904 47.5785 27.0895C47.4359 27.7273 46.952 27.9674 46.2392 27.9486C44.187 27.8961 42.1349 27.9299 40.0227 27.9299V30.7248H40.0189Z" fill="#FED32B"/>
<path d="M12.6468 5.84763H15.4456C15.4005 8.69888 15.8245 11.5126 14.2413 14.1538C13.2021 15.8871 13.5772 17.7066 14.804 19.3123C15.0104 19.5824 15.2392 19.8338 15.4681 20.1114C14.8303 20.7905 14.2225 21.4395 13.611 22.0885C10.9961 19.8863 10.0507 16.1872 11.5739 13.2009C12.4217 11.5389 12.7519 9.88816 12.6506 8.07986C12.6093 7.3708 12.6431 6.65423 12.6431 5.84763H12.6468Z" fill="#2296F3"/>
<path d="M32.6356 5.84763H35.4531C35.4531 7.13069 35.3669 8.37624 35.4832 9.60303C35.5694 10.5409 35.7495 11.5351 36.1735 12.3605C37.9667 15.8683 37.4528 19.2673 34.5265 22.1073C33.9187 21.4658 33.3072 20.8242 32.6319 20.1114C32.857 19.8413 33.1009 19.5712 33.3184 19.2861C34.4927 17.7404 34.8604 15.9883 33.9225 14.2926C32.8495 12.3455 32.5231 10.3309 32.6281 8.17365C32.6657 7.43082 32.6356 6.68424 32.6356 5.85138V5.84763Z" fill="#2296F3"/>
</g>
<path d="M70.174 32.384C69.438 32.384 68.734 32.28 68.062 32.072C67.39 31.864 66.774 31.552 66.214 31.136C65.654 30.72 65.166 30.216 64.75 29.624C64.334 29.016 64.006 28.312 63.766 27.512L66.814 26.312C67.038 27.176 67.43 27.896 67.99 28.472C68.55 29.032 69.286 29.312 70.198 29.312C70.534 29.312 70.854 29.272 71.158 29.192C71.478 29.096 71.758 28.968 71.998 28.808C72.254 28.632 72.454 28.416 72.598 28.16C72.742 27.904 72.814 27.608 72.814 27.272C72.814 26.952 72.758 26.664 72.646 26.408C72.534 26.152 72.342 25.912 72.07 25.688C71.814 25.464 71.47 25.248 71.038 25.04C70.622 24.832 70.102 24.616 69.478 24.392L68.422 24.008C67.958 23.848 67.486 23.632 67.006 23.36C66.542 23.088 66.118 22.76 65.734 22.376C65.35 21.992 65.03 21.544 64.774 21.032C64.534 20.504 64.414 19.912 64.414 19.256C64.414 18.584 64.542 17.96 64.798 17.384C65.07 16.792 65.446 16.28 65.926 15.848C66.422 15.4 67.006 15.056 67.678 14.816C68.366 14.56 69.126 14.432 69.958 14.432C70.822 14.432 71.566 14.552 72.19 14.792C72.83 15.016 73.366 15.312 73.798 15.68C74.246 16.032 74.606 16.424 74.878 16.856C75.15 17.288 75.35 17.696 75.478 18.08L72.622 19.28C72.462 18.8 72.166 18.368 71.734 17.984C71.318 17.6 70.742 17.408 70.006 17.408C69.302 17.408 68.718 17.576 68.254 17.912C67.79 18.232 67.558 18.656 67.558 19.184C67.558 19.696 67.782 20.136 68.23 20.504C68.678 20.856 69.39 21.2 70.366 21.536L71.446 21.896C72.134 22.136 72.758 22.416 73.318 22.736C73.894 23.04 74.382 23.408 74.782 23.84C75.198 24.272 75.51 24.768 75.718 25.328C75.942 25.872 76.054 26.504 76.054 27.224C76.054 28.12 75.87 28.896 75.502 29.552C75.15 30.192 74.694 30.72 74.134 31.136C73.574 31.552 72.942 31.864 72.238 32.072C71.534 32.28 70.846 32.384 70.174 32.384ZM89.4747 29.168C88.9307 30.128 88.1947 30.904 87.2667 31.496C86.3547 32.088 85.2347 32.384 83.9067 32.384C83.0107 32.384 82.1787 32.232 81.4107 31.928C80.6587 31.608 80.0027 31.168 79.4427 30.608C78.8827 30.048 78.4427 29.392 78.1227 28.64C77.8187 27.872 77.6667 27.032 77.6667 26.12C77.6667 25.272 77.8187 24.472 78.1227 23.72C78.4267 22.952 78.8507 22.288 79.3947 21.728C79.9387 21.152 80.5787 20.696 81.3147 20.36C82.0667 20.024 82.8907 19.856 83.7867 19.856C84.7307 19.856 85.5707 20.016 86.3067 20.336C87.0427 20.64 87.6587 21.072 88.1547 21.632C88.6507 22.176 89.0267 22.824 89.2827 23.576C89.5387 24.328 89.6667 25.144 89.6667 26.024C89.6667 26.136 89.6667 26.232 89.6667 26.312C89.6507 26.408 89.6427 26.496 89.6427 26.576C89.6267 26.656 89.6187 26.744 89.6187 26.84H80.7627C80.8267 27.32 80.9547 27.736 81.1467 28.088C81.3547 28.424 81.6027 28.712 81.8907 28.952C82.1947 29.176 82.5227 29.344 82.8747 29.456C83.2267 29.552 83.5867 29.6 83.9547 29.6C84.6747 29.6 85.2667 29.44 85.7307 29.12C86.2107 28.784 86.5867 28.368 86.8587 27.872L89.4747 29.168ZM86.6187 24.608C86.6027 24.4 86.5307 24.168 86.4027 23.912C86.2907 23.656 86.1147 23.416 85.8747 23.192C85.6507 22.968 85.3627 22.784 85.0107 22.64C84.6747 22.496 84.2667 22.424 83.7867 22.424C83.1147 22.424 82.5227 22.616 82.0107 23C81.4987 23.384 81.1387 23.92 80.9307 24.608H86.6187ZM91.6746 14.816H94.8186V24.176H94.9626L98.8986 20.24H102.787V20.432L98.4186 24.68L103.147 31.808V32H99.4266L96.2106 26.84L94.8186 28.208V32H91.6746V14.816ZM104.401 14.816H107.545V19.64L107.353 21.776H107.545C107.881 21.216 108.361 20.76 108.985 20.408C109.625 20.04 110.337 19.856 111.121 19.856C112.641 19.856 113.761 20.304 114.481 21.2C115.217 22.096 115.585 23.32 115.585 24.872V32H112.441V25.256C112.441 24.44 112.249 23.824 111.865 23.408C111.481 22.976 110.945 22.76 110.257 22.76C109.825 22.76 109.441 22.856 109.105 23.048C108.769 23.224 108.481 23.472 108.241 23.792C108.017 24.112 107.841 24.488 107.713 24.92C107.601 25.336 107.545 25.784 107.545 26.264V32H104.401V14.816ZM118.182 20.24H121.134V21.776H121.326C121.694 21.2 122.19 20.736 122.814 20.384C123.454 20.032 124.158 19.856 124.926 19.856C125.822 19.856 126.574 20.064 127.182 20.48C127.79 20.896 128.222 21.408 128.478 22.016C128.846 21.424 129.366 20.92 130.038 20.504C130.71 20.072 131.526 19.856 132.486 19.856C133.206 19.856 133.83 19.976 134.358 20.216C134.886 20.44 135.318 20.76 135.654 21.176C136.006 21.592 136.27 22.096 136.446 22.688C136.622 23.264 136.71 23.896 136.71 24.584V32H133.566V25.16C133.566 23.56 132.91 22.76 131.598 22.76C131.182 22.76 130.814 22.856 130.494 23.048C130.174 23.224 129.902 23.472 129.678 23.792C129.47 24.096 129.302 24.464 129.174 24.896C129.062 25.328 129.006 25.792 129.006 26.288V32H125.862V25.16C125.862 23.56 125.174 22.76 123.798 22.76C123.398 22.76 123.046 22.856 122.742 23.048C122.438 23.224 122.182 23.472 121.974 23.792C121.766 24.096 121.606 24.464 121.494 24.896C121.382 25.328 121.326 25.792 121.326 26.288V32H118.182V20.24ZM150.436 29.168C149.892 30.128 149.156 30.904 148.228 31.496C147.316 32.088 146.196 32.384 144.868 32.384C143.972 32.384 143.14 32.232 142.372 31.928C141.62 31.608 140.964 31.168 140.404 30.608C139.844 30.048 139.404 29.392 139.084 28.64C138.78 27.872 138.628 27.032 138.628 26.12C138.628 25.272 138.78 24.472 139.084 23.72C139.388 22.952 139.812 22.288 140.356 21.728C140.9 21.152 141.54 20.696 142.276 20.36C143.028 20.024 143.852 19.856 144.748 19.856C145.692 19.856 146.532 20.016 147.268 20.336C148.004 20.64 148.62 21.072 149.116 21.632C149.612 22.176 149.988 22.824 150.244 23.576C150.5 24.328 150.628 25.144 150.628 26.024C150.628 26.136 150.628 26.232 150.628 26.312C150.612 26.408 150.604 26.496 150.604 26.576C150.588 26.656 150.58 26.744 150.58 26.84H141.724C141.788 27.32 141.916 27.736 142.108 28.088C142.316 28.424 142.564 28.712 142.852 28.952C143.156 29.176 143.484 29.344 143.836 29.456C144.188 29.552 144.548 29.6 144.916 29.6C145.636 29.6 146.228 29.44 146.692 29.12C147.172 28.784 147.548 28.368 147.82 27.872L150.436 29.168ZM147.58 24.608C147.564 24.4 147.492 24.168 147.364 23.912C147.252 23.656 147.076 23.416 146.836 23.192C146.612 22.968 146.324 22.784 145.972 22.64C145.636 22.496 145.228 22.424 144.748 22.424C144.076 22.424 143.484 22.616 142.972 23C142.46 23.384 142.1 23.92 141.892 24.608H147.58ZM153.58 22.928H151.516V20.24H153.58V16.64H156.724V20.24H159.604V22.928H156.724V27.488C156.724 27.76 156.748 28.016 156.796 28.256C156.86 28.48 156.972 28.672 157.132 28.832C157.356 29.088 157.676 29.216 158.092 29.216C158.364 29.216 158.58 29.192 158.74 29.144C158.9 29.08 159.052 29 159.196 28.904L160.084 31.664C159.716 31.84 159.316 31.968 158.884 32.048C158.468 32.144 158.004 32.192 157.492 32.192C156.9 32.192 156.364 32.104 155.884 31.928C155.42 31.736 155.028 31.48 154.708 31.16C153.956 30.44 153.58 29.416 153.58 28.088V22.928Z" fill="black"/>
<defs>
<clipPath id="clip0_8_8">
<rect width="48.19" height="47.9724" fill="white" transform="translate(0 0.0137939)"/>
</clipPath>
</defs>
</svg>
