<?xml version="1.0" encoding="UTF-8"?>
<svg id="Layer_2" data-name="Layer 2" xmlns="http://www.w3.org/2000/svg" viewBox="0 0 76.44 76.44">
  <defs>
    <style>
      .cls-1 {
        stroke-width: 0px;
      }
    </style>
  </defs>
  <g id="Layer_1-2" data-name="Layer 1">
    <path class="cls-1" d="m38.18,76.44C17.08,76.42-.03,59.26,0,38.15.03,17.05,17.21-.05,38.32,0c21.02.05,38.12,17.2,38.12,38.22,0,21.11-17.15,38.23-38.25,38.22Zm-10.89-38.27c0,3.43-.02,6.87,0,10.3.03,2.98,1.89,4.14,4.55,2.82,6.85-3.41,13.68-6.85,20.53-10.26,1.18-.59,2.17-1.32,2.2-2.75.03-1.51-.98-2.26-2.22-2.87-6.81-3.38-13.6-6.8-20.4-10.19-2.82-1.41-4.65-.25-4.66,2.94-.02,3.33,0,6.67,0,10Z"/>
  </g>
</svg>