<?xml version="1.0" encoding="UTF-8"?>
<svg xmlns="http://www.w3.org/2000/svg" version="1.1" viewBox="0 0 39.8 44.6">
  <defs>
    <style>
      .cls-1 {
        fill: #e8e8e8;
      }
    </style>
  </defs>
  <!-- Generator: Adobe Illustrator 28.6.0, SVG Export Plug-In . SVG Version: 1.2.0 Build 709)  -->
  <g>
    <g id="Layer_2">
      <g id="Layer_1-2">
        <g>
          <path class="cls-1" d="M27.9,17.6c-.8-1.5-1.9-2.7-3.4-3.6-1.4-.8-3.1-1.3-5.1-1.3v4.8c.8,0,1.4.3,2,.6.7.4,1.2,1,1.5,1.8.4.8.5,1.7.5,2.7s0,.3,0,.5h5.5c0-.2,0-.3,0-.5,0-1.8-.4-3.5-1.1-5h0Z"/>
          <rect class="cls-1" x="10.8" y="12.1" width="7.1" height="7.1"/>
          <rect class="cls-1" x="21.7" y="25.4" width="7.1" height="7.1"/>
          <path class="cls-1" d="M19,27.8h-2.2v-7h-5.4v11.8h7.6c.3,0,.6,0,.9,0v-4.8c-.3,0-.6,0-.9,0h0Z"/>
        </g>
      </g>
    </g>
  </g>
</svg>