<?xml version="1.0" encoding="UTF-8"?>
<svg id="Layer_2" data-name="Layer 2" xmlns="http://www.w3.org/2000/svg" viewBox="0 0 100.76 118.14">
  <defs>
    <style>
      .cls-1 {
        stroke-width: 0px;
      }
    </style>
  </defs>
  <g id="Layer_1-2" data-name="Layer 1">
    <g>
      <path class="cls-1" d="m82.42,37.3v3.02c0,15,0,30.01,0,45.01,0,7.13-2.27,9.43-9.31,9.46-.86,0-1.71,0-2.85,0,0,5.17.03,10.11-.02,15.05-.01,1.2-.08,2.46-.43,3.6-.99,3.14-4.18,5.09-7.32,4.64-3.26-.46-5.81-3.03-5.89-6.35-.12-5.49-.03-10.98-.03-16.71h-12.32c0,5.07.02,10.1,0,15.13-.02,4.85-2.62,7.9-6.74,7.97-4.17.07-6.98-3.14-7-8.02-.01-4.97,0-9.93,0-15.36-1.88,0-3.68.1-5.46-.02-3.77-.25-6.62-3.01-6.64-6.78-.07-16.66-.02-33.32,0-49.98,0-.16.1-.33.22-.67h63.81Z"/>
      <path class="cls-1" d="m18.28,32.43c.62-11.19,7.02-17.96,16.24-22.87-1.67-2.53-3.32-4.88-4.8-7.33-.34-.57-.13-1.48-.17-2.24.69.34,1.62.5,2.02,1.05,1.79,2.45,3.42,5.01,5.18,7.63,9.12-3.3,18.16-3.29,27.26,0,1.77-2.64,3.41-5.2,5.2-7.65.39-.54,1.34-.68,2.03-1-.06.76.14,1.67-.22,2.25-1.48,2.45-3.12,4.79-4.77,7.27,9.2,4.99,15.66,11.72,16.2,22.89H18.28Zm18.4-9.06c1.94-.03,3.42-1.61,3.28-3.59-.15-2.06-1.36-3.18-3.39-3.16-2.06.02-3.17,1.31-3.34,3.28-.16,1.83,1.6,3.5,3.45,3.47Zm30.88-3.55c-.27-1.75-1.19-3.07-3.27-3.21-1.96-.14-3.54,1.36-3.51,3.33.03,2.07,1.19,3.21,3.18,3.41,1.84.18,3.57-1.51,3.59-3.53Z"/>
      <path class="cls-1" d="m.01,58.71c0-4.71-.03-9.41.01-14.12.04-4.38,2.79-7.39,6.72-7.46,3.98-.07,6.97,3.08,6.98,7.5.03,9.41.03,18.83,0,28.24-.02,4.29-2.87,7.38-6.77,7.46-4,.08-6.9-3.01-6.94-7.5-.04-4.71,0-9.41,0-14.12Z"/>
      <path class="cls-1" d="m100.74,58.79c0,4.71.04,9.41-.01,14.12-.04,4.37-2.82,7.37-6.76,7.42-3.96.05-6.93-3.13-6.94-7.55-.03-9.41-.03-18.83,0-28.24.02-4.27,2.92-7.37,6.81-7.42,3.92-.05,6.84,2.97,6.89,7.28.06,4.79.01,9.59.01,14.38Z"/>
    </g>
  </g>
</svg>