<?xml version="1.0" encoding="UTF-8"?>
<svg id="Layer_2" xmlns="http://www.w3.org/2000/svg" viewBox="0 0 47.95 54.95">
  <defs>
    <style>
      .cls-1 {
        fill: #231f20;
      }
    </style>
  </defs>
  <g id="Layer_1-2" data-name="Layer_1">
    <path class="cls-1" d="M35.65,0c-3.19.16-6.04,1.52-8.55,4.08-2.16,2.35-3.24,4.76-3.24,7.24,0,.47.03.92.09,1.36h.38c1.5,0,3.01-.36,4.53-1.08s2.8-1.67,3.83-2.87c2.03-2.34,3.05-4.88,3.05-7.6l-.09-1.13ZM44.1,37.85c-2.66-2.31-3.99-5.19-3.99-8.64s1.52-6.64,4.56-9.3c.97-.78,1.56-1.17,1.78-1.17-.81-1.19-1.76-2.14-2.84-2.84-1.08-.71-2.13-1.25-3.15-1.65-1.01-.39-1.95-.65-2.81-.77-.87-.13-1.49-.2-1.88-.21-.4-.02-.76-.03-1.11-.03-1.63,0-3.44.38-5.45,1.13-2.5.91-4.11,1.36-4.83,1.36-.6,0-1.65-.26-3.15-.8-2.79-1-4.96-1.5-6.53-1.5-2.53.03-4.88.65-7.02,1.86-2.15,1.2-3.87,2.87-5.19,5-1.66,2.69-2.49,5.84-2.49,9.44,0,3.1.63,6.4,1.88,9.91,1.03,3,2.49,5.79,4.37,8.36,1.53,2.13,2.91,3.73,4.13,4.79,1.63,1.44,3.19,2.16,4.7,2.16h.42c.94-.03,1.75-.17,2.42-.42s1.37-.51,2.09-.78c.72-.26,1.48-.51,2.28-.73.8-.21,1.77-.32,2.93-.32,1.63,0,3.31.36,5.03,1.1,1.72.74,3.27,1.1,4.65,1.1,1.72,0,3.43-.72,5.12-2.16,1.22-1.03,2.55-2.55,3.99-4.55,1.31-1.82,2.33-3.6,3.05-5.36.6-1.47.89-2.33.89-2.58-1.5-.59-2.78-1.39-3.85-2.4ZM44.1,37.85c-2.66-2.31-3.99-5.19-3.99-8.64s1.52-6.64,4.56-9.3c.97-.78,1.56-1.17,1.78-1.17-.81-1.19-1.76-2.14-2.84-2.84-1.08-.71-2.13-1.25-3.15-1.65-1.01-.39-1.95-.65-2.81-.77-.87-.13-1.49-.2-1.88-.21-.4-.02-.76-.03-1.11-.03-1.63,0-3.44.38-5.45,1.13-2.5.91-4.11,1.36-4.83,1.36-.6,0-1.65-.26-3.15-.8-2.79-1-4.96-1.5-6.53-1.5-2.53.03-4.88.65-7.02,1.86-2.15,1.2-3.87,2.87-5.19,5-1.66,2.69-2.49,5.84-2.49,9.44,0,3.1.63,6.4,1.88,9.91,1.03,3,2.49,5.79,4.37,8.36,1.53,2.13,2.91,3.73,4.13,4.79,1.63,1.44,3.19,2.16,4.7,2.16h.42c.94-.03,1.75-.17,2.42-.42s1.37-.51,2.09-.78c.72-.26,1.48-.51,2.28-.73.8-.21,1.77-.32,2.93-.32,1.63,0,3.31.36,5.03,1.1,1.72.74,3.27,1.1,4.65,1.1,1.72,0,3.43-.72,5.12-2.16,1.22-1.03,2.55-2.55,3.99-4.55,1.31-1.82,2.33-3.6,3.05-5.36.6-1.47.89-2.33.89-2.58-1.5-.59-2.78-1.39-3.85-2.4ZM24.33,12.68c1.5,0,3.01-.36,4.53-1.08s2.8-1.67,3.83-2.87c2.03-2.34,3.05-4.88,3.05-7.6l-.09-1.13c-3.19.16-6.04,1.52-8.55,4.08-2.16,2.35-3.24,4.76-3.24,7.24,0,.47.03.92.09,1.36h.38ZM44.1,37.85c-2.66-2.31-3.99-5.19-3.99-8.64s1.52-6.64,4.56-9.3c.97-.78,1.56-1.17,1.78-1.17-.81-1.19-1.76-2.14-2.84-2.84-1.08-.71-2.13-1.25-3.15-1.65-1.01-.39-1.95-.65-2.81-.77-.87-.13-1.49-.2-1.88-.21-.4-.02-.76-.03-1.11-.03-1.63,0-3.44.38-5.45,1.13-2.5.91-4.11,1.36-4.83,1.36-.6,0-1.65-.26-3.15-.8-2.79-1-4.96-1.5-6.53-1.5-2.53.03-4.88.65-7.02,1.86-2.15,1.2-3.87,2.87-5.19,5-1.66,2.69-2.49,5.84-2.49,9.44,0,3.1.63,6.4,1.88,9.91,1.03,3,2.49,5.79,4.37,8.36,1.53,2.13,2.91,3.73,4.13,4.79,1.63,1.44,3.19,2.16,4.7,2.16h.42c.94-.03,1.75-.17,2.42-.42s1.37-.51,2.09-.78c.72-.26,1.48-.51,2.28-.73.8-.21,1.77-.32,2.93-.32,1.63,0,3.31.36,5.03,1.1,1.72.74,3.27,1.1,4.65,1.1,1.72,0,3.43-.72,5.12-2.16,1.22-1.03,2.55-2.55,3.99-4.55,1.31-1.82,2.33-3.6,3.05-5.36.6-1.47.89-2.33.89-2.58-1.5-.59-2.78-1.39-3.85-2.4ZM24.33,12.68c1.5,0,3.01-.36,4.53-1.08s2.8-1.67,3.83-2.87c2.03-2.34,3.05-4.88,3.05-7.6l-.09-1.13c-3.19.16-6.04,1.52-8.55,4.08-2.16,2.35-3.24,4.76-3.24,7.24,0,.47.03.92.09,1.36h.38Z"/>
  </g>
</svg>