<svg width="24" height="21" viewBox="0 0 24 21" fill="none" xmlns="http://www.w3.org/2000/svg">
<g clip-path="url(#clip0_9_32)">
<path d="M5.13068 8.60202C5.84595 8.20602 6.49192 7.84715 7.13789 7.48828C7.46954 7.30513 7.79376 7.10961 8.13036 6.93883C8.61546 6.69381 9.14015 6.85468 9.39508 7.31008C9.6302 7.73083 9.4718 8.2778 9.00898 8.54015C7.65022 9.30987 6.25433 10.0152 4.93021 10.8419C4.00704 11.4186 3.4279 11.3864 2.84875 10.2504C2.16318 8.90397 1.37861 7.60708 0.663344 6.27554C0.534645 6.03794 0.470295 5.71372 0.509895 5.45137C0.569294 5.06032 0.871242 4.81035 1.27466 4.77323C1.65334 4.73858 1.97013 4.89697 2.16318 5.23605C2.527 5.87212 2.87845 6.51314 3.23732 7.15168C3.30167 7.26553 3.3685 7.37691 3.46502 7.54273C3.60362 7.15911 3.70757 6.82499 3.84617 6.50819C5.44748 2.85017 8.20709 0.694457 12.172 0.194511C17.1913 -0.436609 22.0497 2.84769 23.2376 8.03525C24.4355 13.2723 21.4235 18.4326 16.3646 20.0191C12.2512 21.3086 7.86306 19.9176 5.26928 16.5715C4.87329 16.0616 4.89309 15.527 5.31878 15.183C5.74696 14.8365 6.28155 14.9281 6.68745 15.433C8.22194 17.3362 10.2019 18.4846 12.6348 18.6306C16.0924 18.841 18.8074 17.4328 20.5548 14.4257C23.3639 9.59696 20.6364 3.43179 15.1865 2.16707C10.7984 1.14985 6.3756 3.79808 5.22473 8.13425C5.19256 8.26047 5.17276 8.38917 5.13068 8.59955V8.60202Z" fill="white"/>
<path d="M12.3899 7.61449C12.3899 6.76063 12.3849 5.90676 12.3899 5.05289C12.3948 4.44899 12.7636 4.053 13.3131 4.04805C13.818 4.04557 14.214 4.46137 14.2164 5.04546C14.2263 6.55768 14.2263 8.07237 14.2164 9.58458C14.2164 9.83703 14.2907 10.0128 14.4714 10.1909C15.6519 11.3567 16.8275 12.5273 17.9908 13.7128C18.1591 13.8861 18.3026 14.1286 18.3521 14.3613C18.4387 14.7548 18.2086 15.1261 17.8646 15.2968C17.5181 15.4676 17.0998 15.3983 16.7904 15.0939C15.8969 14.2103 15.0109 13.3193 14.1224 12.4308C13.6645 11.9729 13.2091 11.5151 12.7488 11.0621C12.5087 10.827 12.3849 10.5548 12.3899 10.2157C12.3973 9.34946 12.3899 8.48321 12.3899 7.61697V7.61449Z" fill="white"/>
</g>
<defs>
<clipPath id="clip0_9_32">
<rect width="23" height="20.379" fill="white" transform="translate(0.5 0.117798)"/>
</clipPath>
</defs>
</svg>
