<svg width="62" height="61" viewBox="0 0 62 61" fill="none" xmlns="http://www.w3.org/2000/svg">
<path d="M13.7349 35.4749C13.9216 36.8713 14.1742 38.2697 14.5881 39.6164C15.0019 40.9632 15.5477 42.2693 16.2963 43.4276C16.6616 43.9979 17.0811 44.5317 17.5491 45.0216C18.0222 45.4985 18.5349 45.9344 19.0818 46.3247C19.647 46.7095 20.2385 47.0542 20.852 47.3563C21.481 47.6546 22.1265 47.9168 22.7854 48.1416C25.4411 49.0465 28.3119 49.4154 31.0507 49.687C32.3096 49.8055 33.5441 49.8795 34.7513 49.918C35.8671 49.8552 37.0093 49.763 38.183 49.6302C40.6804 49.3384 43.3057 48.9553 45.8041 48.0646C47.0538 47.6356 48.2391 47.0383 49.3272 46.2893C49.8608 45.9059 50.361 45.4781 50.8224 45.0104C51.2876 44.5241 51.7048 43.994 52.0681 43.4276C52.8177 42.2693 53.3766 40.95 53.7925 39.5708C54.1988 38.171 54.4866 36.7395 54.6527 35.2915C55.0169 32.3832 55.022 29.4486 54.9814 26.6001C54.9686 25.7793 54.9544 24.9663 54.9388 24.161C51.7637 15.8091 43.6739 9.86484 34.1944 9.86484C24.6651 9.86484 16.5438 15.8668 13.3992 24.2927C13.386 25.2655 13.3698 26.2535 13.3616 27.2557C13.3383 29.9168 13.3647 32.6852 13.7349 35.4749ZM34.1944 14.5576C36.3158 14.5576 38.3896 15.186 40.1535 16.3634C41.9175 17.5408 43.2923 19.2143 44.1041 21.1722C44.916 23.1301 45.1284 25.2845 44.7145 27.363C44.3006 29.4415 43.2791 31.3508 41.779 32.8493C40.2789 34.3478 38.3676 35.3683 36.2869 35.7818C34.2063 36.1952 32.0496 35.983 30.0896 35.172C28.1296 34.361 26.4544 32.9877 25.2758 31.2256C24.0972 29.4635 23.4681 27.3919 23.4681 25.2726C23.468 23.8655 23.7453 22.4721 24.2843 21.172C24.8233 19.8719 25.6134 18.6907 26.6095 17.6957C27.6055 16.7007 28.788 15.9114 30.0894 15.373C31.3909 14.8345 32.7857 14.5575 34.1944 14.5576Z" fill="#ED5337"/>
<path d="M12.6323 44.0082C12.26 44.597 11.1493 46.2518 9.62462 47.6046C9.40348 47.8011 9.29697 47.7799 9.24117 47.7707C8.81817 47.6937 8.24402 47.0766 7.82101 46.4615C8.05027 45.9711 9.66621 42.3413 8.34343 39.7421C6.92327 36.9483 3.43881 36.7649 1.92634 37.0405C1.49304 37.1159 1.08713 37.3036 0.74911 37.5847C0.411092 37.8658 0.152795 38.2306 0 38.6426H2.29153C2.29153 38.6426 2.38384 39.8333 2.20023 43.1753C2.03488 46.1869 4.7697 46.8567 5.31444 46.9601L5.24038 46.9976C5.48587 47.4708 6.80966 49.8481 8.79078 50.2139C8.96017 50.2445 9.13193 50.2601 9.30407 50.2605C9.87416 50.2605 10.5771 50.0852 11.2801 49.461C12.3282 48.5114 13.2697 47.4506 14.088 46.2974C13.8405 45.9785 13.6068 45.6495 13.387 45.3104C13.1098 44.8848 12.8582 44.4507 12.6323 44.0082Z" fill="#FBC300"/>
<path d="M55.2329 44.9841H55.1892C55.1223 45.0935 55.0543 45.2019 54.9864 45.3104C54.7003 45.7516 54.3898 46.1765 54.0562 46.5831C54.3259 46.8905 54.6109 47.184 54.9103 47.4627C55.86 48.3628 56.9425 49.112 58.1198 49.6839C58.9112 50.0736 59.7429 50.3757 60.6 50.5848C60.9115 50.6669 61.1651 50.7185 61.3568 50.753C61.4795 50.773 61.6009 50.8011 61.7199 50.8371C61.9025 50.9091 61.7057 50.7479 61.229 50.4318C60.522 49.9549 59.842 49.4394 59.1921 48.8874C58.2346 48.0658 57.3606 47.1517 56.583 46.1585C56.1774 45.6383 55.7995 45.0971 55.451 44.5372C55.381 44.6618 55.3079 44.7855 55.2339 44.9081L55.2329 44.9841Z" fill="#FDC806"/>
<path d="M58.0845 7.75708C58.4196 6.39729 58.8875 5.07362 59.4813 3.80506C60.5241 1.65577 61.5517 0.513743 61.8327 0.203662C62.0904 -0.0719661 62.0457 -0.0638594 61.7313 0.203662C61.574 0.335396 61.3509 0.531983 61.0668 0.792411C60.8051 1.07412 60.4582 1.40751 60.1052 1.83412C59.1843 2.93466 58.4009 4.14298 57.7721 5.43248C56.8957 7.22849 56.242 9.12461 55.8254 11.0788C55.3274 13.2625 55.0372 15.7239 54.949 18.3536C54.881 20.2211 54.9044 22.1667 54.9388 24.161C54.953 24.9669 54.9672 25.78 54.9814 26.6001C55.022 29.4486 55.0169 32.3832 54.6528 35.2915C54.4866 36.7395 54.1989 38.171 53.7926 39.5708C53.3797 40.95 52.8208 42.2693 52.0681 43.4276C51.7048 43.994 51.2876 44.5241 50.8224 45.0104C50.361 45.478 49.8608 45.9058 49.3272 46.2892C48.2391 47.0383 47.0539 47.6356 45.8042 48.0646C43.3057 48.9553 40.6804 49.3384 38.183 49.6302C37.0093 49.763 35.8661 49.8552 34.7513 49.918C33.5441 49.8795 32.3096 49.8055 31.0508 49.687C28.3119 49.4154 25.4411 49.0465 22.7854 48.1416C22.1265 47.9168 21.481 47.6546 20.852 47.3563C20.2386 47.0541 19.6471 46.7094 19.0819 46.3247C18.535 45.9344 18.0222 45.4985 17.5491 45.0216C17.0797 44.5319 16.6588 43.9981 16.2923 43.4276C15.5436 42.2693 14.9918 40.9642 14.584 39.6164C14.1762 38.2687 13.9176 36.8713 13.7309 35.4749C13.3607 32.6852 13.3343 29.9167 13.3566 27.2557C13.3647 26.2535 13.3809 25.2655 13.3941 24.2927C13.4164 22.6856 13.4327 21.123 13.3941 19.6172C13.371 17.3567 13.1757 15.1012 12.8098 12.8704C12.494 11.0117 11.9987 9.18797 11.3308 7.42471C10.8096 6.06401 10.1491 4.7607 9.35987 3.53552C7.9955 1.48857 6.81778 0.516783 6.5368 0.203662C6.27711 -0.0709528 6.28928 -0.0223126 6.52969 0.304995C6.65142 0.469156 6.83401 0.703237 7.06428 1.00116C7.26716 1.32036 7.54815 1.69124 7.83015 2.15231C8.54708 3.32115 9.13547 4.56396 9.58506 5.8591C10.2055 7.64549 10.6243 9.49547 10.8338 11.3747C11.0965 13.4784 11.1584 15.8263 11.0478 18.3424C10.9373 20.8585 10.6715 23.5844 10.4625 26.4714C10.2536 29.3584 10.1146 32.44 10.4138 35.6502C10.5543 37.2974 10.8442 38.9285 11.2801 40.5234C11.6132 41.7269 12.0662 42.894 12.6323 44.0072C12.8595 44.449 13.1101 44.8831 13.384 45.3093C13.6031 45.6471 13.8367 45.9761 14.0849 46.2963C14.3888 46.6877 14.7143 47.0619 15.0598 47.4171C15.2982 47.6542 15.5447 47.8792 15.7942 48.097C16.2028 48.4567 16.6319 48.7923 17.0794 49.1023C17.4514 49.3522 17.8284 49.5836 18.2105 49.7964C19.2575 50.3783 20.3616 50.8513 21.5053 51.208C23.2056 51.7357 24.9531 52.0978 26.7233 52.2892H41.7659L41.9444 52.2669C43.5211 52.078 45.0788 51.7549 46.6005 51.3012C47.4007 51.0557 48.185 50.7609 48.9488 50.4186C49.6197 50.109 50.2696 49.7559 50.8944 49.3617C51.004 49.2928 51.1156 49.2249 51.2241 49.1529C51.8083 48.7505 52.3632 48.3073 52.8847 47.8265C53.0226 47.6988 53.1606 47.5701 53.2904 47.4353C53.5572 47.1638 53.8108 46.879 54.0523 46.5862C54.3859 46.1796 54.6964 45.7547 54.9825 45.3134C55.0514 45.205 55.1194 45.0965 55.1853 44.9871C55.1995 44.9628 55.2148 44.9385 55.229 44.9131C55.303 44.7905 55.376 44.6669 55.446 44.5422C56.1411 43.2906 56.6858 41.9613 57.0691 40.5821C57.497 39.0357 57.7846 37.4539 57.9283 35.8559C58.2326 32.7693 58.1139 29.8539 57.9283 27.1412C57.7426 24.4285 57.4789 21.9114 57.3318 19.5665C57.1714 17.4083 57.1531 15.2418 57.277 13.0812C57.388 11.2861 57.6582 9.50442 58.0845 7.75708Z" fill="#262F40"/>
<path d="M34.1943 35.9876C40.1182 35.9876 44.9205 31.1904 44.9205 25.2726C44.9205 19.3549 40.1182 14.5576 34.1943 14.5576C28.2703 14.5576 23.468 19.3549 23.468 25.2726C23.468 31.1904 28.2703 35.9876 34.1943 35.9876Z" fill="#F95F43"/>
<path d="M30.6156 52.2862H26.7234H21.7498V54.9442H46.847V52.2862H41.7659H37.7732H30.6156Z" fill="#FAC402"/>
<path d="M21.7498 55.0678H23.4012C25.0496 55.0678 25.7343 57.062 25.7343 57.062V60.2875H42.7894C42.7894 60.2875 42.8574 59.1911 42.7894 57.1968C42.7214 55.2026 44.9886 55.0688 44.9886 55.0688H46.847V54.9442H21.7498V55.0678Z" fill="#E6A429"/>
</svg>
