<svg width="148" height="61" viewBox="0 0 148 61" fill="none" xmlns="http://www.w3.org/2000/svg">
<path d="M13.7349 35.4749C13.9216 36.8713 14.1742 38.2697 14.5881 39.6164C15.0019 40.9632 15.5477 42.2693 16.2963 43.4276C16.6616 43.9979 17.0811 44.5317 17.5491 45.0216C18.0222 45.4985 18.5349 45.9344 19.0818 46.3247C19.647 46.7095 20.2385 47.0542 20.852 47.3563C21.481 47.6546 22.1265 47.9168 22.7854 48.1416C25.4411 49.0465 28.3119 49.4154 31.0507 49.687C32.3096 49.8055 33.5441 49.8795 34.7513 49.918C35.8671 49.8552 37.0093 49.763 38.183 49.6302C40.6804 49.3384 43.3057 48.9553 45.8041 48.0646C47.0538 47.6356 48.2391 47.0383 49.3272 46.2893C49.8608 45.9059 50.361 45.4781 50.8224 45.0104C51.2876 44.5241 51.7048 43.994 52.0681 43.4276C52.8177 42.2693 53.3766 40.95 53.7925 39.5708C54.1988 38.171 54.4866 36.7395 54.6527 35.2915C55.0169 32.3832 55.022 29.4486 54.9814 26.6001C54.9686 25.7793 54.9544 24.9663 54.9388 24.161C51.7637 15.8091 43.6739 9.86484 34.1944 9.86484C24.6651 9.86484 16.5438 15.8668 13.3992 24.2927C13.386 25.2655 13.3698 26.2535 13.3616 27.2557C13.3383 29.9168 13.3647 32.6852 13.7349 35.4749ZM34.1944 14.5576C36.3158 14.5576 38.3896 15.186 40.1535 16.3634C41.9175 17.5408 43.2923 19.2143 44.1041 21.1722C44.916 23.1301 45.1284 25.2845 44.7145 27.363C44.3006 29.4415 43.2791 31.3508 41.779 32.8493C40.2789 34.3478 38.3676 35.3683 36.2869 35.7818C34.2063 36.1952 32.0496 35.983 30.0896 35.172C28.1296 34.361 26.4544 32.9877 25.2758 31.2256C24.0972 29.4635 23.4681 27.3919 23.4681 25.2726C23.468 23.8655 23.7453 22.4721 24.2843 21.172C24.8233 19.8719 25.6134 18.6907 26.6095 17.6957C27.6055 16.7007 28.788 15.9114 30.0894 15.373C31.3909 14.8345 32.7857 14.5575 34.1944 14.5576Z" fill="#ED5337"/>
<path d="M12.6323 44.0082C12.26 44.597 11.1493 46.2518 9.62462 47.6046C9.40348 47.8011 9.29697 47.7799 9.24117 47.7707C8.81817 47.6937 8.24402 47.0766 7.82101 46.4615C8.05027 45.9711 9.66621 42.3413 8.34343 39.7421C6.92327 36.9483 3.43881 36.7649 1.92634 37.0405C1.49304 37.1159 1.08713 37.3036 0.74911 37.5847C0.411092 37.8658 0.152795 38.2306 0 38.6426H2.29153C2.29153 38.6426 2.38384 39.8333 2.20023 43.1753C2.03488 46.1869 4.7697 46.8567 5.31444 46.9601L5.24038 46.9976C5.48587 47.4708 6.80966 49.8481 8.79078 50.2139C8.96017 50.2445 9.13193 50.2601 9.30407 50.2605C9.87416 50.2605 10.5771 50.0852 11.2801 49.461C12.3282 48.5114 13.2697 47.4506 14.088 46.2974C13.8405 45.9785 13.6068 45.6495 13.387 45.3104C13.1098 44.8848 12.8582 44.4507 12.6323 44.0082Z" fill="#FBC300"/>
<path d="M55.2329 44.9841H55.1892C55.1223 45.0935 55.0543 45.2019 54.9864 45.3104C54.7003 45.7516 54.3898 46.1765 54.0562 46.5831C54.3259 46.8905 54.6109 47.184 54.9103 47.4627C55.86 48.3628 56.9425 49.112 58.1198 49.6839C58.9112 50.0736 59.7429 50.3757 60.6 50.5848C60.9115 50.6669 61.1651 50.7185 61.3568 50.753C61.4795 50.773 61.6009 50.8011 61.7199 50.8371C61.9025 50.9091 61.7057 50.7479 61.229 50.4318C60.522 49.9549 59.842 49.4394 59.1921 48.8874C58.2346 48.0658 57.3606 47.1517 56.583 46.1585C56.1774 45.6383 55.7995 45.0971 55.451 44.5372C55.381 44.6618 55.3079 44.7855 55.2339 44.9081L55.2329 44.9841Z" fill="#FDC806"/>
<path d="M58.0845 7.75708C58.4196 6.39729 58.8875 5.07362 59.4813 3.80506C60.5241 1.65577 61.5517 0.513743 61.8327 0.203662C62.0904 -0.0719661 62.0457 -0.0638594 61.7313 0.203662C61.574 0.335396 61.3509 0.531983 61.0668 0.792411C60.8051 1.07412 60.4582 1.40751 60.1052 1.83412C59.1843 2.93466 58.4009 4.14298 57.7721 5.43248C56.8957 7.22849 56.242 9.12461 55.8254 11.0788C55.3274 13.2625 55.0372 15.7239 54.949 18.3536C54.881 20.2211 54.9044 22.1667 54.9388 24.161C54.953 24.9669 54.9672 25.78 54.9814 26.6001C55.022 29.4486 55.0169 32.3832 54.6528 35.2915C54.4866 36.7395 54.1989 38.171 53.7926 39.5708C53.3797 40.95 52.8208 42.2693 52.0681 43.4276C51.7048 43.994 51.2876 44.5241 50.8224 45.0104C50.361 45.478 49.8608 45.9058 49.3272 46.2892C48.2391 47.0383 47.0539 47.6356 45.8042 48.0646C43.3057 48.9553 40.6804 49.3384 38.183 49.6302C37.0093 49.763 35.8661 49.8552 34.7513 49.918C33.5441 49.8795 32.3096 49.8055 31.0508 49.687C28.3119 49.4154 25.4411 49.0465 22.7854 48.1416C22.1265 47.9168 21.481 47.6546 20.852 47.3563C20.2386 47.0541 19.6471 46.7094 19.0819 46.3247C18.535 45.9344 18.0222 45.4985 17.5491 45.0216C17.0797 44.5319 16.6588 43.9981 16.2923 43.4276C15.5436 42.2693 14.9918 40.9642 14.584 39.6164C14.1762 38.2687 13.9176 36.8713 13.7309 35.4749C13.3607 32.6852 13.3343 29.9167 13.3566 27.2557C13.3647 26.2535 13.3809 25.2655 13.3941 24.2927C13.4164 22.6856 13.4327 21.123 13.3941 19.6172C13.371 17.3567 13.1757 15.1012 12.8098 12.8704C12.494 11.0117 11.9987 9.18797 11.3308 7.42471C10.8096 6.06401 10.1491 4.7607 9.35987 3.53552C7.9955 1.48857 6.81778 0.516783 6.5368 0.203662C6.27711 -0.0709528 6.28928 -0.0223126 6.52969 0.304995C6.65142 0.469156 6.83401 0.703237 7.06428 1.00116C7.26716 1.32036 7.54815 1.69124 7.83015 2.15231C8.54708 3.32115 9.13547 4.56396 9.58506 5.8591C10.2055 7.64549 10.6243 9.49547 10.8338 11.3747C11.0965 13.4784 11.1584 15.8263 11.0478 18.3424C10.9373 20.8585 10.6715 23.5844 10.4625 26.4714C10.2536 29.3584 10.1146 32.44 10.4138 35.6502C10.5543 37.2974 10.8442 38.9285 11.2801 40.5234C11.6132 41.7269 12.0662 42.894 12.6323 44.0072C12.8595 44.449 13.1101 44.8831 13.384 45.3093C13.6031 45.6471 13.8367 45.9761 14.0849 46.2963C14.3888 46.6877 14.7143 47.0619 15.0598 47.4171C15.2982 47.6542 15.5447 47.8792 15.7942 48.097C16.2028 48.4567 16.6319 48.7923 17.0794 49.1023C17.4514 49.3522 17.8284 49.5836 18.2105 49.7964C19.2575 50.3783 20.3616 50.8513 21.5053 51.208C23.2056 51.7357 24.9531 52.0978 26.7233 52.2892H41.7659L41.9444 52.2669C43.5211 52.078 45.0788 51.7549 46.6005 51.3012C47.4007 51.0557 48.185 50.7609 48.9488 50.4186C49.6197 50.109 50.2696 49.7559 50.8944 49.3617C51.004 49.2928 51.1156 49.2249 51.2241 49.1529C51.8083 48.7505 52.3632 48.3073 52.8847 47.8265C53.0226 47.6988 53.1606 47.5701 53.2904 47.4353C53.5572 47.1638 53.8108 46.879 54.0523 46.5862C54.3859 46.1796 54.6964 45.7547 54.9825 45.3134C55.0514 45.205 55.1194 45.0965 55.1853 44.9871C55.1995 44.9628 55.2148 44.9385 55.229 44.9131C55.303 44.7905 55.376 44.6669 55.446 44.5422C56.1411 43.2906 56.6858 41.9613 57.0691 40.5821C57.497 39.0357 57.7846 37.4539 57.9283 35.8559C58.2326 32.7693 58.1139 29.8539 57.9283 27.1412C57.7426 24.4285 57.4789 21.9114 57.3318 19.5665C57.1714 17.4083 57.1531 15.2418 57.277 13.0812C57.388 11.2861 57.6582 9.50442 58.0845 7.75708Z" fill="#262F40"/>
<path d="M34.1943 35.9876C40.1182 35.9876 44.9205 31.1904 44.9205 25.2726C44.9205 19.3549 40.1182 14.5576 34.1943 14.5576C28.2703 14.5576 23.468 19.3549 23.468 25.2726C23.468 31.1904 28.2703 35.9876 34.1943 35.9876Z" fill="#F95F43"/>
<path d="M30.6156 52.2862H26.7234H21.7498V54.9442H46.847V52.2862H41.7659H37.7732H30.6156Z" fill="#FAC402"/>
<path d="M21.7498 55.0678H23.4012C25.0496 55.0678 25.7343 57.062 25.7343 57.062V60.2875H42.7894C42.7894 60.2875 42.8574 59.1911 42.7894 57.1968C42.7214 55.2026 44.9886 55.0688 44.9886 55.0688H46.847V54.9442H21.7498V55.0678Z" fill="#E6A429"/>
<path d="M80.9359 15.4475H86.4408V44.6438H80.9359V15.4475ZM101.255 45.2962C100.004 45.2962 98.8083 45.1195 97.6665 44.7661C96.5248 44.4127 95.4782 43.8826 94.5267 43.1758C93.5753 42.469 92.7461 41.6127 92.0393 40.6069C91.3325 39.5738 90.7753 38.3777 90.3675 37.0185L95.5462 34.9797C95.9267 36.4476 96.5928 37.6709 97.5442 38.6496C98.4957 39.601 99.7462 40.0768 101.296 40.0768C101.867 40.0768 102.41 40.0088 102.927 39.8729C103.47 39.7098 103.946 39.4923 104.354 39.2204C104.789 38.9214 105.129 38.5544 105.373 38.1195C105.618 37.6845 105.74 37.1816 105.74 36.6107C105.74 36.067 105.645 35.5777 105.455 35.1428C105.265 34.7078 104.938 34.3 104.476 33.9195C104.041 33.5389 103.457 33.1719 102.723 32.8185C102.016 32.4651 101.133 32.0981 100.072 31.7175L98.2782 31.0651C97.4898 30.7932 96.6879 30.4262 95.8724 29.9641C95.084 29.502 94.3636 28.9447 93.7112 28.2922C93.0588 27.6398 92.5151 26.8787 92.0801 26.0087C91.6724 25.1117 91.4685 24.1058 91.4685 22.9913C91.4685 21.8495 91.6859 20.7893 92.1209 19.8107C92.583 18.8048 93.2219 17.9349 94.0374 17.2009C94.8801 16.4398 95.8724 15.8553 97.0141 15.4475C98.1831 15.0126 99.4743 14.7951 100.888 14.7951C102.356 14.7951 103.62 14.999 104.68 15.4068C105.768 15.7873 106.678 16.2903 107.412 16.9155C108.173 17.5136 108.785 18.1796 109.247 18.9136C109.709 19.6476 110.049 20.3408 110.267 20.9932L105.414 23.032C105.142 22.2165 104.639 21.4825 103.905 20.8301C103.199 20.1777 102.22 19.8514 100.969 19.8514C99.7734 19.8514 98.7811 20.1369 97.9928 20.7078C97.2044 21.2514 96.8102 21.9718 96.8102 22.8689C96.8102 23.7388 97.1908 24.4864 97.952 25.1117C98.7132 25.7097 99.9229 26.2942 101.581 26.8651L103.416 27.4767C104.585 27.8845 105.645 28.3602 106.597 28.9039C107.575 29.4204 108.404 30.0457 109.084 30.7796C109.791 31.5136 110.321 32.3563 110.674 33.3078C111.055 34.2321 111.245 35.3059 111.245 36.5292C111.245 38.0515 110.933 39.37 110.307 40.4845C109.709 41.5719 108.935 42.469 107.983 43.1758C107.032 43.8826 105.958 44.4127 104.762 44.7661C103.566 45.1195 102.397 45.2962 101.255 45.2962ZM115.779 15.4475H121.284V44.6438H115.779V15.4475ZM136.098 45.2962C134.848 45.2962 133.652 45.1195 132.51 44.7661C131.368 44.4127 130.322 43.8826 129.37 43.1758C128.419 42.469 127.59 41.6127 126.883 40.6069C126.176 39.5738 125.619 38.3777 125.211 37.0185L130.39 34.9797C130.77 36.4476 131.436 37.6709 132.388 38.6496C133.339 39.601 134.59 40.0768 136.139 40.0768C136.71 40.0768 137.254 40.0088 137.77 39.8729C138.314 39.7098 138.79 39.4923 139.197 39.2204C139.632 38.9214 139.972 38.5544 140.217 38.1195C140.462 37.6845 140.584 37.1816 140.584 36.6107C140.584 36.067 140.489 35.5777 140.298 35.1428C140.108 34.7078 139.782 34.3 139.32 33.9195C138.885 33.5389 138.3 33.1719 137.566 32.8185C136.86 32.4651 135.976 32.0981 134.916 31.7175L133.122 31.0651C132.333 30.7932 131.531 30.4262 130.716 29.9641C129.928 29.502 129.207 28.9447 128.555 28.2922C127.902 27.6398 127.359 26.8787 126.924 26.0087C126.516 25.1117 126.312 24.1058 126.312 22.9913C126.312 21.8495 126.529 20.7893 126.964 19.8107C127.427 18.8048 128.065 17.9349 128.881 17.2009C129.724 16.4398 130.716 15.8553 131.858 15.4475C133.027 15.0126 134.318 14.7951 135.731 14.7951C137.199 14.7951 138.463 14.999 139.524 15.4068C140.611 15.7873 141.522 16.2903 142.256 16.9155C143.017 17.5136 143.629 18.1796 144.091 18.9136C144.553 19.6476 144.893 20.3408 145.11 20.9932L140.258 23.032C139.986 22.2165 139.483 21.4825 138.749 20.8301C138.042 20.1777 137.063 19.8514 135.813 19.8514C134.617 19.8514 133.625 20.1369 132.836 20.7078C132.048 21.2514 131.654 21.9718 131.654 22.8689C131.654 23.7388 132.034 24.4864 132.795 25.1117C133.557 25.7097 134.766 26.2942 136.425 26.8651L138.26 27.4767C139.429 27.8845 140.489 28.3602 141.44 28.9039C142.419 29.4204 143.248 30.0457 143.928 30.7796C144.634 31.5136 145.164 32.3563 145.518 33.3078C145.898 34.2321 146.089 35.3059 146.089 36.5292C146.089 38.0515 145.776 39.37 145.151 40.4845C144.553 41.5719 143.778 42.469 142.827 43.1758C141.875 43.8826 140.801 44.4127 139.605 44.7661C138.409 45.1195 137.24 45.2962 136.098 45.2962Z" fill="black"/>
</svg>
