<svg width="23" height="28" viewBox="0 0 23 28" fill="none" xmlns="http://www.w3.org/2000/svg">
<g clip-path="url(#clip0_6_217)">
<path d="M20.8377 17.1436C20.8278 17.3663 20.8426 17.5988 20.7981 17.8116C20.6595 18.4698 20.5507 19.1031 21.0356 19.697C21.1593 19.8504 21.1742 20.1275 21.1692 20.3402C21.1445 21.0726 21.5107 21.4932 22.1342 21.8149C22.4459 21.9781 22.7626 22.2602 22.911 22.572C23.1436 23.047 22.911 23.5814 22.3568 23.9229C21.6245 24.3831 20.8377 24.7641 20.1053 25.2292C19.4323 25.6548 18.7742 26.115 18.1656 26.6197C17.1215 27.4807 15.6567 27.3273 14.8749 26.2535C14.7561 26.0902 14.5087 25.9715 14.3009 25.9319C12.7422 25.63 11.1834 25.6795 9.61974 25.9418C9.21892 26.0061 8.92202 26.1397 8.63501 26.4663C8.0808 27.1047 7.3237 27.0898 6.57155 26.8968C6.07176 26.7731 5.57692 26.6098 5.09693 26.4218C3.9786 25.9913 2.82068 25.7587 1.64792 25.5558C1.21741 25.4816 0.791855 25.2936 0.405883 25.0857C0.0545488 24.8977 -0.0741087 24.5513 0.029807 24.1455C0.0990841 23.8882 0.217845 23.6408 0.242587 23.3785C0.282174 22.8985 0.361347 22.3988 0.26238 21.9386C0.0496004 20.9538 0.306915 20.4491 1.28669 20.1967C1.58359 20.1225 1.91019 20.0829 2.16255 19.9295C2.4743 19.7464 2.74646 19.4792 2.99883 19.212C3.43923 18.7419 3.64706 18.1828 3.56789 17.5197C3.54315 17.3267 3.64211 17.109 3.71634 16.916C4.09241 15.9362 4.52292 14.9762 4.85941 13.9865C5.31961 12.6307 6.15588 11.5074 7.03174 10.4188C7.58101 9.73589 7.85317 9.01838 7.79379 8.14252C7.70967 6.90048 7.65029 5.65349 7.63544 4.4065C7.6305 3.86713 7.71462 3.31292 7.84328 2.78839C8.20451 1.33852 9.29809 0.690282 10.6391 0.383483C12.2176 0.0272012 13.6626 0.30431 14.7809 1.55625C15.5627 2.43211 15.8992 3.52075 16.0279 4.66382C16.1466 5.69308 16.1961 6.72729 16.2703 7.7615C16.3198 8.45427 16.6068 9.04807 16.9879 9.61713C17.928 11.0076 18.8781 12.3981 19.7688 13.8183C20.3973 14.8228 20.8723 15.9016 20.8228 17.1337L20.8377 17.1436ZM8.78346 9.29549C8.64491 10.2901 8.16492 11.0868 7.63544 11.8637C7.50679 12.0567 7.44741 12.2991 7.35834 12.5169C7.0169 13.3581 6.72494 14.2241 6.32908 15.0356C5.97774 15.7581 5.76496 16.5003 5.70063 17.2821C5.6363 18.1234 5.88867 18.8508 6.58639 19.3951C7.20494 19.88 7.81853 20.3699 8.40739 20.8846C9.18923 21.5674 9.19913 22.1662 8.48656 22.8936C8.88738 23.6408 9.46139 24.0565 10.3521 23.8932C10.5154 23.8635 10.6886 23.8833 10.8568 23.8783C12.4057 23.8437 13.7764 23.3637 14.8254 22.1711C14.9937 21.9831 15.1075 21.6911 15.1322 21.4388C15.2015 20.7411 15.1916 20.0384 15.2559 19.3407C15.3005 18.8557 15.5132 18.6924 15.9982 18.6429C16.1169 18.6331 16.2407 18.6281 16.3545 18.6232C16.6118 17.9353 16.6365 16.2776 16.4039 15.4463C15.8398 13.4323 14.9689 11.5371 14.103 9.64187C13.9496 9.30044 13.7665 8.97385 13.5883 8.62746C13.3607 8.73138 13.1826 8.80065 13.0094 8.89467C12.3958 9.22621 11.7822 9.5627 11.1686 9.90909C10.5599 10.2505 9.99087 10.1713 9.4416 9.77053C9.23871 9.62208 9.03583 9.47363 8.78841 9.29054L8.78346 9.29549ZM7.98678 24.5414C7.88781 24.3583 7.73936 24.0119 7.53648 23.7051C7.06143 22.9777 6.5567 22.2751 6.07176 21.5575C5.69568 21.0033 5.36414 20.4095 4.93364 19.8949C4.39921 19.2516 4.25076 19.2763 3.89943 20.0235C3.60747 20.6371 3.16212 20.9885 2.49904 21.0825C2.26647 21.1171 2.03884 21.1914 1.80627 21.2507C1.54401 21.3151 1.43019 21.4734 1.51432 21.7456C1.70235 22.3592 1.62318 22.9579 1.42525 23.5567C1.19762 24.2445 1.24216 24.289 1.97451 24.4127C2.11307 24.4375 2.25162 24.4573 2.39018 24.482C3.31552 24.6305 4.22602 24.8284 5.09198 25.2144C5.62146 25.4519 6.20042 25.6102 6.76948 25.7439C7.37813 25.8874 8.00162 25.3381 7.98678 24.5365V24.5414ZM16.5227 20.3996C16.686 21.7852 16.3297 23.1014 16.1169 24.4375C16.0724 24.7146 16.1169 25.0313 16.211 25.2985C16.394 25.8428 16.7949 25.9913 17.3046 25.729C17.5421 25.6102 17.7895 25.4816 17.9726 25.2985C18.8435 24.4078 19.9519 23.8932 21.0257 23.3241C21.2533 23.2053 21.4661 23.0618 21.7878 22.8689C20.6843 22.374 19.9123 21.7406 20.036 20.4639C19.9173 20.553 19.8727 20.6075 19.8282 20.6619C19.269 21.3547 18.5218 21.5971 17.6658 21.5377C17.1363 21.5031 16.785 21.2112 16.6167 20.7064C16.5821 20.6075 16.5524 20.5035 16.5227 20.4046V20.3996ZM9.02099 8.07324C9.51582 8.41963 9.94633 8.74127 10.3917 9.02828C10.4758 9.08271 10.649 9.05797 10.748 9.00354C11.4853 8.61756 12.2127 8.2118 12.9846 7.79119C12.8758 7.69717 12.8312 7.63779 12.7718 7.61304C12.0939 7.35078 11.416 7.09841 10.7381 6.8411C10.268 7.16274 9.79788 7.47944 9.32778 7.80108C9.25851 7.84562 9.19913 7.90995 9.01109 8.07324H9.02099ZM11.6189 6.05926C11.7673 5.20814 12.1088 4.75784 12.5739 4.83206C12.8164 4.87165 13.0935 5.05474 13.2419 5.25267C13.4003 5.46545 13.4201 5.78215 13.4943 6.02462C13.7269 5.4803 13.618 4.83206 13.2123 4.43619C12.8362 4.06507 12.3166 4.04527 11.9455 4.42135C11.515 4.85681 11.4358 5.38628 11.6238 6.05926H11.6189ZM10.1096 5.78215C10.0403 5.4902 10.0354 5.1636 9.88695 4.91619C9.75334 4.69351 9.48118 4.45104 9.24861 4.4263C8.90717 4.39166 8.73398 4.7133 8.62512 5.05969C9.33273 4.7133 9.54551 4.83206 10.1096 5.78215Z" fill="black"/>
</g>
<defs>
<clipPath id="clip0_6_217">
<rect width="23" height="26.934" fill="white" transform="translate(0 0.249878)"/>
</clipPath>
</defs>
</svg>
