<?xml version="1.0" encoding="UTF-8"?>
<svg id="Layer_2" data-name="Layer 2" xmlns="http://www.w3.org/2000/svg" viewBox="0 0 136.17 131.73">
  <defs>
    <style>
      .cls-1 {
        stroke-width: 0px;
      }
    </style>
  </defs>
  <g id="Layer_1-2" data-name="Layer 1">
    <g>
      <path class="cls-1" d="m94.08,83.87h-51.97c-1.69-12.05-1.68-23.97,0-36.04h51.98c1.69,12.04,1.68,23.95,0,36.04Z"/>
      <path class="cls-1" d="m93.12,38.52h-49.48c3.03-12.21,6.44-24.03,16.12-32.7,5.47-4.9,11.57-5.03,16.72.21,3.77,3.83,7.09,8.41,9.48,13.22,2.94,5.94,4.7,12.47,7.16,19.27Z"/>
      <path class="cls-1" d="m43.71,93.22h48.78c-2.55,10.93-5.92,21.34-13.29,30-.18.22-.38.42-.58.63-7.02,7.36-14.02,7.46-20.95.06-2.05-2.19-3.84-4.68-5.38-7.26-4.28-7.2-6.81-15.09-8.59-23.42Z"/>
      <path class="cls-1" d="m2.5,47.81h29.82v36.01H2.48c-3.31-11.97-3.31-23.93.02-36.01Z"/>
      <path class="cls-1" d="m133.7,47.87c3.31,12,3.3,23.95-.02,36.02h-29.82v-36.02h29.84Z"/>
      <path class="cls-1" d="m33.78,38.52H6.37C7.78,24.96,35.28,1.71,52.46,0c-5.35,5.44-9.25,11.39-11.8,18.05-2.52,6.58-4.52,13.37-6.88,20.47Z"/>
      <path class="cls-1" d="m130,38.49c-.56.05-1.1.12-1.63.13-8.77,0-17.55,0-26.49,0-3.17-14.16-7.55-27.62-17.9-38.38,14.25-.59,41.72,22.29,46.02,38.25Z"/>
      <path class="cls-1" d="m83.96,131.5c10.28-10.74,14.74-24.07,17.87-38.22h28.14c-3.91,15.57-31.33,38.45-46.01,38.22Z"/>
      <path class="cls-1" d="m52.47,131.73c-18.64-3.32-39.17-19.51-46.33-38.48h28.17c3.13,13.94,7.5,27.41,18.15,38.48Z"/>
    </g>
  </g>
</svg>