<svg width="23" height="21" viewBox="0 0 23 21" fill="none" xmlns="http://www.w3.org/2000/svg">
<g clip-path="url(#clip0_6_196)">
<path d="M5.31646 20.9937C3.79533 20.9937 2.2742 20.9937 0.753065 20.9937C0.174015 20.9937 0 20.8197 0 20.2496C0 17.5914 0 14.9332 0 12.2749C0 11.6989 0.177015 11.5129 0.744065 11.5129C3.78633 11.5129 6.82859 11.5129 9.87086 11.5129C10.4169 11.5129 10.6089 11.7019 10.6089 12.2479C10.6089 14.9182 10.6089 17.5884 10.6089 20.2586C10.6089 20.8197 10.4379 20.9907 9.87986 20.9937C8.35873 20.9967 6.83759 20.9937 5.31646 20.9937Z" fill="black"/>
<path d="M17.6986 9.73071C16.2015 9.73071 14.7044 9.73071 13.2073 9.73071C12.5592 9.73071 12.3912 9.56569 12.3882 8.93264C12.3882 6.29841 12.3882 3.66418 12.3882 1.02995C12.3882 0.411898 12.5502 0.252884 13.1803 0.252884C16.1865 0.252884 19.1928 0.252884 22.199 0.252884C22.8441 0.252884 22.9971 0.408897 22.9971 1.05995C22.9971 3.68218 22.9971 6.30441 22.9971 8.92664C22.9971 9.56569 22.8321 9.73071 22.187 9.73071C20.6899 9.73071 19.1928 9.73071 17.6956 9.73071H17.6986Z" fill="black"/>
<path d="M17.6956 20.9937C16.1984 20.9937 14.7013 20.9937 13.2042 20.9937C12.5441 20.9937 12.3911 20.8437 12.3911 20.1986C12.3911 17.5764 12.3911 14.9542 12.3911 12.3319C12.3911 11.6689 12.5501 11.5129 13.2252 11.5129C16.2074 11.5129 19.1897 11.5129 22.172 11.5129C22.841 11.5129 23 11.6719 23 12.3349C23 14.9572 23 17.5794 23 20.2016C23 20.8287 22.841 20.9907 22.223 20.9937C20.7138 20.9937 19.2047 20.9937 17.6956 20.9937Z" fill="black"/>
<path d="M5.30446 9.7307C3.79533 9.7307 2.2862 9.7307 0.777068 9.7307C0.177015 9.7307 0 9.55369 0 8.96564C0 6.3074 0 3.64917 0 0.990942C0 0.435894 0.177015 0.249878 0.723063 0.249878C3.77733 0.249878 6.83159 0.249878 9.88586 0.249878C10.4379 0.249878 10.6119 0.423893 10.6119 0.987942C10.6119 3.65817 10.6119 6.32841 10.6119 8.99864C10.6119 9.54469 10.4229 9.7277 9.87086 9.7307C8.34973 9.7337 6.82859 9.7307 5.30746 9.7307H5.30446Z" fill="black"/>
</g>
<defs>
<clipPath id="clip0_6_196">
<rect width="23" height="20.7438" fill="white" transform="translate(0 0.249878)"/>
</clipPath>
</defs>
</svg>
