<svg width="23" height="24" viewBox="0 0 23 24" fill="none" xmlns="http://www.w3.org/2000/svg">
<g clip-path="url(#clip0_32_521)">
<path d="M-4.98563e-05 4.99131C-4.98563e-05 4.01371 -0.00762811 3.03233 -4.98563e-05 2.05473C0.0151067 0.796744 0.761565 0.0502863 2.02334 0.0464971C3.99748 0.0389189 5.97161 0.0389189 7.94575 0.0464971C9.181 0.0540754 9.93504 0.796744 9.94262 2.02821C9.95399 4.0175 9.95399 6.00679 9.94262 7.99988C9.93504 9.23134 9.18479 9.9778 7.94954 9.98538C5.9754 9.99674 4.00127 9.99296 2.02713 9.98538C0.761564 9.98159 0.0151067 9.23513 0.0075284 7.97714C-4.98563e-05 6.9806 0.0075284 5.98785 0.0075284 4.99131H-4.98563e-05Z" fill="black"/>
<path d="M12.5344 4.99131C12.5344 4.01371 12.5268 3.03233 12.5344 2.05473C12.5457 0.796744 13.2922 0.0502863 14.554 0.0464971C16.5281 0.0389189 18.5022 0.0389189 20.4764 0.0464971C21.7116 0.0540754 22.4657 0.796744 22.4733 2.02821C22.4846 4.0175 22.4846 6.00679 22.4733 7.99988C22.4657 9.23134 21.7154 9.9778 20.4802 9.98538C18.506 9.99674 16.5319 9.99296 14.5578 9.98538C13.2922 9.98159 12.5457 9.23513 12.5382 7.97714C12.5306 6.9806 12.5382 5.98785 12.5382 4.99131H12.5344Z" fill="black"/>
<path d="M0.00383641 17.5182C0.00383641 16.5406 -0.00374184 15.5592 0.00383641 14.5816C0.0152038 13.3236 0.761662 12.5809 2.02344 12.5733C3.99758 12.5658 5.97171 12.5658 7.94585 12.5733C9.1811 12.5809 9.93135 13.3274 9.93893 14.5551C9.95029 16.5444 9.95029 18.5336 9.93893 20.5267C9.93135 21.7582 9.17731 22.5046 7.94206 22.5084C5.95277 22.5198 3.96347 22.5198 1.97039 22.5084C0.765451 22.5009 0.0152038 21.7506 4.7286e-05 20.5495C-0.0113201 19.5378 4.7286e-05 18.5261 4.7286e-05 17.5144L0.00383641 17.5182Z" fill="black"/>
<path d="M17.5095 23.1678C17.0435 22.9215 16.5509 22.7775 16.2174 22.463C14.9746 21.2883 13.7735 20.0645 12.5761 18.8406C11.8296 18.079 11.8221 17.0142 12.5647 16.2564C13.7735 15.0211 14.9973 13.7972 16.2326 12.5923C16.9715 11.8686 18.04 11.8724 18.7827 12.5999C20.0179 13.8086 21.2418 15.0325 22.4506 16.2678C23.1781 17.0104 23.1819 18.0752 22.4581 18.8178C21.238 20.0645 20.0104 21.3073 18.7486 22.5084C18.4379 22.804 17.9718 22.929 17.5057 23.1715L17.5095 23.1678Z" fill="black"/>
</g>
<defs>
<clipPath id="clip0_32_521">
<rect width="23" height="23.1288" fill="white" transform="translate(0 0.0389175)"/>
</clipPath>
</defs>
</svg>
