<?xml version="1.0" encoding="UTF-8"?>
<svg id="Layer_2" xmlns="http://www.w3.org/2000/svg" viewBox="0 0 59.83 15.04">
  <defs>
    <style>
      .cls-1 {
        font-family: Raleway-Black, Raleway;
        font-size: 6.2px;
        font-weight: 800;
      }

      .cls-2 {
        letter-spacing: 0em;
      }

      .cls-3 {
        letter-spacing: -.02em;
      }

      .cls-4 {
        letter-spacing: -.02em;
      }

      .cls-5 {
        letter-spacing: 0em;
      }
    </style>
  </defs>
  <g id="Layer_1-2" data-name="Layer_1">
    <g>
      <g id="Layer_1-2">
        <g>
          <path d="M2.85,15.04s.05-.09.08-.13c2.74-4.1,5.49-8.19,8.23-12.29.02-.04.05-.07.08-.12.54.85,1.08,1.7,1.62,2.56-.26,0-.49.01-.72,0-.17-.01-.25.05-.34.19-1.43,2.27-2.87,4.54-4.31,6.81-.02.03-.03.06-.06.11h3.96c.09,0,.14-.02.18-.11.41-.71.82-1.42,1.23-2.13.01-.02.03-.05.05-.1h-1.39c.07-.14.14-.25.2-.36.34-.59.69-1.19,1.03-1.78.04-.07.09-.1.17-.09.5,0,1,0,1.5,0,.07,0,.11.02.15.08,1.36,2.16,2.73,4.31,4.09,6.47.06.09.1.18.14.27v.24c-.08.2-.22.34-.42.4,0,0-15.49,0-15.49,0Z"/>
          <path d="M.43,15.04c-.1-.06-.22-.11-.3-.19-.16-.17-.17-.41-.04-.61.79-1.24,1.57-2.48,2.36-3.72,1.06-1.67,2.12-3.34,3.18-5.01,1.1-1.74,2.2-3.48,3.31-5.22.17-.27.46-.35.71-.2.07.04.14.1.18.17.22.33.43.68.65,1.01.05.07.01.12-.02.17-.86,1.28-1.71,2.56-2.57,3.83-2.17,3.23-4.33,6.46-6.5,9.7-.02.03-.04.06-.05.09H.43Z"/>
        </g>
      </g>
      <text class="cls-1" transform="translate(22.23 5.73)"><tspan class="cls-4" x="0" y="0">A</tspan><tspan class="cls-2" x="4.02" y="0">frog</tspan><tspan class="cls-5" x="16.9" y="0">r</tspan><tspan x="19.44" y="0">aphix </tspan><tspan class="cls-3" x="0" y="7.44">S</tspan><tspan x="3.73" y="7.44">tudio</tspan></text>
    </g>
  </g>
</svg>