<?xml version="1.0" encoding="UTF-8"?>
<svg id="Layer_2" xmlns="http://www.w3.org/2000/svg" viewBox="0 0 76.73 55.74">
  <g id="Layer_2-2" data-name="Layer_2">
    <g id="Layer_1-2">
      <path d="M12.2,24.44h60.35c.54,0,1.1,0,1.62.13,1.62.41,2.72,2.03,2.54,3.63-.19,1.78-1.52,3.07-3.27,3.17-.35.02-.71.01-1.06.01H11.98c.35.37.55.6.77.81,5.78,5.77,11.55,11.55,17.33,17.32,1.05,1.04,1.55,2.22,1.14,3.69-.69,2.44-3.63,3.34-5.58,1.72-.23-.19-.44-.41-.65-.62-7.84-7.83-15.67-15.67-23.51-23.5-1.97-1.97-1.97-3.82,0-5.79,7.91-7.91,15.83-15.82,23.74-23.73,1.04-1.04,2.22-1.55,3.69-1.14,2.4.67,3.33,3.57,1.77,5.51-.24.3-.52.56-.79.83-5.72,5.72-11.44,11.43-17.16,17.14-.21.21-.5.34-.75.5.07.1.14.21.22.31h0Z"/>
    </g>
  </g>
</svg>