<?xml version="1.0" encoding="UTF-8"?>
<svg id="Layer_2" xmlns="http://www.w3.org/2000/svg" viewBox="0 0 1261.87 1266.84">
  <defs>
    <style>
      .cls-1 {
        stroke: #d9e6ff;
      }

      .cls-1, .cls-2, .cls-3, .cls-4, .cls-5, .cls-6, .cls-7, .cls-8, .cls-9, .cls-10, .cls-11, .cls-12, .cls-13, .cls-14, .cls-15, .cls-16, .cls-17, .cls-18, .cls-19, .cls-20, .cls-21, .cls-22, .cls-23, .cls-24, .cls-25, .cls-26, .cls-27, .cls-28, .cls-29, .cls-30, .cls-31, .cls-32, .cls-33, .cls-34, .cls-35, .cls-36, .cls-37, .cls-38, .cls-39, .cls-40, .cls-41, .cls-42, .cls-43, .cls-44, .cls-45, .cls-46, .cls-47, .cls-48, .cls-49, .cls-50, .cls-51, .cls-52, .cls-53, .cls-54, .cls-55 {
        fill: none;
        stroke-width: 3px;
      }

      .cls-1, .cls-2, .cls-3, .cls-4, .cls-5, .cls-6, .cls-7, .cls-8, .cls-9, .cls-10, .cls-11, .cls-12, .cls-13, .cls-14, .cls-15, .cls-16, .cls-17, .cls-18, .cls-19, .cls-20, .cls-21, .cls-22, .cls-23, .cls-24, .cls-25, .cls-26, .cls-27, .cls-28, .cls-29, .cls-30, .cls-31, .cls-32, .cls-33, .cls-34, .cls-35, .cls-36, .cls-37, .cls-38, .cls-39, .cls-40, .cls-41, .cls-42, .cls-43, .cls-44, .cls-45, .cls-46, .cls-47, .cls-48, .cls-49, .cls-50, .cls-51, .cls-52, .cls-54, .cls-55 {
        stroke-miterlimit: 10;
      }

      .cls-2 {
        stroke: #edf6ff;
      }

      .cls-3 {
        stroke: #eef8ff;
      }

      .cls-4 {
        stroke: #e5f0ff;
      }

      .cls-5 {
        stroke: #e2eeff;
      }

      .cls-6 {
        stroke: #d1e0ff;
      }

      .cls-7 {
        stroke: #eff8ff;
      }

      .cls-8 {
        stroke: #f1faff;
      }

      .cls-9 {
        stroke: #d3e1ff;
      }

      .cls-10 {
        stroke: #edf7ff;
      }

      .cls-11 {
        stroke: #e0ecff;
      }

      .cls-12 {
        stroke: #e4efff;
      }

      .cls-13 {
        stroke: #dbe8ff;
      }

      .cls-14 {
        stroke: #d8e6ff;
      }

      .cls-15 {
        stroke: #ebf5ff;
      }

      .cls-16 {
        stroke: #d0e0ff;
      }

      .cls-17 {
        stroke: #cfdeff;
      }

      .cls-18 {
        stroke: #e6f1ff;
      }

      .cls-19 {
        stroke: #dfecff;
      }

      .cls-20 {
        stroke: #eaf4ff;
      }

      .cls-21 {
        stroke: #eaf5ff;
      }

      .cls-22 {
        stroke: #d4e3ff;
      }

      .cls-23 {
        stroke: #cedeff;
      }

      .cls-24 {
        stroke: #dae8ff;
      }

      .cls-25 {
        stroke: #ddeaff;
      }

      .cls-26 {
        stroke: #e9f4ff;
      }

      .cls-27 {
        stroke: #d6e4ff;
      }

      .cls-28 {
        stroke: #d0dfff;
      }

      .cls-29 {
        stroke: #eef7ff;
      }

      .cls-30 {
        stroke: #cfdfff;
      }

      .cls-31 {
        stroke: #e4f0ff;
      }

      .cls-32 {
        stroke: #e8f3ff;
      }

      .cls-33 {
        stroke: #cdddff;
      }

      .cls-34 {
        stroke: #e3efff;
      }

      .cls-35 {
        stroke: #deebff;
      }

      .cls-36 {
        stroke: #dce9ff;
      }

      .cls-37 {
        stroke: #d2e1ff;
      }

      .cls-38 {
        stroke: #deeaff;
      }

      .cls-39 {
        stroke: #ecf6ff;
      }

      .cls-40 {
        stroke: #e3eeff;
      }

      .cls-41 {
        stroke: #d9e7ff;
      }

      .cls-42 {
        stroke: #d5e3ff;
      }

      .cls-43 {
        stroke: #d4e2ff;
      }

      .cls-44 {
        stroke: #d7e5ff;
      }

      .cls-45 {
        stroke: #ccdcff;
      }

      .cls-46 {
        stroke: #d3e2ff;
      }

      .cls-47 {
        stroke: #dae7ff;
      }

      .cls-48 {
        stroke: #e7f2ff;
      }

      .cls-49 {
        stroke: #dfebff;
      }

      .cls-50 {
        stroke: #e9f3ff;
      }

      .cls-51 {
        stroke: #ceddff;
      }

      .cls-52 {
        stroke: #e1edff;
      }

      .cls-53 {
        stroke-miterlimit: 10;
      }

      .cls-53, .cls-54 {
        stroke: #f0f9ff;
      }

      .cls-55 {
        stroke: #eff9ff;
      }
    </style>
  </defs>
  <g id="Layer_1-2" data-name="Layer_1">
    <g>
      <path class="cls-8" d="M573.39.93s-220.47,281.36-395,278.99S40.48,386.74,1.29,452"/>
      <path class="cls-8" d="M580.2,5.5c-1.65,2.9-219.31,284.84-395.28,283.12S43.66,394.75,3.9,460.06"/>
      <path class="cls-54" d="M587,10.08c-3.3,5.79-218.15,288.31-395.56,287.25S46.84,402.75,6.51,468.11"/>
      <path class="cls-53" d="M593.81,14.65c-4.95,8.69-216.98,291.79-395.84,291.39-178.85-.41-147.95,104.72-188.85,170.13"/>
      <path class="cls-54" d="M600.61,19.23c-6.6,11.59-215.82,295.27-396.12,295.52S53.2,418.76,11.73,484.22"/>
      <path class="cls-55" d="M607.41,23.8c-8.25,14.49-214.66,298.75-396.4,299.65-181.74.9-154.64,103.32-196.67,168.83"/>
      <path class="cls-7" d="M614.22,28.38c-9.9,17.38-213.49,302.22-396.68,303.78S59.56,434.78,16.96,500.34"/>
      <path class="cls-3" d="M621.02,32.95c-11.56,20.28-212.33,305.7-396.96,307.91-184.63,2.21-161.32,101.92-204.49,167.53"/>
      <path class="cls-3" d="M627.82,37.53c-13.21,23.18-211.17,309.18-397.24,312.05s-164.67,101.21-208.4,166.87"/>
      <path class="cls-29" d="M634.63,42.1c-14.86,26.07-210,312.66-397.52,316.18-187.52,3.52-168.01,100.51-212.31,166.22"/>
      <path class="cls-10" d="M641.43,46.68c-16.51,28.97-208.84,316.13-397.81,320.31-188.96,4.18-171.36,99.81-216.22,165.57"/>
      <path class="cls-10" d="M648.23,51.25c-18.16,31.87-207.68,319.61-398.09,324.44-190.41,4.83-174.7,99.11-220.13,164.92"/>
      <path class="cls-2" d="M655.04,55.83c-19.81,34.76-206.51,323.09-398.37,328.58-191.85,5.49-178.04,98.41-224.04,164.27"/>
      <path class="cls-39" d="M661.84,60.4c-21.46,37.66-205.35,326.57-398.65,332.71-193.3,6.14-181.39,97.71-227.96,163.61"/>
      <path class="cls-39" d="M668.65,64.98c-23.11,40.56-204.19,330.05-398.93,336.84-194.74,6.8-184.73,97-231.87,162.96"/>
      <path class="cls-39" d="M675.45,69.55c-24.76,43.46-203.02,333.52-399.21,340.97s-188.08,96.3-235.78,162.31"/>
      <path class="cls-15" d="M682.25,74.13c-26.41,46.35-201.86,337-399.49,345.11-197.63,8.1-191.42,95.6-239.69,161.66"/>
      <path class="cls-15" d="M689.06,78.7c-28.06,49.25-200.7,340.48-399.77,349.24s-194.77,94.9-243.6,161.01"/>
      <path class="cls-21" d="M695.86,83.28c-29.71,52.15-199.54,343.96-400.05,353.37-200.52,9.41-198.11,94.2-247.51,160.35"/>
      <path class="cls-20" d="M702.66,87.86c-31.37,55.04-198.37,347.43-400.33,357.5-201.96,10.07-201.45,93.5-251.42,159.7"/>
      <path class="cls-20" d="M709.47,92.43c-33.02,57.94-197.21,350.91-400.61,361.63-203.41,10.72-204.8,92.79-255.33,159.05"/>
      <path class="cls-26" d="M716.27,97.01c-34.67,60.84-196.05,354.39-400.9,365.77-204.85,11.38-208.14,92.09-259.24,158.4"/>
      <path class="cls-50" d="M723.07,101.58c-36.32,63.73-194.88,357.87-401.18,369.9s-211.49,91.39-263.15,157.75"/>
      <path class="cls-50" d="M729.88,106.16c-37.97,66.63-193.72,361.34-401.46,374.03-207.74,12.69-214.83,90.69-267.06,157.1"/>
      <path class="cls-32" d="M736.68,110.73c-39.62,69.53-192.56,364.82-401.74,378.16-209.18,13.34-218.17,89.99-270.98,156.44"/>
      <path class="cls-32" d="M743.49,115.31c-41.27,72.43-191.39,368.3-402.02,382.3-210.63,14-221.52,89.29-274.89,155.79"/>
      <path class="cls-48" d="M750.29,119.88c-42.92,75.32-190.23,371.78-402.3,386.43-212.07,14.65-224.86,88.58-278.8,155.14"/>
      <path class="cls-48" d="M757.09,124.46c-44.57,78.22-189.07,375.25-402.58,390.56-213.52,15.31-228.21,87.88-282.71,154.49"/>
      <path class="cls-48" d="M763.9,129.03c-46.22,81.12-187.9,378.73-402.86,394.69-214.96,15.96-231.55,87.18-286.62,153.84"/>
      <path class="cls-18" d="M770.7,133.61c-47.87,84.01-186.74,382.21-403.14,398.83-216.4,16.62-234.9,86.48-290.53,153.18"/>
      <path class="cls-18" d="M777.5,138.18c-49.52,86.91-185.58,385.69-403.42,402.96-217.85,17.27-238.24,85.78-294.44,152.53"/>
      <path class="cls-18" d="M784.31,142.76c-51.18,89.81-184.41,389.17-403.7,407.09s-241.58,85.08-298.35,151.88"/>
      <path class="cls-4" d="M791.11,147.33c-52.83,92.7-183.25,392.64-403.99,411.22s-244.93,84.37-302.26,151.23"/>
      <path class="cls-4" d="M797.92,151.91c-54.48,95.6-182.09,396.12-404.27,415.35-222.18,19.23-248.27,83.67-306.17,150.58"/>
      <path class="cls-4" d="M804.72,156.48c-56.13,98.5-180.92,399.6-404.55,419.49-223.62,19.89-251.62,82.97-310.09,149.93"/>
      <path class="cls-31" d="M811.52,161.06c-57.78,101.4-179.76,403.08-404.83,423.62-225.07,20.54-254.96,82.27-314,149.27"/>
      <path class="cls-12" d="M818.33,165.63c-59.43,104.29-178.6,406.55-405.11,427.75s-258.31,81.57-317.91,148.62"/>
      <path class="cls-34" d="M825.13,170.21c-61.08,107.19-177.43,410.03-405.39,431.88-227.96,21.85-261.65,80.87-321.82,147.97"/>
      <path class="cls-34" d="M831.93,174.78c-62.73,110.09-176.27,413.51-405.67,436.02-229.4,22.51-264.99,80.16-325.73,147.32"/>
      <path class="cls-40" d="M838.74,179.36c-64.38,112.98-175.11,416.99-405.95,440.15s-268.34,79.46-329.64,146.67"/>
      <path class="cls-5" d="M845.54,183.94c-66.03,115.88-173.94,420.46-406.23,444.28-232.29,23.82-271.68,78.76-333.55,146.01"/>
      <path class="cls-5" d="M852.34,188.51c-67.68,118.78-172.78,423.94-406.51,448.41-233.73,24.47-275.03,78.06-337.46,145.36"/>
      <path class="cls-5" d="M859.15,193.09c-69.33,121.67-171.62,427.42-406.79,452.55-235.18,25.13-278.37,77.36-341.37,144.71"/>
      <path class="cls-52" d="M865.95,197.66c-70.98,124.57-170.45,430.9-407.08,456.68-236.62,25.78-281.71,76.66-345.28,144.06"/>
      <path class="cls-52" d="M872.76,202.24c-72.64,127.47-169.29,434.37-407.36,460.81-238.07,26.44-285.06,75.95-349.2,143.41"/>
      <path class="cls-52" d="M879.56,206.81c-74.29,130.37-168.13,437.85-407.64,464.94-239.51,27.09-288.4,75.25-353.11,142.75"/>
      <path class="cls-11" d="M886.36,211.39c-75.94,133.26-166.96,441.33-407.92,469.07-240.96,27.74-291.75,74.55-357.02,142.1"/>
      <path class="cls-11" d="M893.17,215.96c-77.59,136.16-165.8,444.81-408.2,473.21s-295.09,73.85-360.93,141.45"/>
      <path class="cls-19" d="M899.97,220.54c-79.24,139.06-164.64,448.29-408.48,477.34-243.84,29.05-298.44,73.15-364.84,140.8"/>
      <path class="cls-49" d="M906.77,225.11c-80.89,141.95-163.47,451.76-408.76,481.47-245.29,29.71-301.78,72.45-368.75,140.15"/>
      <path class="cls-49" d="M913.58,229.69c-82.54,144.85-162.31,455.24-409.04,485.6s-305.12,71.74-372.66,139.5"/>
      <path class="cls-35" d="M920.38,234.26c-84.19,147.75-161.15,458.72-409.32,489.74s-308.47,71.04-376.57,138.84"/>
      <path class="cls-35" d="M927.18,238.84c-85.84,150.64-159.98,462.2-409.6,493.87-249.62,31.67-311.81,70.34-380.48,138.19"/>
      <path class="cls-38" d="M933.99,243.41c-87.49,153.54-158.82,465.67-409.88,498s-315.16,69.64-384.39,137.54"/>
      <path class="cls-25" d="M940.79,247.99c-89.14,156.44-157.66,469.15-410.17,502.13-252.51,32.98-318.5,68.94-388.3,136.89"/>
      <path class="cls-25" d="M947.6,252.56c-90.79,159.34-156.49,472.63-410.45,506.27-253.95,33.64-321.84,68.24-392.22,136.24"/>
      <path class="cls-36" d="M954.4,257.14c-92.45,162.23-155.33,476.11-410.73,510.4-255.4,34.29-325.19,67.54-396.13,135.58"/>
      <path class="cls-36" d="M961.2,261.71c-94.1,165.13-154.17,479.58-411.01,514.53-256.84,34.95-328.53,66.83-400.04,134.93"/>
      <path class="cls-36" d="M968.01,266.29c-95.75,168.03-153,483.06-411.29,518.66-258.29,35.6-331.88,66.13-403.95,134.28"/>
      <path class="cls-13" d="M974.81,270.87c-97.4,170.92-151.84,486.54-411.57,522.79-259.73,36.26-335.22,65.43-407.86,133.63"/>
      <path class="cls-13" d="M981.61,275.44c-99.05,173.82-150.68,490.02-411.85,526.93-261.17,36.91-338.57,64.73-411.77,132.98"/>
      <path class="cls-13" d="M988.42,280.02c-100.7,176.72-149.51,493.5-412.13,531.06-262.62,37.56-341.91,64.03-415.68,132.33"/>
      <path class="cls-24" d="M995.22,284.59c-102.35,179.61-148.35,496.97-412.41,535.19-264.06,38.22-345.25,63.33-419.59,131.67"/>
      <path class="cls-47" d="M1002.02,289.17c-104,182.51-147.19,500.45-412.69,539.32-265.51,38.87-348.6,62.62-423.5,131.02"/>
      <path class="cls-47" d="M1008.83,293.74c-105.65,185.41-146.02,503.93-412.97,543.46-266.95,39.53-351.94,61.92-427.41,130.37"/>
      <path class="cls-41" d="M1015.63,298.32c-107.3,188.31-144.86,507.41-413.26,547.59-268.4,40.18-355.29,61.22-431.33,129.72"/>
      <path class="cls-1" d="M1022.44,302.89c-108.95,191.2-143.7,510.88-413.54,551.72-269.84,40.84-358.63,60.52-435.24,129.07"/>
      <path class="cls-14" d="M1029.24,307.47c-110.6,194.1-142.53,514.36-413.82,555.85-271.28,41.49-361.97,59.82-439.15,128.41"/>
      <path class="cls-14" d="M1036.04,312.04c-112.26,197-141.37,517.84-414.1,559.99s-365.32,59.12-443.06,127.76"/>
      <path class="cls-14" d="M1042.85,316.62c-113.91,199.89-140.21,521.32-414.38,564.12s-368.66,58.41-446.97,127.11"/>
      <path class="cls-44" d="M1049.65,321.19c-115.56,202.79-139.04,524.79-414.66,568.25-275.62,43.46-372.01,57.71-450.88,126.46"/>
      <path class="cls-44" d="M1056.45,325.77c-117.21,205.69-137.88,528.27-414.94,572.38-277.06,44.11-375.35,57.01-454.79,125.81"/>
      <path class="cls-44" d="M1063.26,330.34c-118.86,208.59-136.72,531.75-415.22,576.51-278.5,44.77-378.7,56.31-458.7,125.15"/>
      <path class="cls-27" d="M1070.06,334.92c-120.51,211.48-135.55,535.23-415.5,580.65s-382.04,55.61-462.61,124.5"/>
      <path class="cls-27" d="M1076.86,339.49c-122.16,214.38-134.39,538.7-415.78,584.78-281.39,46.07-385.38,54.91-466.52,123.85"/>
      <path class="cls-27" d="M1083.67,344.07c-123.81,217.28-133.23,542.18-416.06,588.91-282.84,46.73-388.73,54.2-470.43,123.2"/>
      <path class="cls-42" d="M1090.47,348.64c-125.46,220.17-132.06,545.66-416.35,593.04s-392.07,53.5-474.35,122.55"/>
      <path class="cls-42" d="M1097.28,353.22c-127.11,223.07-130.9,549.14-416.63,597.18-285.73,48.04-395.42,52.8-478.26,121.9"/>
      <path class="cls-22" d="M1104.08,357.8c-128.76,225.97-129.74,552.62-416.91,601.31-287.17,48.69-398.76,52.1-482.17,121.24"/>
      <path class="cls-22" d="M1110.88,362.37c-130.41,228.86-128.57,556.09-417.19,605.44-288.61,49.35-402.1,51.4-486.08,120.59"/>
      <path class="cls-43" d="M1117.69,366.95c-132.07,231.76-127.41,559.57-417.47,609.57-290.06,50-405.45,50.7-489.99,119.94"/>
      <path class="cls-46" d="M1124.49,371.52c-133.72,234.66-126.25,563.05-417.75,613.71-291.5,50.66-408.79,49.99-493.9,119.29"/>
      <path class="cls-46" d="M1131.29,376.1c-135.37,237.56-125.08,566.53-418.03,617.84-292.95,51.31-412.14,49.29-497.81,118.64"/>
      <path class="cls-9" d="M1138.1,380.67c-137.02,240.45-123.92,570-418.31,621.97-294.39,51.97-415.48,48.59-501.72,117.98"/>
      <path class="cls-37" d="M1144.9,385.25c-138.67,243.35-122.76,573.48-418.59,626.1s-418.83,47.89-505.63,117.33"/>
      <path class="cls-37" d="M1151.71,389.82c-140.32,246.25-121.59,576.96-418.87,630.23-297.28,53.28-422.17,47.19-509.54,116.68"/>
      <path class="cls-6" d="M1158.51,394.4c-141.97,249.14-120.43,580.44-419.15,634.37-298.72,53.93-425.51,46.49-513.46,116.03"/>
      <path class="cls-6" d="M1165.31,398.97c-143.62,252.04-119.27,583.91-419.44,638.5s-428.86,45.78-517.37,115.38"/>
      <path class="cls-6" d="M1172.12,403.55c-145.27,254.94-118.1,587.39-419.72,642.63-301.61,55.24-432.2,45.08-521.28,114.72"/>
      <path class="cls-16" d="M1178.92,408.12c-146.92,257.83-116.94,590.87-420,646.76-303.06,55.89-435.55,44.38-525.19,114.07"/>
      <path class="cls-28" d="M1185.72,412.7c-148.57,260.73-115.78,594.35-420.28,650.9s-438.89,43.68-529.1,113.42"/>
      <path class="cls-28" d="M1192.53,417.27c-150.22,263.63-114.61,597.82-420.56,655.03-305.94,57.2-442.23,42.98-533.01,112.77"/>
      <path class="cls-30" d="M1199.33,421.85c-151.87,266.53-113.45,601.3-420.84,659.16s-445.58,42.28-536.92,112.12"/>
      <path class="cls-17" d="M1206.13,426.42c-153.53,269.42-112.29,604.78-421.12,663.29-308.83,58.51-448.92,41.57-540.83,111.47"/>
      <path class="cls-17" d="M1212.94,431c-155.18,272.32-111.12,608.26-421.4,667.43-310.28,59.17-452.27,40.87-544.74,110.81"/>
      <path class="cls-23" d="M1219.74,435.57c-156.83,275.22-109.96,611.74-421.68,671.56-311.72,59.82-455.61,40.17-548.65,110.16"/>
      <path class="cls-51" d="M1226.55,440.15c-158.48,278.11-108.8,615.21-421.96,675.69s-458.96,39.47-552.57,109.51"/>
      <path class="cls-33" d="M1233.35,444.73c-160.13,281.01-107.63,618.69-422.25,679.82-314.61,61.13-462.3,38.77-556.48,108.86"/>
      <path class="cls-33" d="M1240.15,449.3c-161.78,283.91-106.47,622.17-422.53,683.95s-465.64,38.07-560.39,108.21"/>
      <path class="cls-33" d="M1246.96,453.88c-163.43,286.8-105.31,625.65-422.81,688.09-317.5,62.44-468.99,37.37-564.3,107.55"/>
      <path class="cls-45" d="M1253.76,458.45c-165.08,289.7-104.14,629.12-423.09,692.22-318.94,63.1-472.33,36.66-568.21,106.9"/>
      <path class="cls-45" d="M1260.56,463.03c-166.73,292.6-102.98,632.6-423.37,696.35s-475.68,35.96-572.12,106.25"/>
    </g>
  </g>
</svg>