<?xml version="1.0" encoding="UTF-8"?>
<svg id="Layer_2" xmlns="http://www.w3.org/2000/svg" viewBox="0 0 16 15.9">
  <defs>
    <style>
      .cls-1 {
        fill: #fff;
      }
    </style>
  </defs>
  <g id="Layer_1-2" data-name="Layer_1">
    <g id="facebook">
      <path class="cls-1" d="M16,7.9C15.95,3.48,12.32-.05,7.9,0,3.48.05-.05,3.68,0,8.1c.05,3.9,2.9,7.19,6.75,7.8v-5.67h-2v-2.33h2v-1.77c-.17-1.55.94-2.95,2.5-3.13.17-.02.34-.02.5-.01.6,0,1.2.06,1.79.16v2h-1c-.64-.08-1.22.37-1.3,1.01-.01.08-.01.17,0,.25v1.51h2.22l-.36,2.33h-1.85v5.6c3.91-.62,6.77-4,6.75-7.95Z"/>
    </g>
  </g>
</svg>