<?xml version="1.0" encoding="UTF-8"?>
<svg id="Layer_2" xmlns="http://www.w3.org/2000/svg" viewBox="0 0 15.97 15.99">
  <defs>
    <style>
      .cls-1 {
        fill: #fff;
      }
    </style>
  </defs>
  <g id="Layer_1-2" data-name="Layer_1">
    <g id="instagram">
      <path class="cls-1" d="M7.99,3.89c-2.26,0-4.1,1.84-4.1,4.1s1.84,4.1,4.1,4.1,4.1-1.84,4.1-4.1c0-2.26-1.82-4.09-4.08-4.1,0,0-.01,0-.02,0ZM7.99,10.66c-1.47,0-2.67-1.2-2.67-2.67s1.2-2.67,2.67-2.67,2.67,1.2,2.67,2.67h0c0,1.47-1.2,2.67-2.67,2.67ZM13.21,3.72c0,.55-.45,1-1,1s-1-.45-1-1,.45-1,1-1,1,.45,1,1ZM15.92,4.71c.03-1.24-.43-2.45-1.29-3.35C13.74.5,12.53.02,11.29.04,9.99-.01,5.99-.01,4.68.04c-1.24-.03-2.45.44-3.35,1.29C.48,2.24.02,3.44.04,4.68-.01,5.99-.01,9.99.04,11.29c-.03,1.24.43,2.45,1.29,3.35.9.85,2.11,1.32,3.35,1.29,1.32.08,5.28.08,6.6,0,1.24.03,2.45-.43,3.35-1.29.86-.9,1.32-2.11,1.29-3.35.06-1.3.06-5.3,0-6.6v.03ZM14.22,12.71c-.27.7-.82,1.25-1.52,1.52-1.55.31-3.14.42-4.72.32-1.58.1-3.16,0-4.71-.32-.7-.27-1.25-.82-1.52-1.52-.42-1.06-.33-3.56-.33-4.72s-.09-3.67.33-4.72c.27-.7.82-1.26,1.52-1.53,1.55-.31,3.13-.42,4.71-.32,1.58-.1,3.17,0,4.72.32.7.27,1.25.82,1.52,1.52.42,1.06.32,3.56.32,4.72s.1,3.67-.32,4.72h0Z"/>
    </g>
  </g>
</svg>