<?xml version="1.0" encoding="UTF-8"?>
<svg id="Layer_2" xmlns="http://www.w3.org/2000/svg" viewBox="0 0 39.82 44.6">
  <defs>
    <style>
      .cls-1 {
        fill: #e8e8e8;
      }
    </style>
  </defs>
  <g id="Layer_1-2" data-name="Layer_1">
    <g>
      <path class="cls-1" d="M37.35,12.06c-1.64-3.26-4.08-5.86-7.3-7.79-3.02-1.8-6.71-2.76-11.1-2.88v10.37c1.64.12,3.08.58,4.31,1.37,1.46.93,2.57,2.24,3.35,3.93.77,1.69,1.16,3.64,1.16,5.87,0,.34,0,.67-.03.99h12.07c.01-.33.02-.66.02-.99,0-3.98-.82-7.6-2.47-10.87Z"/>
      <rect class="cls-1" width="15.51" height="15.51"/>
      <rect class="cls-1" x="23.75" y="29.04" width="15.51" height="15.51"/>
      <path class="cls-1" d="M18.02,34.25h-4.75v-15.29H1.41v25.64h16.62c.7,0,1.39-.02,2.06-.07v-10.46c-.65.12-1.34.18-2.06.18Z"/>
    </g>
  </g>
</svg>