<?xml version="1.0" encoding="UTF-8"?>
<svg id="Layer_2" xmlns="http://www.w3.org/2000/svg" viewBox="0 0 17.42 17.49">
  <defs>
    <style>
      .cls-1 {
        fill: #fff;
      }
    </style>
  </defs>
  <g id="Layer_1-2" data-name="Layer_1">
    <g id="phone">
      <path class="cls-1" d="M15.15,17.49h-.23c-2.59-.28-5.08-1.17-7.27-2.58-2.03-1.3-3.76-3.02-5.06-5.05C1.17,7.66.29,5.17.01,2.57-.05,1.94.14,1.32.55.84.95.36,1.53.05,2.15,0h2.6c1.16,0,2.15.85,2.33,2,.09.71.27,1.42.53,2.09.32.86.11,1.84-.54,2.49l-.61.61c.96,1.52,2.25,2.8,3.77,3.75l.61-.6c.65-.65,1.63-.86,2.49-.54.67.25,1.38.43,2.09.53,1.17.18,2.03,1.2,2,2.38v2.4c0,1.3-1.05,2.35-2.35,2.36l.08.02ZM4.75,1.49h-2.39c-.24.02-.46.13-.61.31-.15.17-.22.39-.2.62.24,2.36,1.03,4.62,2.31,6.62,1.18,1.85,2.74,3.41,4.59,4.59,2,1.29,4.27,2.1,6.63,2.36h0c.25.01.49-.08.67-.25.16-.16.25-.38.25-.61v-2.39c0-.44-.31-.81-.74-.87-.83-.11-1.64-.31-2.42-.6-.31-.12-.67-.04-.91.19l-1,1c-.24.23-.61.28-.9.12-2.13-1.21-3.9-2.97-5.11-5.1-.17-.29-.12-.66.12-.9l1-1c.23-.24.31-.59.19-.9-.29-.78-.49-1.59-.6-2.42-.05-.44-.43-.78-.88-.77Z"/>
    </g>
  </g>
</svg>