<?xml version="1.0" encoding="UTF-8"?>
<svg id="Layer_2" xmlns="http://www.w3.org/2000/svg" viewBox="0 0 15.5 17.5">
  <defs>
    <style>
      .cls-1 {
        fill: #fff;
      }
    </style>
  </defs>
  <g id="Layer_1-2" data-name="Layer_1">
    <g id="save">
      <path class="cls-1" d="M12.75,17.5H2.75c-1.52,0-2.75-1.23-2.75-2.75V2.75C0,1.23,1.23,0,2.75,0h7.5c.2,0,.39.08.53.22l4.5,4.53c.14.14.22.33.22.53v9.47c0,1.52-1.23,2.75-2.75,2.75ZM2.75,1.5c-.69,0-1.25.56-1.25,1.25v12c0,.69.56,1.25,1.25,1.25h10c.69,0,1.25-.56,1.25-1.25V5.56L9.94,1.5H2.75Z"/>
      <path class="cls-1" d="M12.5,16.75h-1.5v-6.25h-6.5v6.25h-1.5v-6.5c0-.69.56-1.25,1.25-1.25h7c.69,0,1.25.56,1.25,1.25v6.5Z"/>
      <path class="cls-1" d="M8.22,5.5h-3.94c-.71,0-1.29-.59-1.28-1.3,0,0,0,0,0,0V.75h1.5v3.25h3.5V.75h1.5v3.45c0,.71-.57,1.29-1.28,1.3,0,0,0,0,0,0Z"/>
    </g>
  </g>
</svg>