<?xml version="1.0" encoding="UTF-8"?>
<svg id="Layer_2" xmlns="http://www.w3.org/2000/svg" viewBox="0 0 49.61 56.97">
  <defs>
    <style>
      .cls-1 {
        fill: #fff;
      }
    </style>
  </defs>
  <g id="Layer_1-2" data-name="Layer_1">
    <g id="Layer_1-2">
      <path class="cls-1" d="M33.35,15.61c-5.14,3.18-10.22,6.33-15.33,9.49.83,2.25.84,4.49,0,6.76,5.1,3.16,10.2,6.32,15.32,9.49.37-.33.72-.66,1.09-.97,2.89-2.35,6.95-2.73,10.24-.97,3.28,1.76,5.22,5.32,4.89,9-.42,4.68-4.21,8.37-8.8,8.55-4.75.19-8.85-3.08-9.68-7.71-.27-1.55-.16-3.07.35-4.55.12-.36.05-.51-.26-.7-4.84-2.99-9.68-5.98-14.51-8.99-.34-.21-.51-.17-.79.1-2.83,2.76-6.91,3.47-10.44,1.84C1.93,35.35-.28,31.76.03,27.89c.3-3.83,2.29-6.61,5.85-8.04,3.62-1.45,6.95-.72,9.85,1.88.4.36.63.42,1.1.12,4.73-2.96,9.47-5.89,14.23-8.81.41-.25.48-.47.33-.92-1.64-5.18,1.49-10.67,6.74-11.88,5.34-1.23,10.58,2.33,11.38,7.74.58,3.92-1.43,7.81-4.97,9.64-3.52,1.82-7.81,1.21-10.68-1.52-.16-.15-.32-.3-.51-.48h0ZM40.29,53.57c3.27,0,5.9-2.65,5.9-5.91s-2.67-5.93-5.96-5.92c-3.25,0-5.89,2.69-5.87,5.95.02,3.28,2.66,5.89,5.93,5.88ZM34.36,9.34c0,3.26,2.65,5.91,5.9,5.91s5.92-2.65,5.93-5.9c0-3.29-2.65-5.94-5.94-5.93-3.27,0-5.89,2.64-5.89,5.92ZM3.41,28.52c.02,3.27,2.65,5.89,5.93,5.89s5.93-2.68,5.91-5.96c-.02-3.25-2.69-5.87-5.96-5.86-3.26.02-5.89,2.67-5.87,5.94h0Z"/>
    </g>
  </g>
</svg>