<?xml version="1.0" encoding="UTF-8"?>
<svg id="Layer_2" xmlns="http://www.w3.org/2000/svg" viewBox="0 0 15.99 16">
  <defs>
    <style>
      .cls-1 {
        fill: #fff;
      }
    </style>
  </defs>
  <g id="Layer_1-2" data-name="Layer_1">
    <g id="whatsapp">
      <path class="cls-1" d="M13.6,2.32C12.12.83,10.1,0,8,0,3.61,0,.06,3.56.07,7.95c0,1.38.36,2.74,1.05,3.94l-1.12,4.11,4.2-1.1c1.16.65,2.46.99,3.79,1h0c4.39,0,7.96-3.54,8-7.93-.01-2.13-.87-4.16-2.39-5.65ZM8,14.53c-1.18,0-2.34-.32-3.36-.92l-.24-.15-2.49.66.66-2.43-.16-.25c-1.92-3.1-.96-7.17,2.13-9.09,2.59-1.61,5.95-1.23,8.12.92,1.26,1.23,1.98,2.9,2,4.66-.03,3.65-3.01,6.6-6.66,6.6ZM11.61,9.59c-.2-.1-1.17-.58-1.35-.64s-.32-.1-.45.1c-.2.27-.41.53-.63.77-.11.14-.23.15-.43,0-1.14-.45-2.09-1.28-2.69-2.35-.21-.35.2-.33.58-1.08.06-.11.06-.24,0-.35,0-.1-.45-1.08-.61-1.47s-.32-.33-.45-.34h-.39c-.2,0-.4.09-.53.25-.45.44-.69,1.06-.66,1.69.06.75.34,1.46.81,2.05.85,1.28,2.02,2.31,3.39,3,.72.42,1.55.59,2.38.5.56-.11,1.04-.45,1.33-.94.13-.29.17-.62.12-.94-.09-.1-.22-.15-.42-.25Z"/>
    </g>
  </g>
</svg>