<?xml version="1.0" encoding="UTF-8"?>
<svg id="Layer_2" xmlns="http://www.w3.org/2000/svg" viewBox="0 0 44.96 44.95">
  <g id="Layer_1-2" data-name="Layer_1">
    <g>
      <path d="M22.52,44.95C10.1,44.96,0,34.89,0,22.49,0,10.08,10.07,0,22.48,0c12.41,0,22.48,10.09,22.48,22.5,0,12.36-10.08,22.44-22.44,22.45ZM2.27,22.41c-.02,11.18,8.94,20.22,20.11,20.27,11.22.05,20.29-8.95,20.32-20.15.03-11.21-8.99-20.27-20.2-20.27-11.17,0-20.21,8.99-20.23,20.15Z"/>
      <path d="M23.58,27.23c0,.99,0,1.99,0,2.98,0,.71-.32,1.19-1.08,1.23-.69.04-1.12-.42-1.13-1.26-.02-1.87-.04-3.75,0-5.62.02-.75-.16-1.02-.96-1-1.93.06-3.86.03-5.79,0-.69,0-1.11-.38-1.11-1.09,0-.7.41-1.06,1.1-1.1.23-.01.47,0,.7,0,1.76,0,3.51-.02,5.27.01.62.01.8-.19.79-.8-.03-1.87-.02-3.75,0-5.62,0-.99.38-1.46,1.12-1.45.73,0,1.09.47,1.09,1.48,0,1.78.04,3.57-.01,5.35-.02.78.16,1.08,1,1.04,1.81-.07,3.63-.03,5.44-.02.98,0,1.45.4,1.43,1.14-.02.71-.47,1.06-1.42,1.07-1.9.01-3.81.02-5.71,0-.58,0-.77.19-.75.76.04.96.01,1.93.01,2.9h0Z"/>
    </g>
  </g>
</svg>