<?xml version="1.0" encoding="UTF-8"?>
<svg id="Layer_2" xmlns="http://www.w3.org/2000/svg" xmlns:xlink="http://www.w3.org/1999/xlink" viewBox="0 0 66.26 66.3">
  <defs>
    <style>
      .cls-1 {
        fill: #3f3f3f;
      }

      .cls-2 {
        fill: url(#linear-gradient-2);
      }

      .cls-3 {
        fill: url(#linear-gradient);
      }
    </style>
    <linearGradient id="linear-gradient" x1="43.14" y1="11.57" x2="66.26" y2="11.57" gradientUnits="userSpaceOnUse">
      <stop offset="0" stop-color="#97cb58"/>
      <stop offset="1" stop-color="#00ab62"/>
    </linearGradient>
    <linearGradient id="linear-gradient-2" x1="9.26" y1="17.74" x2="26.2" y2="17.74" xlink:href="#linear-gradient"/>
  </defs>
  <g id="Layer_1-2" data-name="Layer_1">
    <g id="Layer_1-2">
      <g>
        <path class="cls-1" d="M4.68,45.19c2.21-2.67,4.29-5.2,6.4-7.7,3.57-4.28,9.67-4.29,13.28-.04.93,1.1,1.84,2.23,2.81,3.4.98-1.11,1.93-2.19,2.87-3.28,1.9-2.17,3.8-4.35,5.71-6.52,3.62-4.1,9.66-4.12,13.28-.02,3.89,4.4,7.74,8.84,11.61,13.27.28.32.57.65,1.02,1.15v-1.01c0-5.66,0-11.32,0-16.97,0-.43.04-.88.18-1.27.34-.99,1.43-1.64,2.38-1.49,1.14.17,2,1.07,2.02,2.2.04,1.45.01,2.89.01,4.34v20.16c0,7.73-5.28,13.77-12.95,14.81-.62.09-1.25.09-1.87.09-12.19,0-24.37.02-36.56,0-7.3-.01-13.16-4.78-14.59-11.85-.18-.91-.26-1.86-.26-2.79C0,39.34,0,27.06.01,14.78.02,8.39,3.82,2.91,9.73.89,11.23.38,12.87.07,14.45.06,22.69-.03,30.93.01,39.16.02c1.7,0,2.79,1.38,2.36,2.92-.23.82-.79,1.38-1.62,1.59-.37.09-.76.11-1.15.11-7.97,0-15.94,0-23.91,0-5.2,0-9.23,3.42-10.1,8.52-.09.54-.1,1.1-.1,1.65v29.54c0,.21.02.42.04.82ZM33.09,61.64c6.09,0,12.19.01,18.28,0,5.23-.01,9.36-3.67,10.01-8.84.04-.27-.07-.63-.24-.83-5.26-6.02-10.53-12.03-15.84-18-.49-.55-1.21-1-1.9-1.22-1.77-.56-3.23.08-4.43,1.46-3.31,3.82-6.64,7.62-9.97,11.43-1.3,1.49-2.78,1.48-4.03-.02-1.37-1.65-2.74-3.29-4.1-4.95-1.88-2.27-4.67-2.26-6.54.02-2.96,3.61-5.9,7.24-8.92,10.81-.62.74-.73,1.4-.52,2.28,1.09,4.65,5.03,7.84,9.86,7.86,6.12.02,12.23,0,18.35,0h0Z"/>
        <path class="cls-3" d="M52.39,13.89h-2.31c-1.45,0-2.89,0-4.34,0-1.52-.01-2.59-.98-2.6-2.31-.01-1.35,1.04-2.31,2.57-2.32,1.93,0,3.85,0,5.78,0h.85c.02-.32.04-.57.04-.82,0-2,0-3.99,0-6,0-1.02.44-1.83,1.41-2.24.9-.38,1.75-.24,2.48.43.53.48.74,1.1.74,1.81-.01,2.02.02,4.04-.02,6.07-.01.6.16.77.77.77,2.09-.03,4.19-.03,6.28,0,1.1.02,2.01.83,2.18,1.86.18,1.09-.35,2.13-1.35,2.53-.39.15-.84.21-1.26.22-1.9.02-3.81.01-5.7.01h-.89v.82c0,1.9-.05,3.81.02,5.7.07,1.85-1.21,2.71-2.34,2.71-1.38,0-2.3-1.11-2.31-2.76v-6.48h0Z"/>
        <path class="cls-2" d="M9.26,17.78c-.05-4.66,3.71-8.49,8.38-8.52,4.69-.03,8.52,3.7,8.56,8.34.04,4.69-3.69,8.54-8.31,8.6-4.76.05-8.58-3.67-8.62-8.42h0ZM13.89,17.7c-.01,2.15,1.69,3.87,3.82,3.87,2.1,0,3.83-1.7,3.85-3.78.03-2.14-1.68-3.89-3.8-3.9-2.17-.01-3.87,1.65-3.87,3.81h0Z"/>
      </g>
    </g>
  </g>
</svg>