<?xml version="1.0" encoding="UTF-8"?>
<svg id="Layer_2" xmlns="http://www.w3.org/2000/svg" viewBox="0 0 66.69 48.45">
  <defs>
    <style>
      .cls-1 {
        fill: #2d2e2d;
      }
    </style>
  </defs>
  <g id="Layer_1-2" data-name="Layer_1">
    <g id="Layer_1-2">
      <path class="cls-1" d="M10.61,21.26h52.46c.47,0,.96,0,1.41.11,1.41.36,2.36,1.77,2.2,3.16-.17,1.55-1.33,2.66-2.85,2.75-.31.02-.62.01-.92.01H10.41c.31.33.49.52.68.71,5.02,5.02,10.04,10.04,15.07,15.05.91.91,1.35,1.93.98,3.21-.6,2.09-3.1,2.88-4.8,1.53-.22-.18-.42-.39-.62-.59-6.81-6.81-13.63-13.62-20.44-20.43-1.71-1.71-1.7-3.32.02-5.03C8.18,14.88,15.06,8,21.94,1.12c.91-.91,1.93-1.35,3.21-.99,2.08.59,2.88,3.11,1.52,4.8-.21.26-.45.49-.68.72-4.97,4.97-9.94,9.94-14.92,14.9-.18.18-.44.28-.66.42.07.09.14.19.21.28h0Z"/>
    </g>
  </g>
</svg>