<?xml version="1.0" encoding="UTF-8"?>
<svg id="Layer_2" xmlns="http://www.w3.org/2000/svg" xmlns:xlink="http://www.w3.org/1999/xlink" viewBox="0 0 33.4 34.8">
  <defs>
    <style>
      .cls-1 {
        fill: url(#linear-gradient);
      }
    </style>
    <linearGradient id="linear-gradient" x1="0" y1="17.4" x2="33.4" y2="17.4" gradientUnits="userSpaceOnUse">
      <stop offset="0" stop-color="#97cb58"/>
      <stop offset="1" stop-color="#00ab62"/>
    </linearGradient>
  </defs>
  <g id="Layer_1-2" data-name="Layer_1">
    <path class="cls-1" d="M10.64,23.23h19.19v3.34H9.94c-1.79,0-3.26-1.55-3.26-3.34,0-.54.16-1.17.39-1.55l2.25-4.12L3.34,4.97H0V1.71h5.44l1.55,3.26,1.55,3.34,3.73,7.85.23.47h11.65l4.58-8.31,1.79-3.34,2.87,1.63-6.37,11.57c-.54,1.09-1.63,1.71-2.87,1.71h-12.35l-1.48,2.72-.08.23c0,.23.23.39.39.39ZM13.28,31.54c0,1.79-1.48,3.26-3.34,3.26s-3.26-1.48-3.26-3.26,1.48-3.34,3.26-3.34,3.34,1.48,3.34,3.34ZM16.62,8.31h-4.97v-3.34h4.97V0h3.26v4.97h4.97v3.34h-4.97v4.97h-3.26v-4.97ZM29.83,31.54c0,1.79-1.48,3.26-3.26,3.26s-3.34-1.48-3.34-3.26,1.48-3.34,3.34-3.34,3.26,1.48,3.26,3.34Z"/>
  </g>
</svg>