<?xml version="1.0" encoding="UTF-8"?>
<svg id="Layer_2" xmlns="http://www.w3.org/2000/svg" viewBox="0 0 133.22 133.22">
  <defs>
    <style>
      .cls-1 {
        fill: #231f20;
      }

      .cls-2 {
        fill: #3cb260;
      }

      .cls-3 {
        fill: #fff;
      }
    </style>
  </defs>
  <g id="Layer_1-2" data-name="Layer_1">
    <g>
      <circle class="cls-3" cx="66.61" cy="66.61" r="66.61"/>
      <g>
        <rect class="cls-1" x="33.06" y="31.8" width="31.82" height="31.82" rx="9.25" ry="9.25"/>
        <rect class="cls-1" x="68.34" y="31.8" width="31.82" height="31.82" rx="9.25" ry="9.25"/>
        <rect class="cls-1" x="68.34" y="69.6" width="31.82" height="31.82" rx="9.25" ry="9.25"/>
        <path class="cls-2" d="M55.63,72.69c3.4,0,6.17,2.77,6.17,6.17v13.32c0,3.4-2.77,6.17-6.17,6.17h-13.32c-3.4,0-6.17-2.77-6.17-6.17v-13.32c0-3.4,2.77-6.17,6.17-6.17h13.32M55.63,69.6h-13.32c-5.09,0-9.25,4.16-9.25,9.25v13.32c0,5.09,4.16,9.25,9.25,9.25h13.32c5.09,0,9.25-4.16,9.25-9.25v-13.32c0-5.09-4.16-9.25-9.25-9.25h0Z"/>
      </g>
    </g>
  </g>
</svg>