<?xml version="1.0" encoding="UTF-8"?>
<svg id="Layer_2" xmlns="http://www.w3.org/2000/svg" xmlns:xlink="http://www.w3.org/1999/xlink" viewBox="0 0 22.8 22.79">
  <defs>
    <style>
      .cls-1 {
        fill: url(#linear-gradient-5);
      }

      .cls-2 {
        fill: url(#linear-gradient-4);
      }

      .cls-3 {
        fill: url(#linear-gradient-3);
      }

      .cls-4 {
        fill: url(#linear-gradient-2);
      }

      .cls-5 {
        fill: url(#linear-gradient);
      }
    </style>
    <linearGradient id="linear-gradient" x1="4.87" y1="11.4" x2="17.93" y2="11.4" gradientUnits="userSpaceOnUse">
      <stop offset="0" stop-color="#97cb58"/>
      <stop offset="1" stop-color="#00ab62"/>
    </linearGradient>
    <linearGradient id="linear-gradient-2" x1="0" y1="4.07" x2="8.14" y2="4.07" xlink:href="#linear-gradient"/>
    <linearGradient id="linear-gradient-3" x1="14.66" y1="4.07" x2="22.8" y2="4.07" xlink:href="#linear-gradient"/>
    <linearGradient id="linear-gradient-4" x1="0" y1="18.72" x2="8.14" y2="18.72" xlink:href="#linear-gradient"/>
    <linearGradient id="linear-gradient-5" x1="14.66" y1="18.72" x2="22.8" y2="18.72" xlink:href="#linear-gradient"/>
  </defs>
  <g id="Layer_1-2" data-name="Layer_1">
    <g>
      <path class="cls-5" d="M11.15,17.9c-.95-.06-2.12.13-3.28-.09-1.69-.32-2.95-1.8-2.97-3.51-.02-1.95-.03-3.9,0-5.84.03-1.94,1.65-3.54,3.59-3.57,1.93-.03,3.86-.02,5.8,0,1.97.02,3.59,1.63,3.62,3.59.03,1.93.03,3.86,0,5.79-.02,1.99-1.65,3.59-3.65,3.63-.97.02-1.93,0-3.11,0ZM16.28,11.39c0-.9,0-1.79,0-2.69,0-.03,0-.07,0-.1-.02-1.19-.91-2.08-2.1-2.08-1.85-.01-3.69,0-5.54,0-1.23,0-2.12.89-2.12,2.11-.01,1.85,0,3.69,0,5.54,0,1.22.9,2.1,2.12,2.11,1.83,0,3.66,0,5.49,0,1.26,0,2.14-.88,2.15-2.14,0-.91,0-1.83,0-2.74Z"/>
      <path class="cls-4" d="M0,5.38c.04-.61-.06-1.33.08-2.06C.45,1.41,2.08.03,4.02,0c1.05-.01,2.1,0,3.15,0,.59,0,.96.32.97.81,0,.49-.37.81-.96.82-1.02,0-2.03,0-3.05,0-1.45,0-2.49,1.05-2.5,2.5,0,1.02,0,2.03,0,3.05,0,.59-.33.96-.82.96-.49,0-.8-.38-.81-.97,0-.56,0-1.12,0-1.8Z"/>
      <path class="cls-3" d="M17.38,0c.62.04,1.37-.06,2.11.08,1.88.36,3.27,1.98,3.3,3.9.02,1.07,0,2.13,0,3.2,0,.58-.33.96-.82.96-.49,0-.81-.38-.81-.97,0-1.02,0-2.03,0-3.05-.01-1.45-1.06-2.48-2.51-2.49-1,0-2,0-3,0-.62,0-1.01-.33-1-.83,0-.49.38-.79.98-.8.54,0,1.08,0,1.75,0Z"/>
      <path class="cls-2" d="M5.4,22.78c-.61-.04-1.33.06-2.06-.08C1.4,22.34.02,20.7,0,18.73c0-1.03,0-2.07,0-3.1,0-.6.3-.97.79-.98.5-.01.83.37.84.99,0,1,0,2,0,3,0,1.48,1.05,2.51,2.53,2.52.92,0,1.83,0,2.75,0,.83,0,1.22.26,1.23.8.01.56-.4.83-1.26.83-.46,0-.92,0-1.49,0Z"/>
      <path class="cls-1" d="M22.8,17.38c-.04.6.06,1.33-.07,2.06-.37,1.94-2,3.32-3.97,3.34-1.05.01-2.1,0-3.15,0-.58,0-.96-.34-.95-.83.01-.47.37-.79.93-.79,1.02,0,2.03,0,3.05,0,1.49,0,2.52-1.04,2.53-2.52,0-1,0-2,0-3,0-.62.33-1,.84-.99.48.02.78.39.79.99,0,.54,0,1.08,0,1.75Z"/>
    </g>
  </g>
</svg>