<?xml version="1.0" encoding="UTF-8"?>
<svg id="Layer_2" xmlns="http://www.w3.org/2000/svg" viewBox="0 0 73.33 73.32">
  <defs>
    <style>
      .cls-1 {
        fill: #fff;
      }
    </style>
  </defs>
  <g id="Layer_1-2" data-name="Layer_1">
    <g>
      <path d="M52.5,47.33c1.38,1.38,1.38,3.62,0,5.17-1.55,1.37-3.79,1.37-5.16,0l-10.68-10.68-10.67,10.68c-1.38,1.37-3.61,1.37-5.16,0-1.38-1.55-1.38-3.79,0-5.17l10.67-10.67-10.67-10.67c-1.38-1.38-1.38-3.62,0-5.17,1.55-1.37,3.78-1.37,5.16,0l10.67,10.68,10.68-10.68c1.37-1.37,3.61-1.37,5.16,0,1.38,1.55,1.38,3.79,0,5.17l-10.67,10.67,10.67,10.67Z"/>
      <path class="cls-1" d="M36.66,0C16.35,0,0,16.35,0,36.66s16.35,36.66,36.66,36.66,36.67-16.35,36.67-36.66S56.97,0,36.66,0ZM52.5,47.33c1.38,1.38,1.38,3.62,0,5.17-1.55,1.37-3.79,1.37-5.16,0l-10.68-10.68-10.67,10.68c-1.38,1.37-3.61,1.37-5.16,0-1.38-1.55-1.38-3.79,0-5.17l10.67-10.67-10.67-10.67c-1.38-1.38-1.38-3.62,0-5.17,1.55-1.37,3.78-1.37,5.16,0l10.67,10.68,10.68-10.68c1.37-1.37,3.61-1.37,5.16,0,1.38,1.55,1.38,3.79,0,5.17l-10.67,10.67,10.67,10.67Z"/>
    </g>
  </g>
</svg>