<?xml version="1.0" encoding="UTF-8"?>
<svg id="Layer_2" xmlns="http://www.w3.org/2000/svg" xmlns:xlink="http://www.w3.org/1999/xlink" viewBox="0 0 101.83 101.83">
  <defs>
    <style>
      .cls-1 {
        fill: url(#linear-gradient-2);
      }

      .cls-2 {
        fill: url(#linear-gradient);
      }

      .cls-3 {
        fill: #e9e8e8;
      }

      .cls-4 {
        fill: #263040;
      }

      .cls-5 {
        fill: #444545;
      }
    </style>
    <linearGradient id="linear-gradient" x1="46.27" y1="53.34" x2="49.33" y2="53.34" gradientUnits="userSpaceOnUse">
      <stop offset="0" stop-color="#97cb57"/>
      <stop offset="1" stop-color="#00ab61"/>
    </linearGradient>
    <linearGradient id="linear-gradient-2" x1="52.44" y1="53.25" x2="55.48" y2="53.25" xlink:href="#linear-gradient"/>
  </defs>
  <g id="Layer_1-2" data-name="Layer_1">
    <g>
      <g id="Layer_1-2">
        <g id="Layer_1-2-2" data-name="Layer_1-2">
          <circle class="cls-3" cx="50.92" cy="50.92" r="50.92"/>
        </g>
      </g>
      <g id="Layer_1-3" data-name="Layer_1">
        <g id="Layer_2-2" data-name="Layer_2">
          <g id="Layer_1-2-3" data-name="Layer_1-2">
            <path class="cls-5" d="M63.17,53.63v7.97c.14,3.26-2.39,6.02-5.73,6.16h-12.61c-3.26.14-6.02-2.39-6.16-5.65v-17.47c0-.8.65-1.38,1.45-1.38s1.52.58,1.59,1.38v16.89c-.14,1.59,1.01,3.04,2.68,3.19h12.61c1.59.14,3.04-1.09,3.19-2.68v-16.89c0-.43.14-.94.36-1.3.36-.58,1.09-.72,1.67-.43.65.22,1.09.8,1.01,1.45v8.84l-.07-.07Z"/>
            <path class="cls-4" d="M44.76,38.63v-2.75c0-1.23.51-1.81,1.88-1.81h8.55c1.3,0,1.88.58,1.88,1.88v2.75h6.23c.8,0,1.45.72,1.45,1.52s-.65,1.45-1.45,1.52h-24.79c-.8,0-1.45-.72-1.45-1.52s.65-1.45,1.45-1.45h6.23v-.14ZM53.89,37.18h-6.02v1.45h6.02v-1.45Z"/>
            <path class="cls-2" d="M46.28,53.27v-5.15c-.07-.87.51-1.59,1.38-1.74h.14c.87,0,1.52.65,1.52,1.52v10.65c.07.87-.51,1.59-1.3,1.74h-.22c-.87,0-1.52-.72-1.52-1.59v-5.44Z"/>
            <path class="cls-1" d="M52.44,53.2v-5.15c0-.87.58-1.59,1.38-1.67.87,0,1.59.58,1.67,1.38v10.73c0,.8-.51,1.45-1.23,1.59-.65.14-1.38-.22-1.67-.87-.14-.29-.14-.65-.14-.94,0-1.67,0-3.41,0-5.07Z"/>
          </g>
        </g>
      </g>
    </g>
  </g>
</svg>