<?xml version="1.0" encoding="UTF-8"?>
<svg id="Layer_2" xmlns="http://www.w3.org/2000/svg" xmlns:xlink="http://www.w3.org/1999/xlink" viewBox="0 0 101.83 101.83">
  <defs>
    <style>
      .cls-1 {
        fill: url(#linear-gradient);
      }

      .cls-2 {
        fill: #e9e8e8;
      }
    </style>
    <linearGradient id="linear-gradient" x1="33.17" y1="-266.49" x2="68.74" y2="-266.49" gradientTransform="translate(0 -215.58) scale(1 -1)" gradientUnits="userSpaceOnUse">
      <stop offset="0" stop-color="#97cb57"/>
      <stop offset="1" stop-color="#00ab61"/>
    </linearGradient>
  </defs>
  <g id="Layer_1-2" data-name="Layer_1">
    <g id="Layer_1-2">
      <g>
        <g id="Layer_1-2-2" data-name="Layer_1-2">
          <circle class="cls-2" cx="50.92" cy="50.92" r="50.92"/>
        </g>
        <path class="cls-1" d="M38.84,68.74h-3.1c-1.3.13-2.47-.83-2.58-2.16v-6.84c.08-1.33.68-2.55,1.67-3.43,7.18-7.18,14.28-14.34,21.46-21.46,1.69-2.06,4.74-2.37,6.82-.65.23.21.47.42.65.65,1.2,1.14,2.42,2.34,3.56,3.56,1.87,1.85,1.87,4.87.03,6.71l-.16.16c-7.28,7.39-14.67,14.73-22.06,22.06-.88.88-2.11,1.35-3.36,1.35l-2.91.05h-.03ZM39.88,63.82c1.3.29,2.65-.26,3.43-1.35,3.36-3.43,6.79-6.82,10.17-10.22.96-1.01,2.81-1.95,2.68-3.02s-1.87-2.13-2.84-3.17-.73-.62-1.27,0c-4.5,4.53-9.03,9-13.53,13.58-1.07,1.09-.55,2.58-.42,3.85s1.22.18,1.77.34ZM60.05,45.66c.34-.29.65-.57.94-.88.88-1.01,2.63-1.82,2.55-2.91s-1.69-1.82-2.5-2.81-1.27-.81-2.08,0c-3.04,3.1-3.04,3.49.55,6.19l.55.42Z"/>
      </g>
    </g>
  </g>
</svg>