<?xml version="1.0" encoding="UTF-8"?>
<svg id="Layer_2" xmlns="http://www.w3.org/2000/svg" xmlns:xlink="http://www.w3.org/1999/xlink" viewBox="0 0 127.65 127.69">
  <defs>
    <style>
      .cls-1 {
        fill: #6d6d6d;
      }

      .cls-2 {
        fill: url(#linear-gradient-4);
      }

      .cls-3 {
        fill: url(#linear-gradient-3);
      }

      .cls-4 {
        fill: url(#linear-gradient-2);
      }

      .cls-5 {
        fill: url(#linear-gradient);
      }
    </style>
    <linearGradient id="linear-gradient" x1="48.85" y1="23.57" x2="53.82" y2="23.57" gradientUnits="userSpaceOnUse">
      <stop offset="0" stop-color="#97cb57"/>
      <stop offset="1" stop-color="#00ab61"/>
    </linearGradient>
    <linearGradient id="linear-gradient-2" x1="62.83" y1="49.97" x2="67.79" y2="49.97" xlink:href="#linear-gradient"/>
    <linearGradient id="linear-gradient-3" x1="75.3" y1="49.95" x2="80.18" y2="49.95" xlink:href="#linear-gradient"/>
    <linearGradient id="linear-gradient-4" x1="87.74" y1="50.02" x2="92.65" y2="50.02" xlink:href="#linear-gradient"/>
  </defs>
  <g id="Layer_1-2" data-name="Layer_1">
    <g id="Layer_1-2">
      <g>
        <path class="cls-1" d="M30.49,34.03c-6.33,0-12.39.02-18.45,0-4.82-.02-8.38-2.74-9.07-6.85-.75-4.53,1.37-7.94,6.14-9.71.89-.33,1.19-.81,1.48-1.69,3.62-11,15.96-14.11,24.22-6.11.71.69,1.35,1.04,2.35,1.07,1.67.05,3.39.38,4.68,1.44,1.52,1.24,2.43.95,3.91-.24C60.64-.07,77.35-3.26,95.21,3.46c17.85,6.71,28.44,20.12,31.73,38.89,1.94,11.04-.16,21.6-5.47,31.49-1.34,2.5-.91,4.08,1.51,5.37,3.44,1.83,5.21,5.4,4.41,8.88-.87,3.79-3.82,6.32-7.83,6.39-5.81.11-11.62.06-17.43.02-1.36,0-2.58.27-3.84.81-15.86,6.84-31.3,5.91-46.22-2.75-1.56-.9-2.29-.76-3.47.49-9.83,10.36-19.72,20.64-29.61,30.94-3.14,3.27-6.93,4.52-11.32,3.16-4.05-1.26-6.58-4.09-7.43-8.25-.84-4.09.59-7.47,3.55-10.31,10.2-9.75,20.34-19.56,30.61-29.24,1.51-1.42,1.57-2.3.53-4.07-7.39-12.6-8.91-25.97-4.8-39.98.09-.31.18-.62.37-1.27h0ZM111.51,71.2c1.06.13,1.95-.02,2.51.34,2.51,1.6,3.24-.13,4.06-1.94,7.34-16.37,6.18-32.15-4.6-46.48-10.79-14.34-25.7-20.13-43.42-17.27-20.77,3.36-36.57,21.6-37.14,42.07-.62,21.97,13.57,40.77,34.58,45.7,5.16,1.21,10.39,1.62,16.31.69-1.97-.98-3.39-1.75-4.19-3.13-.68-1.2-1.61-1.37-2.86-1.4-22.34-.6-39.78-19.28-38.84-41.62.24-5.78,1.71-11.28,4.4-16.43.65-1.24,1.61-1.93,3.03-1.51,1.16.35,1.82,1.26,1.71,2.45-.08.79-.47,1.57-.82,2.32-4.25,9.21-4.78,18.64-.82,27.96,5.66,13.31,15.97,20.54,30.39,21.84,1.13.1,2.09.26,2.56-1.44.74-2.7,2.76-4.55,5.49-5.29,1.17-.32,1.53-.88,1.85-1.94,2.71-8.74,11.9-12.82,20.11-8.81,1.64.8,2.09.28,2.74-.99,3.65-7.09,4.78-14.54,3.54-22.43-2.84-18.03-21.09-31.31-39.12-28.46-3.88.61-7.58,1.69-11.08,3.47-1.2.61-2.43.71-3.41-.4-.7-.8-.88-1.73-.31-2.76.49-.89,1.35-1.2,2.15-1.59,25.58-12.71,56.53,5.96,57.26,34.54.2,7.99-1.82,15.4-6.08,22.5h0ZM102.7,89.61h16.18c1.97,0,3.48-.78,3.64-2.91.15-1.96-.99-3.1-2.93-3.32-1.68-.19-2.32-1.13-2.67-2.73-.67-3.08-2.68-4.63-5.72-4.28-2.03.23-3.18-.48-4.35-2.05-2.34-3.14-6.36-4.32-10.02-3.24-3.65,1.07-6.35,4.23-6.65,8.14-.18,2.35-1.14,3.41-3.54,3.48-2.49.07-3.97,1.6-3.84,3.6.13,2.01,1.66,3.28,4.21,3.3,5.23.04,10.45.01,15.68.01h0ZM10.41,122.69c2.47,0,3.92-1,5.23-2.37,5.67-5.94,11.38-11.85,17.06-17.78,1.26-1.32,3.41-2.65,3.46-4.03.05-1.63-2.3-2.8-3.62-4.15-3.24-3.3-3.27-3.29-6.58-.13-6.35,6.08-12.71,12.16-19.04,18.27-1.91,1.85-2.51,4.07-1.46,6.57,1,2.39,2.89,3.52,4.95,3.62ZM21.3,29.04c3.15,0,6.31-.08,9.46.04,1.39.05,2.05-.44,2.62-1.66,1.45-3.08,3.37-5.89,5.48-8.55,1.53-1.93,1.29-2.63-1.13-3.1-.64-.12-1.35-.16-1.97,0-1.64.45-2.61-.28-3.56-1.53-2.7-3.56-6.36-4.83-10.26-3.7-3.92,1.13-6.51,4.17-6.89,8.48-.19,2.19-1.16,3.06-3.3,3.09-2.57.04-3.95,1.36-3.92,3.48.03,2.11,1.49,3.4,4,3.43,3.15.04,6.31,0,9.46,0v.02ZM32.67,87.75c2.25,2.15,4.44,4.18,6.54,6.29.72.73,1.11.6,1.73-.09,1.39-1.54,2.84-3.01,4.3-4.48.58-.59.93-1.01.09-1.77-2.07-1.89-3.93-5.34-6.05-5.48-2.36-.16-4.15,3.49-6.6,5.54h-.01Z"/>
        <path class="cls-5" d="M53.82,23.45c-.17,1.5-.94,2.51-2.47,2.56-1.41.04-2.35-.85-2.48-2.22-.14-1.53.77-2.53,2.27-2.66,1.56-.13,2.35.89,2.67,2.33h.01Z"/>
        <path class="cls-4" d="M67.79,49.91c-.2,1.49-.97,2.51-2.51,2.51s-2.46-.98-2.45-2.5c0-1.4.93-2.32,2.32-2.39,1.55-.08,2.35.91,2.63,2.38h.01Z"/>
        <path class="cls-3" d="M77.81,47.47c1.46.29,2.45,1.09,2.37,2.64-.07,1.39-.99,2.3-2.39,2.31-1.52,0-2.49-.93-2.49-2.45s1.02-2.31,2.52-2.5h-.01Z"/>
        <path class="cls-2" d="M90.24,52.51c-1.59-.33-2.61-1.14-2.49-2.68.11-1.49,1.11-2.42,2.65-2.3,1.37.12,2.27,1.04,2.25,2.46-.02,1.56-1.1,2.24-2.4,2.52h-.01Z"/>
      </g>
    </g>
  </g>
</svg>