<?xml version="1.0" encoding="UTF-8"?>
<svg id="Calque_2" data-name="Calque 2" xmlns="http://www.w3.org/2000/svg" viewBox="0 0 50.67 54.01">
  <g id="Calque_1-2" data-name="Calque 1">
    <path d="m0,39.68c2.41-.55,4.09-.93,5.93-1.35-.48-12.94-.95-25.65-1.41-38.33h45.67c0,8.21-.06,15.72.02,23.22.08,8.23.26,16.45.46,24.68.11,4.39-1.42,6.23-5.94,6.11-8.91-.24-17.99.24-26.66-1.4-7.17-1.36-13.96-5.19-18.06-12.93Zm13.88-2.77c.15,5.25,2.61,9.32,6.25,9.73,5.31.6,10.68.86,16.03.93,1.11.02,2.96-1.2,3.24-2.2,2.13-7.69-.98-12.59-8.54-13.78v-3.74c2.07-.18,3.81-.33,5.78-.5V10.06h-20.56c-.53,5.45-1.14,10.63-1.46,15.82-.06.97.75,2.45,1.6,2.95,2.93,1.74,3.23,4.09,2.34,6.93-1.57.39-3.02.74-4.68,1.15Z"/>
  </g>
</svg>