<?xml version="1.0" encoding="UTF-8"?>
<svg id="Layer_2" xmlns="http://www.w3.org/2000/svg" viewBox="0 0 24.08 30.37">
  <defs>
    <style>
      .cls-1 {
        fill: #383838;
      }
    </style>
  </defs>
  <g id="Layer_1-2" data-name="Layer_1">
    <g>
      <g id="Layer_1-2">
        <g>
          <path class="cls-1" d="M19.39,30.37H4.69c-2.59,0-4.69-2.1-4.69-4.69V4.69C0,2.1,2.1,0,4.69,0h6.04c.42,0,.75.34.75.75v9.18c0,1.47,1.19,2.66,2.66,2.66h9.18c.42,0,.75.34.75.75v12.33c0,2.59-2.1,4.69-4.69,4.69ZM4.69.98C2.65.98.98,2.65.98,4.69v20.99c0,2.04,1.66,3.71,3.71,3.71h14.7c2.04,0,3.71-1.66,3.71-3.71v-12.1h-8.96c-2.01,0-3.64-1.63-3.64-3.64V.98h-5.81Z"/>
          <path class="cls-1" d="M23.27,12.03l-.53-.52s-.06,0-.09,0h-8.52c-.87,0-1.57-.71-1.57-1.57V1.42c0-.17.07-.34.19-.46.26-.26.67-.25.93,0l8.54,8.54h0s.9.9.9.9c.12.12.19.29.19.46,0,.08-.01.15-.04.22v.95ZM13.61,2.37v7.56c0,.29.24.52.52.52h7.56L13.61,2.37Z"/>
        </g>
      </g>
      <rect class="cls-1" x="4.36" y="18.65" width="14.65" height="2.13" rx="1.07" ry="1.07"/>
      <rect class="cls-1" x="4.36" y="23.67" width="14.65" height="2.13" rx="1.07" ry="1.07"/>
    </g>
  </g>
</svg>