<?xml version="1.0" encoding="UTF-8"?>
<svg id="Layer_2" xmlns="http://www.w3.org/2000/svg" viewBox="0 0 56.17 52.43">
  <defs>
    <style>
      .cls-1 {
        fill: #fff;
      }
    </style>
  </defs>
  <g id="Layer_1-2" data-name="Layer_1">
    <g>
      <path class="cls-1" d="M54.75.05c-.44-.11-.91-.05-1.31.16l-2.88,1.44-2.9-1.45c-.53-.26-1.15-.26-1.67,0l-2.94,1.45-2.9-1.45c-.53-.27-1.15-.27-1.68,0l-2.88,1.45-2.86-1.44c-.53-.27-1.15-.27-1.68,0l-2.95,1.46-2.9-1.45c-.53-.26-1.15-.26-1.68,0l-2.91,1.45-2.91-1.45c-.77-.39-1.71-.2-2.27.46-.29.35-.45.79-.44,1.25v28.05h0s22.46,0,22.46,0c2.07,0,3.74,1.68,3.74,3.74v12.17c0,3.62,3.87,6.55,7.49,6.55h1.4c3.36,0,6.09-2.72,6.09-6.09V1.87c0-.86-.59-1.61-1.43-1.82ZM46.81,24.34h-14.92c-1.01,0-1.88-.78-1.93-1.79-.05-1.03.75-1.91,1.79-1.95.03,0,.06,0,.08,0h14.92c1.01,0,1.88.78,1.93,1.79.05,1.03-.75,1.91-1.79,1.95-.03,0-.06,0-.08,0ZM46.81,14.98h-22.41c-1.01,0-1.88-.78-1.93-1.79-.05-1.03.75-1.91,1.79-1.95.03,0,.06,0,.08,0h22.41c1.01,0,1.88.78,1.93,1.79.05,1.03-.75,1.91-1.79,1.95-.03,0-.06,0-.08,0Z"/>
      <path class="cls-1" d="M37.45,45.88v-10.3c0-1.03-.84-1.87-1.87-1.87H3.74c-2.07,0-3.74,1.68-3.74,3.75,0,5.92.68,8.38,1.69,10.25,1.72,3.18,4.84,4.73,9.54,4.73h28.75c.26,0,.47-.21.47-.47,0-.12-.05-.24-.13-.33-1.11-1.11-2.87-2.6-2.87-5.76Z"/>
    </g>
  </g>
</svg>