<?xml version="1.0" encoding="UTF-8"?>
<svg id="Layer_2" xmlns="http://www.w3.org/2000/svg" xmlns:xlink="http://www.w3.org/1999/xlink" viewBox="0 0 37.38 37.37">
  <defs>
    <style>
      .cls-1 {
        fill: url(#linear-gradient-2);
      }

      .cls-2 {
        fill: url(#linear-gradient);
      }
    </style>
    <linearGradient id="linear-gradient" x1="0" y1="18.69" x2="37.38" y2="18.69" gradientUnits="userSpaceOnUse">
      <stop offset="0" stop-color="#97cb58"/>
      <stop offset="1" stop-color="#00ab62"/>
    </linearGradient>
    <linearGradient id="linear-gradient-2" x1="10.9" y1="18.69" x2="26.48" y2="18.69" xlink:href="#linear-gradient"/>
  </defs>
  <g id="Layer_1-2" data-name="Layer_1">
    <g id="Layer_1-2">
      <g>
        <path class="cls-2" d="M3.57,29.02c0-.55.18-1.05.52-1.48.53-.69,1.07-1.38,1.61-2.07.12-.16.13-.27.05-.45-.24-.54-.45-1.1-.7-1.63-.06-.12-.21-.26-.34-.28-.83-.12-1.66-.23-2.49-.32-1.34-.15-2.23-1.11-2.23-2.45v-3.28c0-1.33.85-2.27,2.18-2.43.83-.1,1.66-.21,2.49-.3.22-.02.33-.12.4-.33.2-.54.43-1.08.67-1.61.08-.18.07-.3-.05-.45-.53-.68-1.07-1.36-1.59-2.05-.82-1.07-.74-2.27.21-3.23.77-.78,1.54-1.55,2.32-2.32.94-.93,2.15-1.01,3.2-.21.69.52,1.37,1.05,2.04,1.59.16.13.29.15.48.06.51-.24,1.05-.45,1.58-.66.24-.09.33-.22.35-.47.09-.84.19-1.66.3-2.49.2-1.31,1.14-2.13,2.47-2.13h3.25c1.35,0,2.3.85,2.46,2.19.1.83.21,1.66.3,2.49.02.21.11.31.31.38.54.2,1.09.42,1.61.67.19.09.32.08.48-.05.67-.53,1.34-1.05,2.02-1.57,1.06-.82,2.28-.76,3.23.18.79.78,1.57,1.56,2.35,2.35.91.93.99,2.14.21,3.17-.52.7-1.07,1.39-1.61,2.07-.12.15-.14.27-.05.45.24.54.47,1.09.69,1.64.08.21.19.27.39.3.85.1,1.69.2,2.53.31,1.31.17,2.14,1.11,2.14,2.43v3.25c0,1.34-.79,2.27-2.1,2.46-.83.12-1.66.22-2.49.31-.26.03-.4.11-.49.37-.18.52-.4,1.04-.64,1.54-.1.21-.08.34.06.51.53.67,1.05,1.33,1.57,2.02.82,1.07.74,2.27-.21,3.23-.77.78-1.54,1.55-2.32,2.32-.95.94-2.16,1.01-3.23.19-.68-.51-1.35-1.04-2.02-1.56-.16-.13-.29-.14-.48-.05-.53.25-1.1.45-1.64.7-.12.05-.25.2-.26.32-.12.82-.22,1.63-.31,2.46-.15,1.41-1.08,2.26-2.5,2.27h-3.21c-1.33,0-2.26-.81-2.44-2.12-.11-.83-.22-1.66-.3-2.49-.03-.27-.14-.39-.39-.48-.51-.18-1.02-.39-1.51-.63-.22-.11-.36-.08-.54.06-.66.52-1.31,1.04-1.99,1.54-1.09.83-2.29.75-3.26-.21-.79-.78-1.56-1.56-2.35-2.35-.46-.46-.71-1.01-.71-1.66h-.03ZM29.03,32.32c.21-.13.44-.23.61-.38.77-.75,1.52-1.5,2.27-2.27.43-.43.45-.76.08-1.25-.65-.84-1.29-1.67-1.95-2.5-.26-.33-.28-.66-.11-1.05.37-.83.74-1.66,1.05-2.51.17-.48.45-.71.95-.76,1.03-.11,2.05-.24,3.08-.38.57-.08.81-.36.81-.93v-3.18c0-.6-.23-.88-.83-.95-1.04-.14-2.07-.27-3.11-.39-.44-.05-.72-.26-.88-.7-.31-.85-.67-1.7-1.04-2.52-.2-.43-.18-.77.11-1.14.66-.82,1.29-1.64,1.93-2.47.36-.47.34-.8-.07-1.22-.74-.75-1.47-1.48-2.22-2.22-.48-.48-.79-.5-1.33-.08-.82.64-1.63,1.26-2.44,1.91-.34.27-.68.29-1.08.11-.83-.37-1.66-.74-2.51-1.05-.46-.17-.69-.44-.74-.92-.11-1.03-.24-2.05-.38-3.08-.08-.59-.36-.83-.95-.83h-3.14c-.63,0-.9.23-.98.85-.13,1.02-.27,2.05-.38,3.08-.05.46-.26.74-.72.9-.85.31-1.7.67-2.52,1.04-.41.19-.75.18-1.11-.11-.81-.65-1.62-1.27-2.44-1.91-.53-.41-.84-.39-1.3.07-.74.73-1.46,1.46-2.19,2.19-.46.47-.49.79-.09,1.3.63.81,1.24,1.62,1.89,2.41.3.37.33.73.12,1.17-.37.8-.72,1.61-1.02,2.45-.17.48-.44.71-.94.76-1.02.11-2.03.24-3.04.37-.62.08-.85.35-.85.97v3.1c0,.66.24.92.9,1,1.03.13,2.05.26,3.08.38.43.05.69.27.84.69.31.85.66,1.7,1.04,2.52.2.43.18.77-.11,1.14-.66.82-1.29,1.64-1.93,2.47-.36.47-.34.8.07,1.22.74.74,1.47,1.48,2.22,2.22.48.48.79.5,1.33.09.83-.64,1.65-1.28,2.47-1.93.32-.25.64-.27,1.02-.1.85.38,1.72.75,2.58,1.08.43.16.65.42.7.87.12,1.03.25,2.05.38,3.08.08.63.35.87,1,.87h3.07c.67,0,.94-.23,1.02-.88.13-1.03.26-2.05.38-3.08.05-.45.27-.7.71-.86.84-.31,1.67-.65,2.48-1.03.44-.21.79-.19,1.17.12.81.65,1.62,1.27,2.45,1.9.17.13.37.21.61.33v.02Z"/>
        <path class="cls-1" d="M18.7,26.48c-4.27,0-7.78-3.48-7.8-7.76-.02-4.28,3.49-7.81,7.78-7.82,4.28,0,7.81,3.51,7.8,7.8,0,4.28-3.5,7.77-7.78,7.78ZM18.67,24.9c3.44.01,6.23-2.75,6.24-6.2.01-3.44-2.74-6.23-6.19-6.25-3.45-.02-6.25,2.75-6.26,6.21,0,3.44,2.76,6.22,6.2,6.23h.01Z"/>
      </g>
    </g>
  </g>
</svg>