<?xml version="1.0" encoding="UTF-8"?>
<svg id="Layer_2" xmlns="http://www.w3.org/2000/svg" xmlns:xlink="http://www.w3.org/1999/xlink" viewBox="0 0 44.85 44.84">
  <defs>
    <style>
      .cls-1 {
        fill: url(#linear-gradient-2);
      }

      .cls-2 {
        fill: url(#linear-gradient);
      }
    </style>
    <linearGradient id="linear-gradient" x1="0" y1="22.42" x2="24.36" y2="22.42" gradientUnits="userSpaceOnUse">
      <stop offset="0" stop-color="#97cb58"/>
      <stop offset="1" stop-color="#00ab62"/>
    </linearGradient>
    <linearGradient id="linear-gradient-2" x1="15.39" y1="22.43" x2="44.85" y2="22.43" xlink:href="#linear-gradient"/>
  </defs>
  <g id="Layer_1-2" data-name="Layer_1">
    <g>
      <path class="cls-2" d="M21.43.06c.46,0,.93-.06,1.37.01.96.16,1.61,1.03,1.55,1.99-.06.95-.82,1.74-1.79,1.78-2.11.07-4.19.3-6.18,1.05-6.67,2.5-10.89,7.22-12.18,14.24-1.77,9.64,3.99,18.66,13.44,21.22,1.58.43,3.27.48,4.91.67.88.1,1.59.69,1.77,1.54.16.78-.22,1.67-.95,2.03-.34.17-.77.26-1.15.26C11.15,44.71,1.88,36.62.24,25.69-1.55,13.67,6.76,2.26,18.75.33c.89-.14,1.78-.22,2.68-.33,0,.02,0,.04,0,.06Z"/>
      <path class="cls-1" d="M38.25,24.35c-.32,0-.53,0-.74,0-6.66,0-13.33,0-19.99,0-1.46,0-2.4-1.11-2.06-2.41.23-.88.97-1.43,1.97-1.43,2.62,0,5.24,0,7.86,0,4.06,0,8.12,0,12.19,0,.22,0,.43,0,.75,0-.17-.2-.28-.33-.4-.45-1.26-1.26-2.52-2.52-3.78-3.78-.9-.9-.97-2.08-.18-2.88.81-.83,1.98-.76,2.92.17,2.44,2.43,4.87,4.87,7.3,7.3,1.01,1.01,1.02,2.09.02,3.09-2.44,2.45-4.9,4.89-7.34,7.35-.55.55-1.17.85-1.94.67-.72-.16-1.22-.62-1.42-1.32-.2-.72-.05-1.39.5-1.93,1.29-1.29,2.58-2.58,3.86-3.86.14-.14.26-.28.48-.51Z"/>
    </g>
  </g>
</svg>