<?xml version="1.0" encoding="UTF-8"?>
<svg id="Layer_2" xmlns="http://www.w3.org/2000/svg" xmlns:xlink="http://www.w3.org/1999/xlink" viewBox="0 0 44.84 44.85">
  <defs>
    <style>
      .cls-1 {
        fill: url(#linear-gradient-2);
      }

      .cls-2 {
        fill: url(#linear-gradient);
      }
    </style>
    <linearGradient id="linear-gradient" x1="0" y1="22.42" x2="24.35" y2="22.42" gradientTransform="translate(0 44.85) rotate(-90)" gradientUnits="userSpaceOnUse">
      <stop offset="0" stop-color="#97cb58"/>
      <stop offset="1" stop-color="#00ab62"/>
    </linearGradient>
    <linearGradient id="linear-gradient-2" x1="15.38" y1="22.43" x2="44.85" y2="22.43" gradientTransform="translate(44.87 -15.38) rotate(90)" xlink:href="#linear-gradient"/>
  </defs>
  <g id="Layer_1-2" data-name="Layer_1">
    <g>
      <path class="cls-2" d="M.06,23.42c0-.46-.06-.93.01-1.37.16-.96,1.03-1.61,1.99-1.55.95.06,1.74.82,1.78,1.79.07,2.11.3,4.19,1.05,6.18,2.5,6.67,7.22,10.89,14.24,12.18,9.64,1.77,18.66-3.99,21.22-13.44.43-1.58.48-3.27.67-4.91.1-.88.69-1.59,1.54-1.77.78-.16,1.67.22,2.03.95.17.34.26.77.26,1.15-.13,11.07-8.22,20.34-19.15,21.97C13.67,46.4,2.26,38.08.33,26.1c-.14-.89-.22-1.78-.33-2.68.02,0,.04,0,.06,0Z"/>
      <path class="cls-1" d="M20.51,22.86c0-.32,0-.53,0-.74,0-6.66,0-13.33,0-19.99,0-1.46,1.11-2.4,2.41-2.06.88.23,1.43.97,1.43,1.97,0,2.62,0,5.24,0,7.86,0,4.06,0,8.12,0,12.19,0,.22,0,.43,0,.75.2-.17.33-.28.45-.4,1.26-1.26,2.52-2.52,3.78-3.78.9-.9,2.08-.97,2.88-.18.83.81.76,1.98-.17,2.92-2.43,2.44-4.87,4.87-7.3,7.3-1.01,1.01-2.09,1.02-3.09.02-2.45-2.44-4.89-4.9-7.35-7.34-.55-.55-.85-1.17-.67-1.94.16-.72.62-1.22,1.32-1.42.72-.2,1.39-.05,1.93.5,1.29,1.29,2.58,2.58,3.86,3.86.14.14.28.26.51.48Z"/>
    </g>
  </g>
</svg>