<?xml version="1.0" encoding="UTF-8"?>
<svg id="Layer_2" xmlns="http://www.w3.org/2000/svg" viewBox="0 0 17.5 15.5">
  <g id="Layer_1-2" data-name="Layer_1">
    <g id="image">
      <path d="M14.75,0H2.75C1.23,0,0,1.23,0,2.75v10c0,1.52,1.23,2.75,2.75,2.75h12c1.52,0,2.75-1.23,2.75-2.75V2.75c0-1.52-1.23-2.75-2.75-2.75ZM2.75,1.5h12c.69,0,1.25.56,1.25,1.25v8.19l-2.72-2.72c-.14-.15-.35-.23-.56-.22-.21.01-.41.11-.55.27l-1.29,1.55-4.6-4.6c-.14-.15-.33-.23-.53-.22-.21.01-.41.11-.55.27l-3.7,4.41V2.75c0-.69.56-1.25,1.25-1.25ZM1.5,12.75v-.73l4.3-5.16,4.12,4.12-2.52,3H2.75c-.68,0-1.24-.55-1.25-1.23ZM14.75,14h-5.4l3.45-4.14,3.15,3.15c-.11.57-.62.99-1.2.99Z"/>
    </g>
  </g>
</svg>