<?xml version="1.0" encoding="UTF-8"?>
<svg id="Layer_2" xmlns="http://www.w3.org/2000/svg" viewBox="0 0 130.94 93.32">
  <defs>
    <style>
      .cls-1 {
        fill: #fff;
      }
    </style>
  </defs>
  <g id="Layer_1-2" data-name="Layer_1">
    <g id="link">
      <path class="cls-1" d="M29.78,93.32c-7.93.03-15.55-3.1-21.18-8.68-11.9-12.64-11.4-32.5,1.12-44.52l28.13-28.36c6.12-6.31,14.48-9.95,23.27-10.1,7.97.05,15.59,3.29,21.18,8.98,12.06,12.72,11.56,32.8-1.12,44.9l-9.43,9.43c-2.11,2.27-5.66,2.39-7.93.28-2.27-2.11-2.39-5.66-.28-7.93.09-.1.18-.19.28-.28l9.13-9.73c8.17-7.67,8.64-20.49,1.05-28.73-8.28-7.22-20.75-6.73-28.43,1.12l-27.91,28.28c-8.01,7.64-8.51,20.26-1.12,28.51,3.95,3.91,9.44,5.85,14.97,5.31,3.04-.3,5.75,1.92,6.06,4.96,0,.02,0,.03,0,.05.3,3.08-1.94,5.82-5.01,6.14l-2.77.37Z"/>
      <path class="cls-1" d="M69.81,91.45c-7.97-.05-15.59-3.29-21.18-8.98-12.06-12.72-11.56-32.8,1.12-44.9l9.43-9.43c2.11-2.27,5.66-2.39,7.93-.28s2.39,5.66.28,7.93c-.09.1-.18.19-.28.28l-9.13,9.73c-8.17,7.67-8.64,20.49-1.05,28.73,8.28,7.22,20.75,6.73,28.43-1.12l28.21-28.28c7.92-7.72,8.29-20.34.82-28.51-3.95-3.91-9.44-5.85-14.97-5.31-3.04.3-5.75-1.92-6.06-4.96,0-.02,0-.03,0-.05-.3-3.08,1.94-5.82,5.01-6.14,8.82-.91,17.59,2.13,23.94,8.31,11.9,12.64,11.4,32.5-1.12,44.52l-28.13,28.36c-6.12,6.31-14.48,9.95-23.27,10.1Z"/>
    </g>
  </g>
</svg>