<?xml version="1.0" encoding="UTF-8"?>
<svg id="Layer_2" xmlns="http://www.w3.org/2000/svg" xmlns:xlink="http://www.w3.org/1999/xlink" viewBox="0 0 38.13 46.54">
  <defs>
    <style>
      .cls-1 {
        fill: url(#linear-gradient-2);
      }

      .cls-2 {
        fill: #262f40;
      }

      .cls-3 {
        fill: url(#linear-gradient);
      }
    </style>
    <linearGradient id="linear-gradient" x1="12.68" y1="26.46" x2="16.92" y2="26.46" gradientUnits="userSpaceOnUse">
      <stop offset="0" stop-color="#97cb58"/>
      <stop offset="1" stop-color="#00ab62"/>
    </linearGradient>
    <linearGradient id="linear-gradient-2" x1="21.17" y1="26.48" x2="25.4" y2="26.48" xlink:href="#linear-gradient"/>
  </defs>
  <g id="Layer_1-2" data-name="Layer_1">
    <g id="Layer_2-2" data-name="Layer_2">
      <g id="Layer_1-2">
        <path class="cls-2" d="M36,27v11c.19,4.52-3.33,8.34-7.85,8.53-.23,0-.47,0-.71,0H10.68c-4.52.2-8.35-3.3-8.55-7.81-.01-.24-.01-.48,0-.72V15.3c-.01-.23-.01-.47,0-.7.04-1.08.92-1.93,2-1.93,1.11-.06,2.07.76,2.18,1.87.02.33.02.67,0,1v22.34c-.21,2.24,1.44,4.22,3.67,4.43.25.02.51.02.77,0h16.6c2.23.19,4.2-1.47,4.39-3.7.02-.23.02-.45,0-.68V15.32c0-.65.18-1.28.51-1.84.5-.75,1.48-1.03,2.3-.65.87.26,1.45,1.09,1.38,2v7.64l.07,4.53Z"/>
        <path class="cls-2" d="M10.56,6.35v-3.75C10.56.76,11.32,0,13.15,0h11.85c1.83,0,2.57.75,2.58,2.59v3.75h8.55c1.13.03,2.03.98,2,2.11-.02,1.11-.89,2.02-2,2.08-.26.02-.53.02-.79,0H2.79c-.27.02-.53.02-.8,0C.86,10.46-.02,9.51,0,8.38,0,7.28.9,6.38,2,6.38h7.34l1.22-.03ZM23.21,4.28h-8.31v2h8.31v-2Z"/>
        <path class="cls-3" d="M12.69,26.45v-7.14c-.13-1.18.72-2.24,1.9-2.38.06,0,.12-.01.18-.01,1.17-.02,2.12.91,2.14,2.08,0,.08,0,.17-.01.25v14.37c.14,1.16-.68,2.22-1.84,2.36-.09.01-.18.02-.27.02-1.19-.03-2.13-1.02-2.1-2.22,0-.06,0-.12.01-.17-.01-2.41-.01-4.78-.01-7.16Z"/>
        <path class="cls-1" d="M21.18,26.39v-7.13c-.09-1.16.77-2.18,1.94-2.27,1.16-.09,2.18.77,2.27,1.94,0,.1,0,.19,0,.29v14.47c.07,1.07-.65,2.03-1.7,2.25-.94.2-1.89-.28-2.29-1.16-.16-.43-.23-.89-.21-1.35-.03-2.34,0-4.69,0-7.03Z"/>
      </g>
    </g>
  </g>
</svg>