<?xml version="1.0" encoding="UTF-8"?>
<svg id="Layer_2" xmlns="http://www.w3.org/2000/svg" xmlns:xlink="http://www.w3.org/1999/xlink" viewBox="0 0 44.96 44.95">
  <defs>
    <style>
      .cls-1 {
        fill: url(#linear-gradient-2);
      }

      .cls-2 {
        fill: url(#linear-gradient);
      }
    </style>
    <linearGradient id="linear-gradient" x1="0" y1="22.48" x2="44.96" y2="22.48" gradientUnits="userSpaceOnUse">
      <stop offset="0" stop-color="#97cb58"/>
      <stop offset="1" stop-color="#00ab62"/>
    </linearGradient>
    <linearGradient id="linear-gradient-2" x1="11.48" x2="33.48" xlink:href="#linear-gradient"/>
  </defs>
  <g id="Layer_1-2" data-name="Layer_1">
    <g>
      <path class="cls-2" d="M22.52,44.95C10.1,44.96,0,34.89,0,22.49,0,10.08,10.07,0,22.48,0c12.41,0,22.48,10.09,22.48,22.5,0,12.36-10.08,22.44-22.44,22.45ZM2.27,22.41c-.02,11.18,8.94,20.22,20.11,20.27,11.22.05,20.29-8.95,20.32-20.15.03-11.21-8.99-20.27-20.2-20.27-11.17,0-20.21,8.99-20.23,20.15Z"/>
      <path class="cls-1" d="M15,33.5h-1.92c-.81.07-1.52-.52-1.6-1.33,0-.07,0-.15,0-.22v-4.02c.04-.82.41-1.58,1.02-2.13,4.44-4.44,8.84-8.87,13.28-13.28,1.05-1.28,2.94-1.46,4.21-.41.15.12.29.26.41.41.73.71,1.5,1.44,2.2,2.2,1.15,1.14,1.16,3,.02,4.16-.03.03-.06.06-.1.09-4.51,4.57-9.08,9.11-13.65,13.65-.55.54-1.3.84-2.07.84l-1.81.03ZM15.66,30.46c.81.17,1.65-.16,2.13-.84,2.07-2.13,4.2-4.23,6.3-6.32.6-.63,1.73-1.21,1.65-1.86s-1.15-1.31-1.76-1.97-.45-.39-.79,0c-2.78,2.81-5.59,5.56-8.37,8.4-.66.68-.34,1.6-.26,2.39s.76.1,1.1.21ZM28.12,19.23c.2-.17.4-.35.58-.55.55-.63,1.63-1.13,1.57-1.81s-1.05-1.13-1.55-1.73-.79-.5-1.29,0c-1.89,1.92-1.89,2.15.34,3.83l.34.26Z"/>
    </g>
  </g>
</svg>