<?xml version="1.0" encoding="UTF-8"?>
<svg id="Layer_2" xmlns="http://www.w3.org/2000/svg" viewBox="0 0 44.63 44.75">
  <g id="Layer_1-2" data-name="Layer_1">
    <g>
      <path d="M3.96,3.44c-.73,0-1.45,0-2.16,0C.76,3.43,0,2.69,0,1.71,0,.73.77.01,1.82,0c1.02,0,2.04,0,3.06,0,1.09,0,1.6.35,1.98,1.37,2.72,7.26,5.44,14.52,8.17,21.78.54,1.44,1.08,2.87,1.63,4.33.22,0,.41,0,.61,0,6.71,0,13.42,0,20.13.01.49,0,.69-.08.78-.63.88-5.45,1.8-10.9,2.71-16.34,0-.05,0-.11,0-.21h-.64c-8.14,0-16.28,0-24.43,0-.23,0-.47,0-.69-.04-.86-.17-1.46-.98-1.38-1.85.08-.85.78-1.51,1.65-1.55.14,0,.29,0,.43,0,8.91,0,17.82,0,26.73,0,1.61,0,2.28.78,2.02,2.38-1.11,6.7-2.23,13.4-3.34,20.1-.18,1.05-.83,1.57-1.96,1.57-8.97,0-17.93,0-26.9,0-.28,0-.58.01-.85.09-.8.23-1.3.99-1.21,1.8.08.8.75,1.45,1.56,1.53.18.02.36,0,.54,0,4.42,0,8.84,0,13.26,0,1.3,0,2.15,1.18,1.7,2.34-.26.68-.89,1.09-1.69,1.09-1.57,0-3.15,0-4.72,0-.2,0-.39,0-.61,0,.67,2.62.03,4.76-2.28,6.22-1.77,1.12-4.07.94-5.75-.33-1.81-1.38-2.39-3.42-1.68-6.08-1.57-.5-2.75-1.47-3.4-3.02-.43-1.02-.51-2.08-.25-3.15.32-1.33,1.07-2.36,2.21-3.12,1.13-.75,2.39-.89,3.78-.82C9.96,19.44,6.97,11.45,3.96,3.44ZM15.46,37.8c-.94,0-1.7.77-1.71,1.7,0,.96.79,1.74,1.74,1.72.93-.02,1.69-.79,1.68-1.73,0-.93-.79-1.7-1.72-1.7Z"/>
      <path d="M41.23,39.52c0,2.81-2.3,5.13-5.11,5.14-2.88.01-5.2-2.3-5.2-5.16,0-2.82,2.3-5.13,5.11-5.15,2.87-.01,5.2,2.3,5.2,5.16ZM37.79,39.5c0-.94-.77-1.7-1.71-1.7-.95,0-1.74.79-1.72,1.75.02.93.8,1.69,1.73,1.68.93,0,1.7-.8,1.69-1.72Z"/>
    </g>
  </g>
</svg>