<?xml version="1.0" encoding="UTF-8"?>
<svg id="Layer_2" xmlns="http://www.w3.org/2000/svg" viewBox="0 0 41.89 41.88">
  <g id="Layer_1-2" data-name="Layer_1">
    <g>
      <path d="M0,20.94C0,9.36,9.38,0,20.96,0c11.56,0,20.92,9.38,20.93,20.94,0,11.58-9.39,20.96-20.96,20.94C9.36,41.87,0,32.5,0,20.94ZM38.95,20.93c-.01-9.94-8.06-17.99-18-18-9.95,0-18.03,8.08-18.02,18.02.01,9.94,8.06,17.99,18,18,9.95,0,18.03-8.08,18.02-18.02Z"/>
      <path d="M20.72,10.43c1.12.01,2.19.19,3.21.68,2.47,1.18,3.31,3.72,2.02,6.13-.57,1.07-1.4,1.91-2.33,2.66-.24.2-.49.4-.72.61-.62.57-.94,1.29-.97,2.14-.01.27,0,.55-.02.82-.02.53-.24.83-.74,1-.09.03-.18.06-.28.07-1.53.27-2.09-.18-2.12-1.72-.04-1.8.58-3.3,2.03-4.42.48-.37.96-.76,1.41-1.18.5-.47.84-1.04.84-1.76,0-.71-.31-1.23-.93-1.56-1.41-.75-3.14-.34-4.05.97-.66.94-1.55,1.1-2.34.38-.54-.49-.59-1.12-.39-1.77.39-1.27,1.33-2.02,2.5-2.53.91-.4,1.88-.53,2.87-.53Z"/>
      <path d="M22.44,28.62c0,1.15-.94,2.12-2.09,2.13-1.14.02-2.1-.94-2.11-2.1,0-1.18.91-2.14,2.06-2.14,1.18,0,2.14.94,2.14,2.11Z"/>
    </g>
  </g>
</svg>