<?xml version="1.0" encoding="UTF-8"?>
<svg id="Layer_2" xmlns="http://www.w3.org/2000/svg" viewBox="0 0 41.52 42.9">
  <g id="Layer_1-2" data-name="Layer_1">
    <g>
      <path d="M13.85,32.21c-1.6,0-3.21.12-4.8-.02-4.32-.39-8.11-3.97-8.86-8.25-.11-.63-.17-1.27-.19-1.91-.03-.78.31-1.25,1.04-1.55,2.12-.86,4.34-1.33,6.6-1.63,3.59-.47,7.19-.52,10.79-.18,2.8.26,5.55.74,8.17,1.8.76.31,1.08.77,1.08,1.58.02,5.09-4.02,9.66-9.08,10.14-1.57.15-3.17.02-4.75.02,0,0,0,0,0,0ZM24.55,22.91c-7.18-1.86-14.27-1.87-21.39,0,.01.19.01.27.03.35.62,3.4,3.62,5.93,7.09,5.96,2.32.02,4.65,0,6.97,0,1.14,0,2.23-.22,3.25-.73,2.25-1.14,3.58-2.97,4.06-5.58Z"/>
      <path d="M21.53,7.72c-.01,4.24-3.47,7.68-7.73,7.66-4.24-.01-7.67-3.48-7.65-7.74C6.16,3.4,9.63-.02,13.9,0c4.22.02,7.64,3.48,7.63,7.72ZM18.45,7.68c0-2.54-2.09-4.6-4.63-4.59-2.54,0-4.6,2.09-4.59,4.63,0,2.54,2.09,4.6,4.63,4.59,2.54,0,4.6-2.09,4.59-4.63Z"/>
      <path d="M24.23,4.61c-.46-.98-.9-1.92-1.34-2.88,2.34-2.12,6.92-2.63,10.12.42,3.01,2.87,3.16,7.64.33,10.75-2.72,2.98-7.53,3.33-10.46.77.44-.95.89-1.9,1.35-2.88,1.21,1.22,2.69,1.78,4.44,1.4,1.09-.23,1.98-.81,2.66-1.69,1.4-1.82,1.25-4.38-.36-6.02-.93-.95-2.08-1.42-3.41-1.39-1.33.03-2.43.58-3.33,1.52Z"/>
      <path d="M38.33,22.97c-2.45-.81-4.99-1.14-7.61-1.34,0-.55.08-1.1-.02-1.62-.1-.5-.38-.96-.59-1.46-.05.02,0-.02.05-.02,3.5.16,6.95.63,10.24,1.92.83.33,1.12.77,1.12,1.65-.02,5.09-4.03,9.64-9.08,10.08-2.19.19-4.41.03-6.64.03.19-.21.41-.42.6-.66.53-.66,1.07-1.32,1.56-2.01.18-.26.37-.33.67-.33,1.23-.01,2.47.04,3.69-.11,2.95-.35,5.53-2.92,6.01-5.88.01-.08,0-.16,0-.26Z"/>
      <path d="M16.14,40.02v2.86c-1.48-1.49-2.97-2.99-4.41-4.44,1.41-1.41,2.91-2.91,4.39-4.39v2.84h9.23v-2.92c1.52,1.52,3.02,3.02,4.5,4.48-1.46,1.46-2.97,2.95-4.47,4.44v-2.87h-9.25Z"/>
    </g>
  </g>
</svg>