<?xml version="1.0" encoding="UTF-8"?>
<svg id="Layer_2" xmlns="http://www.w3.org/2000/svg" viewBox="0 0 63.19 58.98">
  <g id="Layer_1-2" data-name="Layer_1">
    <g>
      <path d="M12.64,46.33c-2.17,0-4.28.02-6.38,0-2.71-.03-5.09-1.75-5.92-4.32-.21-.66-.33-1.37-.33-2.06C0,28.76,0,17.58,0,6.39.01,2.78,2.78.01,6.39,0c16.8-.01,33.61-.01,50.41,0,3.61,0,6.37,2.77,6.38,6.39.01,11.19.02,22.37,0,33.56,0,3.64-2.79,6.37-6.46,6.38-8.25.01-16.5,0-24.74,0-.49,0-.87.13-1.25.44-4.67,3.75-9.34,7.49-14.02,11.23-.21.16-.41.33-.62.49-.71.53-1.47.67-2.28.26-.8-.4-1.18-1.09-1.18-1.98,0-3.2,0-6.4,0-9.61,0-.24,0-.48,0-.82ZM16.86,52.44c.27-.2.44-.32.6-.45,3.8-3.04,7.61-6.07,11.4-9.13.65-.53,1.33-.75,2.17-.75,8.53.02,17.07.01,25.6,0,1.48,0,2.34-.85,2.34-2.32,0-11.08,0-22.15,0-33.23,0-1.51-.86-2.35-2.38-2.35-16.67,0-33.34,0-50.02,0-1.51,0-2.36.85-2.36,2.37,0,11.06,0,22.11,0,33.17,0,1.53.83,2.36,2.36,2.37,2.61,0,5.22,0,7.83,0,1.65,0,2.45.81,2.45,2.47,0,2.37,0,4.74,0,7.11,0,.21,0,.42,0,.74Z"/>
      <path d="M31.57,21.07c-5.55,0-11.09,0-16.64,0-1.63,0-2.69-1.37-2.17-2.8.31-.84.93-1.3,1.82-1.4.17-.02.35,0,.53,0,10.98,0,21.97,0,32.95,0,.28,0,.58,0,.85.06,1.05.24,1.76,1.25,1.63,2.3-.13,1.05-1.01,1.85-2.13,1.85-2.96.01-5.92,0-8.88,0-2.65,0-5.31,0-7.96,0Z"/>
      <path d="M23.17,25.27c2.8,0,5.61,0,8.41,0,1.11,0,1.99.82,2.11,1.87.11,1.04-.56,2-1.59,2.27-.19.05-.39.07-.58.07-5.57,0-11.13,0-16.7,0-1.16,0-2.06-.8-2.17-1.87-.11-1.07.59-2.06,1.65-2.29.25-.06.52-.05.78-.05,2.69,0,5.39,0,8.08,0Z"/>
    </g>
  </g>
</svg>