<?xml version="1.0" encoding="UTF-8"?>
<svg id="Layer_2" xmlns="http://www.w3.org/2000/svg" viewBox="0 0 46.75 42.72">
  <defs>
    <style>
      .cls-1 {
        fill: #f04336;
      }

      .cls-2 {
        fill: #fefefe;
      }

      .cls-3 {
        fill: #29b347;
      }

      .cls-4 {
        fill: #518ef7;
      }

      .cls-5 {
        fill: #fabb01;
      }
    </style>
  </defs>
  <g id="Layer_1-2" data-name="Layer_1">
    <g>
      <path class="cls-2" d="M0,42.63s.05.05.08.08c-.07.02-.1-.01-.08-.08Z"/>
      <path class="cls-2" d="M46.67,42.71s.05-.05.08-.08c.02.07-.01.1-.08.08Z"/>
      <path class="cls-4" d="M29.42,31.18c1.63-1.01,3.01-2.27,4.07-3.89.42-.64.75-1.33,1.08-2.02.16-.34.05-.4-.28-.4-3.36,0-6.71,0-10.07,0q-.53,0-.53-.51c0-2.39,0-4.77,0-7.16,0-.35.06-.48.45-.48,6.31.01,12.62.01,18.93,0,.26,0,.43,0,.48.35.95,6-.42,11.4-4.11,16.22-.9,1.18-1.95,2.21-3.09,3.16-.07.06-.15.1-.23.16-.17-.13-.34-.26-.5-.4-2.07-1.68-4.13-3.37-6.2-5.05Z"/>
      <path class="cls-1" d="M4.91,11.16c.63-1.35,1.46-2.56,2.41-3.69C10.51,3.68,14.53,1.24,19.41.37c6.18-1.11,11.77.31,16.72,4.17.2.15.23.23.01.4-2.06,1.67-4.12,3.35-6.17,5.04-.19.16-.33.19-.56.06-6.69-3.82-14.95-.88-17.7,6.29-.03.09-.08.17-.12.25-.88-.71-1.76-1.43-2.65-2.14-1.35-1.09-2.7-2.19-4.04-3.28Z"/>
      <path class="cls-3" d="M29.42,31.18c2.07,1.68,4.13,3.37,6.2,5.05.17.14.34.27.5.4-1.37,1.17-2.9,2.06-4.54,2.79-3.28,1.45-6.72,2.06-10.28,1.67-7.2-.79-12.59-4.38-16.2-10.64-.02-.03-.03-.08-.04-.11,2.22-1.81,4.44-3.61,6.65-5.42.64,1.56,1.51,2.98,2.69,4.2,3.84,3.95,9.85,4.86,14.69,2.23.11-.06.21-.11.32-.17Z"/>
      <path class="cls-5" d="M11.72,24.91c-2.22,1.81-4.44,3.61-6.65,5.42-1.14-2.03-1.86-4.2-2.21-6.49-.67-4.3-.05-8.42,1.86-12.34.06-.12.13-.23.2-.34,1.35,1.09,2.7,2.19,4.04,3.28.88.71,1.76,1.43,2.65,2.14-.49,1.56-.73,3.14-.63,4.78.07,1.22.35,2.4.75,3.55Z"/>
    </g>
  </g>
</svg>