<?xml version="1.0" encoding="UTF-8"?>
<svg id="Layer_2" xmlns="http://www.w3.org/2000/svg" viewBox="0 0 41.16 49.93">
  <g id="Layer_1-2" data-name="Layer_1">
    <g>
      <path d="M30.28,41.4c-1.59,2.76-3.73,4.89-6.28,6.62-.9.61-1.86,1.13-2.78,1.71-.44.28-.82.26-1.28.01-3.67-2.01-6.84-4.55-9-8.21-.02-.03-.05-.05-.11-.11-1.29.89-2.62.67-3.98.1-1.25-.53-2.54-.99-3.81-1.49-.31-.12-.61-.26-.9-.42-1.81-.98-2.49-2.5-1.97-4.49.14-.53.33-1.06.57-1.55,1.54-3.21,3.09-6.41,4.65-9.6.3-.61.66-1.2,1.02-1.77,1.44-2.27,3.55-3.38,6.21-3.42,2.66-.04,5.31-.02,7.97-.02,2.55,0,5.09.01,7.64,0,3.06,0,5.39,1.29,6.84,3.98,1.25,2.32,2.37,4.7,3.54,7.07.66,1.34,1.33,2.67,1.92,4.04.3.68.52,1.43.6,2.17.19,1.64-.73,3.02-2.49,3.78-1.47.63-2.99,1.16-4.47,1.77-1.31.54-2.59.7-3.9-.18ZM20.58,20.2s0,.01,0,.02c-2.73,0-5.46-.04-8.19.01-1.9.03-3.46.85-4.54,2.44-.44.65-.86,1.33-1.21,2.04-1.54,3.12-3.05,6.26-4.56,9.4-.21.43-.39.88-.51,1.34-.36,1.37,0,2.35,1.25,2.89,1.82.79,3.69,1.49,5.55,2.18.74.27,1.42.02,1.95-.57,1.15-1.25.8-3.18-.75-3.9-1.25-.58-2.54-1.08-3.82-1.61-.43-.18-.68-.45-.51-.94.16-.45.52-.59,1.04-.38,1.3.53,2.6,1.04,3.87,1.62,1.87.86,2.74,2.98,1.98,4.88-.21.52-.14.87.12,1.31,1.7,2.82,4.1,4.9,6.86,6.62,1.44.9,1.44.9,2.9,0,2.82-1.74,5.25-3.87,6.95-6.76.21-.36.26-.65.09-1.07-.77-1.83-.05-3.98,1.69-4.85,1.36-.68,2.8-1.22,4.22-1.8.42-.17.77-.03.94.42.16.42,0,.72-.4.9-.42.18-.85.35-1.28.53-.92.39-1.85.73-2.75,1.17-1.24.6-1.65,1.9-1.07,3.2.53,1.19,1.56,1.57,2.9,1.05,1.43-.55,2.86-1.09,4.27-1.66,2.15-.86,2.6-1.98,1.7-4.13-.12-.29-.26-.57-.39-.85-.83-1.73-1.66-3.45-2.51-5.17-.85-1.72-1.68-3.45-2.59-5.13-1.18-2.17-3.05-3.23-5.53-3.21-2.56.01-5.13,0-7.69,0Z"/>
      <path d="M20.61,0c4.72.02,8.52,3.84,8.49,8.54-.02,4.65-3.87,8.4-8.59,8.37-4.72-.03-8.51-3.86-8.47-8.55C12.08,3.75,15.95-.02,20.61,0ZM20.58,15.47c3.95,0,7.1-3.13,7.09-7.03,0-3.86-3.17-7.01-7.07-7.02-3.91-.01-7.12,3.15-7.12,7.02,0,3.9,3.17,7.03,7.1,7.03Z"/>
      <path d="M19.11,36c1.28-1.28,2.49-2.5,3.69-3.71.43-.43.85-.87,1.3-1.29.75-.7,1.68-.69,2.42.02.33.32.67.64.98.97.7.73.71,1.65,0,2.37-2.41,2.44-4.83,4.88-7.25,7.31-.76.76-1.47.77-2.22.03-1.48-1.45-2.94-2.91-4.39-4.38-.7-.71-.7-1.54-.03-2.27.37-.41.76-.8,1.16-1.18.71-.67,1.56-.67,2.27.02.68.67,1.34,1.37,2.07,2.12ZM19.02,40.59c2.52-2.45,5.03-4.89,7.56-7.36-.51-.43-.99-.82-1.47-1.23-1.75,1.75-3.45,3.45-5.14,5.14-.74.74-.96.74-1.71-.02-.75-.76-1.51-1.52-2.22-2.24-.49.46-.96.89-1.4,1.3,1.51,1.51,2.99,3,4.39,4.4Z"/>
      <path d="M32.66,29.51c0,.7,0,1.4,0,2.1,0,.47-.25.74-.7.75-.46,0-.72-.28-.72-.74-.01-1.11-.02-2.21,0-3.32,0-.35-.1-.52-.44-.64-3.27-1.12-6.54-2.27-9.82-3.39-.24-.08-.55-.08-.79,0-3.26,1.11-6.5,2.26-9.76,3.37-.41.14-.52.33-.51.75.03,1.01.01,2.03,0,3.04,0,.59-.27.91-.73.9-.47,0-.7-.31-.7-.92,0-1.29.01-2.58,0-3.87,0-.53.21-.81.7-.97,3.67-1.27,7.34-2.55,11.01-3.81.24-.08.55-.08.79,0,3.67,1.26,7.34,2.54,11.01,3.81.46.16.69.44.67.94-.02.66,0,1.33,0,1.99h0Z"/>
    </g>
  </g>
</svg>