<?xml version="1.0" encoding="UTF-8"?>
<svg id="Layer_2" xmlns="http://www.w3.org/2000/svg" viewBox="0 0 49.11 31.57">
  <g id="Layer_1-2" data-name="Layer_1">
    <g>
      <path d="M24.5,31.57c-6.3,0-12.6,0-18.9,0C2.23,31.57,0,29.34,0,25.98c0-6.8,0-13.59,0-20.39C0,2.23,2.23,0,5.6,0c12.64,0,25.28,0,37.92,0,3.37,0,5.59,2.23,5.59,5.59,0,6.8,0,13.59,0,20.39,0,3.37-2.23,5.59-5.6,5.59-6.34,0-12.68,0-19.01,0ZM24.58,3.51c-6.34,0-12.68,0-19.01,0-1.38,0-2.06.67-2.06,2.04,0,6.81,0,13.63,0,20.44,0,1.41.66,2.07,2.08,2.07,12.64,0,25.28,0,37.92,0,1.42,0,2.09-.66,2.09-2.07,0-6.79,0-13.59,0-20.38,0-1.45-.65-2.1-2.11-2.1-6.3,0-12.6,0-18.9,0Z"/>
      <path d="M24.62,21.05c2.24,0,4.49,0,6.73,0,1.17,0,1.96.7,1.97,1.73.01,1.05-.79,1.77-1.99,1.78-4.52,0-9.05,0-13.57,0-1.17,0-1.96-.71-1.97-1.74-.01-1.06.79-1.77,1.99-1.77,2.28,0,4.56,0,6.84,0Z"/>
      <path d="M11.47,7.02c.31,0,.62-.02.93,0,.91.06,1.63.83,1.63,1.74,0,.91-.7,1.7-1.61,1.75-.67.04-1.35.04-2.02,0-.91-.05-1.63-.83-1.63-1.73,0-.94.72-1.71,1.66-1.76.34-.02.69,0,1.04,0Z"/>
      <path d="M20.17,10.52c-.33,0-.66.02-.98,0-.94-.06-1.66-.84-1.65-1.77.01-.91.72-1.68,1.64-1.72.65-.03,1.31-.03,1.97,0,.92.04,1.64.81,1.65,1.72.01.93-.71,1.72-1.64,1.78-.33.02-.66,0-.98,0Z"/>
      <path d="M28.93,10.52c-.33,0-.66.02-.98,0-.94-.06-1.65-.86-1.64-1.79.02-.91.73-1.67,1.66-1.71.65-.03,1.31-.03,1.97,0,.91.04,1.63.82,1.64,1.73,0,.91-.69,1.69-1.61,1.76-.34.03-.69,0-1.04,0,0,0,0,0,0,0Z"/>
      <path d="M37.7,10.52c-.33,0-.66.02-.98,0-.94-.06-1.66-.85-1.64-1.78.01-.91.73-1.67,1.65-1.71.65-.03,1.31-.03,1.97,0,.91.04,1.63.82,1.64,1.72.01.93-.71,1.71-1.65,1.77-.33.02-.66,0-.98,0Z"/>
      <path d="M11.38,17.54c-.33,0-.66.02-.98,0-.91-.07-1.62-.84-1.62-1.74,0-.91.7-1.7,1.62-1.75.67-.04,1.35-.04,2.02,0,.91.05,1.62.83,1.62,1.74,0,.91-.7,1.68-1.62,1.75-.34.03-.69,0-1.04,0Z"/>
      <path d="M20.19,17.54c-.33,0-.66.02-.98,0-.94-.05-1.67-.83-1.66-1.76,0-.93.73-1.7,1.69-1.74.64-.02,1.28-.03,1.91,0,.94.04,1.67.83,1.66,1.76,0,.91-.72,1.67-1.63,1.74-.33.02-.66,0-.98,0Z"/>
      <path d="M28.99,14.03c.31,0,.62-.02.93,0,.92.05,1.64.81,1.65,1.72.02.93-.7,1.73-1.64,1.78-.65.03-1.31.03-1.97,0-.94-.04-1.66-.84-1.65-1.77.01-.91.72-1.67,1.64-1.72.34-.02.69,0,1.04,0Z"/>
      <path d="M37.68,17.54c-.31,0-.62.01-.93,0-.94-.05-1.67-.82-1.67-1.75,0-.93.73-1.71,1.68-1.74.64-.03,1.28-.03,1.91,0,.94.04,1.67.82,1.67,1.75,0,.93-.73,1.7-1.68,1.75-.33.02-.66,0-.98,0Z"/>
    </g>
  </g>
</svg>