<?xml version="1.0" encoding="UTF-8"?>
<svg id="Layer_2" xmlns="http://www.w3.org/2000/svg" viewBox="0 0 36.86 36.86">
  <g id="Layer_1-2" data-name="Layer_1">
    <g>
      <path d="M12.32,30.31h-.43c-2.83,0-5.66,0-8.49,0-1.38,0-2.45-.58-3.04-1.84-.21-.45-.33-.99-.34-1.49C0,19.1,0,11.22,0,3.34,0,1.4,1.41.01,3.35,0c3.63-.01,7.27,0,10.9,0,1.9,0,3.17,1.25,3.38,3.26.12,1.08.26,2.16.4,3.28.16,0,.3,0,.44,0,4.98,0,9.95,0,14.93,0,1.41,0,2.5.57,3.11,1.86.21.45.32.99.33,1.49.02,7.87.02,15.73.01,23.6,0,1.94-1.4,3.34-3.33,3.35-5.8,0-11.61,0-17.41,0-1.87,0-3.15-1.26-3.36-3.24-.11-1.04-.25-2.07-.37-3.1,0-.06-.03-.11-.05-.2ZM16.48,34.69c.2,0,.32,0,.43,0,5.48,0,10.96,0,16.45,0,.94,0,1.33-.39,1.33-1.33,0-7.77,0-15.54,0-23.32,0-.94-.39-1.33-1.33-1.33-4.88,0-9.76,0-14.65,0h-.4c.19,1.52.37,2.98.55,4.44.32,2.58.64,5.16.96,7.74.33,2.62.64,5.23.99,7.85.08.61-.09,1.05-.48,1.5-1.28,1.45-2.53,2.92-3.86,4.45ZM18.55,28.14c-.09-.71-.18-1.37-.26-2.03-.44-3.57-.88-7.13-1.32-10.7-.5-4.02-1-8.04-1.5-12.06-.1-.82-.5-1.18-1.33-1.18-3.55,0-7.1,0-10.65,0-.94,0-1.33.39-1.33,1.33,0,7.77,0,15.54,0,23.31,0,.94.39,1.33,1.33,1.33,4.88,0,9.76,0,14.64,0,.13,0,.26,0,.41,0ZM17.39,30.33h-2.87c.12.96.23,1.89.36,2.9.86-1,1.67-1.93,2.5-2.9Z"/>
      <path d="M25.99,16.27c0-.38,0-.71,0-1.05.02-.64.48-1.11,1.08-1.11.6,0,1.06.47,1.08,1.11,0,.33,0,.67,0,1.04.68,0,1.34,0,2,0,.41,0,.82,0,1.22,0,.62.02,1.09.47,1.1,1.06.01.59-.44,1.05-1.05,1.11-.12.01-.31.1-.34.2-.53,1.64-1.37,3.11-2.44,4.45-.01.02-.02.04-.05.1.66.54,1.33,1.09,1.99,1.63.14.11.29.22.42.34.47.41.53,1.05.15,1.51-.37.45-.99.55-1.48.17-.72-.55-1.42-1.14-2.12-1.72-.15-.12-.29-.25-.46-.39-.3.25-.59.5-.88.74-.54.44-1.07.88-1.62,1.31-.54.42-1.18.37-1.57-.12-.4-.5-.3-1.14.24-1.58.77-.63,1.55-1.25,2.33-1.89-.35-.51-.69-.98-1.02-1.46-.62-.93-1.09-1.94-1.43-3.01-.07-.21-.16-.3-.39-.31-.62-.02-1.07-.51-1.05-1.1.01-.59.48-1.04,1.1-1.05,1.05-.01,2.11,0,3.21,0ZM27.07,21.56c.76-.96,1.34-1.98,1.74-3.11h-3.49c.42,1.14.99,2.15,1.75,3.11Z"/>
      <path d="M11.27,16.29h-2.97c-.23,1.12-.44,2.24-.67,3.35-.12.58-.53.94-1.06.95-.51,0-.96-.34-1.07-.84-.03-.16-.03-.34,0-.5.7-3.53,1.41-7.07,2.12-10.6.14-.69.53-1.01,1.23-1.01.62,0,1.25,0,1.87,0,.7,0,1.09.32,1.23,1.01.71,3.53,1.42,7.07,2.12,10.6.13.64-.25,1.21-.85,1.33-.58.11-1.13-.27-1.27-.9-.23-1.08-.44-2.16-.65-3.24,0-.04-.02-.09-.04-.15ZM10.84,14.1c-.29-1.45-.57-2.87-.86-4.28h-.39c-.29,1.43-.57,2.85-.85,4.28h2.1Z"/>
    </g>
  </g>
</svg>