<?xml version="1.0" encoding="UTF-8"?>
<svg id="Layer_2" xmlns="http://www.w3.org/2000/svg" viewBox="0 0 43.21 43.19">
  <g id="Layer_1-2" data-name="Layer_1">
    <g>
      <path d="M38.89,21.82c-.12-5.59-2.05-9.98-5.95-13.47-.75-.67-1.13-1.43-.86-2.42.42-1.56,2.26-2.09,3.52-1.01,2.35,2.01,4.19,4.42,5.51,7.22,5.8,12.28-.93,26.8-14.05,30.33-9.19,2.47-19.18-1.65-24-9.9C-1.85,24.16-.78,13.89,5.77,6.7c.53-.58,1.11-1.13,1.7-1.66.95-.85,2.26-.8,3.08.09.83.9.77,2.27-.19,3.12-2.04,1.81-3.63,3.93-4.68,6.45-4.28,10.36,1.97,21.98,13,23.88,9.45,1.63,18.38-4.74,19.92-14.18.16-.98.22-1.97.28-2.58Z"/>
      <path d="M23.75,10.86c0,2.87,0,5.73,0,8.6,0,1.41-1,2.34-2.35,2.25-.99-.07-1.84-.89-1.94-1.88-.01-.15-.02-.3-.02-.45,0-5.67,0-11.33.01-17,0-.42.09-.88.28-1.26.42-.86,1.42-1.27,2.36-1.05.96.22,1.64,1.05,1.65,2.1.02,2.9,0,5.8,0,8.7h0Z"/>
    </g>
  </g>
</svg>