<?xml version="1.0" encoding="UTF-8"?>
<svg id="Layer_2" xmlns="http://www.w3.org/2000/svg" viewBox="0 0 34.78 34.77">
  <g id="Layer_1-2" data-name="Layer_1">
    <path d="M34.78,17.38c0,9.6-7.76,17.38-17.37,17.4C7.8,34.79,0,26.99,0,17.38,0,7.77,7.79,0,17.39,0c9.6,0,17.38,7.77,17.39,17.38ZM8.15,16.35c.23-2.15.45-4.27.67-6.38-1.28-.48-2.6-.98-3.93-1.49-1.67,2.35-2.61,4.96-2.81,7.87h6.07ZM32.7,16.35c-.21-2.92-1.14-5.53-2.81-7.86-1.35.51-2.66,1.01-3.93,1.49.22,2.12.45,4.24.67,6.38h6.07ZM2.08,18.42c.21,2.92,1.15,5.54,2.81,7.87,1.35-.51,2.67-1.01,3.93-1.48-.22-2.12-.45-4.24-.67-6.38H2.08ZM25.96,24.8c1.29.49,2.6.99,3.93,1.49,1.67-2.35,2.61-4.97,2.8-7.87h-6.07c-.22,2.14-.45,4.26-.67,6.38ZM10.81,10.54c-.2,1.9-.4,3.84-.6,5.8h6.14v-5.11c-1.83-.23-3.63-.45-5.54-.69ZM23.98,10.54c-1.92.24-3.72.47-5.54.69v5.11h6.14c-.2-1.97-.4-3.91-.6-5.81ZM10.28,18.42c.05,2,.25,3.94.6,5.81,1.85-.23,3.66-.46,5.47-.68v-5.12h-6.06ZM23.9,24.23c.34-1.89.55-3.83.59-5.8h-6.06v5.11c1.83.23,3.63.45,5.47.68ZM16.34,9.18V2.01c-1.01.19-1.97.37-2.93.57-.11.02-.23.17-.27.29-.48,1.35-.96,2.7-1.42,4.06-.17.5-.27,1.01-.43,1.62,1.71.22,3.37.43,5.05.64ZM23.44,8.47c0-.07,0-.12-.01-.16-.47-1.89-1.07-3.73-1.82-5.52-.03-.08-.12-.18-.19-.2-.97-.27-1.95-.45-2.98-.49v7.02c1.69-.06,3.34-.27,5.01-.64ZM11.34,26.32c0,.06,0,.11,0,.15.47,1.89,1.07,3.73,1.82,5.52.03.08.12.18.19.2.97.27,1.95.45,2.98.49v-6.99c-.83-.08-3.75.28-5.01.62ZM18.43,32.77c1.02-.19,1.99-.37,2.96-.58.1-.02.21-.16.25-.27.48-1.36.97-2.72,1.43-4.09.16-.49.27-1,.39-1.49-.96-.32-4.24-.73-5.03-.63v7.07ZM10.61,3.63c-1.65.82-3.06,1.86-4.35,3.21,1.05.39,2.05.76,3.04,1.12.44-1.46.87-2.87,1.31-4.33ZM25.48,7.96c1-.37,2-.74,3.04-1.13-1.3-1.34-2.7-2.4-4.34-3.2.44,1.46.86,2.86,1.31,4.33ZM9.3,26.81c-1,.37-1.99.74-3.04,1.13,1.3,1.34,2.7,2.4,4.35,3.2-.44-1.46-.87-2.87-1.31-4.33ZM28.53,27.94c-1.05-.39-2.05-.76-3.04-1.12-.44,1.47-.87,2.87-1.31,4.33,1.65-.81,3.04-1.86,4.35-3.21Z"/>
  </g>
</svg>