<?xml version="1.0" encoding="UTF-8"?>
<svg id="Layer_2" xmlns="http://www.w3.org/2000/svg" viewBox="0 0 33.29 39.7">
  <g id="Layer_1-2" data-name="Layer_1">
    <g>
      <path d="M33.24,12.79c.11,2.59.02,5.17-.32,7.74-.4,2.99-1.16,5.87-2.58,8.56-1.62,3.08-3.93,5.53-6.82,7.44-1.97,1.3-4.1,2.3-6.33,3.06-.31.11-.71.15-1.01.04-3.23-1.1-6.23-2.64-8.82-4.9-3.08-2.69-5.07-6.06-6.18-9.97C.48,22.25.09,19.68.04,17.08c-.07-3.3-.02-6.59-.02-9.89,0-.86.58-1.38,1.5-1.43.99-.05,1.99-.07,2.98-.18,4.01-.43,7.56-1.93,10.56-4.65.17-.16.34-.32.51-.47.69-.63,1.39-.6,2.11,0,.85.72,1.68,1.46,2.59,2.09,2.35,1.64,5,2.58,7.83,2.94,1.15.15,2.32.2,3.48.25,1.14.06,1.65.54,1.65,1.69,0,1.78,0,3.57,0,5.35ZM2.81,8.54c0,.16-.02.3-.02.43-.02,1.67-.05,3.34-.06,5-.01,3.06.16,6.1.87,9.09.85,3.63,2.53,6.78,5.31,9.31,2.2,2.01,4.78,3.38,7.55,4.4.13.05.31.03.43-.03,1.43-.66,2.9-1.25,4.26-2.03,3.03-1.74,5.39-4.15,6.97-7.3,1.53-3.07,2.15-6.36,2.3-9.73.13-2.92.05-5.84.06-8.76,0-.13-.02-.25-.03-.39-.26-.03-.49-.05-.72-.07-1-.12-2.01-.19-3-.36-3.67-.64-6.94-2.15-9.78-4.57-.19-.16-.32-.27-.58-.05-3.22,2.75-6.95,4.31-11.15,4.81-.79.1-1.59.16-2.41.24Z"/>
      <path d="M14.72,21.74c2.2-2.2,4.37-4.39,6.56-6.55.25-.25.61-.45.95-.53.58-.13,1.06.14,1.37.66.29.49.24,1.1-.12,1.56-.1.12-.21.23-.32.34-2.41,2.41-4.83,4.83-7.24,7.24-.87.87-1.56.87-2.43,0-1.19-1.19-2.38-2.38-3.57-3.56-.41-.41-.56-.89-.38-1.45.16-.53.54-.84,1.07-.95.53-.1.96.11,1.32.48.82.83,1.65,1.65,2.47,2.47.09.09.19.18.31.29Z"/>
    </g>
  </g>
</svg>