<?xml version="1.0" encoding="UTF-8"?>
<svg id="Layer_2" xmlns="http://www.w3.org/2000/svg" viewBox="0 0 43.59 43.42">
  <g id="Layer_1-2" data-name="Layer_1">
    <g>
      <path d="M31.34,30.5c-2.35,0-4.7,0-7.05,0-1.06,0-1.4.35-1.4,1.41,0,2.74,0,5.48,0,8.22,0,1.69-1.06,3.12-2.56,3.27-.84.08-1.73-.05-2.58-.21C8.94,41.53,2.02,34.6.37,25.81-1.74,14.56,5.32,3.49,16.38.68c11.66-2.96,23.43,3.99,26.5,15.66.91,3.47.94,6.96.08,10.45-.52,2.12-2.32,3.64-4.52,3.68-2.36.05-4.73.01-7.1.01,0,0,0,0,0,.01ZM30.96,28.32c2.35,0,4.7,0,7.04,0,1.26,0,2.58-.97,2.85-2.08.92-3.88.7-7.71-.74-11.42C36.09,4.47,24.76-.45,14.43,3.62,5.47,7.15.37,17.15,2.76,26.49c2.03,7.94,8.31,13.55,16.5,14.73,1.11.16,1.43-.11,1.43-1.22,0-2.74,0-5.48,0-8.22,0-2.07,1.41-3.45,3.48-3.45,2.26,0,4.53,0,6.79,0Z"/>
      <path d="M18.52,11.99c0,1.79-1.49,3.27-3.28,3.27-1.79,0-3.26-1.5-3.25-3.3.01-1.77,1.48-3.24,3.26-3.24,1.8,0,3.28,1.47,3.28,3.27ZM15.27,13.07c.61,0,1.1-.52,1.08-1.12-.02-.59-.51-1.06-1.1-1.05-.59,0-1.07.48-1.07,1.07,0,.61.49,1.11,1.1,1.1Z"/>
      <path d="M28.31,15.26c-1.79,0-3.26-1.5-3.25-3.3.01-1.79,1.52-3.25,3.31-3.23,1.77.02,3.22,1.5,3.22,3.28,0,1.79-1.49,3.27-3.29,3.26ZM28.35,13.07c.61-.02,1.09-.53,1.06-1.14-.03-.59-.52-1.05-1.11-1.04-.59.02-1.06.49-1.06,1.08,0,.61.5,1.1,1.11,1.09Z"/>
      <path d="M9.8,23.96c-1.81,0-3.26-1.48-3.25-3.3.02-1.78,1.5-3.25,3.27-3.24,1.77.01,3.25,1.49,3.26,3.26.01,1.79-1.48,3.28-3.29,3.27ZM10.88,20.68c-.01-.61-.46-1.05-1.07-1.05-.62,0-1.1.48-1.08,1.1.01.59.49,1.06,1.08,1.06.62,0,1.08-.48,1.07-1.11Z"/>
      <path d="M37.03,20.7c0,1.82-1.47,3.27-3.29,3.25-1.78-.01-3.25-1.49-3.25-3.26,0-1.79,1.53-3.29,3.3-3.27,1.79.02,3.23,1.49,3.23,3.28ZM32.7,20.69c0,.63.47,1.1,1.09,1.09.59,0,1.06-.49,1.07-1.08,0-.62-.47-1.09-1.1-1.08-.61,0-1.05.45-1.06,1.06Z"/>
    </g>
  </g>
</svg>