<?xml version="1.0" encoding="UTF-8"?>
<svg id="Layer_2" xmlns="http://www.w3.org/2000/svg" viewBox="0 0 41.42 41.42">
  <g id="Layer_1-2" data-name="Layer_1">
    <g>
      <path d="M28.85,35.02c-1.22.48-2.33.93-3.46,1.35-.26.1-.32.24-.31.49.01,1.06,0,2.11,0,3.17,0,1-.4,1.4-1.38,1.41-1.99,0-3.98,0-5.97,0-.96,0-1.37-.41-1.38-1.36,0-1.07,0-2.14,0-3.22,0-.25-.05-.39-.32-.49-1.13-.42-2.25-.86-3.46-1.34-.66.66-1.4,1.4-2.14,2.15-.17.17-.33.34-.51.5-.49.42-1.06.44-1.52,0-1.55-1.53-3.09-3.07-4.62-4.62-.49-.5-.45-1.09.07-1.63.76-.78,1.53-1.55,2.31-2.31.24-.24.29-.4.14-.73-.44-.95-.84-1.93-1.21-2.91-.11-.28-.23-.39-.54-.39-1.07.02-2.14.01-3.22,0-.9,0-1.32-.42-1.33-1.31,0-2.04,0-4.08,0-6.13,0-.89.43-1.3,1.33-1.3,1.07,0,2.14-.01,3.22,0,.31,0,.42-.11.53-.39.38-.98.78-1.95,1.21-2.91.13-.29.14-.46-.1-.7-.77-.74-1.53-1.51-2.28-2.27-.64-.65-.64-1.2,0-1.85,1.44-1.45,2.88-2.89,4.33-4.33.63-.62,1.19-.62,1.81,0,.86.85,1.71,1.71,2.51,2.51,1.22-.48,2.39-.92,3.55-1.4.11-.05.21-.28.21-.43.02-1.04,0-2.08.01-3.11,0-1.07.38-1.46,1.43-1.46,1.96,0,3.91,0,5.87,0,1.05,0,1.43.39,1.43,1.46,0,1.04,0,2.08,0,3.11,0,.25.05.39.31.48,1.13.42,2.24.87,3.46,1.35.66-.66,1.4-1.4,2.14-2.15.17-.17.33-.34.51-.5.48-.42,1.06-.45,1.52,0,1.55,1.53,3.09,3.07,4.62,4.62.49.5.46,1.1-.06,1.63-.76.78-1.53,1.55-2.31,2.31-.24.23-.29.4-.14.73.44.95.83,1.93,1.21,2.91.11.28.23.4.53.39,1.05-.02,2.11-.01,3.17,0,.97,0,1.38.4,1.38,1.36,0,2.01,0,4.02,0,6.02,0,.95-.42,1.35-1.38,1.36-1.06,0-2.11.01-3.17,0-.31,0-.43.11-.53.39-.38.98-.78,1.95-1.21,2.91-.13.29-.14.46.1.7.77.74,1.53,1.51,2.28,2.27.64.65.64,1.2,0,1.85-1.44,1.45-2.88,2.89-4.33,4.33-.62.62-1.19.62-1.82,0-.86-.85-1.71-1.71-2.51-2.51ZM9.2,35.31c.77-.77,1.54-1.54,2.3-2.31.66-.66,1.02-.7,1.8-.23,1.23.75,2.53,1.31,3.93,1.66,1.15.29,1.32.51,1.32,1.69,0,1.02,0,2.03,0,3.05h4.34c0-1.17,0-2.29,0-3.41,0-.71.3-1.09.97-1.24,1.56-.35,3-.96,4.36-1.8.65-.4,1.06-.35,1.6.18.4.39.8.79,1.19,1.19.41.42.82.84,1.14,1.17,1.07-1.07,2.08-2.08,3.11-3.11-.75-.74-1.55-1.53-2.35-2.32-.54-.54-.6-.96-.21-1.59.84-1.36,1.44-2.81,1.81-4.36.16-.71.54-.99,1.28-1,.95,0,1.91,0,2.86,0,.18,0,.36,0,.54,0v-4.34c-1.12,0-2.21,0-3.29,0-.87,0-1.2-.26-1.4-1.1-.35-1.45-.9-2.81-1.68-4.09-.53-.87-.49-1.18.25-1.92.76-.75,1.52-1.51,2.23-2.21-1.05-1.05-2.06-2.06-3.1-3.1-.74.75-1.52,1.54-2.3,2.32-.62.62-1,.67-1.76.2-1.24-.77-2.57-1.32-3.98-1.68-1.09-.28-1.27-.51-1.27-1.62,0-1.03,0-2.07,0-3.11h-4.34c0,1.17,0,2.29,0,3.41,0,.68-.27,1.07-.87,1.21-1.64.39-3.16,1.02-4.59,1.9-.53.33-.96.24-1.43-.22-.67-.65-1.33-1.31-1.98-1.99-.16-.17-.24-.4-.3-.5-1.16,1.16-2.17,2.17-3.2,3.2.74.73,1.53,1.5,2.31,2.28.58.59.64.98.21,1.68-.82,1.35-1.42,2.78-1.78,4.32-.16.7-.54.99-1.28,1-.95,0-1.91,0-2.86,0-.18,0-.36,0-.53,0v4.34c1.12,0,2.21,0,3.29,0,.87,0,1.19.26,1.4,1.1.35,1.43.89,2.78,1.65,4.04.56.93.52,1.22-.26,2-.74.74-1.49,1.49-2.21,2.21,1.04,1.04,2.03,2.03,3.08,3.08Z"/>
      <path d="M15.27,20.71c0-2.45,0-4.9,0-7.35,0-.52.08-.99.6-1.25.49-.24.91-.07,1.33.22,3.48,2.44,6.96,4.88,10.44,7.32.95.66.95,1.45,0,2.11-3.48,2.44-6.97,4.87-10.44,7.32-.42.29-.84.46-1.33.22-.52-.25-.61-.72-.6-1.24,0-2.45,0-4.9,0-7.35ZM17.49,15.21v11.01c2.64-1.85,5.22-3.66,7.86-5.5-2.64-1.85-5.22-3.65-7.86-5.5Z"/>
    </g>
  </g>
</svg>