<?xml version="1.0" encoding="UTF-8"?>
<svg id="Layer_2" xmlns="http://www.w3.org/2000/svg" viewBox="0 0 134.58 134.58">
  <defs>
    <style>
      .cls-1 {
        fill: #f6921e;
      }

      .cls-2 {
        fill: #fff;
        stroke: #ededed;
        stroke-miterlimit: 10;
        stroke-width: 3px;
      }

      .cls-3 {
        fill: #002d16;
      }

      .cls-4 {
        fill: #006838;
      }
    </style>
  </defs>
  <g id="Layer_1-2" data-name="Layer_1">
    <g>
      <g id="Layer_1-2">
        <circle class="cls-2" cx="67.29" cy="67.29" r="65.79"/>
      </g>
      <g id="Layer_1-2-2" data-name="Layer_1-2">
        <g>
          <path class="cls-4" d="M89.57,54.21c-2.1-4.17-5.21-7.49-9.33-9.95-3.85-2.3-8.58-3.53-14.18-3.68v13.25c2.09.16,3.93.74,5.51,1.74,1.86,1.19,3.29,2.86,4.28,5.02.98,2.15,1.48,4.66,1.48,7.5,0,.43-.01.85-.04,1.27h15.42c.02-.42.02-.84.02-1.27,0-5.08-1.05-9.71-3.15-13.89Z"/>
          <rect class="cls-1" x="41.85" y="38.8" width="19.82" height="19.82"/>
          <rect class="cls-4" x="72.2" y="75.91" width="19.82" height="19.82"/>
          <path class="cls-3" d="M64.88,82.56h-6.06v-19.54h-15.16v32.76h21.23c.9,0,1.78-.03,2.64-.09v-13.36c-.83.16-1.71.23-2.64.23Z"/>
        </g>
      </g>
    </g>
  </g>
</svg>