<?xml version="1.0" encoding="UTF-8"?>
<svg xmlns="http://www.w3.org/2000/svg" version="1.1" viewBox="0 0 59.8 15">
  <!-- Generator: Adobe Illustrator 28.6.0, SVG Export Plug-In . SVG Version: 1.2.0 Build 709)  -->
  <g>
    <g id="Layer_1">
      <g id="Layer_2">
        <g id="Layer_1-2">
          <g id="Layer_1-2-2">
            <g>
              <path d="M23.5,14.9h0c2.7-4.2,5.5-8.3,8.2-12.4h0c.5.7,1.1,1.6,1.6,2.5h-.7q-.2,0-.3.2c-1.4,2.3-2.9,4.5-4.3,6.8h0c0,.1,4,.1,4,.1,0,0,.1,0,.2-.1l1.2-2.1h0c0-.1-1.4-.1-1.4-.1,0-.1.1-.2.2-.4.3-.6.7-1.2,1-1.8h1.8c1.4,2.2,2.7,4.3,4.1,6.5,0,0,.1.2.1.3v.2c0,.2-.2.3-.4.4h-15.3Z"/>
              <path d="M21.1,14.9s-.2-.1-.3-.2c-.2-.2-.2-.4,0-.6.8-1.2,1.6-2.5,2.4-3.7,1.1-1.7,2.1-3.3,3.2-5,1.1-1.7,2.2-3.5,3.3-5.2.2-.3.5-.3.7-.2,0,0,.1.1.2.2.2.3.4.7.6,1v.2c-.9,1.3-1.7,2.6-2.6,3.8-2.2,3.2-4.3,6.5-6.5,9.7h-1Z"/>
            </g>
          </g>
        </g>
      </g>
    </g>
  </g>
</svg>