<?xml version="1.0" encoding="UTF-8"?>
<svg id="Layer_2" xmlns="http://www.w3.org/2000/svg" viewBox="0 0 134.59 134.59">
  <defs>
    <style>
      .cls-1 {
        fill: #f6921e;
      }

      .cls-2 {
        stroke: #ededed;
        stroke-miterlimit: 10;
        stroke-width: 3px;
      }

      .cls-2, .cls-3 {
        fill: #fff;
      }

      .cls-4 {
        fill: #006838;
      }
    </style>
  </defs>
  <g id="Layer_1-2" data-name="Layer_1">
    <g>
      <circle class="cls-2" cx="67.29" cy="67.29" r="65.79"/>
      <rect class="cls-1" x="34.6" y="34.79" width="65.39" height="65.39" rx="11.91" ry="11.91"/>
      <g>
        <path class="cls-4" d="M52.22,46.78h30.14c3.11,0,5.63,2.52,5.63,5.63v30.14c0,3.11-2.52,5.63-5.63,5.63h-30.14c-3.11,0-5.63-2.52-5.63-5.63v-30.14c0-3.11,2.52-5.63,5.63-5.63Z"/>
        <path class="cls-3" d="M82.36,49.78c1.45,0,2.63,1.18,2.63,2.63v30.14c0,1.45-1.18,2.63-2.63,2.63h-30.14c-1.45,0-2.63-1.18-2.63-2.63v-30.14c0-1.45,1.18-2.63,2.63-2.63h30.14M82.36,43.78h-30.14c-4.77,0-8.63,3.86-8.63,8.63v30.14c0,4.77,3.86,8.63,8.63,8.63h30.14c4.77,0,8.63-3.86,8.63-8.63v-30.14c0-4.77-3.86-8.63-8.63-8.63h0Z"/>
      </g>
    </g>
  </g>
</svg>