<?xml version="1.0" encoding="UTF-8"?>
<svg id="Layer_2" xmlns="http://www.w3.org/2000/svg" viewBox="0 0 134.58 134.58">
  <defs>
    <style>
      .cls-1 {
        fill: #f6921e;
      }

      .cls-2 {
        fill: #fff;
        stroke: #ededed;
        stroke-width: 3px;
      }

      .cls-2, .cls-3 {
        stroke-miterlimit: 10;
      }

      .cls-3 {
        fill: none;
        stroke: #4c4c4c;
        stroke-width: 5px;
      }

      .cls-4 {
        fill: #006838;
      }
    </style>
  </defs>
  <g id="Layer_1-2" data-name="Layer_1">
    <g>
      <g id="Layer_1-2">
        <circle class="cls-2" cx="67.29" cy="67.29" r="65.79"/>
      </g>
      <rect class="cls-3" x="29.35" y="34.6" width="68.25" height="68.25" rx="12" ry="12"/>
      <g>
        <path class="cls-1" d="M60.09,74.87v4.28h-14.37v-4.28h5.03v-10.72c-.21.28-.54.57-.99.87-.45.3-.96.57-1.52.83-.57.26-1.13.47-1.7.64-.57.17-1.07.25-1.52.25v-4.42c.42,0,.94-.14,1.54-.41.6-.27,1.2-.6,1.8-.97.6-.38,1.12-.75,1.56-1.11.44-.37.71-.65.83-.87h4.85v15.92h4.49Z"/>
        <path class="cls-4" d="M63.38,65.88v-5.1h3.86v5.1h-3.86ZM63.38,79.16v-5.1h3.86v5.1h-3.86Z"/>
        <path class="cls-1" d="M86.31,74.87v4.28h-14.37v-4.28h5.03v-10.72c-.21.28-.54.57-.99.87-.45.3-.96.57-1.52.83-.57.26-1.13.47-1.7.64-.57.17-1.07.25-1.52.25v-4.42c.42,0,.94-.14,1.54-.41.6-.27,1.2-.6,1.8-.97.6-.38,1.12-.75,1.56-1.11.44-.37.71-.65.83-.87h4.85v15.92h4.49Z"/>
      </g>
    </g>
  </g>
</svg>