<?xml version="1.0" encoding="UTF-8"?>
<svg id="Layer_2" xmlns="http://www.w3.org/2000/svg" viewBox="0 0 134.58 134.58">
  <defs>
    <style>
      .cls-1 {
        fill: #f6921e;
      }

      .cls-2 {
        fill: #fff;
        stroke: #ededed;
        stroke-width: 3px;
      }

      .cls-2, .cls-3 {
        stroke-miterlimit: 10;
      }

      .cls-3 {
        fill: none;
        stroke: #4c4c4c;
        stroke-width: 5px;
      }

      .cls-4 {
        fill: #006838;
      }
    </style>
  </defs>
  <g id="Layer_1-2" data-name="Layer_1">
    <g>
      <g id="Layer_1-2">
        <circle class="cls-2" cx="67.29" cy="67.29" r="65.79"/>
      </g>
      <g>
        <rect class="cls-3" x="34.68" y="33.09" width="68.25" height="68.25" rx="12" ry="12"/>
        <g>
          <path class="cls-1" d="M58.79,72.76v2.65h-8.88v-2.65h3.11v-6.63c-.13.17-.34.35-.61.54-.28.18-.59.35-.94.51-.35.16-.7.29-1.05.39-.35.1-.66.15-.94.15v-2.73c.26,0,.58-.08.95-.25.37-.17.74-.37,1.12-.6s.69-.46.96-.69c.27-.23.44-.4.51-.54h3v9.84h2.78Z"/>
          <path class="cls-1" d="M70.96,72.96c-.5.82-1.18,1.46-2.03,1.95-.85.48-1.82.72-2.9.72-1.17,0-2.18-.28-3.03-.85-.85-.57-1.51-1.38-1.98-2.45s-.7-2.34-.7-3.83c0-1.88.24-3.47.73-4.78.49-1.3,1.18-2.29,2.09-2.95.9-.66,1.97-1,3.19-1,.98,0,1.88.21,2.7.63.82.42,1.52,1.03,2.09,1.82l-1.68,1.84c-.35-.54-.8-.97-1.36-1.28-.55-.31-1.15-.47-1.79-.47s-1.23.18-1.71.53c-.48.35-.85.86-1.12,1.52-.26.66-.41,1.46-.44,2.4.2-.35.47-.65.79-.91.32-.25.69-.45,1.12-.59s.88-.21,1.36-.21c1.04,0,1.96.23,2.78.69.82.46,1.46,1.08,1.94,1.86.47.78.71,1.66.71,2.64s-.25,1.92-.75,2.73ZM67.47,72.75c.44-.27.79-.63,1.05-1.07.26-.44.39-.93.39-1.45s-.13-1-.39-1.43c-.26-.43-.61-.77-1.04-1.03-.43-.25-.91-.38-1.43-.38s-1.01.13-1.44.38c-.44.26-.78.6-1.04,1.03-.25.43-.38.91-.38,1.43s.13,1.01.39,1.45c.26.45.61.8,1.05,1.07s.9.4,1.4.4c.52,0,1.01-.13,1.44-.4Z"/>
          <path class="cls-4" d="M74.1,67.21v-3.15h2.38v3.15h-2.38ZM74.1,75.41v-3.15h2.38v3.15h-2.38Z"/>
          <path class="cls-4" d="M79.44,65.28c.5-.83,1.17-1.5,2.03-1.99s1.82-.74,2.89-.74c1.18,0,2.2.29,3.05.87.85.58,1.51,1.41,1.98,2.5.47,1.08.7,2.39.7,3.93,0,1.93-.24,3.55-.73,4.88-.49,1.33-1.18,2.34-2.09,3.02-.9.69-1.97,1.03-3.19,1.03-.98,0-1.88-.21-2.71-.63-.83-.42-1.53-1.03-2.1-1.82l1.68-1.84c.35.54.8.97,1.37,1.28.56.31,1.16.47,1.8.47s1.22-.18,1.7-.55c.47-.37.85-.9,1.12-1.59s.41-1.5.43-2.44c-.19.34-.45.63-.78.9-.33.26-.7.46-1.12.6-.42.14-.87.21-1.37.21-1.01,0-1.92-.23-2.75-.7-.82-.47-1.47-1.1-1.95-1.9-.47-.8-.71-1.7-.71-2.7s.25-1.96.74-2.8ZM82.94,65.44c-.44.28-.79.65-1.05,1.11-.26.46-.39.96-.39,1.53s.13,1.04.38,1.49.6.8,1.04,1.07c.44.27.92.4,1.44.4s1-.13,1.43-.4c.43-.27.78-.62,1.04-1.07.26-.45.39-.95.39-1.49s-.13-1.05-.39-1.52c-.26-.46-.61-.83-1.05-1.12-.44-.28-.91-.42-1.42-.42s-.98.14-1.42.42Z"/>
        </g>
      </g>
    </g>
  </g>
</svg>