<?xml version="1.0" encoding="UTF-8"?>
<svg id="Layer_2" xmlns="http://www.w3.org/2000/svg" viewBox="0 0 47.42 57.79">
  <defs>
    <style>
      .cls-1 {
        fill: #f6921e;
      }

      .cls-2 {
        fill: #262f40;
      }
    </style>
  </defs>
  <g id="Layer_1-2" data-name="Layer_1">
    <g id="Layer_2-2" data-name="Layer_2">
      <g id="Layer_1-2">
        <path class="cls-2" d="M44.29,33.61v13.64c.21,5.61-4.18,10.33-9.79,10.53-.26,0-.52,0-.78,0H12.81c-5.59.2-10.29-4.16-10.5-9.76,0-.24,0-.48,0-.71v-28.31c-.04-.53.01-1.07.15-1.58.47-1.1,1.62-1.75,2.8-1.58,1.18.13,2.12,1.07,2.25,2.25.03.41.03.81,0,1.22v27.82c-.23,2.76,1.83,5.19,4.59,5.42.29.02.57.02.86,0h20.67c2.77.21,5.18-1.86,5.39-4.63.02-.24.02-.48,0-.73v-28.31c0-1.7.79-2.8,2.1-3.04,1.43-.24,2.78.72,3.02,2.14.04.23.05.46.02.69l.12,14.94Z"/>
        <path class="cls-2" d="M23.16,13.16H2.62c-1.45,0-2.62-1.17-2.62-2.62s1.17-2.62,2.62-2.62h9.13c1.07,0,1.31-.3,1.25-1.31s0-2.47,0-3.68c-.17-1.44.85-2.74,2.29-2.91.25-.03.51-.02.76.02h15.22c1.42-.25,2.78.71,3.02,2.13.04.25.05.5.02.76v3.8c0,1.25,0,1.22,1.13,1.19h8.49c2.28,0,3.53.94,3.5,2.65s-1.25,2.59-3.47,2.59h-20.79ZM23.16,5.27h-4.29c-1.4,0-.91.64-.88,1.25s-.43,1.52.91,1.46h7.85c1.86,0,1.64.46,1.7-1.8,0-.7-.21-.88-.88-.85l-4.41-.06Z"/>
        <path class="cls-1" d="M20.64,32.79v8.86c.25,1.41-.68,2.75-2.09,3-.15.03-.31.04-.47.04-1.58,0-2.65-1.16-2.65-3.04v-17.59c-.2-1.47.82-2.82,2.29-3.02.12-.02.24-.02.36-.03,1.45.01,2.61,1.2,2.59,2.64,0,.13-.01.27-.03.4.03,2.89,0,5.84,0,8.74Z"/>
        <path class="cls-1" d="M25.93,32.79v-8.77c0-1.86,1.07-3.04,2.68-3.04,1.48.05,2.63,1.29,2.58,2.77,0,.09-.01.18-.02.27v17.71c.22,1.45-.77,2.8-2.22,3.02s-2.8-.77-3.02-2.22c-.04-.27-.04-.54,0-.8v-8.95Z"/>
      </g>
    </g>
  </g>
</svg>