<?xml version="1.0" encoding="UTF-8"?>
<svg id="Layer_2" xmlns="http://www.w3.org/2000/svg" viewBox="0 0 134.58 134.58">
  <defs>
    <style>
      .cls-1 {
        fill: #f6921e;
      }

      .cls-2 {
        fill: #fff;
        stroke: #ededed;
        stroke-miterlimit: 10;
        stroke-width: 3px;
      }

      .cls-3 {
        fill: #006838;
      }
    </style>
  </defs>
  <g id="Layer_1-2" data-name="Layer_1">
    <g>
      <g id="Layer_1-2">
        <circle class="cls-2" cx="67.29" cy="67.29" r="65.79"/>
      </g>
      <g id="Layer_1-3" data-name="Layer_1">
        <g id="Layer_2-2" data-name="Layer_2">
          <g id="Layer_1-2-2" data-name="Layer_1-2">
            <path class="cls-3" d="M87.83,71.84v13.37c.24,5.47-4.01,10.09-9.6,10.33h-21.15c-5.47.24-10.09-4.01-10.33-9.48v-29.29c0-1.34,1.09-2.31,2.43-2.31s2.55.97,2.67,2.31v28.32c-.24,2.67,1.7,5.1,4.5,5.35h21.15c2.67.24,5.1-1.82,5.35-4.5v-28.32c0-.73.24-1.58.61-2.19.61-.97,1.82-1.22,2.8-.73,1.09.36,1.82,1.34,1.7,2.43v14.83l-.12-.12Z"/>
            <path class="cls-3" d="M56.96,46.68v-4.62c0-2.07.85-3.04,3.16-3.04h14.34c2.19,0,3.16.97,3.16,3.16v4.62h10.45c1.34,0,2.43,1.22,2.43,2.55s-1.09,2.43-2.43,2.55h-41.57c-1.34,0-2.43-1.22-2.43-2.55s1.09-2.43,2.43-2.43h10.45v-.24ZM72.27,44.25h-10.09v2.43h10.09v-2.43Z"/>
            <path class="cls-1" d="M59.51,71.24v-8.63c-.12-1.46.85-2.67,2.31-2.92h.24c1.46,0,2.55,1.09,2.55,2.55v17.87c.12,1.46-.85,2.67-2.19,2.92h-.36c-1.46,0-2.55-1.22-2.55-2.67v-9.12Z"/>
            <path class="cls-1" d="M69.84,71.11v-8.63c0-1.46.97-2.67,2.31-2.8,1.46,0,2.67.97,2.8,2.31v17.99c0,1.34-.85,2.43-2.07,2.67-1.09.24-2.31-.36-2.8-1.46-.24-.49-.24-1.09-.24-1.58,0-2.8,0-5.71,0-8.51Z"/>
          </g>
        </g>
      </g>
    </g>
  </g>
</svg>