<?xml version="1.0" encoding="UTF-8"?>
<svg id="Layer_2" xmlns="http://www.w3.org/2000/svg" viewBox="0 0 78.19 58.86">
  <defs>
    <style>
      .cls-1 {
        fill: #f6921e;
      }

      .cls-2 {
        fill: #262f40;
      }
    </style>
  </defs>
  <g id="Layer_1-2" data-name="Layer_1">
    <g id="Layer_2-2" data-name="Layer_2">
      <g id="Layer_1-2">
        <path class="cls-1" d="M50.07,33.57h-2.92c-1.23.11-2.32-.79-2.43-2.02-.01-.11-.01-.22,0-.33v-6.11c.06-1.24.62-2.41,1.56-3.24,6.75-6.75,13.46-13.5,20.21-20.21,1.6-1.94,4.47-2.22,6.41-.62.23.19.43.39.62.62,1.12,1.08,2.28,2.2,3.36,3.36,1.76,1.74,1.77,4.57.03,6.33-.05.05-.1.1-.15.14-6.87,6.95-13.82,13.86-20.77,20.77-.84.83-1.98,1.28-3.16,1.28l-2.76.04ZM51.07,28.94c1.24.26,2.51-.24,3.24-1.28,3.16-3.24,6.39-6.43,9.59-9.63.92-.96,2.64-1.84,2.52-2.84s-1.76-2-2.68-3-.68-.6-1.2,0c-4.23,4.27-8.51,8.47-12.74,12.78-1,1.04-.52,2.44-.4,3.63s1.16.16,1.68.32ZM70.04,11.84c.31-.26.61-.54.88-.84.84-.96,2.48-1.72,2.4-2.76s-1.6-1.72-2.36-2.64-1.2-.76-1.96,0c-2.88,2.92-2.88,3.28.52,5.83l.52.4Z"/>
        <path class="cls-2" d="M42.08,58.86h-22.21c-1.68,0-2.68-.88-2.76-2.2,0-1.24.93-2.27,2.16-2.4h44.06c2.52,0,3.24-.72,3.24-3.28v-19.25c0-1.84,1.04-2.92,2.52-2.72,1.24.11,2.17,1.19,2.08,2.44v20.81c-.11,3.75-3.23,6.7-6.98,6.59-.02,0-.03,0-.05,0h-22.05Z"/>
        <path class="cls-2" d="M27.78,5.97h20.49c.66-.06,1.33.02,1.96.24.93.39,1.49,1.35,1.36,2.36-.07,1.02-.86,1.84-1.88,1.96-.56.04-1.12.04-1.68,0H8.09c-2.88,0-3.47.6-3.47,3.47v16.5c0,1.92-.84,3-2.28,3S.02,32.41.02,30.54V13.48c-.3-3.85,2.58-7.21,6.43-7.51.37-.03.75-.03,1.12,0h20.21Z"/>
        <path class="cls-2" d="M7.93,45.52c-.96.2-1.96.48-2.92.64-1.2.28-2.4-.45-2.72-1.64-.35-1.16.3-2.39,1.46-2.74.07-.02.14-.04.22-.05,1.02-.33,2.06-.6,3.12-.8,1.16-.2,1.6-.76,1.72-2,.36-4.41,1.37-8.75,3-12.86.54-1.27,1.22-2.48,2.04-3.59,2.16-3.46,6.72-4.52,10.18-2.36h0c3.67,1.69,5.41,5.93,3.99,9.71-1.17,3.35-3.3,6.27-6.11,8.43-2.4,2.05-5.09,3.72-7.99,4.95-.84.27-1.38,1.08-1.32,1.96,0,2.88,0,5.79-.24,8.67,0,1.72-.88,2.72-2.24,2.76s-2.36-1.08-2.36-2.8c.12-2.72.16-5.47.16-8.27ZM13.48,38.41c3.68-1.73,6.85-4.37,9.23-7.67.49-.71.87-1.49,1.12-2.32.53-1.53-.13-3.22-1.56-3.99-1.46-1.14-3.57-.89-4.71.57-.22.29-.4.61-.52.95-1.98,3.89-3.18,8.12-3.55,12.46Z"/>
        <path class="cls-1" d="M30.42,41.24l-4.31,4.95c-1.2,1.32-2.56,1.52-3.59.6s-1.04-2.28,0-3.63c1.8-2.08,3.63-3.99,5.43-6.23.87-1.45,2.62-2.12,4.23-1.6,1.66.59,2.69,2.25,2.48,3.99v.48c.68,0,.92-.64,1.28-1,1.18-1.49,3.34-1.74,4.83-.56.32.25.59.56.81.92q1.68,2.24,4.31,1.48l4.71-1.32c1.02-.73,2.44-.5,3.18.52.73,1.02.5,2.44-.52,3.18-.32.23-.7.38-1.1.42-2.76.84-5.47,1.64-8.23,2.36-1.68.56-3.52-.25-4.23-1.88-.68-1.08-1.16-1.48-2.12-.2-.86,1.63-2.73,2.45-4.51,2-2.08-.56-2.48-2.28-2.64-4.47Z"/>
      </g>
    </g>
  </g>
</svg>