<?xml version="1.0" encoding="UTF-8"?>
<svg id="Layer_2" xmlns="http://www.w3.org/2000/svg" viewBox="0 0 134.59 134.59">
  <defs>
    <style>
      .cls-1 {
        fill: #f6921e;
      }

      .cls-2 {
        fill: #d8d8d8;
        stroke: #006838;
        stroke-miterlimit: 10;
        stroke-width: 3px;
      }

      .cls-3 {
        fill: #006838;
      }
    </style>
  </defs>
  <g id="Layer_1-2" data-name="Layer_1">
    <g>
      <circle class="cls-2" cx="67.29" cy="67.29" r="65.79"/>
      <g id="export">
        <g id="Group_41">
          <path id="Path_116" class="cls-3" d="M43.59,47.88c0-1.2.1-2.3.3-3.5.6-3,3.2-5.1,6.2-5.1h34.5c3.5,0,6.3,2.8,6.4,6.3v2.3h2.1c3.5,0,6.4,2.8,6.5,6.3.1,1.5,0,3,0,4.6.1,1.2-.8,2.2-2,2.2h0c-1.2,0-2.2-.9-2.2-2.1v-.1c-.1-1.3,0-2.6,0-3.9,0-2-.7-2.7-2.8-2.7h-50.3c-2.3,0-3,.7-3,2.9v32.9c0,2.2.6,2.9,2.9,2.9h50.3c2.2,0,2.9-.6,2.9-2.9v-20.2c-.1-.7,0-1.3.4-1.9.5-.6,1.3-.9,2.1-.9.6.1,1.2,1,1.7,1.6.1.1,0,.2,0,.3,0,7.6.1,15.1-.1,22.7-.3,2.9-2.6,5.3-5.5,5.6-.5,0-1,.1-1.5.1h-50.4c-3.3.3-6.3-1.9-7-5.2-.1-.7-.2-1.3-.1-2v-32.9c-.4-3.6,2.2-6.9,5.8-7.3.5-.1.9-.1,1.4,0,.5,0,.9,0,1.4,0ZM86.59,47.78c.5-3,0-4.3-3.4-4.3-7.8.1-15.6,0-23.3,0h-9.4c-1.2-.2-2.3.7-2.4,1.9v2.3l38.5.1Z"/>
          <path id="Path_117" class="cls-1" d="M64.99,64.08c-1.5,1.5-2.9,3-4.4,4.5-.7,1-2.1,1.2-3.1.5-.1-.1-.2-.2-.3-.2-.9-1-.8-2.1.4-3.3,2.7-2.7,5.4-5.4,8.1-8.1.7-1,2.1-1.3,3.1-.6.2.2.4.4.6.6,2.7,2.6,5.3,5.3,8,8,1.2,1.2,1.3,2.5.3,3.4s-2.1.8-3.3-.4c-1.5-1.4-2.9-2.9-4.5-4.6,0,.8-.1,1.3-.1,1.7v18c0,.4,0,.9-.1,1.3-.2,1.1-1.2,1.8-2.2,1.7-1.1,0-2-.9-2-2h0c-.1-.7,0-1.3,0-2v-18.5h-.5Z"/>
        </g>
      </g>
    </g>
  </g>
</svg>