<?xml version="1.0" encoding="UTF-8"?>
<svg id="Layer_2" xmlns="http://www.w3.org/2000/svg" viewBox="0 0 134.58 134.58">
  <defs>
    <style>
      .cls-1 {
        fill: none;
      }

      .cls-2 {
        fill: #f6921e;
      }

      .cls-3 {
        stroke: #ededed;
        stroke-miterlimit: 10;
        stroke-width: 3px;
      }

      .cls-3, .cls-4 {
        fill: #fff;
      }

      .cls-5 {
        fill: #006838;
      }
    </style>
  </defs>
  <g id="Layer_1-2" data-name="Layer_1">
    <g>
      <g id="Layer_1-2">
        <circle class="cls-3" cx="67.29" cy="67.29" r="65.79"/>
      </g>
      <path class="cls-1" d="M96.74,59.73v4.12c0,1.37-1.1,2.61-2.61,2.61h-3.57c-.41,0-.82.41-.96.69l-1.88,4.63-1.69-1.61-9.06-8.54h-.03c.03.15.03.29.03.44,0,4.12-3.43,7.55-7.69,7.55-2.9,0-5.34-1.58-6.6-3.89l-10.63,3.05-2.13.6-.69-1.69c-.14-.41-.55-.82-.96-.82h-3.71c-1.37,0-2.61-1.1-2.61-2.61v-4.12c0-1.37,1.1-2.61,2.61-2.61h3.57c.41,0,.82-.41.96-.69l2.06-5.08c.27-.41.14-.96-.14-1.24l-2.61-2.61c-.55-.41-.69-1.1-.69-1.79s.27-1.37.69-1.79l3.02-3.16c.96-.96,2.61-.96,3.57,0l2.61,2.61c.27.27.82.27,1.1.14l5.08-2.06c.41-.14.82-.69.82-.96v-3.57c0-1.37,1.1-2.61,2.61-2.61h4.12c1.37,0,2.61,1.1,2.61,2.61v3.57c0,.41.41.82.69.96l5.08,2.06c.41.27.96.14,1.24-.14l2.61-2.61c.96-.96,2.61-.96,3.57,0l2.88,2.88c.55.41.69,1.1.69,1.79s-.27,1.37-.69,1.79l-2.47,2.47c-.27.27-.41.82-.14,1.1l2.06,5.08c.14.41.55.82.96.82h3.71c1.37,0,2.61,1.1,2.61,2.61Z"/>
      <g>
        <path class="cls-5" d="M94.13,57.13h-3.71c-.41,0-.82-.41-.96-.82l-2.06-5.08c-.27-.27-.14-.82.14-1.1l2.47-2.47c.41-.41.69-1.1.69-1.79s-.14-1.37-.69-1.79l-2.88-2.88c-.96-.96-2.61-.96-3.57,0l-2.61,2.61c-.27.27-.82.41-1.24.14l-5.08-2.06c-.27-.14-.69-.55-.69-.96v-3.57c0-1.51-1.24-2.61-2.61-2.61h-4.12c-1.51,0-2.61,1.24-2.61,2.61v3.57c0,.27-.41.82-.82.96l-5.08,2.06c-.27.14-.82.14-1.1-.14l-2.61-2.61c-.96-.96-2.61-.96-3.57,0l-3.02,3.16c-.41.41-.69,1.1-.69,1.79s.14,1.37.69,1.79l2.61,2.61c.27.27.41.82.14,1.24l-2.06,5.08c-.14.27-.55.69-.96.69h-3.57c-1.51,0-2.61,1.24-2.61,2.61v4.12c0,1.51,1.24,2.61,2.61,2.61h3.71c.41,0,.82.41.96.82l.69,1.69,2.13-.6-1.03-2.46c-.27-1.24-1.65-2.2-2.88-2.2h-3.57c-.14,0-.41-.14-.41-.41v-4.12c0-.14.14-.41.41-.41h3.71c1.24,0,2.61-.96,2.88-2.06l2.06-4.94c.55-1.1.41-2.61-.55-3.57l-2.61-2.61c-.14,0-.14-.27-.14-.27,0,0,0-.14.14-.27l2.88-2.88c.14-.14.55-.14.69,0l2.61,2.61c.96.96,2.61,1.1,3.57.55l4.94-2.06c1.24-.27,2.2-1.65,2.2-2.88v-3.57c0-.14.14-.41.41-.41h4.12c.14,0,.41.14.41.41v3.57c0,1.24.96,2.61,2.06,2.88l4.94,2.06c1.1.55,2.61.41,3.57-.55l2.61-2.61c.14-.14.55-.14.69,0l2.88,3.57c.14,0,.14.27.14.27,0,0,0,.14-.14.27l-2.47,2.47c-.96.96-1.1,2.61-.55,3.57l2.06,4.94c.27,1.24,1.65,2.2,2.88,2.2h3.57c.27,0,.55.14.55.41v4.12c0,.14-.27.41-.55.41h-3.84c-1.24,0-2.61.96-2.88,2.06l-1.37,3.3,1.69,1.61,1.88-4.63c.14-.27.55-.69.96-.69h3.57c1.51,0,2.61-1.24,2.61-2.61v-4.12c0-1.51-1.24-2.61-2.61-2.61Z"/>
        <path class="cls-2" d="M76.93,61.63c-.22-3.93-3.56-7.11-7.66-7.11s-7.55,3.43-7.55,7.55c0,1.32.34,2.58.95,3.67,1.26,2.31,3.71,3.89,6.6,3.89,4.26,0,7.69-3.43,7.69-7.55,0-.15,0-.29-.03-.44ZM69.27,67.42c-1.84,0-3.46-.91-4.46-2.31-.65-.89-1.03-2-1.03-3.19,0-3.02,2.47-5.49,5.49-5.49s5.63,2.47,5.49,5.49c0,.11,0,.22-.01.33-.16,2.87-2.57,5.16-5.48,5.16Z"/>
      </g>
      <path class="cls-4" d="M76.96,62.07c0,4.12-3.43,7.55-7.69,7.55-2.9,0-5.34-1.58-6.6-3.89l2.14-.62,9.94-2.86,2.18-.63c.03.15.03.29.03.44Z"/>
      <path id="Path_117" class="cls-2" d="M64.74,78.13c-2.06,2.06-3.98,4.12-6.04,6.18-.96,1.37-2.88,1.65-4.26.69-.14-.14-.27-.27-.41-.27-1.24-1.37-1.1-2.88.55-4.53,3.71-3.71,7.42-7.42,11.12-11.12.96-1.37,2.88-1.79,4.26-.82.27.27.55.55.82.82,3.71,3.57,7.28,7.28,10.99,10.99,1.65,1.65,1.79,3.43.41,4.67s-2.88,1.1-4.53-.55c-2.06-1.92-3.98-3.98-6.18-6.32,0,1.1-.14,1.79-.14,2.33v24.72c0,.55,0,1.24-.14,1.79-.27,1.51-1.65,2.47-3.02,2.33-1.51,0-2.75-1.24-2.75-2.75h0c-.14-.96,0-1.79,0-2.75v-25.4h-.69Z"/>
    </g>
  </g>
</svg>