<?xml version="1.0" encoding="UTF-8"?>
<svg id="Layer_2" xmlns="http://www.w3.org/2000/svg" viewBox="0 0 134.58 134.58">
  <defs>
    <style>
      .cls-1 {
        fill: #004723;
      }

      .cls-2 {
        fill: #fff;
        stroke: #ededed;
        stroke-miterlimit: 10;
        stroke-width: 3px;
      }

      .cls-3 {
        fill: #ff9100;
      }

      .cls-4 {
        fill: #ffcd00;
      }

      .cls-5 {
        fill: #006838;
      }
    </style>
  </defs>
  <g id="Layer_1-2" data-name="Layer_1">
    <g>
      <g id="Layer_1-2">
        <circle class="cls-2" cx="67.29" cy="67.29" r="65.79"/>
      </g>
      <g>
        <path class="cls-4" d="M68.04,27.35c-4.27,0-7.73,3.47-7.73,7.73v1.29c0,.71.58,1.29,1.29,1.29h12.89c.71,0,1.29-.58,1.29-1.29v-1.29c0-4.27-3.47-7.73-7.73-7.73Z"/>
        <path class="cls-3" d="M68.01,27.35c-4.25.02-7.7,3.48-7.7,7.73v1.29c0,.71.58,1.29,1.29,1.29h6.41v-10.31h0Z"/>
        <path class="cls-4" d="M73.2,82.78h-10.31l-2.58,12.89,5.16,14.18h1.29v-11.96c-.77-.45-1.29-1.27-1.29-2.22,0-1.42,1.16-2.58,2.58-2.58s2.58,1.16,2.58,2.58c0,.95-.52,1.77-1.29,2.22v11.96h1.29l5.16-14.18-2.58-12.89Z"/>
        <path class="cls-3" d="M68.01,93.1v-10.32h-5.12l-2.58,12.89,5.16,14.18h1.29v-11.96c-.77-.45-1.29-1.27-1.29-2.22,0-1.41,1.14-2.56,2.54-2.57Z"/>
        <path class="cls-5" d="M60.31,36.37v21.91l1.17,23.2c.07,1.37,1.2,2.46,2.58,2.46h7.97c1.38,0,2.51-1.08,2.58-2.46l1.17-23.2v-21.91"/>
        <path class="cls-1" d="M68.01,36.37h-7.7v21.91l1.17,23.2c.07,1.37,1.2,2.46,2.58,2.46h3.95v-47.57h0Z"/>
        <path class="cls-1" d="M58.99,36.37h9.02v23.2h-8.86c-.09,0-.16-.07-.16-.16v-23.04Z"/>
        <path class="cls-5" d="M68.01,36.37h9.02v23.04c0,.09-.07.16-.16.16h-8.86v-23.2h0Z"/>
        <path class="cls-3" d="M80.93,63.44c-.71,0-1.29-.58-1.29-1.29v-23.2c0-.71-.58-1.29-1.29-1.29h-19.37c-.71,0-1.29-.58-1.29-1.29s.58-1.29,1.29-1.29h19.37c2.13,0,3.87,1.73,3.87,3.87v23.2c0,.71-.58,1.29-1.29,1.29Z"/>
      </g>
    </g>
  </g>
</svg>