<?xml version="1.0" encoding="UTF-8"?>
<svg id="Layer_2" xmlns="http://www.w3.org/2000/svg" viewBox="0 0 134.58 134.58">
  <defs>
    <style>
      .cls-1 {
        fill: #f6921e;
      }

      .cls-2 {
        fill: #fff;
        stroke: #ededed;
        stroke-miterlimit: 10;
        stroke-width: 3px;
      }

      .cls-3 {
        fill: #006838;
      }
    </style>
  </defs>
  <g id="Layer_1-2" data-name="Layer_1">
    <g>
      <g id="Layer_1-2">
        <circle class="cls-2" cx="67.29" cy="67.29" r="65.79"/>
      </g>
      <g>
        <path class="cls-3" d="M93.06,78.45c.58-1.31,2.04-1.89,3.49-1.6,1.89.44,2.91,2.47,2.04,4.22-5.38,11.78-17.16,20.07-30.97,20.07-11.63,0-21.81-5.82-27.92-14.69v5.38c0,1.6-1.45,3.05-3.05,3.05-1.74,0-3.2-1.45-3.2-3.05v-12.51c0-1.6,1.45-3.05,3.2-3.05h12.36c1.75,0,3.05,1.45,3.05,3.05,0,1.75-1.31,3.2-3.05,3.2h-4.51c4.94,7.42,13.52,12.36,23.12,12.36,11.34,0,20.94-6.69,25.45-16.43ZM44.35,51.55c-1.89,2.91-3.34,6.25-4.07,9.89-.29,1.45-1.6,2.47-3.05,2.47-1.89,0-3.49-1.89-3.05-3.78.87-4.36,2.62-8.43,5.09-11.92,1.02-1.6,3.34-1.89,4.65-.44,1.02,1.02,1.31,2.62.44,3.78ZM86.81,43.26c-1.02,1.02-2.62,1.31-3.78.44-2.91-1.89-6.25-3.34-9.89-4.07-1.45-.29-2.47-1.6-2.47-3.05,0-2.04,1.89-3.49,3.78-3.05,4.36.87,8.43,2.62,11.92,4.94,1.75,1.16,1.89,3.49.44,4.8Z"/>
        <path class="cls-1" d="M62.09,39.63c-3.64.73-6.98,2.18-9.89,4.07-1.31.87-2.76.58-3.78-.44-1.45-1.31-1.16-3.64.44-4.8,3.49-2.33,7.56-4.07,11.92-4.94,1.89-.44,3.78,1.02,3.78,3.05,0,1.45-1.02,2.76-2.47,3.05Z"/>
        <path class="cls-1" d="M55.26,65.51l7.56-3.34,3.34-7.56c.58-1.31,2.33-1.31,2.91,0l3.34,7.56,7.56,3.34c1.31.58,1.31,2.33,0,2.91l-7.56,3.34-3.34,7.56c-.58,1.31-2.33,1.31-2.91,0l-3.34-7.56-7.56-3.34c-1.31-.58-1.31-2.33,0-2.91Z"/>
        <path class="cls-1" d="M94.96,61.44c-.73-3.64-2.18-6.98-4.07-9.89-.87-1.31-.58-2.76.44-3.78,1.31-1.45,3.64-1.16,4.65.44,2.47,3.49,4.22,7.56,5.09,11.92.44,1.89-1.16,3.78-3.05,3.78-1.45,0-2.76-1.02-3.05-2.47Z"/>
      </g>
    </g>
  </g>
</svg>