<?xml version="1.0" encoding="UTF-8"?>
<svg id="Layer_2" xmlns="http://www.w3.org/2000/svg" viewBox="0 0 134.59 134.59">
  <defs>
    <style>
      .cls-1 {
        fill: #f6921e;
      }

      .cls-2 {
        fill: #fff;
        stroke: #ededed;
        stroke-miterlimit: 10;
        stroke-width: 3px;
      }

      .cls-3 {
        fill: #006838;
      }
    </style>
  </defs>
  <g id="Layer_1-2" data-name="Layer_1">
    <g>
      <circle class="cls-2" cx="67.29" cy="67.29" r="65.79"/>
      <g>
        <polygon class="cls-1" points="99.75 85.84 81.55 67.65 63.3 93.37 94 93.37 99.75 85.84"/>
        <g id="image">
          <path class="cls-3" d="M89.55,38.55h-44.5c-5.63,0-10.2,4.57-10.2,10.2v37.09c0,5.63,4.57,10.2,10.2,10.2h44.5c5.63,0,10.2-4.57,10.2-10.2v-37.09c0-5.63-4.57-10.2-10.2-10.2ZM45.04,44.11h44.5c2.56,0,4.64,2.08,4.64,4.64v30.37l-10.09-10.09c-.53-.57-1.3-.87-2.08-.82-.79.05-1.52.41-2.04,1l-4.78,5.75-17.06-17.06c-.51-.54-1.22-.84-1.97-.82-.79.05-1.52.41-2.04,1l-13.72,16.36v-25.7c0-2.56,2.08-4.64,4.64-4.64ZM40.41,85.84v-2.71l15.95-19.14,15.28,15.28-9.35,11.13h-17.25c-2.53,0-4.6-2.03-4.64-4.56ZM89.55,90.47h-20.03l12.8-15.35,11.68,11.68c-.42,2.13-2.28,3.66-4.45,3.67Z"/>
        </g>
      </g>
    </g>
  </g>
</svg>