<?xml version="1.0" encoding="UTF-8"?>
<svg id="Layer_2" xmlns="http://www.w3.org/2000/svg" viewBox="0 0 256.01 256.01">
  <g id="Layer_2-2" data-name="Layer_2">
    <g id="Layer_1-2">
      <path d="M0,127.96C.02,57.27,57.47-.08,128.17,0c70.68.08,127.99,57.59,127.84,128.29-.14,70.47-57.44,127.68-127.92,127.72C57.4,256.05-.02,198.66,0,127.96ZM90.15,118.37c4.66-.61,9.05-1.68,13.45-1.65,7.04.05,9.81,2.94,9.2,10.02-.51,5.92-2.02,11.78-3.42,17.59-2.92,12.12-6.92,24.04-8.9,36.3-2.41,14.98,6.48,24.41,21.52,25.54,10.05.75,19-2.48,28.01-6.07,5.38-2.15,6.4-3.82,5.62-9.56-4.26.54-8.51,1.51-12.77,1.52-7.47.03-10.43-3.07-9.7-10.6.56-5.76,2.07-11.44,3.39-17.1,3-12.77,6.98-25.38,8.99-38.3,2-12.86-6.13-21.59-19.04-23.28-10.18-1.33-19.31,2.12-28.7,5.1-5.49,1.74-7.77,4.96-7.66,10.47v.02ZM119.9,67.26c-.13,10.2,8.58,18.54,19.42,18.58,10.54.04,19.45-8.14,19.6-18,.16-10.06-8.8-18.61-19.52-18.62-10.55-.02-19.38,8.15-19.51,18.04h0Z"/>
    </g>
  </g>
</svg>