<?xml version="1.0" encoding="UTF-8"?>
<svg id="Layer_2" xmlns="http://www.w3.org/2000/svg" viewBox="0 0 134.59 134.59">
  <defs>
    <style>
      .cls-1 {
        fill: #f6921e;
      }

      .cls-2 {
        fill: #fff;
        stroke: #ededed;
        stroke-miterlimit: 10;
        stroke-width: 3px;
      }

      .cls-3 {
        fill: #006838;
      }
    </style>
  </defs>
  <g id="Layer_1-2" data-name="Layer_1">
    <g>
      <circle class="cls-2" cx="67.29" cy="67.29" r="65.79"/>
      <g>
        <path class="cls-3" d="M34.44,69.2h-2.82l1.43-6.61h2.82l.55-2.64c.43-2.03,1.17-3.81,2.22-5.32,1.05-1.51,2.3-2.68,3.77-3.51,1.46-.83,3.06-1.25,4.79-1.25.99,0,2,.12,3.03.35,1.03.23,2.1.58,3.21,1.04l-2.87,6.66c-.43-.18-.92-.34-1.48-.46-.55-.12-1.05-.18-1.48-.18-.62,0-1.13.19-1.53.58-.4.39-.68.98-.83,1.78l-.65,2.96h4.99l-1.43,6.61h-4.95l-5.27,24.74h-8.79l5.27-24.74Z"/>
        <path class="cls-3" d="M49.88,71.79c0-2.68.52-5.28,1.55-7.79,1.03-2.51,2.42-5.05,4.16-7.61,1.74-2.56,3.69-5.23,5.85-8l6.1,2.68c-1.66,2.22-3.1,4.29-4.3,6.2-1.2,1.91-2.18,3.7-2.94,5.36-.76,1.66-1.31,3.22-1.66,4.67-.36,1.45-.53,2.81-.53,4.07s.1,2.6.3,4.02c.2,1.42.47,2.85.81,4.3.34,1.45.71,2.9,1.11,4.35l-7.07,3.1c-.59-1.45-1.14-3.04-1.66-4.76-.53-1.72-.94-3.49-1.25-5.29-.31-1.8-.46-3.57-.46-5.29Z"/>
        <path class="cls-1" d="M72.08,72.09l-5.04-12h8.88l1.76,5.89.23.96.6-.96,4.49-5.89h8.79l-10.27,12,5.32,12h-8.93l-2.04-5.89-.18-.91-.6.91-4.53,5.89h-8.93l10.45-12Z"/>
        <path class="cls-3" d="M105.42,64.21c0,2.13-.33,4.2-.99,6.22-.66,2.02-1.54,3.98-2.64,5.9-1.09,1.91-2.33,3.77-3.7,5.57-1.37,1.8-2.77,3.55-4.19,5.25l-5.73-3.1c1.7-2.37,3.22-4.6,4.58-6.68,1.36-2.08,2.43-4.16,3.24-6.24.8-2.08,1.2-4.31,1.2-6.68,0-1.82-.15-3.64-.44-5.46-.29-1.82-.61-3.44-.95-4.88-.34-1.43-.62-2.44-.83-3.03l7.26-2.68c.89,2.62,1.65,5.3,2.27,8.05.62,2.74.92,5.33.92,7.77Z"/>
      </g>
    </g>
  </g>
</svg>