<?xml version="1.0" encoding="UTF-8"?>
<svg xmlns="http://www.w3.org/2000/svg" version="1.1" viewBox="0 0 39.8 44.6">
  <defs>
    <style>
      .cls-1 {
        opacity: .5;
      }

      .cls-2 {
        fill: #e8e8e8;
      }
    </style>
  </defs>
  <!-- Generator: Adobe Illustrator 28.6.0, SVG Export Plug-In . SVG Version: 1.2.0 Build 709)  -->
  <g>
    <g id="Layer_2">
      <g id="Layer_1-2" class="cls-1">
        <g>
          <path class="cls-2" d="M29.9,16.5c-.9-1.9-2.3-3.3-4.2-4.4-1.7-1-3.8-1.6-6.3-1.6v5.9c.9,0,1.8.3,2.5.8.8.5,1.5,1.3,1.9,2.2.4,1,.7,2.1.7,3.3s0,.4,0,.6h6.9c0-.2,0-.4,0-.6,0-2.3-.5-4.3-1.4-6.2h0Z"/>
          <rect class="cls-2" x="8.6" y="9.6" width="8.8" height="8.8"/>
          <rect class="cls-2" x="22.1" y="26.1" width="8.8" height="8.8"/>
          <path class="cls-2" d="M18.8,29.1h-2.7v-8.7h-6.8v14.6h9.5c.4,0,.8,0,1.2,0v-6c-.4,0-.8.1-1.2.1h0Z"/>
        </g>
      </g>
    </g>
  </g>
</svg>