<?xml version="1.0" encoding="UTF-8"?>
<svg id="Layer_2" xmlns="http://www.w3.org/2000/svg" viewBox="0 0 131.59 131.59">
  <defs>
    <style>
      .cls-1 {
        fill: #f6921e;
      }

      .cls-2 {
        fill: #fff;
      }

      .cls-3 {
        fill: #006838;
      }
    </style>
  </defs>
  <g id="Layer_1-2" data-name="Layer_1">
    <g>
      <circle class="cls-3" cx="65.79" cy="65.79" r="65.79"/>
      <g id="Layer_1-2">
        <g id="Layer_1-2-2" data-name="Layer_1-2">
          <g>
            <path class="cls-2" d="M41.04,82.71c0-.91.3-1.72.86-2.43.87-1.12,1.75-2.26,2.64-3.39.2-.26.21-.44.08-.74-.39-.89-.74-1.8-1.14-2.68-.1-.2-.34-.43-.56-.46-1.35-.2-2.73-.38-4.08-.53-2.2-.25-3.65-1.82-3.65-4.02v-5.37c0-2.18,1.39-3.72,3.57-3.98,1.35-.16,2.73-.34,4.08-.49.36-.03.54-.2.66-.54.33-.89.71-1.77,1.09-2.64.13-.3.11-.49-.08-.74-.87-1.11-1.75-2.23-2.61-3.35-1.34-1.75-1.2-3.72.34-5.29,1.25-1.27,2.53-2.54,3.8-3.8,1.54-1.52,3.52-1.65,5.24-.34,1.12.86,2.25,1.72,3.34,2.61.26.21.48.25.79.1.84-.39,1.72-.74,2.59-1.07.39-.15.54-.36.58-.77.15-1.37.31-2.73.49-4.08.33-2.15,1.87-3.49,4.05-3.49h5.32c2.21,0,3.77,1.39,4.03,3.59.16,1.35.34,2.73.49,4.08.03.34.18.51.51.63.89.33,1.78.69,2.64,1.09.31.15.53.13.79-.08,1.09-.87,2.2-1.72,3.3-2.58,1.73-1.34,3.73-1.24,5.29.3,1.29,1.27,2.58,2.56,3.85,3.85,1.49,1.52,1.62,3.5.34,5.19-.86,1.14-1.75,2.28-2.64,3.39-.2.25-.23.44-.08.74.39.89.77,1.78,1.12,2.69.13.34.31.44.64.49,1.39.16,2.76.33,4.15.51,2.15.28,3.5,1.82,3.5,3.98v5.32c0,2.2-1.29,3.72-3.44,4.03-1.35.2-2.73.36-4.08.51-.43.05-.66.18-.81.61-.3.86-.66,1.7-1.04,2.53-.16.34-.13.56.1.84.87,1.09,1.72,2.18,2.58,3.3,1.34,1.75,1.2,3.72-.34,5.29-1.25,1.27-2.53,2.54-3.8,3.8-1.55,1.54-3.54,1.65-5.29.31-1.11-.84-2.21-1.7-3.3-2.56-.26-.21-.48-.23-.79-.08-.87.41-1.8.74-2.69,1.14-.2.08-.41.33-.43.53-.2,1.34-.36,2.68-.51,4.03-.25,2.31-1.77,3.7-4.1,3.72h-5.26c-2.18,0-3.7-1.32-4-3.47-.18-1.35-.36-2.73-.49-4.08-.05-.44-.23-.64-.64-.79-.84-.3-1.67-.64-2.48-1.02-.36-.18-.59-.13-.89.1-1.07.86-2.15,1.7-3.26,2.53-1.78,1.35-3.75,1.22-5.34-.34-1.29-1.27-2.56-2.56-3.85-3.85-.76-.76-1.16-1.65-1.16-2.73h-.05s.01-.02.01-.02ZM82.73,88.11c.34-.21.73-.38.99-.63,1.25-1.22,2.49-2.46,3.72-3.72.71-.71.74-1.24.13-2.05-1.06-1.37-2.11-2.74-3.19-4.1-.43-.54-.46-1.07-.18-1.72.61-1.35,1.2-2.73,1.72-4.12.28-.79.74-1.16,1.55-1.24,1.68-.18,3.35-.39,5.04-.63.92-.13,1.32-.59,1.32-1.52v-5.21c0-.97-.38-1.44-1.35-1.55-1.7-.23-3.39-.44-5.09-.64-.73-.08-1.17-.43-1.44-1.14-.51-1.39-1.09-2.78-1.7-4.13-.33-.71-.3-1.25.18-1.87,1.07-1.34,2.11-2.69,3.16-4.05.59-.77.56-1.3-.11-2-1.2-1.22-2.41-2.43-3.64-3.64-.79-.79-1.29-.82-2.18-.13-1.34,1.04-2.68,2.06-4,3.12-.56.44-1.11.48-1.77.18-1.35-.61-2.73-1.2-4.12-1.72-.76-.28-1.12-.73-1.2-1.5-.18-1.68-.39-3.35-.63-5.04-.13-.96-.59-1.35-1.55-1.35h-5.14c-1.02,0-1.47.38-1.6,1.39-.21,1.67-.44,3.35-.63,5.04-.08.76-.43,1.2-1.17,1.47-1.39.51-2.78,1.09-4.13,1.7-.68.31-1.22.3-1.82-.18-1.32-1.06-2.66-2.08-4-3.12-.87-.68-1.37-.64-2.13.11-1.2,1.19-2.4,2.4-3.59,3.59-.76.77-.81,1.29-.15,2.13,1.02,1.32,2.03,2.66,3.09,3.95.49.61.54,1.19.2,1.92-.61,1.3-1.17,2.64-1.67,4.02-.28.79-.73,1.16-1.54,1.24-1.67.18-3.32.39-4.98.61-1.01.13-1.39.58-1.39,1.59v5.07c0,1.07.39,1.5,1.47,1.63,1.68.21,3.35.43,5.04.63.71.08,1.12.44,1.37,1.12.51,1.39,1.07,2.78,1.7,4.13.33.71.3,1.25-.18,1.87-1.07,1.34-2.11,2.69-3.16,4.05-.59.77-.56,1.3.11,2,1.2,1.2,2.41,2.43,3.64,3.64.79.79,1.29.82,2.18.15,1.35-1.04,2.71-2.1,4.05-3.16.53-.41,1.04-.44,1.67-.16,1.39.63,2.81,1.22,4.23,1.77.71.26,1.06.69,1.14,1.42.2,1.68.41,3.35.63,5.04.13,1.02.58,1.42,1.63,1.42h5.02c1.09,0,1.54-.38,1.67-1.44.21-1.68.43-3.35.63-5.04.08-.74.44-1.14,1.16-1.4,1.37-.51,2.74-1.06,4.07-1.68.73-.34,1.29-.31,1.92.2,1.32,1.06,2.66,2.08,4.02,3.11.28.21.61.34.99.54v.03s0,0,0,0Z"/>
            <path class="cls-1" d="M65.8,78.54c-6.99,0-12.74-5.7-12.78-12.71-.03-7,5.72-12.79,12.74-12.81,7,0,12.79,5.75,12.78,12.78,0,7-5.74,12.73-12.74,12.74h0ZM65.76,75.96c5.64.01,10.2-4.51,10.21-10.15s-4.5-10.2-10.13-10.23c-5.65-.03-10.23,4.51-10.25,10.16,0,5.64,4.53,10.18,10.15,10.2,0,0,.01.01.01.01Z"/>
          </g>
        </g>
      </g>
    </g>
  </g>
</svg>