<?xml version="1.0" encoding="UTF-8"?>
<svg id="Layer_2" xmlns="http://www.w3.org/2000/svg" viewBox="0 0 54.21 52.39">
  <g id="Layer_1-2" data-name="Layer_1">
    <path d="M24.33,0c2.51.08,5.03.02,7.54.02,3.59,0,7.18.02,10.77,0,2.86-.03,5.01,1.21,6.59,3.53.91,1.33,1.52,2.8,1.82,4.38.94,4.89,1.85,9.79,2.78,14.69.24,1.26.53,2.52.29,3.82-.61,3.35-3.6,6.23-7.07,6.55-2.27.21-4.56.1-6.84.13-.22,0-.45,0-.75,0,.12.22.2.37.28.52.5.93,1.05,1.83,1.5,2.78,1.35,2.85,2.34,5.81,2.1,9.03-.2,2.75-1.36,4.93-3.94,6.17-1.14.55-2.36.75-3.63.78-.96.02-1.6-.39-1.99-1.26-.39-.87-.79-1.75-1.24-2.59-3.23-5.98-7.39-11.28-12.09-16.18-.66-.69-1.29-1.4-1.96-2.13-.16.2-.2.24-.23.29-1.07,2.52-2.75,3.63-5.49,3.63-2.36,0-4.72,0-7.08,0C2.25,34.14,0,31.91,0,28.46,0,20.88,0,13.3,0,5.72c0-.46,0-.93.1-1.37C.62,1.74,2.73.05,5.51.03c2.51-.02,5.03,0,7.54,0,.4,0,.81.03,1.2.1,1.38.26,2.46,1.02,3.34,2.15C19.49.43,21.79-.07,24.33,0ZM23.48,3.7c-3.18-.08-4.9,2.63-4.91,4.8-.02,5.56-.01,11.13,0,16.69,0,.22.16.5.34.66,6.32,5.53,11.57,11.94,15.87,19.15.62,1.04,1.16,2.12,1.7,3.2.17.34.35.43.71.33,1.5-.41,2.36-1.57,2.46-3.36.12-2.18-.48-4.21-1.31-6.19-.97-2.31-2.29-4.42-3.8-6.41-.35-.46-.58-.95-.48-1.54.16-.99.88-1.58,1.95-1.58,3.22,0,6.45,0,9.67,0,1.59,0,2.9-.63,3.94-1.82.75-.86,1.04-1.88.83-3-.98-5.26-1.94-10.52-3-15.76-.22-1.1-.72-2.19-1.27-3.17-.76-1.34-1.99-1.99-3.59-1.97-3.2.04-6.41.01-9.61.01-3.17,0-6.33.06-9.5-.02ZM14.87,5.78c0-1.47-.59-2.06-2.05-2.06-2.38,0-4.76,0-7.14,0-1.41,0-1.99.59-1.99,2,0,7.58,0,15.15,0,22.73,0,1.43.6,2.01,2.04,2.01,2.38,0,4.76,0,7.14,0,1.38,0,2-.62,2-2.01,0-3.8,0-7.6,0-11.39,0-3.76,0-7.52,0-11.28Z"/>
  </g>
</svg>