<?xml version="1.0" encoding="UTF-8"?>
<svg id="Layer_2" xmlns="http://www.w3.org/2000/svg" viewBox="0 0 71.45 42.17">
  <g id="Layer_1-2" data-name="Layer_1">
    <g>
      <path d="M35.8,5.5c-10.85,0-21.69,0-32.54,0-.92,0-1.77-.12-2.44-.82C.12,3.96-.17,3.09.1,2.09.38,1.08,1.04.39,2.06.13,2.5.02,2.97,0,3.42,0c21.55,0,43.1,0,64.64,0,.45,0,.92.02,1.36.13,1.25.31,2.12,1.56,2.02,2.84-.1,1.31-1.19,2.41-2.51,2.51-.34.03-.69.02-1.03.02-10.7,0-21.41,0-32.11,0Z"/>
      <path d="M35.73,23.83c-7.27,0-14.54,0-21.8,0-2.09,0-3.46-1.9-2.74-3.73.42-1.06,1.41-1.75,2.61-1.76,1.52-.02,3.03,0,4.55,0,12.93,0,25.87,0,38.8,0,.37,0,.75-.01,1.11.06,1.34.28,2.29,1.54,2.2,2.88-.1,1.38-1.24,2.52-2.66,2.55-1.83.04-3.66.01-5.49.01-5.52,0-11.05,0-16.57,0Z"/>
      <path d="M35.73,36.66c2.35,0,4.69,0,7.04,0,1.77,0,3.01,1.12,3.04,2.69.03,1.57-1.27,2.8-3.05,2.8-4.69.01-9.39.01-14.08,0-1.45,0-2.55-.77-2.91-1.96-.34-1.14.03-2.38,1.07-3.01.53-.32,1.23-.49,1.85-.51,2.35-.06,4.69-.02,7.04-.02Z"/>
    </g>
  </g>
</svg>