<?xml version="1.0" encoding="UTF-8"?>
<svg id="Layer_2" xmlns="http://www.w3.org/2000/svg" viewBox="0 0 54.21 52.39">
  <g id="Layer_1-2" data-name="Layer_1">
    <path d="M17.59,50.11c-.88,1.13-1.96,1.89-3.34,2.15-.39.07-.8.1-1.2.1-2.51,0-5.03.02-7.54,0-2.78-.02-4.89-1.71-5.41-4.31-.09-.45-.1-.92-.1-1.37C0,39.09,0,31.51,0,23.93c0-3.45,2.24-5.69,5.69-5.69,2.36,0,4.72,0,7.08,0,2.74,0,4.42,1.11,5.49,3.63.02.05.07.09.23.29.67-.73,1.3-1.44,1.96-2.13,4.69-4.9,8.85-10.19,12.09-16.18.45-.84.85-1.72,1.24-2.59C34.17.39,34.8-.02,35.77,0c1.26.03,2.49.23,3.63.78,2.58,1.24,3.74,3.43,3.94,6.17.24,3.22-.75,6.17-2.1,9.03-.45.95-1,1.86-1.5,2.78-.08.15-.16.29-.28.52.3,0,.52,0,.75,0,2.28.03,4.58-.08,6.84.13,3.47.32,6.45,3.2,7.07,6.55.24,1.29-.05,2.55-.29,3.82-.93,4.9-1.84,9.79-2.78,14.69-.3,1.58-.91,3.05-1.82,4.38-1.59,2.31-3.73,3.55-6.59,3.53-3.59-.03-7.18,0-10.77,0-2.51,0-5.03-.06-7.54.02-2.54.08-4.84-.42-6.74-2.27ZM32.98,48.67c3.2,0,6.41-.03,9.61.01,1.6.02,2.83-.62,3.59-1.97.56-.99,1.05-2.07,1.27-3.17,1.06-5.24,2.01-10.5,3-15.76.21-1.12-.08-2.14-.83-3-1.04-1.2-2.35-1.82-3.94-1.82-3.22,0-6.45,0-9.67,0-1.06,0-1.79-.6-1.95-1.58-.1-.59.14-1.08.48-1.54,1.51-1.99,2.83-4.1,3.8-6.41.83-1.98,1.43-4.01,1.31-6.19-.1-1.79-.96-2.95-2.46-3.36-.36-.1-.54-.01-.71.33-.54,1.08-1.08,2.16-1.7,3.2-4.3,7.2-9.55,13.62-15.87,19.15-.18.15-.34.44-.34.66-.02,5.56-.02,11.13,0,16.69,0,2.17,1.72,4.87,4.91,4.8,3.16-.08,6.33-.02,9.5-.02ZM14.87,35.33c0-3.8,0-7.6,0-11.39,0-1.38-.62-2-2-2.01-2.38,0-4.76,0-7.14,0-1.44,0-2.04.59-2.04,2.01,0,7.58,0,15.15,0,22.73,0,1.41.58,1.99,1.99,2,2.38,0,4.76,0,7.14,0,1.47,0,2.05-.59,2.05-2.06,0-3.76,0-7.52,0-11.28Z"/>
  </g>
</svg>