<?xml version="1.0" encoding="UTF-8"?>
<svg id="Layer_2" xmlns="http://www.w3.org/2000/svg" viewBox="0 0 76.34 15.22">
  <g id="Layer_1-2" data-name="Layer_1">
    <g>
      <path d="M15.25,7.72c-.08,4.24-3.53,7.57-7.8,7.5C3.29,15.16-.07,11.64,0,7.43.07,3.25,3.62-.08,7.89,0c4.09.09,7.44,3.6,7.36,7.71Z"/>
      <path d="M61.08,7.61C61.09,3.41,64.5,0,68.71,0c4.19,0,7.63,3.44,7.63,7.62,0,4.18-3.45,7.61-7.64,7.61-4.21,0-7.62-3.42-7.62-7.62Z"/>
      <path d="M38.18,0c4.21,0,7.61,3.42,7.61,7.63,0,4.2-3.42,7.6-7.63,7.6-4.2,0-7.61-3.42-7.61-7.63C30.55,3.4,33.97,0,38.18,0Z"/>
    </g>
  </g>
</svg>