<?xml version="1.0" encoding="UTF-8"?>
<svg id="Layer_2" xmlns="http://www.w3.org/2000/svg" viewBox="0 0 64.55 48.42">
  <g id="Layer_1-2" data-name="Layer_1">
    <g>
      <path d="M41.94,35.53c0-3.13,0-6.25,0-9.38,0-2.94,2.62-4.42,5.15-2.91,5.19,3.09,10.37,6.2,15.55,9.33,2.56,1.54,2.55,4.39,0,5.93-5.17,3.12-10.35,6.23-15.55,9.33-2.53,1.51-5.14.01-5.14-2.92,0-3.13,0-6.25,0-9.38Z"/>
      <path d="M40.28,6.5c-6.93,0-13.86,0-20.79,0-2.24,0-3.77-1.88-3.25-3.99.31-1.26,1.13-2.06,2.39-2.36.39-.09.8-.11,1.2-.11,13.68,0,27.36,0,41.05,0,.5,0,1.02.05,1.49.2,1.5.48,2.36,1.97,2.12,3.58-.21,1.45-1.52,2.64-3.04,2.67-1.69.04-3.38.01-5.06.01-5.37,0-10.73,0-16.1,0Z"/>
      <path d="M40.28,19.4c-6.88,0-13.76,0-20.63,0-1.93,0-3.2-1.03-3.48-2.78-.28-1.76,1.05-3.47,2.82-3.63.3-.03.6-.03.91-.03,13.63,0,27.26,0,40.89,0,.47,0,.97,0,1.42.13,1.56.43,2.48,1.89,2.28,3.54-.18,1.5-1.47,2.71-3.04,2.73-2.72.04-5.44.02-8.16.02-4.33,0-8.67,0-13,0Z"/>
      <path d="M17.78,25.85c4.81,0,9.62,0,14.43,0,1.44,0,2.62.84,3.08,2.13.45,1.24.14,2.7-.92,3.49-.58.43-1.35.58-2.05.83-.18.06-.4.02-.6.02-9.32,0-18.64,0-27.96,0-.55,0-1.12-.05-1.63-.22-1.5-.5-2.34-2-2.08-3.6.23-1.42,1.52-2.56,2.99-2.64.45-.02.91,0,1.36,0,4.46,0,8.92,0,13.37,0Z"/>
      <path d="M17.69,45.22c-4.81,0-9.62,0-14.43,0-1.56,0-2.87-1.06-3.18-2.51-.32-1.47.36-2.97,1.73-3.59.53-.24,1.16-.36,1.75-.36,9.47-.02,18.94-.02,28.41-.01,2.08,0,3.51,1.34,3.51,3.23,0,1.9-1.43,3.23-3.5,3.23-4.76,0-9.52,0-14.28,0Z"/>
      <path d="M6.46,6.5c-1.06,0-2.12.01-3.18,0C1.5,6.48.11,5.18.02,3.48-.06,1.69,1.13.17,2.94.08c2.34-.11,4.69-.11,7.03,0,1.8.09,3.04,1.64,2.93,3.4-.1,1.7-1.49,2.99-3.27,3.02-1.06.02-2.12,0-3.18,0Z"/>
      <path d="M6.47,19.39c-1.08,0-2.17.02-3.25,0-1.86-.05-3.2-1.42-3.2-3.22,0-1.8,1.36-3.17,3.22-3.2,2.14-.03,4.28-.03,6.42,0,1.85.02,3.24,1.4,3.25,3.18.01,1.81-1.38,3.2-3.27,3.24-1.06.02-2.12,0-3.17,0Z"/>
    </g>
  </g>
</svg>