<?xml version="1.0" encoding="UTF-8"?>
<svg id="Layer_2" xmlns="http://www.w3.org/2000/svg" viewBox="0 0 95 91.04">
  <g id="Layer_1-2" data-name="Layer_1">
    <g>
      <path d="M7.77,67.93c.21-1.4.54-3.55.85-5.71.11-.79.17-1.6.23-2.4.08-1.19-.23-2.26-1.05-3.14-1.26-1.34-2.57-2.64-3.81-4-.95-1.04-1.94-2.06-2.7-3.23-1.71-2.6-1.7-5.31,0-7.92.65-1,1.47-1.91,2.29-2.79.93-1.01,1.89-2,2.93-2.9,2.19-1.89,2.72-4.23,2.17-6.98-.36-1.77-.58-3.57-.81-5.36-.57-4.55,1.46-7.65,5.89-8.76,2.2-.55,4.47-.88,6.72-1.19,2.35-.33,4.02-1.48,5.03-3.64.61-1.3,1.27-2.58,1.95-3.85.49-.91.99-1.83,1.58-2.68C31.21.24,34.23-.77,37.81.59c1.87.71,3.71,1.58,5.42,2.6,2.91,1.74,5.66,1.76,8.6.05,1.92-1.12,3.99-2.07,6.1-2.79,3.06-1.04,5.69-.07,7.68,2.43.81,1.01,1.43,2.18,2.07,3.31.64,1.14,1.25,2.3,1.76,3.5,1.1,2.61,3.14,3.72,5.85,4.06,2.19.27,4.39.62,6.51,1.2,3.9,1.06,5.92,4.18,5.48,8.21-.25,2.26-.66,4.5-.92,6.76-.33,2.88.84,5.05,3.09,6.88,1.59,1.29,3.04,2.85,4.19,4.54,1.81,2.63,1.76,5.53.08,8.24-.84,1.35-1.99,2.5-3.05,3.71-.44.5-.99.91-1.5,1.33-2.51,2.06-3.41,4.6-2.74,7.85.49,2.34.76,4.77.79,7.16.04,3.1-1.74,5.19-4.55,6.21-1.74.63-3.64.84-5.47,1.22-.88.18-1.79.27-2.67.45-2.91.6-4.74,2.33-5.78,5.14-.65,1.73-1.54,3.44-2.62,4.94-2.19,3.06-5.3,4.05-8.87,2.84-1.72-.58-3.34-1.52-4.95-2.4-1.82-.99-3.67-1.98-5.79-1.46-1.34.33-2.59,1.04-3.87,1.58-2.09.88-4.11,1.96-6.27,2.61-2.62.79-4.94-.09-6.57-2.31-1.09-1.48-1.98-3.1-2.94-4.67-.93-1.51-1.79-3.06-2.79-4.53-.35-.51-.95-1.02-1.53-1.16-2.34-.55-4.72-.94-7.08-1.41-.79-.16-1.58-.32-2.34-.56-3.62-1.15-5.41-3.63-5.37-8.19ZM82.55,23.39c.03-2.73-.27-3.33-2.11-3.85-1.92-.54-3.91-.95-5.9-1.15-4.39-.45-7.51-2.5-9.33-6.59-.78-1.77-1.71-3.49-2.75-5.12-1.3-2.02-2.12-2.24-4.3-1.25-1.7.77-3.32,1.73-4.98,2.6-3.29,1.75-6.61,1.94-10.03.35-2.42-1.13-4.88-2.19-7.36-3.2-1.34-.55-2.04-.27-2.91.94-.45.62-.84,1.29-1.19,1.98-.72,1.44-1.36,2.91-2.08,4.35-1.69,3.37-4.4,5.23-8.16,5.76-2.37.33-4.73.9-7.02,1.59-1.69.51-1.96,1.08-1.77,2.88.17,1.63.59,3.23.75,4.85.17,1.78.38,3.6.19,5.37-.26,2.45-1.72,4.39-3.44,6.1-1.21,1.2-2.51,2.32-3.68,3.57-1.84,1.97-1.89,3.67-.11,5.68,1.04,1.17,2.24,2.2,3.41,3.25,3.3,2.95,4.6,6.5,3.68,10.92-.43,2.05-.59,4.18-.62,6.28-.03,2,.35,2.42,2.31,2.92,1.81.46,3.67.82,5.52,1,4.36.43,7.47,2.47,9.22,6.55.59,1.38,1.25,2.75,2.03,4.03,2.02,3.31,2.47,3.44,5.95,1.94,1.87-.81,3.65-1.83,5.49-2.72,2.69-1.3,5.42-1.35,8.15-.1,1.09.5,2.15,1.1,3.24,1.61,1.39.65,2.79,1.3,4.21,1.88,1.15.48,2.18.26,2.86-.86,1.25-2.05,2.6-4.06,3.64-6.21,1.75-3.6,4.53-5.61,8.45-6.14,1.82-.24,3.67-.37,5.46-.77,2.56-.58,3.49-2.08,3.08-4.66-.24-1.49-.55-2.96-.83-4.44-.86-4.52.32-8.35,3.83-11.4.78-.68,1.6-1.33,2.35-2.05,2.97-2.9,2.94-4.84-.07-7.68-1.22-1.15-2.47-2.28-3.59-3.52-2.4-2.65-3.27-5.79-2.63-9.31.37-2.07.79-4.13,1.03-5.39Z"/>
      <path d="M63.15,33.57c1.64.08,3.27,0,4.84.26,4.14.67,6.87,4.65,6.01,8.74-1.13,5.37-2.32,10.72-3.55,16.07-.81,3.53-3.74,5.77-7.37,5.77-7.2,0-14.29-.85-21.29-2.56-.35-.09-.71-.15-1.1-.23-1.78,3.23-4.59,4.44-8.15,4.22-1.07-.07-2.14,0-3.22-.01-.87,0-1.74.02-2.61,0-1.48-.05-2.46-1-2.46-2.48-.02-9.05-.02-18.09,0-27.14,0-1.54.98-2.54,2.51-2.55,3.99-.03,7.97,0,11.96-.01,1.17,0,1.92.65,2.48,1.65,4.44-2.82,8.06-6.38,10.93-10.71.61-.92,1.15-1.89,1.7-2.84,1.44-2.5,3.77-3.49,6.56-2.78,2.81.72,4.84,3.11,4.88,5.8.04,2.76-.56,5.38-1.77,7.86-.13.27-.26.54-.39.81-.01.02.01.06.03.14ZM41.32,56.67c.17.08.28.15.41.18,7.04,1.81,14.2,2.7,21.47,2.7,1.41,0,2.32-.82,2.65-2.29,1.14-5.06,2.27-10.12,3.38-15.19.48-2.19-.68-3.6-2.93-3.6-2.85,0-5.7,0-8.55,0-1.35,0-2.21-.58-2.56-1.68-.39-1.23-.01-2.53,1.08-3.17,3.31-1.94,3.84-5.19,4.08-8.57.06-.81-.61-1.23-1.32-1.44-.67-.2-.94.26-1.22.76-3.77,6.86-9.05,12.25-15.86,16.12-.52.3-.66.65-.65,1.2.03,1.64,0,3.28,0,4.93,0,3.35,0,6.7,0,10.05ZM29.04,60.86c.14.06.2.11.26.11,1.34.01,2.68.02,4.02.02,2.24,0,3.16-.91,3.16-3.17,0-6.1,0-12.19,0-18.29,0-.32-.03-.65-.05-.98h-7.39v22.31Z"/>
    </g>
  </g>
</svg>