<?xml version="1.0" encoding="UTF-8"?>
<svg id="Layer_2" xmlns="http://www.w3.org/2000/svg" viewBox="0 0 53.37 49.99">
  <g id="Layer_1-2" data-name="Layer_1">
    <g>
      <path d="M26.65,49.98c-6.13,0-12.26.02-18.38,0-3.79-.02-7.06-2.59-8-6.26-.56-2.18-.24-4.26.85-6.23,2.94-5.33,5.87-10.67,8.8-16,3.12-5.67,6.23-11.33,9.35-17C20.84,1.62,23.26.06,26.51,0c3.36-.06,5.9,1.48,7.53,4.42,1.92,3.45,3.81,6.93,5.72,10.39,4.14,7.52,8.27,15.04,12.41,22.56,1.51,2.74,1.64,5.54.1,8.29-1.55,2.78-4.01,4.26-7.19,4.29-6.15.06-12.29.02-18.44.02ZM26.68,45.81c6.01,0,12.01.01,18.02-.02.66,0,1.37-.11,1.97-.36,2.3-.97,3.16-3.64,1.93-5.9-2.26-4.14-4.54-8.26-6.81-12.4-3.78-6.88-7.57-13.76-11.35-20.64-.46-.85-1.08-1.53-1.96-1.94-2.06-.97-4.38-.19-5.52,1.87-3.2,5.82-6.4,11.63-9.6,17.45-2.86,5.19-5.71,10.39-8.57,15.58-.58,1.05-.78,2.14-.45,3.31.53,1.86,2.14,3.04,4.17,3.04,6.06,0,12.11,0,18.17,0Z"/>
      <path d="M24.59,22.89c0-2.03,0-4.06,0-6.09,0-1.31.88-2.24,2.09-2.24,1.21,0,2.08.93,2.08,2.24,0,4.06,0,8.12,0,12.18,0,1.31-.88,2.24-2.09,2.24-1.21,0-2.08-.94-2.08-2.25,0-2.03,0-4.06,0-6.09Z"/>
      <path d="M26.68,39.56c-1.15,0-2.09-.93-2.09-2.08,0-1.15.93-2.08,2.08-2.09,1.15,0,2.09.93,2.09,2.08,0,1.15-.93,2.09-2.08,2.09Z"/>
    </g>
  </g>
</svg>