<?xml version="1.0" encoding="UTF-8"?>
<svg id="Layer_2" xmlns="http://www.w3.org/2000/svg" viewBox="0 0 33.9 45.23">
  <g id="Layer_1-2" data-name="Layer_1">
    <path d="M33.9,23.04c0,6.24,0,12.48,0,18.72,0,2.07-1.51,3.54-3.52,3.46-.93-.04-1.68-.46-2.33-1.11-3.16-3.17-6.33-6.33-9.49-9.5-.52-.53-1.12-.78-1.87-.71-.54.05-.96.32-1.34.7-3.19,3.2-6.39,6.39-9.59,9.58-1.32,1.31-3.27,1.39-4.63.22-.72-.62-1.07-1.42-1.13-2.36,0-.12,0-.24,0-.35C0,29.27,0,16.84,0,4.42,0,2.41,1.04.84,2.8.26,3.25.1,3.74.01,4.22.01,12.7,0,21.18,0,29.66,0c2.44,0,4.23,1.83,4.23,4.31.01,4.21,0,8.42,0,12.63,0,2.03,0,4.06,0,6.09ZM2.65,23.01c0,6.17,0,12.33,0,18.5,0,.13,0,.27,0,.4.04.57.56.84,1.04.54.15-.09.27-.23.39-.35,3.13-3.12,6.25-6.24,9.37-9.36,2.02-2.02,4.94-2.02,6.97,0,3.13,3.12,6.25,6.24,9.37,9.37.11.11.22.24.36.33.47.31,1.01.05,1.07-.51.01-.12,0-.24,0-.35,0-12.36,0-24.73,0-37.09,0-1.27-.56-1.83-1.83-1.83-8.3,0-16.61,0-24.91,0-1.3,0-1.85.55-1.85,1.85,0,6.17,0,12.33,0,18.5Z"/>
  </g>
</svg>