<?xml version="1.0" encoding="UTF-8"?>
<svg id="Layer_2" xmlns="http://www.w3.org/2000/svg" viewBox="0 0 43.66 52.4">
  <g id="Layer_1-2" data-name="Layer_1">
    <g>
      <path d="M21.83,32.74c5.05,0,10.1,0,15.15,0,3.36,0,6.03,2.24,6.61,5.54.05.3.07.61.07.92,0,3.65.01,7.3,0,10.95,0,1.24-.9,2.19-2.06,2.24-1.26.06-2.27-.91-2.28-2.23-.01-2.52,0-5.05,0-7.57,0-1.02,0-2.05,0-3.07,0-1.51-.88-2.4-2.38-2.4-10.06,0-20.13,0-30.19,0-1.49,0-2.37.89-2.37,2.4,0,3.51,0,7.03,0,10.54,0,1.26-.78,2.19-1.93,2.32-1.3.15-2.41-.85-2.42-2.23-.01-2.97-.01-5.93,0-8.9,0-1.04-.05-2.1.12-3.11.54-3.16,3.24-5.39,6.45-5.39,5.08,0,10.17,0,15.25,0Z"/>
      <path d="M21.83,19.65c-5.05,0-10.1,0-15.15,0-3.34,0-5.99-2.21-6.6-5.49-.05-.28-.08-.58-.08-.86C0,9.59,0,5.89.01,2.19.01,1.19.62.39,1.52.1c.87-.28,1.81.02,2.38.74.37.47.46,1.01.46,1.59,0,3.44,0,6.89,0,10.33,0,.34.03.69.12,1.01.25.86,1.04,1.44,1.94,1.49.14,0,.27,0,.41,0,10,0,19.99,0,29.99,0,1.02,0,1.82-.33,2.25-1.27.17-.37.22-.82.22-1.24.02-3.5,0-6.99.01-10.49,0-1.34.97-2.31,2.23-2.28,1.19.03,2.11.98,2.11,2.24.01,3.65,0,7.3,0,10.95,0,.37-.04.75-.11,1.12-.56,3.06-3.25,5.33-6.36,5.34-5.12.02-10.23,0-15.35,0Z"/>
      <path d="M15.24,28.37c-.72,0-1.43.02-2.15,0-1.24-.03-2.19-.98-2.18-2.18,0-1.19.95-2.15,2.19-2.17,1.47-.02,2.93-.02,4.4,0,1.22.02,2.14.96,2.16,2.15.02,1.19-.93,2.16-2.16,2.19-.75.02-1.5,0-2.25,0Z"/>
      <path d="M28.37,28.37c-.72,0-1.43.01-2.15,0-1.27-.03-2.23-.99-2.21-2.2.02-1.2.96-2.13,2.21-2.14,1.45-.02,2.9-.02,4.35,0,1.24.02,2.19.97,2.19,2.17,0,1.19-.95,2.14-2.19,2.17-.73.02-1.47,0-2.2,0Z"/>
      <path d="M3.29,24.02c.39,0,.78-.01,1.17,0,1.17.05,2.08.99,2.1,2.15.01,1.15-.9,2.13-2.07,2.18-.82.03-1.63.03-2.45,0-1.15-.05-2.02-1-2.03-2.15,0-1.18.88-2.12,2.05-2.18.41-.02.82,0,1.23,0Z"/>
      <path d="M40.4,24.03c.41,0,.82-.02,1.23,0,1.15.06,2.03,1,2.03,2.15,0,1.17-.88,2.14-2.05,2.18-.82.03-1.63.03-2.45,0-1.14-.05-2.03-1.01-2.05-2.14-.01-1.15.9-2.12,2.06-2.18.41-.02.82,0,1.23,0Z"/>
    </g>
  </g>
</svg>