<?xml version="1.0" encoding="UTF-8"?>
<svg id="Layer_2" xmlns="http://www.w3.org/2000/svg" viewBox="0 0 55.56 55.64">
  <g id="Layer_1-2" data-name="Layer_1">
    <g>
      <path d="M55.56,27.82c-.1,13.18-9.3,24.56-22.19,27.23-1.81.38-3.7.45-5.55.59-1.04.08-1.8-.66-1.81-1.6-.01-.93.73-1.62,1.78-1.65,9.39-.31,16.51-4.5,21.27-12.58,2.54-4.32,3.55-9.06,3.04-14.05-.93-9.15-5.59-15.81-13.73-20.02-3.17-1.63-6.59-2.38-10.15-2.47-.2,0-.4,0-.6-.01-.91-.05-1.62-.79-1.6-1.66C26.03.72,26.75,0,27.67,0c2.29-.01,4.55.27,6.77.83,10.69,2.67,18.91,11.57,20.65,22.4.24,1.51.32,3.06.47,4.59Z"/>
      <path d="M29.27,19.11c0,2.5,0,5,0,7.5,0,.37.11.64.37.9,4.03,4.01,8.05,8.04,12.07,12.06.42.42.72.88.66,1.48-.06.62-.36,1.1-.95,1.35-.6.25-1.17.18-1.69-.21-.14-.11-.27-.24-.4-.37-4.18-4.17-8.35-8.36-12.53-12.52-.55-.55-.8-1.15-.8-1.93.02-5.22,0-10.43.01-15.65,0-.93.39-1.56,1.11-1.81,1.08-.37,2.14.4,2.15,1.59.01,2.54,0,5.07,0,7.61Z"/>
      <path d="M4.41,38.16c.54.02,1.02.29,1.35.83.51.85,1.02,1.7,1.5,2.57.43.75.19,1.69-.51,2.16-.74.49-1.71.35-2.21-.4-.61-.93-1.2-1.89-1.69-2.9-.51-1.04.31-2.25,1.55-2.26Z"/>
      <path d="M22.63,2.45c0,.73-.4,1.33-1.11,1.57-.96.33-1.92.64-2.88.93-.84.25-1.68-.17-1.99-.97-.31-.79.03-1.72.84-2.04,1.04-.41,2.11-.76,3.19-1.04,1.01-.26,1.95.54,1.96,1.56Z"/>
      <path d="M3.83,21.7c-.2,1.04-.38,2.22-.68,3.37-.2.77-1.02,1.15-1.82,1.01-.75-.14-1.39-.86-1.29-1.64.15-1.16.37-2.32.65-3.45.19-.77,1.04-1.18,1.8-1.03.79.15,1.33.81,1.33,1.74Z"/>
      <path d="M14.16,6.17c.02.79-.23,1.23-.67,1.57-.74.58-1.47,1.17-2.21,1.74-.76.59-1.7.53-2.29-.14-.6-.68-.56-1.7.17-2.32.79-.68,1.62-1.32,2.46-1.95.52-.38,1.11-.4,1.69-.09.56.3.83.78.85,1.19Z"/>
      <path d="M7.69,13.12c-.12.3-.21.61-.37.88-.46.8-.95,1.58-1.42,2.37-.49.81-1.41,1.09-2.2.67-.8-.42-1.11-1.39-.65-2.24.5-.92,1.05-1.81,1.62-2.69.42-.65,1.15-.85,1.86-.61.67.23,1.1.86,1.15,1.61Z"/>
      <path d="M16.29,52.15c0-1.09,1.02-1.88,2.09-1.56.98.3,1.96.63,2.92.98.8.29,1.21,1.11,1.01,1.92-.2.8-.97,1.4-1.8,1.19-1.15-.29-2.27-.7-3.38-1.12-.56-.21-.84-.8-.84-1.41Z"/>
      <path d="M0,31.24c0-1.18.57-1.86,1.37-1.99.78-.13,1.61.35,1.79,1.15.25,1.11.45,2.23.58,3.36.09.8-.55,1.52-1.33,1.66-.77.13-1.6-.3-1.79-1.07-.29-1.13-.46-2.3-.62-3.11Z"/>
      <path d="M14.05,49.01c-.1,1.32-1.47,2.16-2.52,1.46-.97-.65-1.87-1.42-2.73-2.21-.61-.56-.54-1.56.01-2.16.55-.59,1.46-.73,2.12-.23.86.65,1.72,1.33,2.51,2.06.29.27.41.72.61,1.09Z"/>
    </g>
  </g>
</svg>