<?xml version="1.0" encoding="UTF-8"?>
<svg id="Layer_2" xmlns="http://www.w3.org/2000/svg" viewBox="0 0 48.97 48.97">
  <g id="Layer_1-2" data-name="Layer_1">
    <g>
      <path d="M24.49,48.97c-6.3,0-12.6,0-18.91,0C2.22,48.97,0,46.75,0,43.39c0-7.94,0-15.88,0-23.82,0-3.36,2.22-5.58,5.58-5.58,12.6,0,25.21,0,37.81,0,3.36,0,5.58,2.22,5.58,5.58,0,7.94,0,15.88,0,23.82,0,3.36-2.22,5.58-5.58,5.58-6.3,0-12.6,0-18.91,0ZM24.47,17.49c-6.3,0-12.6,0-18.91,0-1.41,0-2.06.65-2.06,2.08,0,7.94,0,15.88,0,23.82,0,1.41.66,2.08,2.07,2.08,12.6,0,25.21,0,37.81,0,1.45,0,2.09-.65,2.09-2.11,0-7.92,0-15.84,0-23.77,0-1.45-.65-2.1-2.09-2.1-6.3,0-12.6,0-18.91,0Z"/>
      <path d="M24.48,7c6.32,0,12.64,0,18.95.01.4,0,.84.09,1.2.27.67.34.97,1.17.79,1.87-.19.75-.83,1.29-1.6,1.34-.16.01-.33,0-.49,0-12.56,0-25.13,0-37.69,0-.25,0-.51,0-.76-.04-.88-.19-1.47-1.02-1.38-1.9.09-.86.81-1.52,1.69-1.56.16,0,.33,0,.49,0,6.26,0,12.53,0,18.79,0Z"/>
      <path d="M24.46,3.5c-5.19,0-10.38,0-15.57,0-1.35,0-2.23-1.15-1.79-2.33C7.36.47,7.88.09,8.62.01c.16-.02.33,0,.49,0,10.25,0,20.5,0,30.75,0,.29,0,.59,0,.86.08.83.23,1.35,1.04,1.25,1.88-.1.81-.78,1.46-1.61,1.53-.18.01-.36,0-.55,0-5.12,0-10.23,0-15.35,0Z"/>
      <path d="M15.74,31.42c0-2.24,0-4.48,0-6.72,0-1.61,1.27-2.4,2.72-1.68,4.52,2.25,9.04,4.52,13.56,6.77.71.35,1.19.85,1.2,1.67,0,.84-.48,1.36-1.21,1.72-4.52,2.25-9.04,4.51-13.56,6.77-1.44.72-2.7-.08-2.7-1.7,0-2.27,0-4.55,0-6.82ZM19.27,27.33v8.29c2.77-1.38,5.48-2.74,8.29-4.15-2.83-1.41-5.53-2.77-8.29-4.14Z"/>
    </g>
  </g>
</svg>