<?xml version="1.0" encoding="UTF-8"?>
<svg id="Layer_2" xmlns="http://www.w3.org/2000/svg" viewBox="0 0 59.37 52.79">
  <g id="Layer_1-2" data-name="Layer_1">
    <path d="M29.62,7.02c1.15-1.16,2.19-2.36,3.38-3.38,5.45-4.7,12.98-4.57,18.33-1.19,4.11,2.59,6.52,6.37,7.55,11.06,1.22,5.57.08,10.72-2.99,15.47-2.48,3.85-5.67,7.07-9.08,10.08-4.82,4.26-9.7,8.43-14.57,12.63-1.64,1.42-3.38,1.48-4.96.1-5.48-4.75-10.98-9.49-16.4-14.32-2.8-2.5-5.31-5.28-7.36-8.45C-.09,23.38-1.06,17.35,1.25,11.01,3.34,5.29,7.4,1.53,13.48.34c6.35-1.24,11.47,1.03,15.53,5.92.2.24.38.49.57.73.02.03.06.04.04.03ZM29.69,49.28c.13-.11.21-.17.28-.23,4.73-4.09,9.49-8.14,14.18-12.28,3.25-2.86,6.33-5.89,8.73-9.54,2.27-3.45,3.39-7.21,2.87-11.36-.56-4.5-2.49-8.25-6.49-10.6-3.75-2.2-7.7-2.48-11.67-.54-2.52,1.23-4.39,3.21-5.8,5.59-1.04,1.76-3.13,1.78-4.19.03-.65-1.08-1.46-2.1-2.33-3.01-3.11-3.24-6.92-4.51-11.32-3.56-4.79,1.03-7.93,4.07-9.52,8.65-1.82,5.27-.94,10.22,2.09,14.84,1.9,2.89,4.23,5.42,6.79,7.72,3.87,3.49,7.82,6.89,11.74,10.32,1.52,1.33,3.07,2.64,4.63,3.98Z"/>
  </g>
</svg>