<?xml version="1.0" encoding="UTF-8"?>
<svg id="Layer_2" xmlns="http://www.w3.org/2000/svg" viewBox="0 0 52.41 52.36">
  <g id="Layer_1-2" data-name="Layer_1">
    <g>
      <path d="M21.75,9.7c-.22-.23-.35-.39-.49-.53-1.99-1.99-3.98-3.98-5.98-5.98-.52-.52-.75-1.14-.53-1.87.2-.71.68-1.13,1.39-1.29.72-.15,1.29.13,1.8.63,2.59,2.6,5.19,5.2,7.79,7.79.15.15.3.29.47.45.17-.16.32-.3.47-.44,2.63-2.62,5.25-5.25,7.88-7.87.52-.52,1.14-.74,1.87-.52.71.21,1.13.69,1.28,1.39.14.69-.11,1.26-.6,1.75-2,1.99-3.99,3.98-5.98,5.98-.13.13-.25.27-.46.49.31,0,.51,0,.71,0,3.9,0,7.81,0,11.71,0,5.29,0,9.31,3.96,9.32,9.26.02,8.05.02,16.1,0,24.16-.01,5.24-3.98,9.22-9.22,9.23-11.31.02-22.62.02-33.93,0C3.97,52.33.02,48.34.01,43.07c-.01-8.03-.02-16.07,0-24.1.01-5.29,4.02-9.26,9.31-9.26,3.9,0,7.81,0,11.71,0,.2,0,.4,0,.72,0ZM26.2,48.69c5.6,0,11.2,0,16.79,0,3.42,0,5.74-2.31,5.74-5.73,0-7.96,0-15.92,0-23.88,0-3.4-2.35-5.72-5.76-5.72-11.18,0-22.35,0-33.53,0-3.45,0-5.77,2.32-5.77,5.77,0,7.94,0,15.88,0,23.82,0,.42,0,.84.09,1.25.53,2.72,2.71,4.48,5.59,4.49,5.62,0,11.23,0,16.85,0Z"/>
      <path d="M19.23,31.01c0-1.47,0-2.93,0-4.4.02-3.26,3.3-5.37,6.24-3.97,2.62,1.25,5.23,2.55,7.8,3.9,2.88,1.51,3.18,5.49.53,7.36-2.61,1.84-5.27,3.62-7.98,5.31-2.87,1.79-6.55-.31-6.6-3.7-.02-1.5,0-3.01,0-4.51ZM22.89,30.96c0,1.43-.02,2.86.02,4.28,0,.29.18.7.41.83.2.12.63,0,.87-.15,2.42-1.58,4.82-3.19,7.23-4.8.77-.51.73-1.08-.09-1.49-2.4-1.2-4.79-2.4-7.19-3.59-.76-.38-1.23-.09-1.23.75,0,1.39,0,2.78,0,4.17Z"/>
    </g>
  </g>
</svg>