<?xml version="1.0" encoding="UTF-8"?>
<svg id="Layer_2" xmlns="http://www.w3.org/2000/svg" viewBox="0 0 23.28 42.64">
  <g id="Layer_1-2" data-name="Layer_1">
    <path d="M18.73,21.36c-.34-.29-.52-.42-.68-.58C12.3,15.04,6.55,9.29.81,3.52c-.35-.35-.64-.85-.76-1.32C-.15,1.45.3.65.98.26c.68-.39,1.54-.33,2.16.16.17.14.33.3.48.46,6.25,6.25,12.5,12.5,18.75,18.75,1.2,1.2,1.21,2.18.02,3.37-6.29,6.29-12.59,12.58-18.88,18.88-.62.62-1.31.94-2.18.65-1.27-.42-1.74-1.96-.92-3.01.15-.19.33-.36.5-.53,5.72-5.72,11.44-11.45,17.17-17.16.15-.15.36-.26.65-.47Z"/>
  </g>
</svg>