<?xml version="1.0" encoding="UTF-8"?>
<svg id="Layer_2" xmlns="http://www.w3.org/2000/svg" viewBox="0 0 56.98 56.94">
  <g id="Layer_1-2" data-name="Layer_1">
    <g>
      <path d="M25.35,33.32c0-.22,0-.43,0-.65,0-9.71,0-19.41,0-29.12,0-1.1.26-2.06,1.12-2.78.97-.8,2.06-.99,3.22-.52,1.16.47,1.82,1.36,1.95,2.61.03.29.03.59.03.89,0,9.63,0,19.26,0,28.89v.82c.25-.24.38-.37.52-.5,2.23-2.23,4.45-4.45,6.68-6.68.89-.89,1.96-1.18,3.16-.84,1.19.33,1.94,1.15,2.2,2.34.27,1.2-.12,2.22-.99,3.08-2.35,2.34-4.69,4.69-7.04,7.03-1.72,1.72-3.43,3.43-5.15,5.15-1.67,1.67-3.43,1.67-5.09.01-4.05-4.05-8.09-8.1-12.15-12.14-.9-.89-1.33-1.92-1.04-3.16.28-1.2,1.04-2,2.23-2.32,1.18-.32,2.24-.03,3.11.84,2.23,2.22,4.46,4.45,6.68,6.68.14.14.2.35.3.53l.24-.17Z"/>
      <path d="M28.48,56.93c-5.22,0-10.45,0-15.67,0-6.11-.01-11.16-4.06-12.48-10.01-.46-2.07-.35-4.17-.22-6.25.1-1.61,1.64-2.79,3.2-2.72,1.69.08,3.01,1.38,3.07,3.07.03,1.04,0,2.07.01,3.11.02,3.72,2.73,6.46,6.46,6.46,10.45.01,20.89.01,31.34,0,3.73,0,6.43-2.74,6.45-6.47,0-.98,0-1.96,0-2.94.02-1.83,1.43-3.25,3.19-3.23,1.75.02,3.14,1.42,3.13,3.22-.01,1.99.13,3.99-.32,5.97-1.25,5.54-6.31,9.72-12,9.77-5.39.05-10.78.01-16.17.01h0Z"/>
    </g>
  </g>
</svg>