<?xml version="1.0" encoding="UTF-8"?>
<svg id="Layer_2" xmlns="http://www.w3.org/2000/svg" viewBox="0 0 49.95 49.94">
  <g id="Layer_1-2" data-name="Layer_1">
    <g>
      <path d="M8.15,7.66c.15,0,.31.02.46.02,1.04,0,2.08-.01,3.12,0,1.05.02,1.84.81,1.91,1.84.06.98-.66,1.85-1.68,2.02-.19.03-.39.04-.58.04-2.36,0-4.71,0-7.07,0-1.48,0-2.25-.77-2.25-2.26,0-2.45,0-4.91,0-7.36,0-.95.6-1.69,1.51-1.91.84-.21,1.75.18,2.14.97.15.31.22.68.24,1.03.04.69.01,1.38.01,2.12.74-.52,1.4-1.04,2.11-1.48C10.87.91,13.93.02,17.25.01c5.14-.01,10.27-.02,15.41,0,8.29.04,15.25,5.74,16.93,13.88.23,1.12.33,2.29.34,3.43.04,5.09.03,10.17.01,15.26-.03,8.32-5.73,15.31-13.87,16.99-1.15.24-2.35.33-3.53.34-5.04.04-10.08.02-15.11.01-8.34-.02-15.31-5.66-17.04-13.81-.21-.99-.33-2.03-.35-3.04-.05-2.7-.03-5.39-.02-8.09,0-.98.66-1.75,1.6-1.94.87-.17,1.8.32,2.13,1.17.11.29.16.63.16.95.01,2.44,0,4.87,0,7.31,0,6.23,3.92,11.42,9.92,13.07,1.11.31,2.3.45,3.46.46,5.12.05,10.24.04,15.36.02,6.72-.03,12.31-4.92,13.25-11.56.09-.63.12-1.26.12-1.89,0-5.07.02-10.14,0-15.21-.02-6.5-4.46-11.9-10.83-13.18-.81-.16-1.64-.25-2.47-.25-5.18-.02-10.37-.03-15.55,0-3.33.02-6.25,1.2-8.76,3.37-.11.09-.25.15-.37.22.03.05.07.1.1.15Z"/>
      <path d="M23.02,19.2c0-1.85,0-3.7,0-5.56,0-1.26.82-2.14,1.97-2.13,1.13,0,1.93.88,1.93,2.12,0,3.35,0,6.69,0,10.04,0,.36.11.6.36.84,2.21,2.2,4.42,4.41,6.62,6.61.53.53.8,1.13.65,1.89-.28,1.4-1.88,2.04-3.04,1.21-.17-.12-.32-.27-.47-.42-2.41-2.41-4.82-4.83-7.24-7.23-.54-.54-.8-1.14-.79-1.91.03-1.82,0-3.64,0-5.46Z"/>
    </g>
  </g>
</svg>