<?xml version="1.0" encoding="UTF-8"?>
<svg id="Layer_2" xmlns="http://www.w3.org/2000/svg" viewBox="0 0 44.91 44.9">
  <g id="Layer_1-2" data-name="Layer_1">
    <path d="M4.83,26.6c-.52-.04-.99-.04-1.45-.13-1.57-.31-2.64-1.23-3.15-2.73-.51-1.51-.19-2.88.85-4.09.1-.11.2-.21.3-.32C7.39,13.33,13.38,7.33,19.39,1.34c.38-.38.82-.71,1.29-.96,1.24-.65,3.49-.51,4.62.67.65.69,1.35,1.34,2.02,2.02,5.41,5.41,10.82,10.81,16.22,16.24.4.4.79.86,1,1.37,1.17,2.85-.58,5.75-3.63,5.88-.23,0-.47,0-.78,0,0,.19,0,.36,0,.52,0,4.3,0,8.6,0,12.9,0,2.35-1.5,4.25-3.75,4.78-.41.1-.84.13-1.26.13-2.25.01-4.51,0-6.76,0-1.05,0-1.57-.51-1.57-1.55,0-3.35-.04-6.7.02-10.05.02-1.46-.97-2.57-2.54-2.51-1.24.05-2.49,0-3.73.01-1.47,0-2.37.91-2.37,2.39,0,3.36,0,6.73,0,10.09,0,1.14-.49,1.63-1.63,1.63-2.22,0-4.45,0-6.67,0-2.95,0-5.03-2.08-5.04-5.02,0-4.24,0-8.48,0-12.73,0-.17,0-.35,0-.55ZM29.44,42.26h.53c1.67,0,3.34-.05,5,.01,1.5.06,2.57-.99,2.56-2.55-.05-4.77-.02-9.54-.02-14.3,0-.96.53-1.49,1.49-1.5.63,0,1.26.01,1.89,0,.59-.02,1.03-.32,1.28-.85.27-.55.2-1.08-.17-1.57-.12-.16-.27-.3-.42-.45-5.93-5.93-11.85-11.85-17.78-17.78-.94-.93-1.69-.93-2.63,0-5.41,5.41-10.82,10.82-16.23,16.23-.61.61-1.23,1.22-1.83,1.83-.46.47-.6,1.04-.34,1.65.26.61.74.92,1.41.92.56,0,1.11,0,1.67,0,1.13,0,1.62.49,1.62,1.64,0,4.78,0,9.57,0,14.35,0,1.44.92,2.35,2.36,2.35,1.74,0,3.48,0,5.22,0h.48c0-.22,0-.39,0-.56,0-2.98-.03-5.97.02-8.95.04-2.31,1.91-4.37,4.22-4.52,1.82-.12,3.65-.02,5.48-.02.12,0,.23.03.35.05,2.3.52,3.82,2.4,3.84,4.8.02,2.87,0,5.73,0,8.6,0,.17,0,.35,0,.6Z"/>
  </g>
</svg>