<?xml version="1.0" encoding="UTF-8"?>
<svg id="Layer_2" xmlns="http://www.w3.org/2000/svg" viewBox="0 0 53.33 51.3">
  <g id="Layer_1-2" data-name="Layer_1">
    <g>
      <path d="M43.31,42.83c1.12,1.43,2.22,2.83,3.31,4.25.77,1,.86,2.06.28,3-.95,1.56-3.02,1.64-4.22.15-1-1.25-1.97-2.52-2.95-3.78-.11-.14-.22-.27-.36-.45-3.87,2.47-8.1,3.75-12.69,3.76-4.59,0-8.82-1.27-12.73-3.76-.59.75-1.15,1.47-1.71,2.19-.54.7-1.07,1.41-1.64,2.09-.72.87-1.64,1.23-2.74.9-1.03-.3-1.62-1.04-1.78-2.09-.11-.75.14-1.4.6-1.98.95-1.22,1.9-2.44,2.85-3.65.16-.2.31-.41.48-.62-5.08-5.4-7.37-11.76-6.56-19.12.66-6.02,3.37-11.04,7.94-15.01,9.22-8,22.99-7.52,31.74,1.1,8.83,8.7,9.51,23.45.18,33.03ZM26.68,7.52c-10.36-.02-18.85,8.45-18.88,18.84-.03,10.37,8.41,18.84,18.82,18.89,10.36.05,18.9-8.46,18.91-18.86,0-10.37-8.46-18.85-18.85-18.87Z"/>
      <path d="M15.01,2.16C10.76,6.52,6.53,10.86,2.3,15.19-.69,11.9-.95,6.38,2.63,2.73,5.98-.69,11.71-.91,15.01,2.16Z"/>
      <path d="M51,15.22c-4.26-4.36-8.48-8.68-12.7-13,2.53-2.55,8.12-3.42,12.06.19,3.92,3.59,3.75,9.41.63,12.81Z"/>
      <path d="M17.78,25.02c1.74,0,3.47,0,5.21,0,.3,0,.43-.12.61-.35.37-.47.79-.91,1.25-1.28.25-.2.36-.36.35-.67-.01-1.98-.01-3.96,0-5.94,0-1.15.97-1.88,1.99-1.54.64.21,1.02.79,1.02,1.59,0,1.96,0,3.92-.01,5.89,0,.35.08.55.4.75,1.22.78,1.79,2.18,1.52,3.61-.26,1.37-1.34,2.47-2.72,2.77-1.38.3-2.81-.24-3.6-1.42-.22-.32-.44-.41-.8-.41-3.33,0-6.67,0-10-.02-.21,0-.42,0-.62-.03-.8-.09-1.37-.74-1.34-1.52.03-.78.62-1.42,1.43-1.44,1.42-.03,2.85,0,4.27,0,.35,0,.69,0,1.04,0h0Z"/>
    </g>
  </g>
</svg>