<?xml version="1.0" encoding="UTF-8"?>
<svg id="Layer_2" xmlns="http://www.w3.org/2000/svg" viewBox="0 0 49.47 49.46">
  <g id="Layer_1-2" data-name="Layer_1">
    <g>
      <path d="M49.47,24.75c-.02,13.65-11.1,24.72-24.74,24.71C11.06,49.46-.05,38.33,0,24.69.05,11.02,11.13-.03,24.77,0c13.66.03,24.72,11.11,24.7,24.75ZM24.74,45.32c11.37,0,20.57-9.19,20.59-20.57.02-11.38-9.22-20.62-20.59-20.61-11.36,0-20.57,9.2-20.59,20.57-.02,11.37,9.21,20.61,20.59,20.61Z"/>
      <path d="M20.66,24.77c0-2.4,0-4.79,0-7.19,0-.59.12-1.09.68-1.38.57-.29,1.05-.08,1.52.26,3.28,2.39,6.56,4.77,9.83,7.15.97.71.97,1.59-.02,2.31-3.28,2.38-6.56,4.76-9.84,7.15-.46.33-.93.52-1.48.26-.57-.27-.71-.77-.7-1.36.01-2.4,0-4.79,0-7.19Z"/>
    </g>
  </g>
</svg>