<?xml version="1.0" encoding="UTF-8"?>
<svg id="Layer_2" xmlns="http://www.w3.org/2000/svg" viewBox="0 0 49.64 49.65">
  <g id="Layer_1-2" data-name="Layer_1">
    <g>
      <path d="M24.82,49.64c-5.18,0-10.37,0-15.55,0-4.34-.01-8-2.9-9-7.12-.16-.68-.25-1.4-.25-2.11C0,30.03,0,19.64,0,9.26.01,4.12,4.1.02,9.24.01c10.39-.02,20.77-.02,31.16,0,5.14,0,9.23,4.1,9.24,9.24.01,10.37.01,20.74,0,31.11,0,5.17-4.09,9.26-9.26,9.27-5.18.02-10.37,0-15.55,0ZM3.43,15.69v.5c0,8,0,15.99,0,23.99,0,3.49,2.52,6.03,6.02,6.03,10.24,0,20.48,0,30.72,0,3.53,0,6.04-2.53,6.04-6.06,0-7.98,0-15.96,0-23.94,0-.17-.01-.34-.02-.53H3.43ZM31.1,3.45c.07.13.11.21.17.29,2.02,2.74,4.04,5.49,6.08,8.22.11.15.37.26.56.26,2.63.02,5.27.01,7.9,0,.12,0,.25-.02.47-.04-.05-1.36.03-2.72-.19-4.02-.47-2.81-2.87-4.72-5.78-4.73-2.91-.02-5.81,0-8.72,0-.14,0-.28.01-.47.02ZM18.53,12.2c-.05-.09-.07-.15-.1-.2-2.05-2.78-4.1-5.56-6.16-8.34-.09-.13-.31-.22-.48-.23-.87-.02-1.74-.03-2.62,0-2.53.07-4.63,1.61-5.43,3.96-.53,1.57-.24,3.19-.32,4.81h15.11ZM16.42,3.43c.08.15.12.24.17.31,2.02,2.74,4.04,5.48,6.08,8.21.12.15.4.26.6.26,3.18.02,6.36.01,9.54.01.12,0,.24-.02.36-.03-.02-.07-.02-.11-.04-.13-2.07-2.81-4.13-5.61-6.21-8.41-.09-.12-.29-.21-.44-.21-3.33-.01-6.65,0-10.07,0Z"/>
      <path d="M17.84,30.94c0-2.54,0-5.07,0-7.61,0-1.63,1.34-2.41,2.75-1.6,4.37,2.52,8.75,5.04,13.12,7.57,1.5.87,1.5,2.4.01,3.26-4.36,2.52-8.72,5.03-13.08,7.55-1.47.85-2.8.08-2.8-1.61,0-2.52,0-5.04,0-7.56ZM21.27,35.79c2.83-1.64,5.58-3.22,8.4-4.85-2.85-1.64-5.6-3.23-8.4-4.85v9.7Z"/>
    </g>
  </g>
</svg>